<?xml version="1.0" encoding="utf-8"?>
<!-- Generator: Adobe Illustrator 19.2.0, SVG Export Plug-In . SVG Version: 6.00 Build 0)  -->
<svg version="1.1" id="Background" xmlns="http://www.w3.org/2000/svg" xmlns:xlink="http://www.w3.org/1999/xlink" x="0px" y="0px"
	 width="864px" height="1296px" viewBox="0 0 864 1296" style="enable-background:new 0 0 864 1296;" xml:space="preserve">
<style type="text/css">
	.st0{fill:#95D5D2;}
	.st1{fill:#23BDBD;}
	.st2{fill:#E0CB9D;}
	.st3{fill:#AF8861;}
</style>
<g>
	<path class="st0" d="M873-9.6V264H-9V-9.6h80c-0.2,0.5-0.2,1.1,0.2,1.5c28.4,34.6,73.9,42.1,95.3,43.7v0
		c10.7,0.9,14.2,0.8,14.2,0.8l0,0c1.9,0.1,4.3,0,7.2-0.2c3.1-0.3,8.2-0.7,13.8-1.1c-0.7,8.6-1.4,17.2-2.3,25.7
		c-8.4,0.5-9.2,1-16.5,2.1c-1,0.1-2,0.5-1.7,1.9c0.3,1.6,2.5,1,5,0.8c1.9-0.2,8.6-0.8,12.9-1.1c-0.1,3.7-0.2,9.1-0.5,16.3
		c-0.3,10,3.7,11,5.2,10.7c0.2,0,0.4-0.1,0.5-0.2c0.6-0.5-0.1-1.5-0.3-2.5c-0.9-5.8-1.1-8.1-0.6-15c0.1-1.6,0.3-5.5,0.5-9.5
		c6-0.2,17.5-0.4,17.5-0.4c-0.1,0,4.2,0.2,4.3-1.2c0.1-2.1-5-2-5-2c-0.1,0-7.4-0.6-16.7-0.2c0.5-8.5,1.9-22.4,1.9-25.8
		c8.5-0.5,17.3-1.1,21.9-1.1h15c0,0,4.6,0.5,4.7-0.9c0.1-1.5-1.9-2.7-4.5-2.8c-19-0.7-21.3-0.4-37.4,1.1c-0.1-1.1-0.5-1.9-1.3-2
		c-0.9-0.1-1.5,0.9-1.9,2.2c-15.9,1.5-19.6,1.7-23.8,1.8c-0.8,0-1.6-0.1-2.2,0c-11,0-69-2.1-102.6-42.6H873z"/>
</g>
<path class="st1" d="M873.6,189.1V1307H-9V185.7c7.5-0.6,48.3-5.4,72.3-44.1c0.2-0.3,0.4-0.4,0.7-0.4c0.3,0,0.5,0.2,0.7,0.5
	c0.2,0.4,20.8,44.2,72.4,44.6c0,0,0,0,0,0c1.3,0,47.4-2.1,73.5-44.1c0.2-0.3,0.4-0.4,0.7-0.4c0.3,0,0.5,0.2,0.7,0.5
	c0.2,0.4,20.8,44.2,72.4,44.6c0,0,0,0,0,0c1.3,0,47.4-2.1,73.5-44.1c0.2-0.3,0.4-0.4,0.7-0.4c0.3,0,0.5,0.2,0.7,0.5
	c0.2,0.4,20.8,44.2,72.4,44.6c0,0,0.1,0,0.1,0c0,0,0,0,0,0c3.3-0.2,47.8-3,73.3-44.1c0.2-0.3,0.4-0.4,0.7-0.4c0.3,0,0.5,0.2,0.7,0.5
	c0.2,0.4,20.8,44.2,72.4,44.6c0,0,0,0,0,0c1.4-0.1,47.4-2.1,73.5-44.1c0.2-0.3,0.4-0.4,0.7-0.4c0.3,0,0.5,0.2,0.7,0.5
	c0.2,0.4,20.8,44.2,72.4,44.6c0,0,0,0,0,0c1.2,0,47.4-2,73.5-44.1c0.2-0.3,0.4-0.4,0.7-0.4c0.3,0,0.5,0.2,0.7,0.5
	C801.4,144.9,822,188.7,873.6,189.1z"/>
<g>
	<path class="st2" d="M-9,1307v-39.2c0,0,13.9-2.2,35.6-3.3c15-0.8,33.8-1,54.2,0.3c0,0,11.7,0.2,26.7,0.9
		c17.4,0.8,39.3,2.1,52.9,4.5c0,0,29.7,5,68.7-3.2c0,0,1.7-1,6.1-2.1h0c8-1.9,24.7-3.9,55.6,0.1c0,0,0,0,0,0
		c1.2,0.2,2.4,0.3,3.6,0.5c0,0,59.7,7.8,117.7,1c1.9-0.2,3.8-0.5,5.7-0.7c0,0,27.7-4.7,60.8-0.9c5,0.6,10.1,1.3,15.2,2.3
		c0,0,42.7,10.6,60.3,2.3c0,0,2.1-1.1,5.4-2.5c8.3-3.7,24.3-10.1,33.6-9.1c0,0,14.3-1.3,27.7,3c0,0,8.3,2.4,19.5,4.7l0,0
		c11,2.3,24.8,4.5,35.8,4.3c0,0,97.6,10.3,197.5,4.3v32.9"/>
	<path class="st3" d="M26.6,1264.4c-21.7,1.1-35.6,3.3-35.6,3.3v-3.3C-9,1264.4,14,1261.8,26.6,1264.4z"/>
	<path class="st3" d="M235.2,1264.9c-4.4,1-6.1,2.1-6.1,2.1c-39,8.2-68.7,3.2-68.7,3.2c-13.6-2.3-35.5-3.7-52.9-4.5l0,0
		C107.5,1265.6,207.3,1263.7,235.2,1264.9z"/>
	<path class="st3" d="M412.1,1266.5c-58,6.8-117.7-1-117.7-1c-1.2-0.2-2.4-0.3-3.6-0.5c1.2,0,35.1-1,44.3,1.5c0,0,15.3,1.2,21.7-1.7
		c0,0,10-2.2,15.7,1c0,0,5.7,2.5,13-0.4C385.5,1265.3,397.1,1262.5,412.1,1266.5z"/>
	<path class="st3" d="M559.6,1266.9c-3.3,1.5-5.4,2.5-5.4,2.5c-17.7,8.3-60.3-2.3-60.3-2.3c-5.1-1-10.2-1.8-15.2-2.3
		c1-0.1,21.1-1,28.9,1.6c0,0,14,1.5,18.7-0.9C526.1,1265.5,550.6,1261.7,559.6,1266.9z"/>
	<path class="st3" d="M873.6,1264.2v9.9c-99.9,6-197.5-4.3-197.5-4.3c-11.1,0.2-24.8-2.1-35.8-4.3l0,0c0,0,32.5-1.7,36.5,0
		c0,0,16,0.5,18.3-0.7C695.1,1264.7,756.4,1265.9,873.6,1264.2z"/>
</g>
<path class="st0" d="M315.6-9.6H73.8C107.4,31,165.4,33,176.4,33c0.6-0.2,1.4,0,2.2,0c4.2-0.1,7.9-0.3,23.8-1.8
	c0.4-1.3,1-2.3,1.9-2.2c0.8,0.1,1.2,0.9,1.3,2c16.1-1.5,18.4-1.8,37.4-1.1c2.6,0.1,4.6,1.3,4.5,2.8c-0.1,1.4-4.7,0.9-4.7,0.9h-15
	c-4.6,0-13.4,0.6-21.9,1.1c0,3.4-1.4,17.3-1.9,25.8c9.3-0.4,16.6,0.2,16.7,0.2c0,0,5.1-0.1,5,2c-0.1,1.4-4.4,1.2-4.3,1.2
	c0,0-11.5,0.2-17.5,0.4c-0.2,4-0.4,7.9-0.5,9.5c-0.5,6.9-0.3,9.2,0.6,15c0.2,1,0.9,2,0.3,2.5c-0.1,0.1-0.3,0.1-0.5,0.2
	c-1.5,0.3-5.6-0.7-5.2-10.7c0.3-7.2,0.4-12.6,0.5-16.3c-4.3,0.3-11,0.9-12.9,1.1c-2.5,0.2-4.7,0.8-5-0.8c-0.3-1.4,0.7-1.8,1.7-1.9
	c7.3-1.1,8.1-1.6,16.5-2.1c0.9-8.5,1.6-17.1,2.3-25.7c-5.6,0.4-10.7,0.8-13.8,1.1c-2.9,0.2-5.3,0.3-7.2,0.2l0,0
	c0,0-3.5,0.2-14.2-0.8v0C145,34.1,99.6,26.5,71.2-8c-0.4-0.5-0.4-1-0.2-1.5H12.6v-1h303V-9.6z"/>
<g>
</g>
<g>
</g>
<g>
</g>
<g>
</g>
<g>
</g>
<g>
</g>
</svg>
