<svg xmlns="http://www.w3.org/2000/svg" width="448.5" height="333" viewBox="0 0 448.5 333"><style type="text/css">.st0{fill:#9FC195;} .st1{fill:#7D6F78;} .st2{fill:#95D5D2;stroke:#95D5D2;stroke-miterlimit:10;} .st3{fill:#23BDBD;} .st4{fill:#FFFFFF;stroke:#169293;stroke-width:0.5;stroke-linecap:round;stroke-linejoin:round;stroke-miterlimit:10;} .st5{fill:none;stroke:#169293;stroke-width:0.5;stroke-linecap:round;stroke-linejoin:round;stroke-miterlimit:10;} .st6{fill:#0094B0;} .st7{fill:#169293;stroke:#169293;stroke-width:0.5;stroke-linecap:round;stroke-linejoin:round;stroke-miterlimit:10;} .st8{fill:#0094B0;stroke:#169293;stroke-width:0.5;stroke-linecap:round;stroke-linejoin:round;stroke-miterlimit:10;} .st9{fill:none;stroke:#007D95;stroke-width:0.5;stroke-linecap:round;stroke-miterlimit:10;} .st10{fill:none;stroke:#169293;stroke-width:0.25;stroke-linecap:round;stroke-linejoin:round;stroke-miterlimit:10;} .st11{fill:#FFFFFF;}</style><path class="st0" d="M49.6 63.8l-45.9 51.7 2.5 3s1.3 1.7 1.2 3.8l-.3 9s-.4 2.5 1.5 2.5c0 0 4.6.7 4.8-1.2 0 0 1.7-3.3 4.8 2.5 0 0-1.7 3.3-1 6.5 0 0 .6 9-1.6 18.6 0 0-.9 1.9.1 2.8 0 0 4.5 4.9 3.3 8 0 0-2.3.6-2.9 2.6 0 0-.7 3.5-4.4 2.9 0 0-1.6-.6-1 1 0 0 2.3 4.9.1 8.8 0 0-.9 1.3.6 1.3 0 0 3.9-.1 2.5 1.5 0 0-2.9 1.6-1.3 3.6 0 0 1.9 1.7.1 2.5 0 0-2.2 1-.3 3.3 0 0 2.2 1 .4 2.6 0 0-5.5 6.7-1.7 11.3 0 0 3.8.1 3 3.6 0 0-.9 3.2 1.9 3.5 0 0 3.5.3 2.2 4.2 0 0-2.2 3.9 1.6 5.2 0 0 5.1 1.9 2.5 4.8 0 0-1.5 4.2 3.2 4.5 0 0 73.1 32.2 141 29.3 0 0 3-.5 3.3 1.1 0 0 1.3 4 6.8 2.5 0 0 3.1-2.1 3.6.3 0 0-.9 1.9 1.6 1.6 0 0 2.1-.7 4.3 1 0 0 1.3 1.4 2.6 0 0 0 1.6-1.6 4-.3 0 0 4.9 2.3 6.1-1.1 0 0 .5-2.1 2-1.7 0 0 1.9.8 2-.7 0 0-.2-2.2 1.4-3.4h9.4l2.7 4.7s.4 1.3 1.2 1.3h4s1.3.1 1.4.9c0 0 3.7 9.1 5.6 9.6 0 0 6.3 2.9 16.2.5 0 0 6.1-1.2 6.4 2 0 0-.2 1.3 1.4 1.6 0 0 5.4 2.8 1.6 6.3 0 0-3 1.4-4.3-2.2 0 0-2.4-3.6-4.8-2 0 0-1.3 1.5 2 3.3 0 0 2.6 1.8.3 3.6 0 0-2.6 1.3-1.4 3.9 0 0 2.6 2.9.2 4.5l-2.9 2.9s-1.1.9-.2 1.8c0 0 2.3 2.1.3 3.8 0 0-2.7 1.3-1.5 2.6 0 0 2.9 2.1 6.3-.9 0 0 1.5-1.3 2.5-2.8 0 0 2-2.9 5.5-2.4 0 0 1.9.3 2.5-.1 0 0 .8-.5-.3-1.1 0 0-1.1-.4-.1-1 0 0 1.7-1 4.2-.9 0 0 4.5-.9 3-3.7 0 0-1.3-2.2-3.4-1.3 0 0-1.7 2-2.9.2 0 0-1.5-1.9 1.3-3.3 0 0 1.6-.9 3.1-1.1 0 0 2.2 1 3.4-.9 0 0 1.6-2.6 4.2-2.4 0 0 3.5-.2 4.4-2.3 0 0 1-1.7 2.4-2.1 0 0 2.4-.5 2.5-1.9l2.3-4.4s.2-1.4 1.6-1.4c0 0 3.4-.7 3.4-1.3 0 0 1.7-1.1 3.9-1.2 0 0 .6-.9 2.5-.9 0 0 7.8-.7 8-4.3 0 0-.3-1.7 1.1-2.2l2.2-1.5s1.4-.7 1.1-2.4c0 0 .2-9.4-.7-13.4 0 0-.4-2 1.5-1.9 0 0 3.4 1.4 4.5-.8 0 0 1.3-1.7 3.1.1 0 0 2.9 4.8 3.4 8 0 0 .5 1.9 2 2.2 0 0 .6 0 1.3.8l3.9 3.7s2.7 1.6 3.7-.7c0 0 .9-4.2 3.2-7.2 0 0 1.4-.7 1.6-2.3 0 0 1.2-3.2 1.9-3.9 0 0 1.1-1.3 1.1 0v2s.7 1.2 1.5 1.4l-2 1.3s-.5.1-.4.7c0 0 .3 2.2-.8 3l-3 2.7s-1.3 1.3-.3 2.6c0 0 1.9 1.1 1.1 3.2 0 0-.3 2.3 2 2.3l3-.1s1-.7 2.2-.2c0 0 2 .3 1.8-1.5 0 0-.3-1.6 0-2.8 0 0 .3-.5 0-1.5 0 0-.8-3 .9-4.2 0 0 3-.4 2.3-2.7 0 0-.8-2.3 1.5-2.5 0 0 2.5.1 3.1-2.1 0 0 .3-2.4 2.2-2.9 0 0 4.2-1.7 5.2-3.8 0 0 1.2-.8-4.5-3 0 0-4.4-.7-5.4 2 0 0-2.5 3.9-8.5 2.5 0 0-2-.4-3-1 0 0-1.8-.9-2.9-1.1 0 0-4.6-1.3-4.2-6.5 0 0 .3-3.4-3.2-2.3 0 0-.9 1.8-2.6 2.3 0 0-2.6.4-4.1-.9 0 0 2.7-.1 2.9-.8 0 0 1-.8 1.5-.5 0 0 2.2-.8 1.7-2.2 0 0-.5-1.1 2.9-2.4 0 0 3.3-1.5-2.2-4.6 0 0-2.2.5-3.3-.8 0 0-1.4-.9-4.1.8 0 0-2.6.7-4.2 2.9l-8.6 10.7s-1.5 1.5-2 3.8c0 0-1 9.6-5.5 14.1 0 0 5.3-6.3 5.2-14.4 0 0-.7-2.4.3-3.6 0 0 6.9-9.5 6-14.2 0 0-.3-1.8 1.5-2.6 0 0 3.3-3.5 11.1-6.4 0 0 5.4-2.5 11.9-4.2 0 0 4.3-.9 5.7-4.9l1.8-6.5s.4-1 0-3.5c0 0-1.6-.6 6.7-9.8 0 0 3.2-3.3.6-7.3 0 0-1-1.3-2.8-1.7 0 0-1.6.3-2.2-1.7 0 0-.2-3-3.2-3 0 0-2.7-.5-3.5 1.8 0 0-.4 1.1-1.1-.2 0 0-1.5-2.4-4.2-.8 0 0-1.4.4-2.2 3.9 0 0-.9 6.1-4.3 6.4 0 0-2.9-.5 2.7-7.3 0 0 4.5-4.9 3.7-7.6 0 0-.4-2.1-2.9-1.4 0 0-1.9.3-2.4 3 0 0-.1 2-2 .9 0 0-1.9-1.3-3.7-.7 0 0-2.8.5-4.4-1.1 0 0-1.9-2-4.7-.5 0 0-3.1 2.4-4.3-1.4 0 0 .6-2.4-1.8-4.6 0 0-1.7-.2-2.2-2 0 0-.1-1.5-2.2-1.4 0 0-1.6.1-1.8-1.2 0 0-.3-2.4-3.1-2.3 0 0-2 .3-2.2-1.5 0 0 .2-2.3-2.5-2.3 0 0-5.3 1.1-8.5-5.2 0 0-2.1 6.6-1.3 11 0 0 1 1.4-.1 2 0 0-1.8.9-2 4.2 0 0 .2 1.3-1 1.7 0 0-1.4.8-2.9-.4 0 0-2.6-2.5-5-.2 0 0-1.1 1-1.8.5 0 0-1.4-.9-.1-2.6 0 0 1.1-1.4-.8-2.9 0 0-1.6-.8-2.1-3.3 0 0 .2-4.9-1.5-5.9 0 0-1.9-.9-2.2-1.6 0 0-.8-1.4-3.6 1 0 0-1.3 1.4-3.2-.5 0 0-2.9-3.1-5.7-4.4 0 0-.9.1-2.8-.5 0 0-1.8-1.9-3.6-.3 0 0-2.1 4.4-7.6 2.2 0 0-3.4-.9-5.5 2.2 0 0-.9.3.7 4.2 0 0 1.2 1.9 1.3 3.6 0 0-.4 3.1.4 4.5 0 0 4 4.9 3.1 8.4 0 0-2.9 6.3-1.6 7.3 0 0 .1.4 1.8 1.2 0 0 10 6.4 10.4 10.5 0 0 2.1 11-2 14.7 0 0-1.6 3.4-6.7 3 0 0-2.8.9-.6 3.8 0 0 .9 1.1 2.6 2.4 0 0 3.6.2 2.6 3.2 0 0-1.2 1.3.1 3.4 0 0 2.2 2.6 2.3 4.6 0 0-.2 1.3.8 1.4 0 0 2.3.4 1.4 2.7 0 0-1.4 3.4 1 5.7 0 0-.9.8-1.1.8-.2 0-2-2-2-2s-.9-1.1-.9.7l.1 1.9s-.1 1.2-1.5.7c0 0-5.3-2.6-6.6-4.9 0 0-2.1-3.7-4.9-4.5 0 0-1.5-.7.1-.9 0 0 3.5.3 5.3 1.4 0 0 2.6.6 1.4-2.3 0 0-1-2.3-4.4-1.9 0 0-4-.2-4.4-2.6 0 0-2.8-6.6-2.2-11.3l-11.4.9s-2.8.8-4.2-1.3c0 0-1.4-1.8-4.1-1.5 0 0-3.9.6-5.2-1.2 0 0-9-10.6-18.9-9.1 0 0-1.7.1-2.9.5 0 0-1.6.4-1.7-1.9 0 0 .7-3-.1-5.1 0 0-1.1-6.3-7.9-6.1 0 0-.9.3-.8-1.5l-.1-7.2s-.1-1.3.7-2c0 0 1-1.1.6-2.6 0 0-.6-2.4 1.7-3.9 0 0 2.4-1.9 2-4.1 0 0-.2-2.1 1.6-3.6 0 0 1.1-1.8 2.3-2.5 0 0 2-.3 1.3-2 0 0 3.9.5 4.5-1.9.5-2.4-3.2-2.4-3.2-2.4s-1.3 0-1.4-1.5c0 0-.3-1.7 1.4-1.5 0 0 1.7-.3 2.4.7 0 0 2.7 1 2.6-1.2 0 0-.4-2.1 1.5-2.3 0 0 5.2-1 5.8-3.7 0 0 .4-2.2 1.5-3.3 0 0 1.8-2.2-1.1-3.4 0 0-5.9-.2-7.8-2.2 0 0-.5-.7-.7-1.2 0 0 1 1.5 2.7 1 0 0 2.8-.4 3.3.5 0 0 2.9 1.3 3.5.1 0 0 3.5-2.9 2.8-5.8 0 0-1.3-2.7.2-3 0 0 .7-.9 2.6 1.3 0 0 1 1.3 2.7-.2 0 0 2.4-.9 2.8-2.1 0 0 .1-2 2-2.8 0 0 4.8-1.8 2.5-5 0 0-3.2-4.9-3.3-7.3 0 0-.4-1.4 1-2.5 0 0 .8-3.7-1.3-4.4 0 0-1.1-.8-2.3-1 0 0-2.5-.3-3.8-2.2 0 0-3.8-2.6-7-.1 0 0-1.7.7-.6 2.3 0 0 1.4 2.6 3.9 4.1 0 0 1 .8-.2 1 0 0-2.3.3-2.1 2.7 0 0 .4 3 .1 5.2 0 0-.4 3.6-.4 3.8-.1.2-.2 1.7-1.9.8 0 0-2.6-3.3-2.7-4.7 0 0-1-1.8.1-2.7 0 0 1-.3.4-1.7 0 0-2-4.5-4.2-5.2 0 0-2.2-.1-2.3 1.5 0 0 .2 3.6-1.2 3.9 0 0-1.9 1.2-1.7-.6v-3.2s.3-.8 0-1.4c0 0-.6-.5-.3-1.8 0 0 .7-1.8-1.7-1.8 0 0-3.4.7-2.3-1.2 0 0 2-2.6.3-5 0 0-2.3-1.9-1.7-4.4 0 0-.3-3.9-4.7-5.7 0 0-3.4-1.6-4 .7 0 0 .8 2.9-1.2 3.3 0 0-1.4.7-.3 2 0 0 1.6 1.8.3 3.6 0 0-2.2 3.5 0 4.6 0 0 6.2 2.8 6 4 0 0 .2 1-1.2 1.9 0 0-1.6 1.6.8 2.8 0 0 3 1.7.9 3.7 0 0-4.2 1.9-4 4.3 0 0 .2 3.9-1.4 3.9 0 0-1.8.4-1.3-4.7 0 0 1-2.4-2-3.3 0 0-3.6-2.1-4.6-.7 0 0-.7.4.2 1.5 0 0 .8 2-.8 2.6 0 0-1.2 1.3-3.4.1l-5 .2s-2.9.6-3.9-1.2c0 0 .4-2.7-2.4-2.7 0 0-2.2.2-3.4-1.8 0 0-1.7-2-4.1-1 0 0-1.3.2-2.8 1.7 0 0-.7.9-1.3.9 0 0-1.6.8-1.5 2.8 0 0 .7 4.8-1.2 5.7 0 0-2.1 1.3-1.6-7.1 0 0 .7-3.2-3.3-2.3 0 0-2.7 1.3-4.1-.1 0 0-1.6-2.7-3.4-1.4 0 0-4.8 1.5-6-3 0 0 3.4-.9 3.5-2.4 0 0 .5-2.5-.3-3.3 0 0-1.4-.9-1.2-1.8 0 0-.7-2.3-2.4-2 0 0-2.7 1.2-4.5-1.2 0 0-2.4-1.7-2.5-2.7 0 0-.7-2.2-3.2-3.4 0 0-2-.9-2.2-2.8 0 0-.2-2.4-1.5-2.4 0 0-2-.9-4.2 2.4 0 0-1.5.9-1.5-1 0 0 2.3-4 1.2-5.6 0 0-1.8-1-3.2 1.7 0 0-1.5 1.6-1.6-.5 0 0 0-7-1.8-8.1 0 0-1-.6-2.2 2.5 0 0-1.3 2-3.5 1.3 0 0-.6.2-.4-.8 0 0 2.9-3-.3-3.4 0 0-3.3-.2-5.5.3l-5.8-2.8s-2.3-1.8-5.5-.2c0 0-1.3.2-3 3.4 0 0-.8.9-.8-.4 0 0-.3-7.2-3.1-12.4-.5-.5-2.1-3.7-5.2.7zm275.8 157.2s2 .5 3.2 0c0 0 1.4-1.2 3.2-.9 0 0 3.2.2 3 2 0 0 0 5.4-15 2.6 0 0-.9-.7 0-1 0 0 1.8.2 1.8-.8 0-.2.9-3 3.8-1.9zm7.9 22.1s1.6-1.3 2.7 0c0 0 .4 1.5 1.8 1.3 0 0 5.4-3.5 7.3-3.2 0 0 2.3-.2 2.4.9 0 0 .5 1.4-1.5 2.9l-1.5 1.5s-.7.8-2 .7c0 0-5.2.3-6.6-1.1 0 0-4-1-2.6-3zm17.9-10.1s2.4.5 2.4 2c0 0-.4 1.7 0 2.7 0 0 .2 1 1.1.3 0 0 2.7-2.3 2.7-.6 0 0 1 1.6 0 2.8 0 0-.9 2.4-2.1 3.3 0 0-.9.7-2.7 0 0 0-3.3-.4-2.9-2 0 0 .4-2.8 0-4.2.1 0-1.2-3.7 1.5-4.3zm-1-42.1s.8-1.5 2-1.3c0 0 1.1.3.3 2.2 0 0-.5.9.3 1.3 0 0 2.5 1 1.7 2 0 0-.9.8-.2 1.9 0 0 1.7 1.5 1.3 2.4 0 0-.2.7-.5 1 0 0-.6 1 .6.7 0 0 2.4-2.4 4.2-.9 0 0 1.5.9.8 2.9 0 0-.1.6 1.5 0 0 0 3.2-4.9 5.4-4.5 0 0 3.4-.8 3.9.8 0 0 1.3 3.9 3.5 2.8 0 0 1.9-1.5 1.9-2.2 0 0 1 .7.3 2.2 0 0-1.3 1.6-.5 3.4 0 0 .5 2 1.7 1.7 0 0 1.7-2.1 2-4.1 0 0 .1 4.4 1.2 4.4 0 0 1.1 1.4 1.9-3.7 0 0 .9-2 2.4 3.9 0 0 .7 3 1 4.1 0 0 .3 2.9-1.6 3.1 0 0-2 .4-3.3-1.7 0 0-.4-1-.7 0 0 0 .4 2.3-1.7 1.4 0 0-.7-4-2.4-3.9 0 0-1.9-.1-1 5 0 0 .7 2.9-1.1 4 0 0-1.4 2.3-3.9 1.2 0 0-2-1.3-.5-3.6 0 0 1-2 1.1-2.9 0 0 .6-1-.4-.3 0 0-1 2.1-2.5 1.7 0 0-2-.4-2.3 1.4 0 0-.8 4.1-3.2 3.8 0 0-1.9.4-3.7.2 0 0-1.1-.2-2 2 0 0-1.8 3.6-4.6 3.3 0 0-2.1-.9-.5-5 0 0 1.4-3.6-1.7-2.4 0 0-1.8 1.5-1.5-1.2 0 0 1.8-2.6.8-6-.1-.3-4.9-16.6 0-21.1z"/><path class="st1" d="M91.1 43.1l-29.4 52.7-29.4-52.7zm283 147.3l-29.5 52.6-29.3-52.6z"/><circle class="st2" cx="344.7" cy="180.3" r="30.6"/><path d="M322.9 185.1c.6.3 1 .9 1.2 1.8h-.9c-.1-.5-.3-.8-.6-1-.3-.2-.7-.3-1.2-.3-.6 0-1.1.2-1.5.7-.4.4-.6 1.1-.6 2 0 .8.2 1.4.5 1.9s.9.7 1.6.7c.6 0 1-.2 1.4-.5.4-.3.6-.9.6-1.6h-2v-.7h2.8v3.5h-.6l-.2-.8c-.3.3-.5.6-.8.7-.4.2-.9.3-1.4.3-.8 0-1.4-.2-1.9-.7-.6-.6-.9-1.5-.9-2.6s.3-1.9.9-2.6c.5-.6 1.3-.9 2.1-.9.5-.3 1-.2 1.5.1zm2.6-.2h.8v.9h-.8v-.9zm0 1.7h.8v4.7h-.8v-4.7zm4.5 1.9c.2 0 .3-.1.4-.2l.1-.3c0-.3-.1-.5-.3-.6-.2-.1-.5-.2-.8-.2-.4 0-.7.1-.9.3-.1.1-.2.3-.2.6h-.7c0-.6.2-1 .6-1.2.4-.2.8-.3 1.3-.3.6 0 1 .1 1.3.3.3.2.5.5.5 1v2.7c0 .1 0 .1.1.2 0 0 .1.1.2.1h.2v.6l-.3.1h-.3c-.3 0-.5-.1-.6-.3-.1-.1-.1-.2-.1-.4-.2.2-.4.4-.7.5s-.6.2-1 .2-.8-.1-1.1-.4c-.3-.3-.4-.6-.4-1s.1-.8.4-1c.3-.2.6-.4 1.1-.4l1.2-.3zm-1.7 2.1c.2.1.4.2.6.2.3 0 .5-.1.8-.2.4-.2.7-.6.7-1v-.6c-.1.1-.2.1-.4.2-.2 0-.3.1-.4.1l-.5.1c-.3 0-.5.1-.6.2-.2.1-.4.4-.4.7 0 0 .1.2.2.3zm4.2-4h.8v.7c.2-.3.5-.5.7-.6s.5-.2.8-.2c.7 0 1.1.2 1.4.7.1.3.2.6.2 1.1v3h-.8v-3c0-.3 0-.5-.1-.7-.1-.3-.4-.4-.8-.4-.2 0-.3 0-.5.1s-.4.2-.6.4l-.3.5c0 .2-.1.4-.1.7v2.5h-.8v-4.8zm5.2-1.3h.8v1.3h.8v.6h-.8v3.1c0 .2.1.3.2.3h.6v.6c-.1 0-.2 0-.3.1h-.3c-.4 0-.6-.1-.8-.3-.1-.2-.2-.4-.2-.7v-3.1h-.7v-.6h.6v-1.3zm4.9-.4h2.8c.8 0 1.3.2 1.6.7.2.3.3.6.3.9 0 .4-.1.7-.3 1-.1.1-.3.3-.5.4.3.1.6.3.7.4.3.3.4.7.4 1.2 0 .4-.1.8-.4 1.1-.4.5-1 .8-1.9.8h-2.7v-6.5zm2.4 2.7c.4 0 .7-.1.9-.2.3-.2.5-.5.5-.9s-.2-.7-.5-.9c-.2-.1-.5-.1-.9-.1h-1.6v2h1.6zm.3 3c.5 0 .9-.2 1.2-.5.1-.2.2-.4.2-.7 0-.5-.2-.8-.6-1-.2-.1-.5-.1-.9-.1h-1.8v2.3h1.9zm3.2-5.7h.8v6.5h-.8v-6.5zm2.8 1.7v3.1c0 .2 0 .4.1.6.1.3.4.4.8.4.5 0 .9-.2 1.1-.7.1-.3.2-.6.2-1.1v-2.3h.8v4.7h-.7v-.7c-.1.2-.2.3-.4.5-.3.2-.7.4-1.1.4-.7 0-1.1-.2-1.3-.7-.1-.2-.2-.6-.2-1v-3.2h.7zm7.1.2c.3.2.5.4.7.6.2.2.3.5.3.8 0 .2.1.6.1 1h-3.4c0 .5.1.9.3 1.2.2.3.5.4 1 .4.4 0 .7-.1 1-.4.1-.2.2-.3.3-.6h.8c0 .2-.1.4-.2.6-.1.2-.2.4-.4.5-.2.2-.5.4-.9.5l-.6.1c-.6 0-1.1-.2-1.5-.6-.4-.4-.6-1-.6-1.8s.2-1.4.6-1.8c.4-.5.9-.7 1.6-.7.3-.1.6 0 .9.2zm.3 1.8c0-.3-.1-.6-.2-.8-.2-.4-.6-.6-1.1-.6-.4 0-.7.1-.9.4-.2.3-.4.6-.4 1h2.6zm2.2-3.4c.2-.3.5-.4 1.1-.4h.4v.7h-.3c-.2 0-.4.1-.4.2s-.1.4-.1 1h.8v.6h-.8v4.1h-.8v-4.1h-.8v-.6h.7v-.7c0-.4.1-.7.2-.8zm2.1-.3h.8v.9h-.8v-.9zm0 1.7h.8v4.7h-.8v-4.7zm2 0h.8v.7c.2-.3.5-.5.7-.6s.5-.2.8-.2c.7 0 1.1.2 1.4.7.1.3.2.6.2 1.1v3h-.9v-3c0-.3 0-.5-.1-.7-.1-.3-.4-.4-.8-.4-.2 0-.3 0-.5.1s-.4.2-.6.4l-.3.5c0 .2-.1.4-.1.7v2.5h-.6v-4.8zm-26 9.1v.8h-2.2v5.7h-.9v-5.7h-2.2v-.8h5.3zm1.1 1.7v3.1c0 .2 0 .4.1.6.1.3.4.4.8.4.5 0 .9-.2 1.1-.7.1-.3.2-.6.2-1.1v-2.3h.8v4.7h-.7v-.7c-.1.2-.2.3-.4.5-.3.2-.7.4-1.1.4-.7 0-1.1-.2-1.3-.7-.1-.2-.2-.6-.2-1v-3.2h.7zm4.2 0h.8v.7c.2-.3.5-.5.7-.6s.5-.2.8-.2c.7 0 1.1.2 1.4.7.1.3.2.6.2 1.1v3h-.8v-3c0-.3 0-.5-.1-.7-.1-.3-.4-.4-.8-.4-.2 0-.3 0-.5.1s-.4.2-.6.4l-.3.5c0 .2-.1.4-.1.7v2.5h-.8v-4.8zm7.6 1.9c.2 0 .3-.1.4-.2l.1-.3c0-.3-.1-.5-.3-.6s-.5-.2-.8-.2c-.4 0-.7.1-.9.3-.1.1-.2.3-.2.6h-.7c0-.6.2-1 .6-1.2.4-.2.8-.3 1.3-.3.6 0 1 .1 1.3.3.3.2.5.5.5 1v2.7c0 .1 0 .1.1.2 0 0 .1.1.2.1h.2v.6l-.3.1h-.3c-.3 0-.5-.1-.6-.3-.1-.1-.1-.2-.1-.4-.2.2-.4.4-.7.5s-.6.2-1 .2-.8-.1-1.1-.4c-.3-.3-.4-.6-.4-1s.1-.8.4-1c.3-.2.6-.4 1.1-.4l1.2-.3zm-1.7 2.1c.2.1.4.2.6.2.3 0 .5-.1.8-.2.4-.2.7-.6.7-1v-.6c-.1.1-.2.1-.4.2s-.3.1-.4.1l-.5-.1c-.3 0-.5.1-.6.2-.2.1-.4.4-.4.7-.1.2 0 .4.2.5z"/><path class="st1" d="M129.2 146.9l-29.4 52.7-29.4-52.7z"/><circle class="st2" cx="99.8" cy="136.8" r="30.6"/><path d="M80.7 141.4h2.8c.8 0 1.3.2 1.6.7.2.3.3.6.3.9 0 .4-.1.7-.3 1-.1.1-.3.3-.5.4.3.1.6.3.7.4.3.3.4.7.4 1.2 0 .4-.1.8-.4 1.1-.4.5-1 .8-1.9.8h-2.7v-6.5zm2.5 2.7c.4 0 .7-.1.9-.2.3-.2.5-.5.5-.9s-.2-.7-.5-.9c-.2-.1-.5-.1-.9-.1h-1.6v2h1.6zm.3 3c.5 0 .9-.2 1.2-.5.1-.2.2-.4.2-.7 0-.5-.2-.8-.6-1-.2-.1-.5-.1-.9-.1h-1.8v2.3h1.9zm3.1-5.7h.8v.9h-.8v-.9zm0 1.8h.8v4.7h-.8v-4.7zm4.6.1c.1.1.3.3.5.4v-.6h.7v4.3c0 .6-.1 1.1-.3 1.4-.3.6-.9 1-1.9 1-.5 0-.9-.1-1.3-.3-.3-.2-.5-.6-.6-1.1h.8c0 .2.1.4.2.5.2.2.5.3.8.3.6 0 1-.2 1.2-.6.1-.3.2-.7.2-1.3-.2.2-.3.4-.6.5s-.5.2-.9.2c-.5 0-1-.2-1.3-.5s-.6-1-.6-1.8.2-1.4.6-1.8.8-.7 1.4-.7c.5-.1.9-.1 1.1.1zm.1.9c-.2-.3-.5-.4-.9-.4-.6 0-.9.3-1.1.8-.1.3-.2.6-.2 1.1 0 .5.1.9.3 1.2.2.3.5.4.9.4.6 0 1-.3 1.2-.8.1-.3.2-.6.2-1 0-.6-.1-1-.4-1.3zm4.9-2.8h.9v5.7h3.2v.8h-4.1v-6.5zm7.4 3.6c.2 0 .3-.1.4-.2l.1-.3c0-.3-.1-.5-.3-.6-.2-.1-.5-.2-.8-.2-.4 0-.7.1-.9.3-.1.1-.2.3-.2.6h-.7c0-.6.2-1 .6-1.2.4-.2.8-.3 1.3-.3.6 0 1 .1 1.3.3.3.2.5.5.5 1v2.7c0 .1 0 .1.1.2 0 0 .1.1.2.1h.2v.6l-.3.1h-.3c-.3 0-.5-.1-.6-.3-.1-.1-.1-.2-.1-.4-.2.2-.4.4-.7.5s-.6.2-1 .2-.8-.1-1.1-.4c-.3-.3-.4-.6-.4-1s.1-.8.4-1c.3-.2.6-.4 1.1-.4l1.2-.3zm-1.6 2.1c.2.1.4.2.6.2.3 0 .5-.1.8-.2.4-.2.7-.6.7-1v-.6c-.1.1-.2.1-.4.2-.2 0-.3.1-.4.1l-.5.1c-.3 0-.5.1-.6.2-.2.1-.4.4-.4.7-.1 0 0 .2.2.3zm4.1-5.7h.8v3.7l2-2h1l-1.8 1.8 1.9 3h-1l-1.5-2.4-.6.6v1.8h-.8v-6.5zm7.4 1.9c.3.2.5.4.7.6.2.2.3.5.3.8 0 .2.1.6.1 1h-3.4c0 .5.1.9.3 1.2.2.3.5.4 1 .4.4 0 .7-.1 1-.4.1-.2.2-.3.3-.6h.8c0 .2-.1.4-.2.6-.1.2-.2.4-.4.5-.2.2-.5.4-.9.5l-.6.1c-.6 0-1.1-.2-1.5-.6-.4-.4-.6-1-.6-1.8s.2-1.4.6-1.8c.4-.5.9-.7 1.6-.7.3-.1.6 0 .9.2zm.3 1.8c0-.3-.1-.6-.2-.8-.2-.4-.6-.6-1.1-.6-.4 0-.7.1-.9.4s-.4.6-.4 1h2.6zm-20 7.1v.8h-2.2v5.7h-.9v-5.7h-2.2v-.8h5.3zm.4 1.7h.8v.8c.1-.2.2-.4.5-.6.2-.2.5-.3.8-.3h.3v.8h-.2c-.4 0-.7.1-.9.4-.2.3-.3.6-.3.9v2.7h-.8v-4.7zm6.4.5c.4.4.6 1 .6 1.8s-.2 1.4-.5 1.9c-.4.5-.9.7-1.7.7-.6 0-1.2-.2-1.5-.7s-.6-1-.6-1.8.2-1.4.6-1.9.9-.7 1.6-.7c.6.1 1.1.3 1.5.7zm-.5 3.1c.2-.4.3-.8.3-1.3 0-.4-.1-.8-.2-1.1-.2-.4-.6-.6-1.1-.6-.5 0-.8.2-1 .6-.2.4-.3.8-.3 1.3s.1.9.3 1.3c.2.3.6.5 1 .5.5-.1.8-.3 1-.7zm2.9-3.6v3.1c0 .2 0 .4.1.6.1.3.4.4.8.4.5 0 .9-.2 1.1-.7.1-.3.2-.6.2-1.1v-2.3h.8v4.7h-.7v-.7c-.1.2-.2.3-.4.5-.3.2-.7.4-1.1.4-.7 0-1.1-.2-1.3-.7-.1-.2-.2-.6-.2-1v-3.2h.7zm4.4-1.3h.8v1.3h.8v.6h-.8v3.1c0 .2.1.3.2.3h.6v.6c-.1 0-.2 0-.3.1h-.3c-.4 0-.6-.1-.8-.3-.1-.2-.2-.4-.2-.7v-3.1h-.6v-.6h.6v-1.3z"/><path class="st1" d="M192.4 179.5l-43.5 41.8-12.8-58.9z"/><ellipse transform="matrix(.29 -.957 .957 .29 -35.757 274.402)" class="st2" cx="167.1" cy="161.3" rx="30.6" ry="30.6"/><path class="st1" d="M289.1 220.5l-29.5 52.6-29.4-52.7z"/><circle class="st2" cx="259.6" cy="210.4" r="30.6"/><path d="M235.1 214.9h.9v5.7h3.2v.8h-4.1v-6.5zm7.4 3.6c.2 0 .3-.1.4-.2l.1-.3c0-.3-.1-.5-.3-.6-.2-.1-.5-.2-.8-.2-.4 0-.7.1-.9.3-.1.1-.2.3-.2.6h-.8c0-.6.2-1 .6-1.2.4-.2.8-.3 1.3-.3.6 0 1 .1 1.3.3.3.2.5.5.5 1v2.7c0 .1 0 .1.1.2 0 0 .1.1.2.1h.2v.6l-.3.1h-.3c-.3 0-.5-.1-.6-.3-.1-.1-.1-.2-.1-.4-.2.2-.4.4-.7.5s-.6.2-1 .2-.8-.1-1.1-.4c-.3-.3-.4-.6-.4-1s.1-.8.4-1c.3-.2.6-.4 1.1-.4l1.3-.3zm-1.7 2.2c.2.1.4.2.6.2.3 0 .5-.1.8-.2.4-.2.7-.6.7-1v-.7c-.1.1-.2.1-.4.2-.2 0-.3.1-.4.1l-.5.1c-.3 0-.5.1-.6.2-.2.1-.4.4-.4.7 0 .1.1.2.2.4zm4.2-4h.8v.8c.1-.2.2-.4.5-.6.2-.2.5-.3.8-.3h.3v.8h-.2c-.4 0-.7.1-.9.4-.2.3-.3.6-.3.9v2.7h-1v-4.7zm5.6.2c.1.1.3.3.5.4v-.6h.7v4.3c0 .6-.1 1.1-.3 1.4-.3.6-.9 1-1.9 1-.5 0-.9-.1-1.3-.3-.3-.2-.5-.6-.6-1.1h.8c0 .2.1.4.2.5.2.2.5.3.8.3.6 0 1-.2 1.2-.6.1-.3.2-.7.2-1.3-.2.2-.3.4-.6.5s-.5.2-.9.2c-.5 0-1-.2-1.3-.5-.4-.4-.6-1-.6-1.8s.2-1.4.6-1.8.8-.7 1.4-.7c.5-.2.8-.1 1.1.1zm.1.8c-.2-.3-.5-.4-.9-.4-.6 0-.9.3-1.1.8-.1.3-.2.6-.2 1.1 0 .5.1.9.3 1.2.2.3.5.4.9.4.6 0 1-.3 1.2-.8.1-.3.2-.6.2-1-.1-.6-.2-1-.4-1.3zm5.2-.9c.3.2.5.4.7.6.2.2.3.5.3.8 0 .2.1.6.1 1h-3.4c0 .5.1.9.3 1.2.2.3.5.4 1 .4.4 0 .7-.1 1-.4.1-.2.2-.3.3-.6h.8c0 .2-.1.4-.2.6-.1.2-.2.4-.4.5-.2.2-.5.4-.9.5l-.6.1c-.6 0-1.1-.2-1.5-.6-.4-.4-.6-1-.6-1.8s.2-1.4.6-1.8c.4-.5.9-.7 1.6-.7.2 0 .6 0 .9.2zm.3 1.8c0-.3-.1-.6-.2-.8-.2-.4-.6-.6-1.1-.6-.4 0-.7.1-.9.4-.2.3-.4.6-.4 1h2.6zm4.4-3.7h1.3l1.9 5.5 1.8-5.5h1.2v6.5h-.8v-5.5l-1.8 5.4h-.9l-1.9-5.4v5.4h-.8v-6.4zm10.8 2.2c.4.4.6 1 .6 1.8s-.2 1.4-.5 1.9c-.4.5-.9.7-1.7.7-.6 0-1.2-.2-1.5-.7-.4-.4-.6-1-.6-1.8s.2-1.4.6-1.9c.4-.5.9-.7 1.6-.7.6.1 1.1.3 1.5.7zm-.5 3.2c.2-.4.3-.8.3-1.3 0-.4-.1-.8-.2-1.1-.2-.4-.6-.6-1.1-.6-.5 0-.8.2-1 .6-.2.4-.3.8-.3 1.3s.1.9.3 1.3c.2.3.6.5 1 .5.4-.1.8-.3 1-.7zm2.9-3.6v3.1c0 .2 0 .4.1.6.1.3.4.4.8.4.5 0 .9-.2 1.1-.7.1-.3.2-.6.2-1.1v-2.3h.8v4.7h-.7v-.7c-.1.2-.2.3-.4.5-.3.2-.7.4-1.1.4-.7 0-1.1-.2-1.3-.7-.1-.2-.2-.6-.2-1v-3.2h.7zm4.3-1.3h.8v1.3h.8v.6h-.8v3.1c0 .2.1.3.2.3h.6v.6c-.1 0-.2 0-.3.1h-.3c-.4 0-.6-.1-.8-.3-.1-.2-.2-.4-.2-.7v-3.1h-.6v-.6h.6v-1.3zm2.4-.5h.8v2.4l.5-.5c.3-.2.6-.2 1-.2.7 0 1.1.2 1.4.7.1.3.2.6.2 1.1v3h-.8v-3c0-.3 0-.6-.1-.8-.1-.3-.4-.4-.8-.4-.3 0-.6.1-.9.3s-.4.7-.4 1.3v2.5h-.8v-6.4zm-30.2 10.8h2.8c.8 0 1.3.2 1.6.7.2.3.3.6.3.9 0 .4-.1.7-.3 1-.1.1-.3.3-.5.4.3.1.6.3.7.4.3.3.4.7.4 1.2 0 .4-.1.8-.4 1.1-.4.5-1 .8-1.9.8h-2.7v-6.5zm2.5 2.7c.4 0 .7-.1.9-.2.3-.2.5-.5.5-.9s-.2-.7-.5-.9c-.2-.1-.5-.1-.9-.1h-1.6v2h1.6zm.3 3c.5 0 .9-.2 1.2-.5.1-.2.2-.4.2-.7 0-.5-.2-.8-.6-1-.2-.1-.5-.1-.9-.1h-1.8v2.3h1.9zm5.6-2.1c.2 0 .3-.1.4-.2l.1-.3c0-.3-.1-.5-.3-.6-.2-.1-.5-.2-.8-.2-.4 0-.7.1-.9.3-.1.1-.2.3-.2.6h-.7c0-.6.2-1 .6-1.2.4-.2.8-.3 1.3-.3.6 0 1 .1 1.3.3.3.2.5.5.5 1v2.7c0 .1 0 .1.1.2 0 0 .1.1.2.1h.2v.6l-.3.1h-.3c-.3 0-.5-.1-.6-.3-.1-.1-.1-.2-.1-.4-.2.2-.4.4-.7.5s-.6.2-1 .2-.8-.1-1.1-.4c-.3-.3-.4-.6-.4-1s.1-.8.4-1c.3-.2.6-.4 1.1-.4l1.2-.3zm-1.6 2.2c.2.1.4.2.6.2.3 0 .5-.1.8-.2.4-.2.7-.6.7-1v-.6c-.1.1-.2.1-.4.2-.2 0-.3.1-.4.1l-.5.1c-.3 0-.5.1-.6.2-.2.1-.4.4-.4.7-.1 0 0 .1.2.3zm4.6-.8c0 .3.1.5.2.6.2.3.6.4 1.1.4.3 0 .6-.1.8-.2.2-.1.3-.3.3-.6 0-.2-.1-.4-.3-.5-.1-.1-.3-.1-.7-.2l-.6-.2c-.4-.1-.7-.2-.9-.3-.3-.2-.5-.5-.5-.9s.2-.8.5-1.1.8-.4 1.3-.4c.7 0 1.2.2 1.6.6.2.3.3.5.3.9h-.8c0-.2-.1-.3-.2-.5-.2-.2-.5-.3-1-.3-.3 0-.5.1-.7.2-.2.1-.2.3-.2.5s.1.4.3.5c.1.1.3.1.5.2l.5.1c.6.1 1 .3 1.2.4.3.2.5.5.5 1 0 .4-.2.8-.5 1.1-.3.3-.8.5-1.5.5s-1.2-.2-1.5-.5c-.3-.3-.5-.7-.5-1.2h.8zm4.5 0c0 .3.1.5.2.6.2.3.6.4 1.1.4.3 0 .6-.1.8-.2.2-.1.3-.3.3-.6 0-.2-.1-.4-.3-.5-.1-.1-.3-.1-.7-.2l-.6-.2c-.4-.1-.7-.2-.9-.3-.3-.2-.5-.5-.5-.9s.2-.8.5-1.1.8-.4 1.3-.4c.7 0 1.2.2 1.6.6.2.3.3.5.3.9h-.7c0-.2-.1-.3-.2-.5-.2-.2-.5-.3-1-.3-.3 0-.5.1-.7.2-.2.1-.2.3-.2.5s.1.4.3.5c.1.1.3.1.5.2l.5.1c.6.1 1 .3 1.2.4.3.2.5.5.5 1 0 .4-.2.8-.5 1.1-.3.3-.8.5-1.5.5s-1.2-.2-1.5-.5c-.3-.3-.5-.7-.5-1.2h.7z"/><path class="st1" d="M232.8 260l31.1 51.8-60.3-.7z"/><ellipse transform="matrix(.497 -.868 .868 .497 -138.077 322.971)" class="st2" cx="209.5" cy="280.6" rx="30.6" ry="30.6"/><path d="M184.2 287.3h1l1.9 3.1 1.8-3.1h1l-2.4 3.9v2.6h-.9v-2.6l-2.4-3.9zm8.4 1.9c.3.2.5.4.7.6.2.2.3.5.3.8 0 .2.1.6.1 1h-3.4c0 .5.1.9.3 1.2.2.3.5.4 1 .4.4 0 .7-.1 1-.4.1-.2.2-.3.3-.6h.8c0 .2-.1.4-.2.6s-.2.4-.4.5c-.2.2-.5.4-.9.5l-.6.1c-.6 0-1.1-.2-1.5-.6-.4-.4-.6-1-.6-1.8s.2-1.4.6-1.8c.4-.5.9-.7 1.6-.7.3-.1.6 0 .9.2zm.3 1.8c0-.3-.1-.6-.2-.8-.2-.4-.6-.6-1.1-.6-.4 0-.7.1-.9.4-.2.3-.4.6-.4 1h2.6zm1.9-3.7h.8v6.5h-.8v-6.5zm2 0h.8v6.5h-.8v-6.5zm5.4 2.2c.4.4.6 1 .6 1.8s-.2 1.4-.5 1.9c-.4.5-.9.7-1.7.7-.6 0-1.2-.2-1.5-.7s-.6-1-.6-1.8.2-1.4.6-1.9c.4-.5.9-.7 1.6-.7.5.1 1 .3 1.5.7zm-.5 3.1c.2-.4.3-.8.3-1.3 0-.4-.1-.8-.2-1.1-.2-.4-.6-.6-1.1-.6-.5 0-.8.2-1 .6-.2.4-.3.8-.3 1.3s.1.9.3 1.2.6.5 1 .5.8-.2 1-.6zm2.4-3.6l.9 3.7.9-3.7h.9l.9 3.7 1-3.7h.8l-1.4 4.7h-.8l-1-3.6-.9 3.6h-.8l-1.4-4.7h.9zm8.8-1.7h2.9c.6 0 1 .2 1.4.5s.5.8.5 1.4c0 .5-.2.9-.5 1.3s-.8.6-1.4.6h-2v2.7h-.9v-6.5zm3.4.8c-.2-.1-.5-.1-.8-.1h-1.7v2.2h1.7c.4 0 .7-.1.9-.3.2-.2.4-.5.4-.9.1-.4-.1-.7-.5-.9zm5.4 1c.3.2.5.4.7.6.2.2.3.5.3.8 0 .2.1.6.1 1h-3.4c0 .5.1.9.3 1.2s.5.4 1 .4c.4 0 .7-.1 1-.4.1-.2.2-.3.3-.6h.8c0 .2-.1.4-.2.6-.1.2-.2.4-.4.5-.2.2-.5.4-.9.5l-.6.1c-.6 0-1.1-.2-1.5-.6-.4-.4-.6-1-.6-1.8s.2-1.4.6-1.8c.4-.5.9-.7 1.6-.7.2 0 .6.1.9.2zm.2 1.9c0-.3-.1-.6-.2-.8-.2-.4-.6-.6-1.1-.6-.4 0-.7.1-.9.4-.2.3-.4.6-.4 1h2.6zm1.9-2h.8v.8c.1-.2.2-.4.5-.6.2-.2.5-.3.8-.3h.3v.8h-.2c-.4 0-.7.1-.9.4-.2.3-.3.6-.3.9v2.7h-.8l-.2-4.7zm6.1.2c.3.3.5.7.6 1.3h-.8c0-.3-.2-.5-.3-.7-.2-.2-.4-.3-.8-.3-.5 0-.9.2-1.1.7-.1.3-.2.7-.2 1.2s.1.9.3 1.2c.2.3.5.5.9.5.3 0 .6-.1.8-.3s.3-.5.4-.8h.8c-.1.6-.3 1.1-.7 1.4-.4.3-.8.4-1.3.4-.6 0-1.1-.2-1.5-.7-.4-.4-.6-1-.6-1.7 0-.8.2-1.5.6-1.9s.9-.7 1.5-.7 1 .2 1.4.4zm1.4-2h.8v2.4l.5-.5c.3-.2.6-.3 1-.3.7 0 1.1.2 1.4.7.1.3.2.6.2 1.1v3h-.8v-3c0-.3 0-.6-.1-.8-.1-.3-.4-.4-.8-.4-.3 0-.6.1-.9.3-.3.2-.4.7-.4 1.3v2.5h-.8l-.1-6.3z"/><path class="st1" d="M14 263.9l29.4-52.7 29.4 52.7zm359.8 47.4l-57.4-71.5 89 21.9z"/><ellipse transform="matrix(.538 -.843 .843 .538 -62.132 470.519)" class="st2" cx="398.1" cy="291.9" rx="30.6" ry="30.6"/><path d="M375.7 294.7c.6.3 1 .9 1.2 1.8h-.9c-.1-.5-.3-.8-.6-1-.3-.2-.7-.3-1.2-.3-.6 0-1.1.2-1.5.7-.4.5-.6 1.1-.6 2 0 .8.2 1.4.5 1.9s.9.7 1.6.7c.6 0 1-.2 1.4-.5.4-.3.6-.9.6-1.6h-2v-.7h2.8v3.5h-.6l-.2-.8c-.3.3-.5.6-.8.7-.4.2-.9.3-1.4.3-.8 0-1.4-.2-1.9-.7-.6-.6-.9-1.5-.9-2.6s.3-1.9.8-2.6c.5-.6 1.3-.9 2.1-.9.7-.2 1.2-.1 1.6.1zm2.6-.2h.8v.9h-.8v-.9zm.1 1.8h.8v4.7h-.8v-4.7zm4.5 1.8c.2 0 .3-.1.4-.2l.1-.3c0-.3-.1-.5-.3-.6-.2-.1-.5-.2-.8-.2-.4 0-.7.1-.9.3-.1.1-.2.3-.2.6h-.7c0-.6.2-1 .6-1.2.4-.2.8-.3 1.3-.4.6 0 1 .1 1.4.3.3.2.5.5.5 1v2.7c0 .1 0 .1.1.2 0 0 .1.1.2.1h.2v.6l-.3.1h-.3c-.3 0-.5-.1-.6-.3-.1-.1-.1-.2-.1-.4-.2.2-.4.4-.7.6-.3.2-.6.2-1 .2s-.8-.1-1.1-.4c-.3-.3-.4-.6-.4-1s.1-.8.4-1 .6-.4 1.1-.5l1.1-.2zm-1.7 2.1c.2.1.4.2.6.2.3 0 .5-.1.8-.2.4-.2.7-.6.7-1.1v-.6c-.1.1-.2.1-.4.2-.2 0-.3.1-.4.1l-.5.1c-.3 0-.5.1-.6.2-.2.1-.4.4-.4.7 0 .1.1.3.2.4zm4.2-4h.8v.7c.2-.3.5-.5.7-.6s.5-.2.8-.2c.7 0 1.1.2 1.4.7.1.3.2.6.2 1.1v3h-.8v-3c0-.3 0-.5-.1-.7-.1-.3-.4-.4-.8-.4-.2 0-.3 0-.5.1s-.4.2-.6.4l-.3.5c0 .2-.1.4-.1.7v2.5h-.8l.1-4.8zm5.1-1.4h.8v1.3h.8v.6h-.8v3.1c0 .2.1.3.2.3h.6v.6c-.1 0-.2 0-.3.1h-.3c-.4 0-.6-.1-.8-.3-.1-.2-.2-.4-.2-.7v-3.1h-.6v-.6h.6v-1.3zm6.3-.5h1l2.4 6.4h-1l-.7-1.9h-2.5l-.7 1.9h-.9l2.4-6.4zm1.5 3.8l-1-2.8-1 2.9 2-.1zm2.7-3.4h.8v1.3h.8v.6h-.8v3.1c0 .2.1.3.2.3h.6v.6c-.1 0-.2 0-.3.1h-.3c-.4 0-.6-.1-.8-.3-.1-.2-.2-.4-.2-.7v-3.1h-.6v-.6h.6v-1.3zm2.4-.4h.8l.1 6.5h-.8l-.1-6.5zm4.5 3.6c.2 0 .3-.1.4-.2l.1-.3c0-.3-.1-.5-.3-.6-.2-.1-.5-.2-.8-.2-.4 0-.7.1-.9.3-.1.1-.2.3-.2.6h-.7c0-.6.2-1 .6-1.2.4-.2.8-.3 1.3-.4.6 0 1 .1 1.4.3.3.2.5.5.5 1v2.7c0 .1 0 .1.1.2 0 0 .1.1.2.1h.2v.6l-.3.1h-.3c-.3 0-.5-.1-.6-.3-.1-.1-.1-.2-.1-.4-.2.2-.4.4-.7.6-.3.2-.6.2-1 .2s-.8-.1-1.1-.4c-.3-.3-.4-.6-.4-1s.1-.8.4-1 .6-.4 1.1-.5l1.1-.2zm-1.6 2.1c.2.1.4.2.6.2.3 0 .5-.1.8-.2.4-.2.7-.6.7-1.1v-.6c-.1.1-.2.1-.4.2-.2 0-.3.1-.4.1l-.5.1c-.3 0-.5.1-.6.2-.2.1-.4.4-.4.7-.1.1 0 .3.2.4zm4.1-4h.8v.7c.2-.3.5-.5.7-.6s.5-.2.8-.2c.7 0 1.1.2 1.4.7.1.3.2.6.2 1.1v3h-.8v-3c0-.3 0-.5-.1-.7-.1-.3-.4-.4-.8-.4-.2 0-.3 0-.5.1s-.4.2-.6.4l-.3.5s-.1.4-.1.7v2.5h-.8l.1-4.8zm5.1-1.4h.8v1.3h.8v.6h-.8v3.1c0 .2.1.3.2.3h.6v.6c-.1 0-.2 0-.3.1h-.3c-.4 0-.6-.1-.8-.3-.1-.2-.2-.4-.2-.7v-3.1h-.6v-.6h.6v-1.3zm2.4-.4h.8v.9h-.8v-.9zm0 1.7h.8v4.7h-.8v-4.7zm5.1.2c.3.3.5.7.6 1.3h-.8c0-.3-.2-.5-.3-.7-.2-.2-.4-.3-.8-.3-.5 0-.9.3-1.1.7-.1.3-.2.7-.2 1.2s.1.9.3 1.2c.2.3.5.5.9.5.3 0 .6-.1.8-.3s.3-.5.4-.8h.8c-.1.6-.3 1.1-.6 1.4-.3.3-.8.4-1.3.4-.6 0-1.1-.2-1.5-.7-.4-.4-.6-1-.6-1.7 0-.8.2-1.5.6-1.9.4-.5.9-.7 1.5-.7.5.1 1 .2 1.3.4zm-39.6 13.5c0 .4.1.7.3.9.3.4.8.6 1.5.6l.9-.1c.5-.2.8-.5.7-1 0-.4-.1-.6-.3-.7-.2-.1-.6-.3-1-.4l-.8-.2c-.6-.1-.9-.3-1.2-.4-.4-.3-.6-.7-.6-1.2 0-.6.2-1.1.6-1.4.4-.4.9-.6 1.7-.6.7 0 1.2.2 1.7.5s.7.8.7 1.6h-.8c0-.3-.1-.6-.3-.8-.3-.3-.7-.5-1.3-.5-.5 0-.8.1-1.1.3-.2.2-.3.5-.3.8 0 .3.1.5.4.7.2.1.5.2 1.1.3l.9.2c.4.1.8.2 1 .4.4.3.6.7.6 1.3 0 .7-.2 1.2-.7 1.5s-1.1.5-1.8.5c-.8 0-1.4-.2-1.8-.6-.4-.4-.7-1-.7-1.7h.6zm7.8-.8c.2 0 .3-.1.4-.2 0-.1.1-.2 0-.3 0-.3-.1-.5-.3-.6-.2-.1-.5-.2-.8-.2-.4 0-.7.1-.9.3-.1.1-.2.3-.2.6h-.7c0-.6.2-1 .6-1.2.4-.2.8-.3 1.3-.4.6 0 1 .1 1.4.3.3.2.5.5.5 1v2.7c0 .1 0 .1.1.2 0 0 .1.1.2.1h.2v.6l-.3.1h-.3c-.3 0-.5-.1-.6-.3-.1-.1-.1-.2-.1-.4-.2.2-.4.4-.7.6-.3.2-.6.2-1 .2s-.8-.1-1.1-.4c-.3-.3-.4-.6-.4-1s.1-.8.4-1 .6-.4 1.1-.5l1.2-.2zm-1.6 2.1c.2.1.4.2.6.2.3 0 .5-.1.8-.2.4-.2.7-.6.7-1.1v-.6c-.1.1-.2.1-.4.2-.2 0-.3.1-.4.1l-.5.1c-.3 0-.5.1-.6.2-.2.1-.4.4-.4.7-.1.1 0 .3.2.4zm4.1-5.7h.8l.1 6.5h-.8l-.1-6.5zm2 1.7h.8v.7l.5-.5c.3-.2.6-.3.9-.3.4 0 .7.1.9.3.1.1.2.3.4.5.2-.3.4-.4.6-.6.2-.1.5-.2.8-.2.6 0 1.1.2 1.3.7.1.2.2.6.2 1v3.1h-.8v-3.3c0-.3-.1-.5-.2-.6-.2-.1-.3-.2-.6-.2s-.6.1-.8.3c-.2.2-.3.6-.3 1v2.7h-.8v-3.1c0-.3 0-.6-.1-.7-.1-.2-.3-.3-.7-.3-.3 0-.6.1-.8.4-.2.2-.4.7-.4 1.3v2.5h-.8l-.1-4.7zm10.9.4c.4.4.6 1 .6 1.8s-.2 1.4-.5 1.9c-.4.5-.9.8-1.7.8-.6 0-1.2-.2-1.5-.6s-.6-1-.6-1.8.2-1.4.6-1.9.9-.7 1.6-.7c.6-.1 1.1.1 1.5.5zm-.4 3.1c.2-.4.3-.8.3-1.3 0-.4-.1-.8-.2-1.1-.2-.4-.6-.6-1.1-.6-.5 0-.8.2-1 .6-.2.4-.3.8-.3 1.3s.1.9.3 1.2.6.5 1 .5.8-.2 1-.6zm2-3.6h.8v.7c.2-.3.5-.5.7-.6s.5-.2.8-.2c.7 0 1.1.2 1.4.7.1.3.2.6.2 1.1v3h-.8v-3c0-.3 0-.5-.1-.7-.1-.3-.4-.4-.8-.4-.2 0-.3 0-.5.1s-.4.2-.6.4l-.3.5c0 .2-.1.4-.1.7v2.5h-.8l.1-4.8z"/><path class="st1" d="M284.1 307.8l-8.8-49.7 49.9 7.6z"/><ellipse transform="matrix(.697 -.717 .717 .697 -116.144 312.639)" class="st2" cx="311.9" cy="293.8" rx="30.6" ry="30.6"/><path class="st1" d="M98.8 265.2l49.2-11.6-4.9 50.3z"/><ellipse transform="matrix(.657 -.754 .754 .657 -180.971 186.385)" class="st2" cx="114.4" cy="292.1" rx="30.6" ry="30.6"/><path d="M287.7 300.7c0 .4.1.7.3.9.3.4.8.6 1.5.6l.9-.1c.5-.2.7-.5.7-1 0-.4-.1-.6-.3-.7-.2-.1-.6-.3-1-.4l-.8-.2c-.6-.1-.9-.3-1.2-.4-.4-.3-.6-.7-.6-1.2 0-.6.2-1.1.6-1.4.4-.4.9-.6 1.7-.6.7 0 1.2.2 1.7.5s.7.8.7 1.6h-.8c0-.3-.1-.6-.3-.8-.3-.3-.7-.5-1.3-.5-.5 0-.8.1-1.1.3-.2.2-.3.5-.3.8 0 .3.1.5.4.7.2.1.5.2 1.1.3l.9.2c.4.1.8.2 1 .4.4.3.6.7.6 1.3 0 .7-.2 1.2-.7 1.5-.5.3-1.1.5-1.8.5-.8 0-1.4-.2-1.8-.6-.4-.4-.7-1-.7-1.7h.6zm5.3-2.6h.8v.7l.5-.5c.3-.2.6-.3.9-.3.4 0 .7.1.9.3.1.1.2.3.4.5.2-.3.4-.4.6-.6.2-.1.5-.2.8-.2.6 0 1.1.2 1.3.7.1.2.2.6.2 1v3.1h-.8v-3.3c0-.3-.1-.5-.2-.6-.2-.1-.3-.2-.6-.2s-.6.1-.8.3-.3.6-.3 1v2.7h-.8v-3.1c0-.3 0-.6-.1-.7-.1-.2-.3-.3-.7-.3-.3 0-.6.1-.8.4s-.4.7-.4 1.3v2.5h-.8l-.1-4.7zm10.1 1.7c.2 0 .3-.1.4-.2l.1-.3c0-.3-.1-.5-.3-.6-.2-.1-.5-.2-.8-.2-.4 0-.7.1-.9.3-.1.1-.2.3-.2.6h-.7c0-.6.2-1 .6-1.2s.8-.3 1.3-.4c.6 0 1 .1 1.3.3.3.2.5.5.5 1v2.7c0 .1 0 .1.1.2 0 0 .1.1.2.1h.2v.6l-.3.1h-.3c-.3 0-.5-.1-.6-.3-.1-.1-.1-.2-.1-.4-.2.2-.4.4-.7.6-.3.2-.6.2-1 .2s-.8-.1-1.1-.4c-.3-.3-.4-.6-.4-1s.1-.8.4-1c.3-.2.6-.4 1.1-.5l1.2-.2zm-1.7 2.2c.2.1.4.2.6.2.3 0 .5-.1.8-.2.4-.2.7-.6.7-1.1v-.6c-.1.1-.2.1-.4.2-.2 0-.3.1-.4.1l-.5.1c-.3 0-.5.1-.6.2-.2.1-.4.4-.4.7 0 .1.1.2.2.4zm4.2-5.8h.8l.1 6.5h-.8l-.1-6.5zm1.9 0h.8l.1 6.5h-.8l-.1-6.5zm4.6-.1h1.3l1.9 5.4 1.8-5.5h1.2l.1 6.5h-.8v-5.5l-1.8 5.5h-.9l-1.9-5.4v5.4h-.8l-.1-6.4zm10.9 2.2c.4.4.6 1 .6 1.8s-.2 1.4-.5 1.9c-.4.5-.9.7-1.7.8-.6 0-1.2-.2-1.5-.6-.4-.4-.6-1-.6-1.8s.2-1.4.6-1.9c.4-.5.9-.7 1.6-.7.5-.1 1 .1 1.5.5zm-.5 3.1c.2-.4.3-.8.3-1.3 0-.4-.1-.8-.2-1.1-.2-.4-.6-.6-1.1-.6-.5 0-.8.2-1 .6-.2.4-.3.8-.3 1.3s.1.9.3 1.2c.2.3.6.5 1 .5s.8-.2 1-.6zm2.8-3.6v3.1c0 .2 0 .4.1.6.1.3.4.4.8.4.5 0 .9-.3 1.1-.7.1-.3.2-.6.2-1.1v-2.3h.8v4.7h-.7v-.7c-.1.2-.2.3-.4.5-.3.2-.7.4-1.1.4-.7 0-1.1-.2-1.4-.7-.1-.2-.2-.6-.2-1v-3.2h.8zm4.4-1.4h.8v1.3h.8v.6h-.8v3.1c0 .2.1.3.2.3h.6v.6c-.1 0-.2 0-.3.1h-.3c-.4 0-.6-.1-.8-.3s-.2-.4-.2-.7v-3.1h-.6v-.6h.6v-1.3zm2.3-.4h.8v2.4l.5-.5c.3-.2.6-.3 1-.3.7 0 1.1.2 1.4.7.1.3.2.6.2 1.1v3h-.8v-3c0-.3 0-.6-.1-.8-.1-.3-.4-.4-.8-.4-.3 0-.6.1-.9.3s-.4.7-.4 1.3v2.5h-.8l-.1-6.3zm-29.8 11h2.8c.8 0 1.3.2 1.6.7.2.3.3.6.3.9 0 .4-.1.7-.3 1-.1.1-.3.3-.5.4.3.1.6.3.7.4.3.3.4.7.4 1.2 0 .4-.1.8-.4 1.1-.4.5-1 .8-1.9.8h-2.7v-6.5zm2.5 2.7c.4 0 .7-.1.9-.2.3-.2.5-.5.5-.9s-.2-.7-.5-.8c-.2-.1-.5-.1-.9-.1h-1.6v2h1.6zm.3 3c.5 0 .9-.2 1.2-.5.1-.2.2-.4.2-.7 0-.5-.2-.8-.6-1-.2-.1-.5-.1-.9-.1h-1.8v2.3h1.9zm5.7-2.1c.2 0 .3-.1.4-.2l.1-.3c0-.3-.1-.5-.3-.6-.2-.1-.5-.2-.8-.2-.4 0-.7.1-.9.3-.1.1-.2.3-.2.6h-.7c0-.6.2-1 .6-1.2s.8-.3 1.3-.4c.6 0 1 .1 1.3.3.3.2.5.5.5 1v2.7c0 .1 0 .1.1.2 0 0 .1.1.2.1h.2v.6l-.3.1h-.3c-.3 0-.5-.1-.6-.3-.1-.1-.1-.2-.1-.4-.2.2-.4.4-.7.6-.3.2-.6.2-1 .2s-.8-.1-1.1-.4c-.3-.3-.4-.6-.4-1s.1-.8.4-1c.3-.2.6-.4 1.1-.5l1.2-.2zm-1.7 2.1c.2.1.4.2.6.2.3 0 .5-.1.8-.2.4-.2.7-.6.7-1.1v-.6c-.1.1-.2.1-.4.2-.2 0-.3.1-.4.1l-.5.1c-.3 0-.5.1-.6.2-.2.1-.4.4-.4.7 0 .1.1.3.2.4zm4.6-.8c0 .3.1.5.2.6.2.3.6.4 1.1.4.3 0 .6-.1.8-.2.2-.1.3-.3.3-.6 0-.2-.1-.4-.3-.5-.1-.1-.3-.1-.7-.2l-.6-.2c-.4-.1-.7-.2-.9-.3-.3-.2-.5-.5-.5-.9s.2-.8.5-1.1c.3-.3.8-.4 1.3-.4.7 0 1.2.2 1.6.6.2.3.3.5.3.9h-.7c0-.2-.1-.3-.2-.5-.2-.2-.5-.3-1-.3-.3 0-.5.1-.7.2-.2.1-.2.3-.2.5s.1.4.3.5c.1.1.3.1.5.2l.5.1c.6.1 1 .3 1.2.4.3.2.5.5.5 1 0 .4-.2.8-.5 1.1-.3.3-.8.5-1.5.5s-1.2-.1-1.5-.5c-.3-.3-.5-.7-.5-1.2l.7-.1zm4.5 0c0 .3.1.5.2.6.2.3.6.4 1.1.4.3 0 .6-.1.8-.2.2-.1.3-.3.3-.6 0-.2-.1-.4-.3-.5-.1-.1-.3-.1-.7-.2l-.6-.2c-.4-.1-.7-.2-.9-.3-.3-.2-.5-.5-.5-.9s.2-.8.5-1.1c.3-.3.8-.4 1.3-.4.7 0 1.2.2 1.6.6.2.3.3.5.3.9h-.7c0-.2-.1-.3-.2-.5-.2-.2-.5-.3-1-.3-.3 0-.5.1-.7.2-.2.1-.2.3-.2.5s.1.4.3.5c.1.1.3.1.5.2l.5.1c.6.1 1 .3 1.2.4.3.2.5.5.5.9s-.2.8-.5 1.1c-.3.3-.8.5-1.5.5s-1.2-.1-1.5-.5c-.3-.3-.5-.7-.5-1.2h.7zm-285.2-215.9c.6.3 1 .9 1.2 1.8h-.9c-.1-.5-.3-.8-.6-1-.3-.2-.7-.3-1.2-.3-.6 0-1.1.2-1.5.7s-.6 1.1-.6 2c0 .8.2 1.4.5 1.9s.9.7 1.6.7c.6 0 1-.2 1.4-.5.4-.3.6-.9.6-1.6h-2v-.7h2.8v3.5h-.6l-.2-.8c-.3.3-.5.6-.8.7-.4.2-.9.3-1.4.3-.8 0-1.4-.2-1.9-.7-.6-.6-.9-1.5-.9-2.6s.3-1.9.9-2.6c.5-.6 1.3-.9 2.1-.9.6-.3 1.1-.2 1.5.1zm2.6 1.5h.8v.8c.1-.2.2-.4.5-.6.2-.2.5-.3.8-.3h.3v.8h-.2c-.4 0-.7.1-.9.4-.2.3-.3.6-.3.9v2.7h-.8v-4.7zm5.9.2c.3.2.5.4.7.6.2.2.3.5.3.8 0 .2.1.6.1 1h-3.4c0 .5.1.9.3 1.2.2.3.5.4 1 .4.4 0 .7-.1 1-.4.1-.2.2-.3.3-.6h.8c0 .2-.1.4-.2.6-.1.2-.2.4-.4.5-.2.2-.5.4-.9.5l-.6.1c-.6 0-1.1-.2-1.5-.6-.4-.4-.6-1-.6-1.8s.2-1.4.6-1.8c.4-.5.9-.7 1.6-.7.3-.1.6 0 .9.2zm.3 1.8c0-.3-.1-.6-.2-.8-.2-.4-.6-.6-1.1-.6-.4 0-.7.1-.9.4s-.4.6-.4 1h2.6zm4.3-.1c.2 0 .3-.1.4-.2l.1-.3c0-.3-.1-.5-.3-.6s-.5-.2-.8-.2c-.4 0-.7.1-.9.3-.1.1-.2.3-.2.6h-.7c0-.6.2-1 .6-1.2.4-.2.8-.3 1.3-.3.6 0 1 .1 1.3.3.3.2.5.5.5 1v2.7c0 .1 0 .1.1.2 0 0 .1.1.2.1h.2v.6l-.3.1h-.3c-.3 0-.5-.1-.6-.3-.1-.1-.1-.2-.1-.4-.2.2-.4.4-.7.5s-.6.2-1 .2-.8-.1-1.1-.4c-.3-.3-.4-.6-.4-1s.1-.8.4-1c.3-.2.6-.4 1.1-.4l1.2-.3zm-1.6 2.1c.2.1.4.2.6.2.3 0 .5-.1.8-.2.4-.2.7-.6.7-1v-.6c-.1.1-.2.1-.4.2-.2 0-.3.1-.4.1l-.5.1c-.3 0-.5.1-.6.2-.2.1-.4.4-.4.7-.1 0 0 .2.2.3zm4.3-5.3h.8v1.3h.8v.6h-.8v3.1c0 .2.1.3.2.3h.6v.6c-.1 0-.2 0-.3.1h-.3c-.4 0-.6-.1-.8-.3-.1-.2-.2-.4-.2-.7v-3.1h-.7v-.6h.6v-1.3zm4.9-.4h2.8c.8 0 1.3.2 1.6.7.2.3.3.6.3.9 0 .4-.1.7-.3 1-.1.1-.3.3-.5.4.3.1.6.3.7.4.3.3.4.7.4 1.2 0 .4-.1.8-.4 1.1-.4.5-1 .8-1.9.8h-2.7v-6.5zm2.5 2.7c.4 0 .7-.1.9-.2.3-.2.5-.5.5-.9s-.2-.7-.5-.9c-.2-.1-.5-.1-.9-.1h-1.6v2h1.6zm.3 3c.5 0 .9-.2 1.2-.5.1-.2.2-.4.2-.7 0-.5-.2-.8-.6-1-.2-.1-.5-.1-.9-.1h-1.8v2.3h1.9zm6-3.8c.3.2.5.4.7.6.2.2.3.5.3.8 0 .2.1.6.1 1h-3.4c0 .5.1.9.3 1.2.2.3.5.4 1 .4.4 0 .7-.1 1-.4.1-.2.2-.3.3-.6h.8c0 .2-.1.4-.2.6-.1.2-.2.4-.4.5-.2.2-.5.4-.9.5l-.6.1c-.6 0-1.1-.2-1.5-.6-.4-.4-.6-1-.6-1.8s.2-1.4.6-1.8c.4-.5.9-.7 1.6-.7.3-.1.6 0 .9.2zm.3 1.8c0-.3-.1-.6-.2-.8-.2-.4-.6-.6-1.1-.6-.4 0-.7.1-.9.4s-.4.6-.4 1h2.6zm4.3-.1c.2 0 .3-.1.4-.2l.1-.3c0-.3-.1-.5-.3-.6s-.5-.2-.8-.2c-.4 0-.7.1-.9.3-.1.1-.2.3-.2.6h-.7c0-.6.2-1 .6-1.2.4-.2.8-.3 1.3-.3.6 0 1 .1 1.3.3.3.2.5.5.5 1v2.7c0 .1 0 .1.1.2 0 0 .1.1.2.1h.2v.6l-.3.1h-.3c-.3 0-.5-.1-.6-.3-.1-.1-.1-.2-.1-.4-.2.2-.4.4-.7.5s-.6.2-1 .2-.8-.1-1.1-.4c-.3-.3-.4-.6-.4-1s.1-.8.4-1c.3-.2.6-.4 1.1-.4l1.2-.3zm-1.6 2.1c.2.1.4.2.6.2.3 0 .5-.1.8-.2.4-.2.7-.6.7-1v-.6c-.1.1-.2.1-.4.2-.2 0-.3.1-.4.1l-.5.1c-.3 0-.5.1-.6.2-.2.1-.4.4-.4.7-.1 0 0 .2.2.3zm4.1-4h.8v.8c.1-.2.2-.4.5-.6.2-.2.5-.3.8-.3h.3v.8h-.2c-.4 0-.7.1-.9.4-.2.3-.3.6-.3.9v2.7h-.8v-4.7zm5.6-1.7h.9v5.7h3.2v.8h-4.1v-6.5zm7.5 3.6c.2 0 .3-.1.4-.2l.1-.3c0-.3-.1-.5-.3-.6-.2-.1-.5-.2-.8-.2-.4 0-.7.1-.9.3-.1.1-.2.3-.2.6h-.7c0-.6.2-1 .6-1.2.4-.2.8-.3 1.3-.3.6 0 1 .1 1.3.3.3.2.5.5.5 1v2.7c0 .1 0 .1.1.2 0 0 .1.1.2.1h.2v.6l-.3.1h-.3c-.3 0-.5-.1-.6-.3-.1-.1-.1-.2-.1-.4-.2.2-.4.4-.7.5s-.6.2-1 .2-.8-.1-1.1-.4c-.3-.3-.4-.6-.4-1s.1-.8.4-1c.3-.2.6-.4 1.1-.4l1.2-.3zm-1.7 2.1c.2.1.4.2.6.2.3 0 .5-.1.8-.2.4-.2.7-.6.7-1v-.6c-.1.1-.2.1-.4.2-.2 0-.3.1-.4.1l-.5.1c-.3 0-.5.1-.6.2-.2.1-.4.4-.4.7-.1 0 0 .2.2.3zm4.1-5.7h.8v3.7l2-2h1l-1.8 1.8 1.9 3h-1l-1.5-2.4-.6.6v1.8h-.8v-6.5zm7.4 1.9c.3.2.5.4.7.6.2.2.3.5.3.8 0 .2.1.6.1 1h-3.4c0 .5.1.9.3 1.2.2.3.5.4 1 .4.4 0 .7-.1 1-.4.1-.2.2-.3.3-.6h.8c0 .2-.1.4-.2.6-.1.2-.2.4-.4.5-.2.2-.5.4-.9.5l-.6.1c-.6 0-1.1-.2-1.5-.6-.4-.4-.6-1-.6-1.8s.2-1.4.6-1.8c.4-.5.9-.7 1.6-.7.3-.1.6 0 .9.2zm.3 1.8c0-.3-.1-.6-.2-.8-.2-.4-.6-.6-1.1-.6-.4 0-.7.1-.9.4s-.4.6-.4 1h2.6zm266 120.5h1l3.2 5.2v-5.2h.8v6.5h-1l-3.3-5.2v5.2h-.8v-6.5zm9.8 2.2c.4.4.6 1 .6 1.8s-.2 1.4-.5 1.9c-.4.5-.9.7-1.7.7-.6 0-1.2-.2-1.5-.7-.4-.4-.6-1-.6-1.8s.2-1.4.6-1.9c.4-.5.9-.7 1.6-.7.5.1 1 .3 1.5.7zm-.5 3.1c.2-.4.3-.8.3-1.3 0-.4-.1-.8-.2-1.1-.2-.4-.6-.6-1.1-.6-.5 0-.8.2-1 .6-.2.4-.3.8-.3 1.3s.1.9.3 1.3c.2.3.6.5 1 .5.4-.1.8-.3 1-.7zm2.1-3.6h.8v.8c.1-.2.2-.4.5-.6.2-.2.5-.3.8-.3h.3v.8h-.2c-.4 0-.7.1-.9.4-.2.3-.3.6-.3.9v2.7h-.8v-4.7zm3.1-1.3h.8v1.3h.8v.6h-.8v3.1c0 .2.1.3.2.3h.6v.6c-.1 0-.2 0-.3.1h-.3c-.4 0-.6-.1-.8-.3-.1-.2-.2-.4-.2-.7v-3.1h-.6v-.6h.6v-1.3zm2.3-.5h.8v2.4l.5-.5c.3-.2.6-.2 1-.2.7 0 1.1.2 1.4.7.1.3.2.6.2 1.1v3h-.8v-3c0-.3 0-.6-.1-.8-.1-.3-.4-.4-.8-.4-.3 0-.6.1-.9.3-.3.2-.4.7-.4 1.3v2.5h-.8v-6.4zm7.7.1h.9v5.7h3.2v.8h-4.1v-6.5zm7.4 3.6c.2 0 .3-.1.4-.2l.1-.3c0-.3-.1-.5-.3-.6s-.5-.2-.8-.2c-.4 0-.7.1-.9.3-.1.1-.2.3-.2.6h-.7c0-.6.2-1 .6-1.2s.8-.3 1.3-.3c.6 0 1 .1 1.3.3.3.2.5.5.5 1v2.7c0 .1 0 .1.1.2 0 0 .1.1.2.1h.2v.6l-.3.1h-.3c-.3 0-.5-.1-.6-.3-.1-.1-.1-.2-.1-.4-.2.2-.4.4-.7.5-.3.2-.6.2-1 .2s-.8-.1-1.1-.4-.4-.6-.4-1 .1-.8.4-1 .6-.4 1.1-.4l1.2-.3zm-1.7 2.1c.2.1.4.2.6.2.3 0 .5-.1.8-.2.4-.2.7-.6.7-1v-.7c-.1.1-.2.1-.4.2-.2 0-.3.1-.4.1l-.5.1c-.3 0-.5.1-.6.2-.2.1-.4.4-.4.7 0 .1 0 .3.2.4zm4.1-5.7h.8v3.7l2-2h1l-1.8 1.8 1.9 3h-1l-1.5-2.4-.6.6v1.8h-.8v-6.5zm7.5 1.8c.3.2.5.4.7.6.2.2.3.5.3.8 0 .2.1.6.1 1h-3.4c0 .5.1.9.3 1.2.2.3.5.4 1 .4.4 0 .7-.1 1-.4.1-.2.2-.3.3-.6h.8c0 .2-.1.4-.2.6-.1.2-.2.4-.4.5-.2.2-.5.4-.9.5l-.6.1c-.6 0-1.1-.2-1.5-.6-.4-.4-.6-1-.6-1.8s.2-1.4.6-1.8c.4-.5.9-.7 1.6-.7.2 0 .6.1.9.2zm.3 1.9c0-.3-.1-.6-.2-.8-.2-.4-.6-.6-1.1-.6-.4 0-.7.1-.9.4-.2.3-.4.6-.4 1h2.6zm-379.6-46.7h.8v5.7h3.2v.8h-4.1v-6.5zm7.4 3.6c.2 0 .3-.1.4-.2l.1-.3c0-.3-.1-.5-.3-.6-.2-.1-.5-.2-.8-.2-.4 0-.7.1-.9.3-.1.1-.2.3-.2.6h-.7c0-.6.2-1 .6-1.2.4-.2.8-.3 1.3-.3.6 0 1 .1 1.3.3.3.2.5.5.5 1v2.7c0 .1 0 .1.1.2 0 0 .1.1.2.1h.2v.6l-.3.1h-.3c-.3 0-.5-.1-.6-.3-.1-.1-.1-.2-.1-.4-.2.2-.4.4-.7.5s-.6.2-1 .2-.8-.1-1.1-.4c-.3-.3-.4-.6-.4-1s.1-.8.4-1c.3-.2.6-.4 1.1-.4l1.2-.3zm-1.7 2.2c.2.1.4.2.6.2.3 0 .5-.1.8-.2.4-.2.7-.6.7-1v-.6c-.1.1-.2.1-.4.2-.2 0-.3.1-.4.1l-.5.1c-.3 0-.5.1-.6.2-.2.1-.4.4-.4.7 0-.1 0 .1.2.3zm4.1-5.8h.8v3.7l2-2h1l-1.8 1.8 1.9 3h-1l-1.5-2.4-.6.6v1.8h-.8v-6.5zm7.5 1.9c.3.2.5.4.7.6.2.2.3.5.3.8 0 .2.1.6.1 1h-3.4c0 .5.1.9.3 1.2.2.3.5.4 1 .4.4 0 .7-.1 1-.4.1-.2.2-.3.3-.6h.8c0 .2-.1.4-.2.6-.1.2-.2.4-.4.5-.2.2-.5.4-.9.5l-.6.1c-.6 0-1.1-.2-1.5-.6-.4-.4-.6-1-.6-1.8s.2-1.4.6-1.8c.4-.5.9-.7 1.6-.7.2 0 .6 0 .9.2zm.3 1.8c0-.3-.1-.6-.2-.8-.2-.4-.6-.6-1.1-.6-.4 0-.7.1-.9.4s-.4.6-.4 1h2.6zm5.8-3.7h1l2.3 6.5h-1l-.7-1.9h-2.5l-.7 1.9h-.9l2.5-6.5zm1.4 3.8l-1-2.9-1 2.9h2zm2.7-3.4h.8v1.3h.8v.6h-.8v3.1c0 .2.1.3.2.3h.6v.6c-.1 0-.2 0-.3.1h-.3c-.4 0-.6-.1-.8-.3-.1-.2-.2-.4-.2-.7v-3.1h-.6v-.6h.6v-1.3zm2.4-.4h.8v2.4l.5-.5c.3-.2.6-.3 1-.3.7 0 1.1.2 1.4.7.1.3.2.6.2 1.1v3h-.8v-3c0-.3 0-.6-.1-.8-.1-.3-.4-.4-.8-.4-.3 0-.6.1-.9.3s-.4.7-.4 1.3v2.5h-.8v-6.3zm7.5 3.6c.2 0 .3-.1.4-.2l.1-.3c0-.3-.1-.5-.3-.6s-.5-.2-.8-.2c-.4 0-.7.1-.9.3-.1.1-.2.3-.2.6h-.7c0-.6.2-1 .6-1.2.4-.2.8-.3 1.3-.3.6 0 1 .1 1.3.3.3.2.5.5.5 1v2.7c0 .1 0 .1.1.2 0 0 .1.1.2.1h.2v.6l-.3.1h-.3c-.3 0-.5-.1-.6-.3-.1-.1-.1-.2-.1-.4-.2.2-.4.4-.7.5s-.6.2-1 .2-.8-.1-1.1-.4c-.3-.3-.4-.6-.4-1s.1-.8.4-1c.3-.2.6-.4 1.1-.4l1.2-.3zm-1.7 2.2c.2.1.4.2.6.2.3 0 .5-.1.8-.2.4-.2.7-.6.7-1v-.6c-.1.1-.2.1-.4.2-.2 0-.3.1-.4.1l-.5.1c-.3 0-.5.1-.6.2-.2.1-.4.4-.4.7 0-.1.1.1.2.3zm4.1-5.8h.8v2.3c.2-.2.4-.4.6-.5.2-.1.5-.2.8-.2.6 0 1.1.2 1.4.6.4.4.5 1 .5 1.8 0 .7-.2 1.4-.5 1.9s-.9.7-1.5.7c-.4 0-.7-.1-.9-.3l-.5-.5v.6h-.7v-6.4zm3 5.4c.2-.3.3-.8.3-1.3s-.1-.9-.3-1.2-.5-.5-.9-.5-.7.1-1 .4c-.3.3-.4.7-.4 1.3 0 .4.1.8.2 1.1.2.5.6.8 1.2.8.4-.1.7-.3.9-.6zm4.6-1.8c.2 0 .3-.1.4-.2l.1-.3c0-.3-.1-.5-.3-.6s-.5-.2-.8-.2c-.4 0-.7.1-.9.3-.1.1-.2.3-.2.6h-.7c0-.6.2-1 .6-1.2.4-.2.8-.3 1.3-.3.6 0 1 .1 1.3.3.3.2.5.5.5 1v2.7c0 .1 0 .1.1.2 0 0 .1.1.2.1h.2v.6l-.3.1h-.3c-.3 0-.5-.1-.6-.3-.1-.1-.1-.2-.1-.4-.2.2-.4.4-.7.5s-.6.2-1 .2-.8-.1-1.1-.4c-.3-.3-.4-.6-.4-1s.1-.8.4-1c.3-.2.6-.4 1.1-.4l1.2-.3zm-1.6 2.2c.2.1.4.2.6.2.3 0 .5-.1.8-.2.4-.2.7-.6.7-1v-.6c-.1.1-.2.1-.4.2-.2 0-.3.1-.4.1l-.5.1c-.3 0-.5.1-.6.2-.2.1-.4.4-.4.7-.1-.1 0 .1.2.3zm4.6-.8c0 .3.1.5.2.6.2.3.6.4 1.1.4.3 0 .6-.1.8-.2.2-.1.3-.3.3-.6 0-.2-.1-.4-.3-.5-.1-.1-.3-.1-.7-.2l-.6-.2c-.4-.1-.7-.2-.9-.3-.3-.2-.5-.5-.5-.9s.2-.8.5-1.1c.3-.3.8-.4 1.3-.4.7 0 1.2.2 1.6.6.2.3.3.5.3.9h-.7c0-.2-.1-.3-.2-.5-.2-.2-.5-.3-1-.3-.3 0-.5.1-.7.2-.2.1-.2.3-.2.5s.1.4.3.5c.1.1.3.1.5.2l.5.1c.6.1 1 .3 1.2.4.3.2.5.5.5 1 0 .4-.2.8-.5 1.1-.3.3-.8.5-1.5.5s-1.2-.2-1.5-.5c-.3-.3-.5-.7-.5-1.2h.7zm7.1-3c.3.3.5.7.6 1.3h-.8c0-.3-.2-.5-.3-.7-.2-.2-.4-.3-.8-.3-.5 0-.9.2-1.1.7-.1.3-.2.7-.2 1.2s.1.9.3 1.2c.2.3.5.5.9.5.3 0 .6-.1.8-.3.2-.2.3-.5.4-.8h.8c-.1.6-.3 1.1-.7 1.4-.4.3-.8.4-1.3.4-.6 0-1.1-.2-1.5-.7s-.5-1-.5-1.7c0-.8.2-1.5.6-1.9s.9-.7 1.5-.7c.5 0 1 .2 1.3.4zm3.9 1.6c.2 0 .3-.1.4-.2l.1-.3c0-.3-.1-.5-.3-.6-.2-.1-.5-.2-.8-.2-.4 0-.7.1-.9.3-.1.1-.2.3-.2.6h-.7c0-.6.2-1 .6-1.2.4-.2.8-.3 1.3-.3.6 0 1 .1 1.3.3.3.2.5.5.5 1v2.7c0 .1 0 .1.1.2 0 0 .1.1.2.1h.2v.6l-.3.1h-.3c-.3 0-.5-.1-.6-.3-.1-.1-.1-.2-.1-.4-.2.2-.4.4-.7.5s-.6.2-1 .2-.8-.1-1.1-.4c-.3-.3-.4-.6-.4-1s.1-.8.4-1c.3-.2.6-.4 1.1-.4l1.2-.3zm-1.6 2.2c.2.1.4.2.6.2.3 0 .5-.1.8-.2.4-.2.7-.6.7-1v-.6c-.1.1-.2.1-.4.2-.2 0-.3.1-.4.1l-.5.1c-.3 0-.5.1-.6.2-.2.1-.4.4-.4.7-.1-.1 0 .1.2.3zm-59.8 18.8h4.5v.8h-3.6v2h3.2v.8h-3.2v2.9h-.9v-6.5zm5.3 1.7h.8v.8c.1-.2.2-.4.5-.6.2-.2.5-.3.8-.3h.3v.8h-.2c-.4 0-.7.1-.9.4-.2.3-.3.6-.3.9v2.7h-.8v-4.7zm5.5 1.9c.2 0 .3-.1.4-.2l.1-.3c0-.3-.1-.5-.3-.6s-.5-.2-.8-.2c-.4 0-.7.1-.9.3-.1.1-.2.3-.2.6h-.7c0-.6.2-1 .6-1.2.4-.2.8-.3 1.3-.3.6 0 1 .1 1.3.3.3.2.5.5.5 1v2.7c0 .1 0 .1.1.2 0 0 .1.1.2.1h.2v.6l-.3.1h-.3c-.3 0-.5-.1-.6-.3-.1-.1-.1-.2-.1-.4-.2.2-.4.4-.7.5s-.6.2-1 .2-.8-.1-1.1-.4c-.3-.3-.4-.6-.4-1s.1-.8.4-1c.3-.2.6-.4 1.1-.4l1.2-.3zm-1.6 2.1c.2.1.4.2.6.2.3 0 .5-.1.8-.2.4-.2.7-.6.7-1v-.6c-.1.1-.2.1-.4.2-.2 0-.3.1-.4.1l-.5.1c-.3 0-.5.1-.6.2-.2.1-.4.4-.4.7-.1 0 0 .2.2.3zm4.6-.8c0 .3.1.5.2.6.2.3.6.4 1.1.4.3 0 .6-.1.8-.2.2-.1.3-.3.3-.6 0-.2-.1-.4-.3-.5-.1-.1-.3-.1-.7-.2l-.6-.2c-.4-.1-.7-.2-.9-.3-.3-.2-.5-.5-.5-.9s.2-.8.5-1.1c.3-.3.8-.4 1.3-.4.7 0 1.2.2 1.6.6.2.3.3.5.3.9h-.7c0-.2-.1-.3-.2-.5-.2-.2-.5-.3-1-.3-.3 0-.5.1-.7.2-.2.1-.2.3-.2.5s.1.4.3.5c.1.1.3.1.5.2l.5.1c.6.1 1 .3 1.2.4.3.2.5.5.5 1 0 .4-.2.8-.5 1.1-.3.3-.8.5-1.5.5s-1.2-.2-1.5-.5c-.3-.3-.5-.7-.5-1.2h.7zm6.9-3.1c.3.2.5.4.7.6.2.2.3.5.3.8 0 .2.1.6.1 1h-3.4c0 .5.1.9.3 1.2.2.3.5.4 1 .4.4 0 .7-.1 1-.4.1-.2.2-.3.3-.6h.8c0 .2-.1.4-.2.6-.1.2-.2.4-.4.5-.2.2-.5.4-.9.5l-.6.1c-.6 0-1.1-.2-1.5-.6-.4-.4-.6-1-.6-1.8s.2-1.4.6-1.8c.4-.5.9-.7 1.6-.7.3 0 .6.1.9.2zm.3 1.9c0-.3-.1-.6-.2-.8-.2-.4-.6-.6-1.1-.6-.4 0-.7.1-.9.4s-.4.6-.4 1h2.6zm1.8-2h.8v.8c.1-.2.2-.4.5-.6.2-.2.5-.3.8-.3h.3v.8h-.2c-.4 0-.7.1-.9.4-.2.3-.3.6-.3.9v2.7h-1v-4.7zm5.7-1.7h2.9c.5 0 .9.1 1.2.2.6.3.9.8.9 1.5 0 .4-.1.7-.2.9-.2.2-.4.4-.7.6.3.1.4.2.6.4.1.2.2.4.2.8v.9c0 .2 0 .4.1.5.1.2.1.3.3.4v.1h-1.1l-.1-.2v-.5l-.1-1.1c0-.4-.2-.7-.5-.8-.2-.1-.4-.1-.8-.1h-1.9v2.8h-.9v-6.4zm2.9 2.9c.4 0 .7-.1.9-.2s.3-.5.3-.9c0-.5-.2-.8-.5-.9-.2-.1-.4-.1-.7-.1h-2.1v2.2h2.1zm3.4-2.9h.8v.9h-.8v-.9zm0 1.7h.8v4.7h-.8v-4.7zm2.4 0l1.3 3.8 1.3-3.8h.9l-1.8 4.7h-.8l-1.7-4.7h.8zm7 .1c.3.2.5.4.7.6.2.2.3.5.3.8 0 .2.1.6.1 1h-3.4c0 .5.1.9.3 1.2.2.3.5.4 1 .4.4 0 .7-.1 1-.4.1-.2.2-.3.3-.6h.8c0 .2-.1.4-.2.6-.1.2-.2.4-.4.5-.2.2-.5.4-.9.5l-.6.1c-.6 0-1.1-.2-1.5-.6-.4-.4-.6-1-.6-1.8s.2-1.4.6-1.8c.4-.5.9-.7 1.6-.7.3 0 .6.1.9.2zm.3 1.9c0-.3-.1-.6-.2-.8-.2-.4-.6-.6-1.1-.6-.4 0-.7.1-.9.4s-.4.6-.4 1h2.6zm1.8-2h.8v.8c.1-.2.2-.4.5-.6.2-.2.5-.3.8-.3h.3v.8h-.2c-.4 0-.7.1-.9.4-.2.3-.3.6-.3.9v2.7h-.8v-4.7zm30.4 42.3h.9v5.7h3.2v.8h-4.1v-6.5zm7.4 3.6c.2 0 .3-.1.4-.2l.1-.3c0-.3-.1-.5-.3-.6-.2-.1-.5-.2-.8-.2-.4 0-.7.1-.9.3-.1.1-.2.3-.2.6h-.7c0-.6.2-1 .6-1.2s.8-.3 1.3-.3c.6 0 1 .1 1.3.3.3.2.5.5.5 1v2.7c0 .1 0 .1.1.2 0 0 .1.1.2.1h.2v.6l-.3.1h-.3c-.3 0-.5-.1-.6-.3-.1-.1-.1-.2-.1-.4-.2.2-.4.4-.7.5-.3.2-.6.2-1 .2s-.8-.1-1.1-.4c-.3-.3-.4-.6-.4-1s.1-.8.4-1c.3-.2.6-.4 1.1-.4l1.2-.3zm-1.6 2.1c.2.1.4.2.6.2.3 0 .5-.1.8-.2.4-.2.7-.6.7-1v-.6c-.1.1-.2.1-.4.2-.2 0-.3.1-.4.1l-.5.1c-.3 0-.5.1-.6.2-.2.1-.4.4-.4.7-.1 0 0 .2.2.3zm4.1-5.7h.8v3.7l2-2h1l-1.8 1.8 1.9 3h-1l-1.5-2.4-.6.6v1.8h-.8v-6.5zm7.4 1.9c.3.2.5.4.7.6.2.2.3.5.3.8 0 .2.1.6.1 1h-3.4c0 .5.1.9.3 1.2s.5.4 1 .4c.4 0 .7-.1 1-.4.1-.2.2-.3.3-.6h.8c0 .2-.1.4-.2.6-.1.2-.2.4-.4.5-.2.2-.5.4-.9.5l-.6.1c-.6 0-1.1-.2-1.5-.6-.4-.4-.6-1-.6-1.8s.2-1.4.6-1.8.9-.7 1.6-.7c.3-.1.6 0 .9.2zm.3 1.8c0-.3-.1-.6-.2-.8-.2-.4-.6-.6-1.1-.6-.4 0-.7.1-.9.4-.2.3-.4.6-.4 1h2.6zm4.9-3.7l1.2 5.2 1.5-5.2h.9l1.5 5.3 1.2-5.3h1l-1.7 6.5h-1l-1.5-5.4-1.5 5.3h-.9l-1.7-6.5h1zm7.9 0h.8v.9h-.8v-.9zm0 1.7h.8v4.7h-.8v-4.7zm2 0h.8v.7c.2-.3.5-.5.7-.6.2-.1.5-.2.8-.2.7 0 1.1.2 1.4.7.1.3.2.6.2 1.1v3h-.8v-3c0-.3 0-.5-.1-.7-.1-.3-.4-.4-.8-.4-.2 0-.3 0-.5.1s-.4.2-.6.4l-.3.5c0 .2-.1.4-.1.7v2.5h-.8v-4.8zm5 0h.8v.7c.2-.3.5-.5.7-.6s.5-.2.8-.2c.7 0 1.1.2 1.4.7.1.3.2.6.2 1.1v3h-.8v-3c0-.3 0-.5-.1-.7-.1-.3-.4-.4-.8-.4-.2 0-.3 0-.5.1s-.4.2-.6.4l-.3.5c0 .2-.1.4-.1.7v2.5h-.8v-4.8zm5-1.7h.8v.9h-.8v-.9zm0 1.7h.8v4.7h-.8v-4.7zm2 0h.8v.6c.2-.2.3-.4.5-.5.3-.2.6-.3.9-.3.5 0 1 .2 1.4.6.4.4.6 1 .6 1.8 0 1-.3 1.8-.8 2.2-.3.3-.7.4-1.2.4-.4 0-.7-.1-.9-.2-.1-.1-.3-.2-.5-.5v2.4h-.8v-6.5zm3 3.7c.2-.3.4-.8.4-1.4 0-.4-.1-.7-.2-1-.2-.5-.6-.8-1.1-.8-.5 0-.9.3-1.1.8-.1.3-.2.7-.2 1.1 0 .4.1.7.2.9.2.5.6.7 1.1.7.3.2.6 0 .9-.3zm5-3.5c.3.2.5.4.7.6.2.2.3.5.3.8 0 .2.1.6.1 1h-3.4c0 .5.1.9.3 1.2s.5.4 1 .4c.4 0 .7-.1 1-.4.1-.2.2-.3.3-.6h.8c0 .2-.1.4-.2.6-.1.2-.2.4-.4.5-.2.2-.5.4-.9.5l-.6.1c-.6 0-1.1-.2-1.5-.6-.4-.4-.6-1-.6-1.8s.2-1.4.6-1.8.9-.7 1.6-.7c.2-.1.5 0 .9.2zm.2 1.8c0-.3-.1-.6-.2-.8-.2-.4-.6-.6-1.1-.6-.4 0-.7.1-.9.4-.2.3-.4.6-.4 1h2.6zm4.5-1.8c.1.1.3.3.5.4v-.6h.7v4.3c0 .6-.1 1.1-.3 1.4-.3.6-.9 1-1.9 1-.5 0-.9-.1-1.3-.3-.3-.2-.5-.6-.6-1.1h.8c0 .2.1.4.2.5.2.2.5.3.8.3.6 0 1-.2 1.2-.6.1-.3.2-.7.2-1.3-.2.2-.3.4-.6.5-.2.1-.5.2-.9.2-.5 0-1-.2-1.3-.5-.4-.4-.6-1-.6-1.8s.2-1.4.6-1.8c.4-.4.8-.7 1.4-.7.5-.2.8-.1 1.1.1zm.1.9c-.2-.3-.5-.4-.9-.4-.6 0-.9.3-1.1.8-.1.3-.2.6-.2 1.1 0 .5.1.9.3 1.2.2.3.5.4.9.4.6 0 1-.3 1.2-.8.1-.3.2-.6.2-1-.1-.6-.2-1.1-.4-1.3zm247.5-4.4c.4.4.7.9.7 1.5h-.9c-.1-.4-.3-.7-.6-1s-.7-.4-1.2-.4c-.6 0-1.1.2-1.5.7s-.6 1.1-.6 2.1c0 .8.2 1.4.5 1.8s.9.7 1.6.7c.6 0 1.1-.2 1.4-.7.2-.3.3-.6.4-1h.9c-.1.7-.3 1.2-.7 1.7-.5.6-1.2.8-2.1.8-.7 0-1.4-.2-1.9-.7-.7-.6-1-1.5-1-2.8 0-1 .2-1.7.7-2.3.5-.7 1.3-1 2.2-1 1-.1 1.6.1 2.1.6zm4.3 3.1c.2 0 .3-.1.4-.2l.1-.3c0-.3-.1-.5-.3-.6s-.5-.2-.8-.2c-.4 0-.7.1-.9.3-.1.1-.2.3-.2.6h-.7c0-.6.2-1 .6-1.2.4-.2.8-.3 1.3-.3.6 0 1 .1 1.3.3.3.2.5.5.5 1v2.7c0 .1 0 .1.1.2 0 0 .1.1.2.1h.2v.6l-.3.1h-.3c-.3 0-.5-.1-.6-.3-.1-.1-.1-.2-.1-.4-.2.2-.4.4-.7.5-.3.2-.6.2-1 .2s-.8-.1-1.1-.4c-.3-.3-.4-.6-.4-1s.1-.8.4-1c.3-.2.6-.4 1.1-.4l1.2-.3zm-1.6 2.1c.2.1.4.2.6.2.3 0 .5-.1.8-.2.4-.2.7-.6.7-1v-.6c-.1.1-.2.1-.4.2-.2 0-.3.1-.4.1l-.5.1c-.3 0-.5.1-.6.2-.2.1-.4.4-.4.7-.1 0 0 .2.2.3zm4.6-.7c0 .3.1.5.2.6.2.3.6.4 1.1.4.3 0 .6-.1.8-.2.2-.1.3-.3.3-.6 0-.2-.1-.4-.3-.5-.1-.1-.3-.1-.7-.2l-.6-.2c-.4-.1-.7-.2-.9-.3-.3-.2-.5-.5-.5-.9s.2-.8.5-1.1.8-.4 1.3-.4c.7 0 1.2.2 1.6.6.2.3.3.5.3.9h-.7c0-.2-.1-.3-.2-.5-.2-.2-.5-.3-1-.3-.3 0-.5.1-.7.2-.2.1-.2.3-.2.5s.1.4.3.5c.1.1.3.1.5.2l.5.1c.6.1 1 .3 1.2.4.3.2.5.5.5 1 0 .4-.2.8-.5 1.1-.3.3-.8.5-1.5.5s-1.2-.2-1.5-.5c-.3-.3-.5-.7-.5-1.2h.7zm7.1-3c.3.3.5.7.6 1.3h-.8c0-.3-.2-.5-.3-.7-.2-.2-.4-.3-.8-.3-.5 0-.9.2-1.1.7-.1.3-.2.7-.2 1.2s.1.9.3 1.2c.2.3.5.5.9.5.3 0 .6-.1.8-.3.2-.2.3-.5.4-.8h.8c-.1.6-.3 1.1-.7 1.4-.4.3-.8.4-1.3.4-.6 0-1.1-.2-1.5-.7-.4-.5-.5-1-.5-1.7 0-.8.2-1.5.6-1.9s.9-.7 1.5-.7 1 .1 1.3.4zm3.9 1.6c.2 0 .3-.1.4-.2l.1-.3c0-.3-.1-.5-.3-.6s-.5-.2-.8-.2c-.4 0-.7.1-.9.3-.1.1-.2.3-.2.6h-.7c0-.6.2-1 .6-1.2.4-.2.8-.3 1.3-.3.6 0 1 .1 1.3.3.3.2.5.5.5 1v2.7c0 .1 0 .1.1.2 0 0 .1.1.2.1h.2v.6l-.3.1h-.3c-.3 0-.5-.1-.6-.3-.1-.1-.1-.2-.1-.4-.2.2-.4.4-.7.5-.3.2-.6.2-1 .2s-.8-.1-1.1-.4c-.3-.3-.4-.6-.4-1s.1-.8.4-1c.3-.2.6-.4 1.1-.4l1.2-.3zm-1.6 2.1c.2.1.4.2.6.2.3 0 .5-.1.8-.2.4-.2.7-.6.7-1v-.6c-.1.1-.2.1-.4.2-.2 0-.3.1-.4.1l-.5.1c-.3 0-.5.1-.6.2-.2.1-.4.4-.4.7-.1 0 0 .2.2.3zm4.1-3.9h.8v.6c.2-.2.3-.4.5-.5.3-.2.6-.3.9-.3.5 0 1 .2 1.4.6.4.4.6 1 .6 1.8 0 1-.3 1.8-.8 2.2-.3.3-.7.4-1.2.4-.4 0-.7-.1-.9-.2-.1-.1-.3-.2-.5-.5v2.4h-.8v-6.5zm2.9 3.7c.2-.3.4-.8.4-1.4 0-.4-.1-.7-.2-1-.2-.5-.6-.8-1.1-.8-.5 0-.9.3-1.1.8-.1.3-.2.7-.2 1.1 0 .4.1.7.2.9.2.5.6.7 1.1.7.4.1.7 0 .9-.3zm5-3.6c.3.2.5.4.7.6.2.2.3.5.3.8 0 .2.1.6.1 1h-3.4c0 .5.1.9.3 1.2s.5.4 1 .4c.4 0 .7-.1 1-.4.1-.2.2-.3.3-.6h.8c0 .2-.1.4-.2.6-.1.2-.2.4-.4.5-.2.2-.5.4-.9.5l-.6.1c-.6 0-1.1-.2-1.5-.6-.4-.4-.6-1-.6-1.8s.2-1.4.6-1.8c.4-.5.9-.7 1.6-.7.3-.1.6 0 .9.2zm.3 1.8c0-.3-.1-.6-.2-.8-.2-.4-.6-.6-1.1-.6-.4 0-.7.1-.9.4-.2.3-.4.6-.4 1h2.6zm4.4-1.8c.1.1.3.2.5.5v-2.4h.8v6.5h-.7v-.7c-.2.3-.4.5-.7.6s-.5.2-.9.2c-.5 0-1-.2-1.4-.7-.4-.4-.6-1-.6-1.8 0-.7.2-1.3.5-1.8s.8-.8 1.5-.8c.5.2.8.2 1 .4zm-1.7 3.5c.2.3.6.5 1 .5s.7-.2.9-.5c.2-.3.4-.8.4-1.4 0-.6-.1-1-.4-1.3-.2-.3-.5-.4-.9-.4s-.7.2-1 .5-.4.8-.4 1.3c0 .6.2 1 .4 1.3zm4.1-5.4h.8v.9h-.8v-.9zm0 1.8h.8v4.7h-.8v-4.7zm4.6 1.8c.2 0 .3-.1.4-.2l.1-.3c0-.3-.1-.5-.3-.6s-.5-.2-.8-.2c-.4 0-.7.1-.9.3-.1.1-.2.3-.2.6h-.7c0-.6.2-1 .6-1.2.4-.2.8-.3 1.3-.3.6 0 1 .1 1.3.3.3.2.5.5.5 1v2.7c0 .1 0 .1.1.2 0 0 .1.1.2.1h.2v.6l-.3.1h-.3c-.3 0-.5-.1-.6-.3-.1-.1-.1-.2-.1-.4-.2.2-.4.4-.7.5-.3.2-.6.2-1 .2s-.8-.1-1.1-.4c-.3-.3-.4-.6-.4-1s.1-.8.4-1c.3-.2.6-.4 1.1-.4l1.2-.3zm-1.7 2.1c.2.1.4.2.6.2.3 0 .5-.1.8-.2.4-.2.7-.6.7-1v-.6c-.1.1-.2.1-.4.2-.2 0-.3.1-.4.1l-.5.1c-.3 0-.5.1-.6.2-.2.1-.4.4-.4.7 0 0 0 .2.2.3zm-29.9 5.1h2.9c.5 0 .9.1 1.2.2.6.3.9.8.9 1.5 0 .4-.1.7-.2.9-.2.2-.4.4-.7.6.3.1.4.2.6.4.1.2.2.4.2.8v.9c0 .2 0 .4.1.5.1.2.1.3.3.4v.1h-1.1l-.1-.2v-.5l-.1-1.1c0-.4-.2-.7-.5-.8-.2-.1-.4-.1-.8-.1h-1.9v2.8h-.9v-6.4zm2.8 3c.4 0 .7-.1.9-.2s.3-.5.3-.9c0-.5-.2-.8-.5-.9-.2-.1-.4-.1-.7-.1h-2.1v2.2h2.1zm3.5-3h.8v.9h-.8v-.9zm0 1.8h.8v4.7h-.8v-4.7zm2.4-.1l1.3 3.8 1.3-3.8h.9l-1.8 4.7h-.8l-1.7-4.7h.8zm7 .2c.3.2.5.4.7.6.2.2.3.5.3.8 0 .2.1.6.1 1h-3.4c0 .5.1.9.3 1.2s.5.4 1 .4c.4 0 .7-.1 1-.4.1-.2.2-.3.3-.6h.8c0 .2-.1.4-.2.6-.1.2-.2.4-.4.5-.2.2-.5.4-.9.5l-.6.1c-.6 0-1.1-.2-1.5-.6-.4-.4-.6-1-.6-1.8s.2-1.4.6-1.8c.4-.5.9-.7 1.6-.7.3-.1.6 0 .9.2zm.3 1.8c0-.3-.1-.6-.2-.8-.2-.4-.6-.6-1.1-.6-.4 0-.7.1-.9.4-.2.3-.4.6-.4 1h2.6zm1.8-2h.8v.8c.1-.2.2-.4.5-.6.2-.2.5-.3.8-.3h.3v.8h-.2c-.4 0-.7.1-.9.4-.2.3-.3.6-.3.9v2.7h-.8v-4.7zm-186.6 58.4h.9v5.7h3.2v.8h-4.1v-6.5zm7.5 3.6c.2 0 .3-.1.4-.2l.1-.3c0-.3-.1-.5-.3-.6s-.5-.2-.8-.2c-.4 0-.7.1-.9.3-.1.1-.2.3-.2.6h-.7c0-.6.2-1 .6-1.2.4-.2.8-.3 1.3-.3.6 0 1 .1 1.3.3.3.2.5.5.5 1v2.7c0 .1 0 .1.1.2 0 0 .1.1.2.1h.2v.6l-.3.1h-.3c-.3 0-.5-.1-.6-.3-.1-.1-.1-.2-.1-.4-.2.2-.4.4-.7.5-.3.2-.6.2-1 .2s-.8-.1-1.1-.4c-.3-.3-.4-.6-.4-1s.1-.8.4-1c.3-.2.6-.4 1.1-.4l1.2-.3zm-1.7 2.2c.2.1.4.2.6.2.3 0 .5-.1.8-.2.4-.2.7-.6.7-1v-.6c-.1.1-.2.1-.4.2-.2 0-.3.1-.4.1l-.5.1c-.3 0-.5.1-.6.2-.2.1-.4.4-.4.7-.1 0 0 .1.2.3zm4.1-5.8h.8v3.7l2-2h1l-1.8 1.8 1.9 3h-1l-1.5-2.4-.7.6v1.8h-.8v-6.5zm7.4 1.9c.3.2.5.4.7.6.2.2.3.5.3.8 0 .2.1.6.1 1h-3.4c0 .5.1.9.3 1.2s.5.4 1 .4c.4 0 .7-.1 1-.4.1-.2.2-.3.3-.6h.8c0 .2-.1.4-.2.6-.1.2-.2.4-.4.5-.2.2-.5.4-.9.5l-.6.1c-.6 0-1.1-.2-1.5-.6-.4-.4-.6-1-.6-1.8s.2-1.4.6-1.8c.4-.5.9-.7 1.6-.7.3 0 .6 0 .9.2zm.3 1.8c0-.3-.1-.6-.2-.8-.2-.4-.6-.6-1.1-.6-.4 0-.7.1-.9.4-.2.3-.4.6-.4 1h2.6zm4.5-3.7h4.7v.8h-3.8v2h3.5v.7h-3.5v2.2h3.9v.8h-4.8v-6.5zm5.9 1.8h.8v.8c.1-.2.2-.4.5-.6.2-.2.5-.3.8-.3h.3v.8h-.2c-.4 0-.7.1-.9.4-.2.3-.3.6-.3.9v2.7h-.8v-4.7zm2.9-1.8h.8v.9h-.8v-.9zm0 1.8h.8v4.7h-.8v-4.7zm5 .1c.3.2.5.4.7.6.2.2.3.5.3.8 0 .2.1.6.1 1h-3.4c0 .5.1.9.3 1.2s.5.4 1 .4c.4 0 .7-.1 1-.4.1-.2.2-.3.3-.6h.8c0 .2-.1.4-.2.6-.1.2-.2.4-.4.5-.2.2-.5.4-.9.5l-.6.1c-.6 0-1.1-.2-1.5-.6-.4-.4-.6-1-.6-1.8s.2-1.4.6-1.8c.4-.5.9-.7 1.6-.7.2 0 .5 0 .9.2zm.2 1.8c0-.3-.1-.6-.2-.8-.2-.4-.6-.6-1.1-.6-.4 0-.7.1-.9.4-.2.3-.4.6-.4 1h2.6zm-97.8-83.4h.9v5.7h3.2v.8h-4.1v-6.5zm7.4 3.6c.2 0 .3-.1.4-.2l.1-.3c0-.3-.1-.5-.3-.6s-.5-.2-.8-.2c-.4 0-.7.1-.9.3-.1.1-.2.3-.2.6h-.7c0-.6.2-1 .6-1.2.4-.2.8-.3 1.3-.3.6 0 1 .1 1.3.3.3.2.5.5.5 1v2.7c0 .1 0 .1.1.2 0 0 .1.1.2.1h.2v.6l-.3.1h-.3c-.3 0-.5-.1-.6-.3-.1-.1-.1-.2-.1-.4-.2.2-.4.4-.7.5-.3.2-.6.2-1 .2s-.8-.1-1.1-.4c-.3-.3-.4-.6-.4-1s.1-.8.4-1c.3-.2.6-.4 1.1-.4l1.2-.3zm-1.6 2.2c.2.1.4.2.6.2.3 0 .5-.1.8-.2.4-.2.7-.6.7-1v-.6c-.1.1-.2.1-.4.2-.2 0-.3.1-.4.1l-.5.1c-.3 0-.5.1-.6.2-.2.1-.4.4-.4.7-.1 0 0 .1.2.3zm4.1-5.8h.8v3.7l2-2h1l-1.8 1.8 1.9 3h-1l-1.5-2.4-.7.6v1.8h-.8v-6.5zm7.4 1.9c.3.2.5.4.7.6.2.2.3.5.3.8 0 .2.1.6.1 1h-3.4c0 .5.1.9.3 1.2s.5.4 1 .4c.4 0 .7-.1 1-.4.1-.2.2-.3.3-.6h.8c0 .2-.1.4-.2.6-.1.2-.2.4-.4.5-.2.2-.5.4-.9.5l-.6.1c-.6 0-1.1-.2-1.5-.6-.4-.4-.6-1-.6-1.8s.2-1.4.6-1.8c.4-.5.9-.7 1.6-.7.3 0 .6 0 .9.2zm.3 1.9c0-.3-.1-.6-.2-.8-.2-.4-.6-.6-1.1-.6-.4 0-.7.1-.9.4-.2.3-.4.6-.4 1h2.6zm4.4-3.8h1l3.2 5.2v-5.2h.8v6.5h-1l-3.3-5.2v5.2h-.8v-6.5zm6.4 0h.8v.9h-.8v-.9zm0 1.8h.8v4.7h-.8v-4.7zm1.9 0h.8v.6c.2-.2.3-.4.5-.5.3-.2.6-.3.9-.3.5 0 1 .2 1.4.6.4.4.6 1 .6 1.8 0 1-.3 1.8-.8 2.2-.3.3-.7.4-1.2.4-.4 0-.7-.1-.9-.2-.1-.1-.3-.2-.5-.5v2.4h-.8v-6.5zm3 3.7c.2-.3.4-.8.4-1.4 0-.4-.1-.7-.2-1-.2-.5-.6-.8-1.1-.8-.5 0-.9.3-1.1.8-.1.3-.2.7-.2 1.1 0 .4.1.7.2.9.2.5.6.7 1.1.7.4.1.7 0 .9-.3zm2.1-5.5h.8v.9h-.8v-.9zm0 1.8h.8v4.7h-.8v-4.7zm2.5 3.2c0 .3.1.5.2.6.2.3.6.4 1.1.4.3 0 .6-.1.8-.2.2-.1.3-.3.3-.6 0-.2-.1-.4-.3-.5-.1-.1-.3-.1-.7-.2l-.6-.2c-.4-.1-.7-.2-.9-.3-.3-.2-.5-.5-.5-.9s.2-.8.5-1.1.8-.4 1.3-.4c.7 0 1.2.2 1.6.6.2.3.3.5.3.9h-.7c0-.2-.1-.3-.2-.5-.2-.2-.5-.3-1-.3-.3 0-.5.1-.7.2-.2.1-.2.3-.2.5s.1.4.3.5c.1.1.3.1.5.2l.5.1c.6.1 1 .3 1.2.4.3.2.5.5.5 1 0 .4-.2.8-.5 1.1-.3.3-.8.5-1.5.5s-1.2-.2-1.5-.5c-.3-.3-.5-.7-.5-1.2h.7zm4.5 0c0 .3.1.5.2.6.2.3.6.4 1.1.4.3 0 .6-.1.8-.2.2-.1.3-.3.3-.6 0-.2-.1-.4-.3-.5-.1-.1-.3-.1-.7-.2l-.6-.2c-.4-.1-.7-.2-.9-.3-.3-.2-.5-.5-.5-.9s.2-.8.5-1.1.8-.4 1.3-.4c.7 0 1.2.2 1.6.6.2.3.3.5.3.9h-.7c0-.2-.1-.3-.2-.5-.2-.2-.5-.3-1-.3-.3 0-.5.1-.7.2-.2.1-.2.3-.2.5s.1.4.3.5c.1.1.3.1.5.2l.5.1c.6.1 1 .3 1.2.4.3.2.5.5.5 1 0 .4-.2.8-.5 1.1-.3.3-.8.5-1.5.5s-1.2-.2-1.5-.5c-.3-.3-.5-.7-.5-1.2h.7zm4-5h.8v.9h-.8v-.9zm0 1.8h.8v4.7h-.8v-4.7zm2 0h.8v.7c.2-.3.5-.5.7-.6s.5-.2.8-.2c.7 0 1.1.2 1.4.7.1.3.2.6.2 1.1v3h-.8v-3c0-.3 0-.5-.1-.7-.1-.3-.4-.4-.8-.4-.2 0-.3 0-.5.1s-.4.2-.6.4l-.3.5c0 .2-.1.4-.1.7v2.5h-.8v-4.8zm7.6.2c.1.1.3.3.5.4v-.6h.7v4.3c0 .6-.1 1.1-.3 1.4-.3.6-.9 1-1.9 1-.5 0-.9-.1-1.3-.3-.3-.2-.5-.6-.6-1.1h.8c0 .2.1.4.2.5.2.2.5.3.8.3.6 0 1-.2 1.2-.6.1-.3.2-.7.2-1.3-.2.2-.3.4-.6.5-.2.1-.5.2-.9.2-.5 0-1-.2-1.3-.5-.4-.4-.6-1-.6-1.8s.2-1.4.6-1.8c.4-.4.8-.7 1.4-.7.5-.2.9-.1 1.1.1zm.1.8c-.2-.3-.5-.4-.9-.4-.6 0-.9.3-1.1.8-.1.3-.2.6-.2 1.1 0 .5.1.9.3 1.2.2.3.5.4.9.4.6 0 1-.3 1.2-.8.1-.3.2-.6.2-1 0-.6-.1-1-.4-1.3zm-138.1 64.2l1.2 5.2 1.5-5.2h.9l1.5 5.3 1.2-5.3h1l-1.7 6.5h-.9l-1.5-5.4-1.5 5.4h-.9l-1.7-6.5h.9zm10.1 3.6c.2 0 .3-.1.4-.2l.1-.3c0-.3-.1-.5-.3-.6s-.5-.2-.8-.2c-.4 0-.7.1-.9.3-.1.1-.2.3-.2.6h-.7c0-.6.2-1 .6-1.2.4-.2.8-.3 1.3-.3.6 0 1 .1 1.3.3.3.2.5.5.5 1v2.7c0 .1 0 .1.1.2 0 0 .1.1.2.1h.2v.6l-.3.1h-.3c-.3 0-.5-.1-.6-.3-.1-.1-.1-.2-.1-.4-.2.2-.4.4-.7.5s-.6.2-1 .2-.8-.1-1.1-.4c-.3-.3-.4-.6-.4-1s.1-.8.4-1c.3-.2.6-.4 1.1-.4l1.2-.3zm-1.6 2.1c.2.1.4.2.6.2.3 0 .5-.1.8-.2.4-.2.7-.6.7-1v-.6c-.1.1-.2.1-.4.2s-.3.1-.4.1l-.5.1c-.3 0-.5.1-.6.2-.2.1-.4.4-.4.7-.1 0 0 .2.2.3zm4.1-5.7h.8v6.5h-.8v-6.5zm2 0h.8v6.5h-.8v-6.5zm4.9 1.9c.3.2.5.4.7.6.2.2.3.5.3.8 0 .2.1.6.1 1h-3.4c0 .5.1.9.3 1.2.2.3.5.4 1 .4.4 0 .7-.1 1-.4.1-.2.2-.3.3-.6h.8c0 .2-.1.4-.2.6-.1.2-.2.4-.4.5-.2.2-.5.4-.9.5l-.6.1c-.6 0-1.1-.2-1.5-.6-.4-.4-.6-1-.6-1.8s.2-1.4.6-1.8c.4-.5.9-.7 1.6-.7.3-.1.6 0 .9.2zm.3 1.8c0-.3-.1-.6-.2-.8-.2-.4-.6-.6-1.1-.6-.4 0-.7.1-.9.4-.2.3-.4.6-.4 1h2.6zm4.8-2h.9c-.1.3-.4 1-.7 2.1l-.7 2c-.5 1.2-.8 1.9-1 2.2-.2.3-.5.4-1 .4h-.5v-.7l.3.1h.2c.1 0 .3 0 .3-.1l.2-.2s.1-.1.2-.4c.1-.2.2-.4.2-.5l-1.7-4.8h.9l1.3 3.8 1.1-3.9zm4.4.2c.3.2.5.4.7.6.2.2.3.5.3.8 0 .2.1.6.1 1h-3.4c0 .5.1.9.3 1.2.2.3.5.4 1 .4.4 0 .7-.1 1-.4.1-.2.2-.3.3-.6h.8c0 .2-.1.4-.2.6-.1.2-.2.4-.4.5-.2.2-.5.4-.9.5l-.6.1c-.6 0-1.1-.2-1.5-.6-.4-.4-.6-1-.6-1.8s.2-1.4.6-1.8c.4-.5.9-.7 1.6-.7.3-.1.6 0 .9.2zm.3 1.8c0-.3-.1-.6-.2-.8-.2-.4-.6-.6-1.1-.6-.4 0-.7.1-.9.4-.2.3-.4.6-.4 1h2.6zm22.3-140h1l3.2 5.2v-5.2h.8v6.5h-1l-3.3-5.2v5.2h-.8v-6.5zm9.8 2.2c.4.4.6 1 .6 1.8s-.2 1.4-.5 1.9c-.4.5-.9.7-1.7.7-.6 0-1.2-.2-1.5-.7-.4-.4-.6-1-.6-1.8s.2-1.4.6-1.9.9-.7 1.6-.7c.6.1 1.1.3 1.5.7zm-.5 3.1c.2-.4.3-.8.3-1.3 0-.4-.1-.8-.2-1.1-.2-.4-.6-.6-1.1-.6-.5 0-.8.2-1 .6-.2.4-.3.8-.3 1.3s.1.9.3 1.3c.2.3.6.5 1 .5.5-.1.9-.3 1-.7zm2.2-3.6h.8v.8c.1-.2.2-.4.5-.6.2-.2.5-.3.8-.3h.3v.8h-.2c-.4 0-.7.1-.9.4-.2.3-.3.6-.3.9v2.7h-1v-4.7zm3.1-1.3h.8v1.3h.8v.6h-.8v3.1c0 .2.1.3.2.3h.6v.6c-.1 0-.2 0-.3.1h-.3c-.4 0-.6-.1-.8-.3-.1-.2-.2-.4-.2-.7v-3.1h-.6v-.6h.6v-1.3zm2.3-.5h.8v2.4l.5-.5c.3-.2.6-.3 1-.3.7 0 1.1.2 1.4.7.1.3.2.6.2 1.1v3h-.8v-3c0-.3 0-.6-.1-.8-.1-.3-.4-.4-.8-.4-.3 0-.6.1-.9.3s-.4.7-.4 1.3v2.5h-.8v-6.3zm7.9 1.9c.3.2.5.4.7.6.2.2.3.5.3.8 0 .2.1.6.1 1h-3.4c0 .5.1.9.3 1.2.2.3.5.4 1 .4.4 0 .7-.1 1-.4.1-.2.2-.3.3-.6h.8c0 .2-.1.4-.2.6-.1.2-.2.4-.4.5-.2.2-.5.4-.9.5l-.6.1c-.6 0-1.1-.2-1.5-.6-.4-.4-.6-1-.6-1.8s.2-1.4.6-1.8c.4-.5.9-.7 1.6-.7.3 0 .6.1.9.2zm.3 1.9c0-.3-.1-.6-.2-.8-.2-.4-.6-.6-1.1-.6-.4 0-.7.1-.9.4s-.4.6-.4 1h2.6zm1.9-2h.8v.8c.1-.2.2-.4.5-.6.2-.2.5-.3.8-.3h.3v.8h-.2c-.4 0-.7.1-.9.4-.2.3-.3.6-.3.9v2.7h-.8v-4.7zm2.9 0h.8v.7c.2-.3.5-.5.7-.6s.5-.2.8-.2c.7 0 1.1.2 1.4.7.1.3.2.6.2 1.1v3h-.8v-3c0-.3 0-.5-.1-.7-.1-.3-.4-.4-.8-.4-.2 0-.3 0-.5.1s-.4.2-.6.4l-.3.5c0 .2-.1.4-.1.7v2.5h-.8v-4.8zm-21 9.1h2.9c.6 0 1 .2 1.4.5.4.3.5.8.5 1.4 0 .5-.2.9-.5 1.3s-.8.6-1.4.6h-2v2.7h-.9v-6.5zm3.4.9c-.2-.1-.5-.1-.8-.1h-1.7v2.2h1.7c.4 0 .7-.1.9-.3.2-.2.4-.5.4-.9s-.2-.8-.5-.9zm2.4-.9h.8v.9h-.8v-.9zm0 1.7h.8v4.7h-.8v-4.7zm2-1.7h.8v3.7l2-2h1l-1.8 1.8 1.9 3h-1l-1.5-2.4-.6.6v1.8h-.8v-6.5zm7.4 1.8c.3.2.5.4.7.6.2.2.3.5.3.8 0 .2.1.6.1 1h-3.4c0 .5.1.9.3 1.2.2.3.5.4 1 .4.4 0 .7-.1 1-.4.1-.2.2-.3.3-.6h.8c0 .2-.1.4-.2.6-.1.2-.2.4-.4.5-.2.2-.5.4-.9.5l-.6.1c-.6 0-1.1-.2-1.5-.6-.4-.4-.6-1-.6-1.8s.2-1.4.6-1.8c.4-.5.9-.7 1.6-.7.3 0 .6.1.9.2zm.3 1.9c0-.3-.1-.6-.2-.8-.2-.4-.6-.6-1.1-.6-.4 0-.7.1-.9.4s-.4.6-.4 1h2.6zm-67.8 41.2h.9v5.7h3.2v.8h-4.1v-6.5zm7.4 3.6c.2 0 .3-.1.4-.2l.1-.3c0-.3-.1-.5-.3-.6s-.5-.2-.8-.2c-.4 0-.7.1-.9.3-.1.1-.2.3-.2.6h-.8c0-.6.2-1 .6-1.2.4-.2.8-.3 1.3-.3.6 0 1 .1 1.3.3.3.2.5.5.5 1v2.7c0 .1 0 .1.1.2 0 .1.1.1.2.1h.2v.6l-.3.1h-.3c-.3 0-.5-.1-.6-.3-.1-.1-.1-.2-.1-.4-.2.2-.4.4-.7.5-.3.2-.6.2-1 .2s-.8-.1-1.1-.4c-.3-.3-.4-.6-.4-1s.1-.8.4-1c.3-.2.6-.4 1.1-.4l1.3-.3zm-1.7 2.1c.2.1.4.2.6.2.3 0 .5-.1.8-.2.4-.2.7-.6.7-1v-.6c-.1.1-.2.1-.4.2-.2 0-.3.1-.4.1l-.5.1c-.3 0-.5.1-.6.2-.2.1-.4.4-.4.7 0 0 .1.2.2.3zm4.2-5.7h.8v3.7l2-2h1l-1.8 1.8 1.9 3h-1l-1.5-2.4-.7.6v1.8h-.7v-6.5zm7.4 1.9c.3.2.5.4.7.6.2.2.3.5.3.8 0 .2.1.6.1 1h-3.4c0 .5.1.9.3 1.2.2.3.5.4 1 .4.4 0 .7-.1 1-.4.1-.2.2-.3.3-.6h.8c0 .2-.1.4-.2.6-.1.2-.2.4-.4.5-.2.2-.5.4-.9.5l-.6.1c-.6 0-1.1-.2-1.5-.6-.4-.4-.6-1-.6-1.8s.2-1.4.6-1.8c.4-.5.9-.7 1.6-.7.2-.1.6 0 .9.2zm.3 1.8c0-.3-.1-.6-.2-.8-.2-.4-.6-.6-1.1-.6-.4 0-.7.1-.9.4s-.4.6-.4 1h2.6zm4.8-3.7l1.2 5.2 1.5-5.2h.9l1.5 5.3 1.2-5.3h1l-1.7 6.5h-.9l-1.5-5.4-1.5 5.4h-.9l-1.7-6.5h.9zm10.2 3.6c.2 0 .3-.1.4-.2l.1-.3c0-.3-.1-.5-.3-.6s-.5-.2-.8-.2c-.4 0-.7.1-.9.3-.1.1-.2.3-.2.6h-.7c0-.6.2-1 .6-1.2.4-.2.8-.3 1.3-.3.6 0 1 .1 1.3.3.3.2.5.5.5 1v2.7c0 .1 0 .1.1.2 0 .1.1.1.2.1h.2v.6l-.3.1h-.3c-.3 0-.5-.1-.6-.3-.1-.1-.1-.2-.1-.4-.2.2-.4.4-.7.5-.3.2-.6.2-1 .2s-.8-.1-1.1-.4c-.3-.3-.4-.6-.4-1s.1-.8.4-1c.3-.2.6-.4 1.1-.4l1.2-.3zm-1.7 2.1c.2.1.4.2.6.2.3 0 .5-.1.8-.2.4-.2.7-.6.7-1v-.6c-.1.1-.2.1-.4.2-.2 0-.3.1-.4.1l-.5.1c-.3 0-.5.1-.6.2-.2.1-.4.4-.4.7-.1 0 0 .2.2.3zm4.6-.7c0 .3.1.5.2.6.2.3.6.4 1.1.4.3 0 .6-.1.8-.2.2-.1.3-.3.3-.6 0-.2-.1-.4-.3-.5-.1-.1-.3-.1-.7-.2l-.6-.2c-.4-.1-.7-.2-.9-.3-.3-.2-.5-.5-.5-.9s.2-.8.5-1.1.8-.4 1.3-.4c.7 0 1.2.2 1.6.6.2.3.3.5.3.9h-.7c0-.2-.1-.3-.2-.5-.2-.2-.5-.3-1-.3-.3 0-.5.1-.7.2-.2.1-.2.3-.2.5s.1.4.3.5c.1.1.3.1.5.2l.5.1c.6.1 1 .3 1.2.4.3.2.5.5.5 1 0 .4-.2.8-.5 1.1-.3.3-.8.5-1.5.5s-1.2-.2-1.5-.5c-.3-.3-.5-.7-.5-1.2h.7zm4-5h.8v3.7l2-2h1l-1.8 1.8 1.9 3h-1l-1.5-2.4-.7.6v1.8h-.8v-6.5zm7.1 3.6c.2 0 .3-.1.4-.2l.1-.3c0-.3-.1-.5-.3-.6s-.5-.2-.8-.2c-.4 0-.7.1-.9.3-.1.1-.2.3-.2.6h-.7c0-.6.2-1 .6-1.2.4-.2.8-.3 1.3-.3.6 0 1 .1 1.3.3.3.2.5.5.5 1v2.7c0 .1 0 .1.1.2 0 .1.1.1.2.1h.2v.6l-.3.1h-.3c-.3 0-.5-.1-.6-.3-.1-.1-.1-.2-.1-.4-.2.2-.4.4-.7.5-.3.2-.6.2-1 .2s-.8-.1-1.1-.4c-.3-.3-.4-.6-.4-1s.1-.8.4-1c.3-.2.6-.4 1.1-.4l1.2-.3zm-1.7 2.1c.2.1.4.2.6.2.3 0 .5-.1.8-.2.4-.2.7-.6.7-1v-.6c-.1.1-.2.1-.4.2-.2 0-.3.1-.4.1l-.5.1c-.3 0-.5.1-.6.2-.2.1-.4.4-.4.7 0 0 0 .2.2.3zm4.2-5.7h.8v.9h-.8v-.9zm0 1.8h.8v4.7h-.8v-4.7zm5.4.4c.4.4.6 1 .6 1.8s-.2 1.4-.5 1.9-.9.7-1.7.7c-.6 0-1.2-.2-1.5-.7-.4-.4-.6-1-.6-1.8s.2-1.4.6-1.9c.4-.5.9-.7 1.6-.7.5.1 1 .3 1.5.7zm-.5 3.1c.2-.4.3-.8.3-1.3 0-.4-.1-.8-.2-1.1-.2-.4-.6-.6-1.1-.6-.5 0-.8.2-1 .6-.2.4-.3.8-.3 1.3s.1.9.3 1.3c.2.3.6.5 1 .5.4-.1.8-.3 1-.7zm2.4-3.6l.9 3.7.9-3.7h.9l.9 3.7 1-3.7h.8l-1.4 4.7h-.8l-1-3.6-.9 3.6h-.8l-1.4-4.7h.9zm8.7 1.9c.2 0 .3-.1.4-.2l.1-.3c0-.3-.1-.5-.3-.6s-.5-.2-.8-.2c-.4 0-.7.1-.9.3-.1.1-.2.3-.2.6h-.7c0-.6.2-1 .6-1.2.4-.2.8-.3 1.3-.3.6 0 1 .1 1.3.3.3.2.5.5.5 1v2.7c0 .1 0 .1.1.2 0 .1.1.1.2.1h.2v.6l-.3.1h-.3c-.3 0-.5-.1-.6-.3-.1-.1-.1-.2-.1-.4-.2.2-.4.4-.7.5-.3.2-.6.2-1 .2s-.8-.1-1.1-.4c-.3-.3-.4-.6-.4-1s.1-.8.4-1c.3-.2.6-.4 1.1-.4l1.2-.3zm-1.7 2.1c.2.1.4.2.6.2.3 0 .5-.1.8-.2.4-.2.7-.6.7-1v-.6c-.1.1-.2.1-.4.2-.2 0-.3.1-.4.1l-.5.1c-.3 0-.5.1-.6.2-.2.1-.4.4-.4.7 0 0 0 .2.2.3zm4.1-5.7h.8v3.7l2-2h1l-1.8 1.8 1.9 3h-1l-1.5-2.4-.7.6v1.8h-.8v-6.5zm7.1 3.6c.2 0 .3-.1.4-.2l.1-.3c0-.3-.1-.5-.3-.6s-.5-.2-.8-.2c-.4 0-.7.1-.9.3-.1.1-.2.3-.2.6h-.7c0-.6.2-1 .6-1.2.4-.2.8-.3 1.3-.3.6 0 1 .1 1.3.3.3.2.5.5.5 1v2.7c0 .1 0 .1.1.2 0 .1.1.1.2.1h.2v.6l-.3.1h-.3c-.3 0-.5-.1-.6-.3-.1-.1-.1-.2-.1-.4-.2.2-.4.4-.7.5-.3.2-.6.2-1 .2s-.8-.1-1.1-.4c-.3-.3-.4-.6-.4-1s.1-.8.4-1c.3-.2.6-.4 1.1-.4l1.2-.3zm-1.7 2.1c.2.1.4.2.6.2.3 0 .5-.1.8-.2.4-.2.7-.6.7-1v-.6c-.1.1-.2.1-.4.2-.2 0-.3.1-.4.1l-.5.1c-.3 0-.5.1-.6.2-.2.1-.4.4-.4.7 0 0 .1.2.2.3zm101.8 24.2c.4.6.6 1.3.6 2.2 0 1-.2 1.8-.7 2.4-.6.7-1.4 1.1-2.5 1.1-1 0-1.8-.3-2.3-1-.5-.6-.8-1.4-.8-2.4 0-.9.2-1.6.7-2.2.6-.8 1.4-1.2 2.5-1.2s1.9.4 2.5 1.1zm-.8 4.1c.3-.6.5-1.2.5-1.9 0-.8-.2-1.4-.6-1.8-.4-.5-.9-.7-1.6-.7-.7 0-1.2.2-1.6.7s-.6 1.1-.6 2c0 .7.2 1.3.5 1.8.4.5.9.7 1.8.7.7 0 1.3-.2 1.6-.8zm2.5-4.6h.8v1.3h.8v.6h-.8v3.1c0 .2.1.3.2.3h.6v.6c-.1 0-.2 0-.3.1h-.3c-.4 0-.6-.1-.8-.3-.1-.2-.2-.4-.2-.7v-3.1h-.6v-.6h.6v-1.3zm2.5 0h.8v1.3h.8v.6h-.8v3.1c0 .2.1.3.2.3h.6v.6c-.1 0-.2 0-.3.1h-.3c-.4 0-.6-.1-.8-.3-.1-.2-.2-.4-.2-.7v-3.1h-.6v-.6h.6v-1.3zm5.3 1.3h.9c-.1.3-.4 1-.7 2.1l-.7 2c-.5 1.2-.8 1.9-1 2.2-.2.3-.5.4-1 .4h-.5v-.7l.3.1h.2c.1 0 .3 0 .3-.1.1 0 .1-.1.2-.2 0 0 .1-.1.2-.4.1-.2.2-.4.2-.5l-1.7-4.8h.9l1.3 3.8 1.1-3.9zm4.2-1.7h.9v5.7h3.2v.8h-4.1v-6.5zm7.4 3.6c.2 0 .3-.1.4-.2l.1-.3c0-.3-.1-.5-.3-.6s-.5-.2-.8-.2c-.4 0-.7.1-.9.3-.1.1-.2.3-.2.6h-.7c0-.6.2-1 .6-1.2.4-.2.8-.3 1.3-.3.6 0 1 .1 1.3.3.3.2.5.5.5 1v2.7c0 .1 0 .1.1.2 0 0 .1.1.2.1h.2v.6l-.3.1h-.3c-.3 0-.5-.1-.6-.3-.1-.1-.1-.2-.1-.4-.2.2-.4.4-.7.5-.3.2-.6.2-1 .2s-.8-.1-1.1-.4c-.3-.3-.4-.6-.4-1s.1-.8.4-1c.3-.2.6-.4 1.1-.4l1.2-.3zm-1.7 2.1c.2.1.4.2.6.2.3 0 .5-.1.8-.2.4-.2.7-.6.7-1v-.6c-.1.1-.2.1-.4.2-.2 0-.3.1-.4.1l-.5.1c-.3 0-.5.1-.6.2-.2.1-.4.4-.4.7 0 0 .1.2.2.3zm4.2-5.7h.8v3.7l2-2h1l-1.8 1.8 1.9 3h-1l-1.5-2.4-.7.6v1.8h-.8v-6.5zm7.4 1.8c.3.2.5.4.7.6.2.2.3.5.3.8 0 .2.1.6.1 1h-3.4c0 .5.1.9.3 1.2s.5.4 1 .4c.4 0 .7-.1 1-.4.1-.2.2-.3.3-.6h.8c0 .2-.1.4-.2.6-.1.2-.2.4-.4.5-.2.2-.5.4-.9.5l-.6.1c-.6 0-1.1-.2-1.5-.6-.4-.4-.6-1-.6-1.8s.2-1.4.6-1.8c.4-.5.9-.7 1.6-.7.3 0 .6.1.9.2zm.3 1.9c0-.3-.1-.6-.2-.8-.2-.4-.6-.6-1.1-.6-.4 0-.7.1-.9.4-.2.3-.4.6-.4 1h2.6z"/><circle class="st2" cx="43.4" cy="274" r="30.6"/><path d="M24.3 277.7c.6.3 1 .9 1.2 1.8h-.9c-.1-.5-.3-.8-.6-1-.3-.2-.7-.3-1.2-.3-.6 0-1.1.2-1.5.7-.4.4-.6 1.1-.6 2 0 .8.2 1.4.5 1.9s.9.7 1.6.7c.6 0 1-.2 1.4-.5.4-.3.6-.9.6-1.6h-2v-.7h2.8v3.5h-.6l-.2-.8c-.3.3-.5.6-.8.7-.4.2-.9.3-1.4.3-.8 0-1.4-.2-1.9-.7-.6-.6-.9-1.5-.9-2.6s.3-1.9.9-2.6c.5-.6 1.3-.9 2.1-.9.6-.2 1.1-.1 1.5.1zm2.6 1.6h.8v.8c.1-.2.2-.4.5-.6.2-.2.5-.3.8-.3h.3v.8h-.2c-.4 0-.7.1-.9.4-.2.3-.3.6-.3.9v2.7h-.8v-4.7zm5.9.1c.3.2.5.4.7.6.2.2.3.5.3.8 0 .2.1.6.1 1h-3.4c0 .5.1.9.3 1.2.2.3.5.4 1 .4.4 0 .7-.1 1-.4.1-.2.2-.3.3-.6h.8c0 .2-.1.4-.2.6-.1.2-.2.4-.4.5-.2.2-.5.4-.9.5l-.6.1c-.6 0-1.1-.2-1.5-.6-.4-.4-.6-1-.6-1.8s.2-1.4.6-1.8c.4-.5.9-.7 1.6-.7.3 0 .6 0 .9.2zm.3 1.8c0-.3-.1-.6-.2-.8-.2-.4-.6-.6-1.1-.6-.4 0-.7.1-.9.4-.2.3-.4.6-.4 1h2.6zm4.3-.1c.2 0 .3-.1.4-.2l.1-.3c0-.3-.1-.5-.3-.6-.2-.1-.5-.2-.8-.2-.4 0-.7.1-.9.3-.1.1-.2.3-.2.6h-.7c0-.6.2-1 .6-1.2s.8-.3 1.3-.3c.6 0 1 .1 1.3.3.3.2.5.5.5 1v2.7c0 .1 0 .1.1.2 0 0 .1.1.2.1h.2v.6l-.3.1h-.3c-.3 0-.5-.1-.6-.3-.1-.1-.1-.2-.1-.4-.2.2-.4.4-.7.5s-.6.2-1 .2-.8-.1-1.1-.4c-.3-.3-.4-.6-.4-1s.1-.8.4-1 .6-.4 1.1-.4l1.2-.3zm-1.6 2.2c.2.1.4.2.6.2.3 0 .5-.1.8-.2.4-.2.7-.6.7-1v-.6c-.1.1-.2.1-.4.2-.2 0-.3.1-.4.1l-.5.1c-.3 0-.5.1-.6.2-.2.1-.4.4-.4.7-.1 0 0 .1.2.3zm4.3-5.3h.8v1.3h.8v.6h-.8v3.1c0 .2.1.3.2.3h.6v.6c-.1 0-.2 0-.3.1h-.3c-.4 0-.6-.1-.8-.3-.1-.2-.2-.4-.2-.7v-3.1h-.6v-.6h.6v-1.3zm5.3-.5l1.2 5.2 1.5-5.2h.9l1.5 5.3 1.2-5.3h1l-1.7 6.5h-.9l-1.5-5.4-1.5 5.4h-.9l-1.7-6.5h.9zm8 0h.8v2.4l.5-.5c.3-.2.6-.3 1-.3.7 0 1.1.2 1.4.7.1.3.2.6.2 1.1v3h-.8v-3c0-.3 0-.6-.1-.8-.1-.3-.4-.4-.8-.4-.3 0-.6.1-.9.3s-.4.7-.4 1.3v2.5h-.8v-6.3zm5 0h.8v.9h-.8v-.9zm0 1.8h.8v4.7h-.8v-4.7zm2.2-1.3h.8v1.3h.8v.6h-.8v3.1c0 .2.1.3.2.3h.6v.6c-.1 0-.2 0-.3.1h-.3c-.4 0-.6-.1-.8-.3-.1-.2-.2-.4-.2-.7v-3.1h-.6v-.6h.6v-1.3zm5.2 1.4c.3.2.5.4.7.6.2.2.3.5.3.8 0 .2.1.6.1 1h-3.4c0 .5.1.9.3 1.2.2.3.5.4 1 .4.4 0 .7-.1 1-.4.1-.2.2-.3.3-.6h.8c0 .2-.1.4-.2.6-.1.2-.2.4-.4.5-.2.2-.5.4-.9.5l-.6.1c-.6 0-1.1-.2-1.5-.6-.4-.4-.6-1-.6-1.8s.2-1.4.6-1.8c.4-.5.9-.7 1.6-.7.3 0 .6 0 .9.2zm.3 1.8c0-.3-.1-.6-.2-.8-.2-.4-.6-.6-1.1-.6-.4 0-.7.1-.9.4-.2.3-.4.6-.4 1h2.6zm-39.8 11.5c0 .4.1.7.2.9.3.4.8.6 1.5.6.3 0 .6 0 .9-.1.5-.2.8-.5.8-1 0-.4-.1-.6-.3-.8-.2-.1-.6-.3-1-.4l-.8-.2c-.6-.1-.9-.3-1.2-.4-.4-.3-.6-.7-.6-1.2 0-.6.2-1.1.6-1.4s.9-.6 1.7-.6c.7 0 1.2.2 1.7.5s.7.8.7 1.6h-.8c0-.3-.1-.6-.3-.8-.3-.3-.7-.5-1.3-.5-.5 0-.8.1-1.1.3-.2.2-.3.5-.3.8 0 .3.1.5.4.7.2.1.5.2 1.1.4l.9.2c.4.1.7.2 1 .4.4.3.6.7.6 1.3 0 .7-.3 1.2-.8 1.5-.5.3-1.1.5-1.8.5-.8 0-1.4-.2-1.8-.6-.4-.4-.7-1-.7-1.7h.7zm5.5-3.9h.8v1.3h.8v.6h-.8v3.1c0 .2.1.3.2.3h.6v.6c-.1 0-.2 0-.3.1h-.3c-.4 0-.6-.1-.8-.3-.1-.2-.2-.4-.2-.7v-3.1h-.6v-.6h.6v-1.3zm3.1 1.3v3.1c0 .2 0 .4.1.6.1.3.4.4.8.4.5 0 .9-.2 1.1-.7.1-.3.2-.6.2-1.1v-2.3h.8v4.7h-.7v-.7c-.1.2-.2.3-.4.5-.3.2-.7.4-1.1.4-.7 0-1.1-.2-1.3-.7-.1-.2-.2-.6-.2-1v-3.2h.7zm4.3 0h.8v.8c.1-.2.2-.4.5-.6.2-.2.5-.3.8-.3h.3v.8h-.2c-.4 0-.7.1-.9.4-.2.3-.3.6-.3.9v2.7h-.8v-4.7zm5.6.2c.1.1.3.3.5.4v-.6h.7v4.3c0 .6-.1 1.1-.3 1.4-.3.6-.9 1-1.9 1-.5 0-.9-.1-1.3-.3-.3-.2-.5-.6-.6-1.1h.8c0 .2.1.4.2.5.2.2.5.3.8.3.6 0 1-.2 1.2-.6.1-.3.2-.7.2-1.3-.2.2-.3.4-.6.5s-.5.2-.9.2c-.5 0-1-.2-1.3-.5-.4-.4-.6-1-.6-1.8s.2-1.4.6-1.8.8-.7 1.4-.7c.5-.2.8-.1 1.1.1zm.1.8c-.2-.3-.5-.4-.9-.4-.6 0-.9.3-1.1.8-.1.3-.2.6-.2 1.1 0 .5.1.9.3 1.2.2.3.5.4.9.4.6 0 1-.3 1.2-.8.1-.3.2-.6.2-1-.1-.6-.2-1-.4-1.3zm5.2-.9c.3.2.5.4.7.6.2.2.3.5.3.8 0 .2.1.6.1 1h-3.4c0 .5.1.9.3 1.2s.5.4 1 .4c.4 0 .7-.1 1-.4.1-.2.2-.3.3-.6h.8c0 .2-.1.4-.2.6-.1.2-.2.4-.4.5-.2.2-.5.4-.9.5l-.6.1c-.6 0-1.1-.2-1.5-.6-.4-.4-.6-1-.6-1.8s.2-1.4.6-1.8c.4-.5.9-.7 1.6-.7.2 0 .6 0 .9.2zm.2 1.8c0-.3-.1-.6-.2-.8-.2-.4-.6-.6-1.1-.6-.4 0-.7.1-.9.4-.2.3-.4.6-.4 1h2.6zm5.3-1.5c.4.4.6 1 .6 1.8s-.2 1.4-.5 1.9c-.4.5-.9.7-1.7.7-.6 0-1.2-.2-1.5-.7s-.6-1-.6-1.8.2-1.4.6-1.9c.4-.5.9-.7 1.6-.7.5.1 1.1.3 1.5.7zm-.5 3.2c.2-.4.3-.8.3-1.3 0-.4-.1-.8-.2-1.1-.2-.4-.6-.6-1.1-.6-.5 0-.8.2-1 .6-.2.4-.3.8-.3 1.3s.1.9.3 1.3c.2.3.6.5 1 .5.4-.1.8-.3 1-.7zm2.1-3.6h.8v.7c.2-.3.5-.5.7-.6s.5-.2.8-.2c.7 0 1.1.2 1.4.7.1.3.2.6.2 1.1v3h-.8v-3c0-.3 0-.5-.1-.7-.1-.3-.4-.4-.8-.4-.2 0-.3 0-.5.1s-.4.2-.6.4l-.3.5c0 .2-.1.4-.1.7v2.5h-.8v-4.8z"/><circle class="st2" cx="61.7" cy="33" r="30.6"/><path d="M41.2 37.6v.8h-2.2v5.7h-.9v-5.7h-2.1v-.8h5.2zm.4 1.8h.8v.8c.1-.2.2-.4.5-.6.2-.2.5-.3.8-.3h.3v.8h-.2c-.4 0-.7.1-.9.4-.2.3-.3.6-.3.9v2.7h-.8v-4.7zm6.4.4c.4.4.6 1 .6 1.8s-.2 1.4-.5 1.9-.9.7-1.7.7c-.6 0-1.2-.2-1.5-.7-.4-.4-.6-1-.6-1.8s.2-1.4.6-1.9.9-.7 1.6-.7c.6.1 1.1.3 1.5.7zm-.5 3.2c.2-.4.3-.8.3-1.3 0-.4-.1-.8-.2-1.1-.2-.4-.6-.6-1.1-.6-.5 0-.8.2-1 .6-.2.4-.3.8-.3 1.3s.1.9.3 1.3c.2.3.6.5 1 .5.5-.2.8-.3 1-.7zm2.1-3.6h.8v.6c.2-.2.3-.4.5-.5.3-.2.6-.3.9-.3.5 0 1 .2 1.4.6.4.4.6 1 .6 1.8 0 1-.3 1.8-.8 2.2-.3.3-.7.4-1.2.4-.4 0-.7-.1-.9-.2-.1-.1-.3-.2-.5-.5v2.4h-.8v-6.5zm2.9 3.7c.2-.3.4-.8.4-1.4 0-.4-.1-.7-.2-1-.2-.5-.6-.8-1.1-.8-.5 0-.9.3-1.1.8-.1.3-.2.7-.2 1.1 0 .4.1.7.2.9.2.5.6.7 1.1.7.4.1.7 0 .9-.3zm2.1-5.5h.8v2.4l.5-.5c.3-.2.6-.3 1-.3.7 0 1.1.2 1.4.7.1.3.2.6.2 1.1v3h-.8v-3c0-.3 0-.6-.1-.8-.1-.3-.4-.4-.8-.4-.3 0-.6.1-.9.3-.3.2-.4.7-.4 1.3v2.5h-.8v-6.3zm8 1.8h.9c-.1.3-.4 1-.7 2.1l-.7 2c-.5 1.2-.8 1.9-1 2.2-.2.3-.5.4-1 .4h-.5v-.7l.3.1h.2c.1 0 .3 0 .3-.1.1 0 .1-.1.2-.2 0 0 .1-.1.2-.4.1-.2.2-.4.2-.5l-1.7-4.8h.7l1.3 3.8 1.3-3.9zm4.1-1.8h.9v5.7h3.2v.8h-4.1v-6.5zm7.5 3.6c.2 0 .3-.1.4-.2l.1-.3c0-.3-.1-.5-.3-.6s-.5-.2-.8-.2c-.4 0-.7.1-.9.3-.1.1-.2.3-.2.6h-.7c0-.6.2-1 .6-1.2.4-.2.8-.3 1.3-.3.6 0 1 .1 1.3.3.3.2.5.5.5 1v2.7c0 .1 0 .1.1.2 0 0 .1.1.2.1h.2v.6l-.3.1h-.3c-.3 0-.5-.1-.6-.3-.1-.1-.1-.2-.1-.4-.2.2-.4.4-.7.5s-.6.2-1 .2-.8-.1-1.1-.4c-.3-.3-.4-.6-.4-1s.1-.8.4-1c.3-.2.6-.4 1.1-.4l1.2-.3zm-1.7 2.2c.2.1.4.2.6.2.3 0 .5-.1.8-.2.4-.2.7-.6.7-1v-.6c-.1.1-.2.1-.4.2-.2 0-.3.1-.4.1l-.5-.1c-.3 0-.5.1-.6.2-.2.1-.4.4-.4.7-.1.1 0 .3.2.5zm4.1-5.8h.8v3.7l2-2h1l-1.8 1.8 1.9 3h-1l-1.5-2.4-.6.6v1.8h-.8v-6.5zm7.4 1.9c.3.2.5.4.7.6.2.2.3.5.3.8 0 .2.1.6.1 1h-3.4c0 .5.1.9.3 1.2.2.3.5.4 1 .4.4 0 .7-.1 1-.4.1-.2.2-.3.3-.6h.8c0 .2-.1.4-.2.6-.1.2-.2.4-.4.5-.2.2-.5.4-.9.5l-.6.1c-.6 0-1.1-.2-1.5-.6-.4-.4-.6-1-.6-1.8s.2-1.4.6-1.8c.4-.5.9-.7 1.6-.7.3 0 .6 0 .9.2zm.3 1.8c0-.3-.1-.6-.2-.8-.2-.4-.6-.6-1.1-.6-.4 0-.7.1-.9.4s-.4.6-.4 1h2.6zm-28.5 7.1v.8h-2.2v5.7h-.9v-5.7h-2.2v-.8h5.3zm.3 1.8h.8v.8c.1-.2.2-.4.5-.6.2-.2.5-.3.8-.3h.3v.8h-.2c-.4 0-.7.1-.9.4-.2.3-.3.6-.3.9v2.7h-.8v-4.7zm6.4.4c.4.4.6 1 .6 1.8s-.2 1.4-.6 1.9c-.4.5-.9.7-1.7.7-.6 0-1.2-.2-1.5-.7s-.6-1-.6-1.8.2-1.4.6-1.9 1-.6 1.7-.6c.6 0 1.1.2 1.5.6zm-.5 3.2c.2-.4.3-.8.3-1.3 0-.4-.1-.8-.2-1.1-.2-.4-.6-.6-1.1-.6-.5 0-.8.2-1 .6s-.3.8-.3 1.3.1.9.3 1.3.6.5 1 .5c.5-.2.9-.3 1-.7zm2.9-3.6v3.1c0 .2 0 .4.1.6.1.3.4.4.8.4.5 0 .9-.2 1.1-.7.1-.3.2-.6.2-1.1v-2.3h.8v4.7h-.7v-.7c-.1.2-.2.3-.4.5-.3.2-.7.4-1.1.4-.7 0-1.1-.2-1.3-.7-.1-.2-.2-.6-.2-1v-3.2h.7zm4.4-1.4h.8v1.3h.8v.6h-.8v3.1c0 .2.1.3.2.3h.6v.6c-.1 0-.2 0-.3.1h-.3c-.4 0-.6-.1-.8-.3-.1-.2-.2-.4-.2-.7v-3.1h-.6v-.6h.6v-1.3z"/><path class="st3" d="M64 33.5s-1.5 1.4-2.3 1.9c0 0-.4.2-.5 0 0 0-.3-.2-.3-.6m1.7-1.4s-1.1 1.2-1.7 1.5c-.1.1-.2.1-.3.1 0 0-.7-.1-.8-.4 0 0 .9-.7 1.4-1.4m-.3 1.6l1.3-1.8 2 .4-.2.1-2.5 1.5zm-2.6-14.7c-.2-1.4-1.1-2.4-1.1-2.4-.2-.2.2-.3.2-.3 5.1-2 11-2.6 11-2.6.4-.1.5.1.5.1l1.5 4.5m-15 1.5l-2.6-1.9s-.2-.2-.6 0l-3.2 2s-.2.1 0 .3l1.5 1.5m5.8 9.3s-3.3 1.4-5.8 2c0 0-.2 0-.2-.3 0 0 .2-1.3 0-1.7 0 0-.5-1.1.2-2"/><path class="st4" d="M54.5 31.5l-1.9.7m.6-1.1l-1.1.6m0-1l-.5.2"/><path class="st5" d="M53.8 21.5s-.4-.6-.9-.9m-.4 1.4s-.5-.9-1.5-1.4m.4 1.9s-.4-.6-.8-.8m18-2.5s.2-1.1-.3-2.2m-1.5 2.1s.3-.6-.3-1.7m-1.8 1.7s.1-.7-.1-1.1m-2.3 1.4s0-.7-.5-1.1m-2 1.5s0-.7-.4-1m8.3.4s.2-1.1-.2-1.8m-1.7 1.7s.2-1-.4-1.5m-1.8 1.6s0-.8-.3-1.2m-2.1 1.5s-.1-.7-.5-.9"/><path class="st6" d="M84.4 26c-.5-.9-1.3-1.4-1.3-1.4-1.6-.9-3.5-2.2-3.5-2.2-1.7-1.4-6-2.5-6-2.5-2.3-.8-6.7-.9-6.7-.9-2.8-.1-7.6.8-7.6.8-4.2.9-7.9 2.7-7.9 2.7-1.6.6-6 2.4-6 2.4-4.3-5.1-6.4-5.3-6.4-5.3-1.2-.1-1.2 1.6-1.2 1.6-.1 1.6 1.9 5.4 1.9 5.4-.7 1.3-1.3 3.6-1.3 3.6-.7 2.4.4 2.8.4 2.8.8.7 1.8-.3 1.8-.3l5.2-4.4c5.8 2.5 10.5 3.8 10.5 3.8 3 1 8.6 1.6 8.6 1.6 4.5.7 7.7 0 7.7 0 4.6-.7 6.2-2.5 6.2-2.5 5.6-.4 6.7-3.3 6.7-3.3l-2.6.6 2.1-1.3c1-.7.4-1.3.4-1.3-.5-.2-.8-.1-1 .1-.2.2-.3.4-.3.4"/><path class="st7" d="M74 22.3c-4.8 4.4-3.4 6.4-1.9 7.3"/><path class="st8" d="M72.8 29.5c-2.7-2.3 1.1-7.1 1.2-7.2"/><path class="st3" d="M73 29.1s0 .4.1.4c0 0-1.8.2-2.1.2h-.8s-.7 0-.9.1c0 0-.7.1-1.1.2 0 0-.3.1-.3.2 0 0-.7.1-.4.8 0 0 .4.3.4.5 0 0 .5.7 1.1.9 0 0 1.2.7 2.4.2l2.6-2.1s.5.4.7.4"/><path class="st9" d="M45.2 25.9s-2.4-.6-3.3-1.8m2.5 2.3s-2.3-.1-3.2.5m4 .1s-2 .7-2.9 1.8"/><path class="st10" d="M73.2 29.7l-1.6.7m1.6-.3s-1.4.6-1.8 1m2-.9s-.6.4-.9.9"/><circle class="st11" cx="79.1" cy="24.9" r="1.3"/><circle cx="79.4" cy="24.9" r=".4"/><path class="st7" d="M76.5 22.3s-4.9 6 0 7.9c0 0-7.5-1 0-7.9z"/><path class="st6" d="M73.1 29.5l.9 1 .9.8.3-.3-2.3-2.1z"/><path class="st3" d="M102.1 136.3s-1.5 1.4-2.3 1.9c0 0-.4.2-.5 0 0 0-.3-.2-.3-.6m1.7-1.5s-1.1 1.2-1.7 1.5c-.1.1-.2.1-.3.1 0 0-.7-.1-.8-.4 0 0 .9-.7 1.4-1.4m-.3 1.7l1.3-1.8 2 .3-.2.2-2.5 1.5zm-2.6-14.8c-.2-1.4-1.1-2.4-1.1-2.4-.2-.2.2-.3.2-.3 5.1-2 11-2.6 11-2.6.4-.1.5.1.5.1l1.5 4.5m-15 1.6l-2.6-1.9s-.2-.2-.6 0l-3.2 2s-.2.1 0 .3l1.5 1.5m5.8 9.2s-3.3 1.4-5.8 2c0 0-.2 0-.2-.3 0 0 .2-1.3 0-1.7 0 0-.5-1.1.2-2"/><path class="st4" d="M92.6 134.2l-1.9.8m.5-1.2l-1 .6m0-1l-.5.3"/><path class="st5" d="M91.9 124.2s-.4-.6-.9-.9m-.4 1.5s-.5-.9-1.5-1.4m.4 1.8s-.4-.6-.8-.8m17.9-2.5s.2-1.1-.3-2.2m-1.4 2.1s.3-.6-.3-1.7m-1.9 1.8s.1-.7-.1-1.1m-2.2 1.3s0-.7-.5-1.1m-2.1 1.5s0-.7-.4-1m8.4.4s.2-1.1-.2-1.8m-1.7 1.7s.2-1-.4-1.5m-1.8 1.7s0-.8-.3-1.2m-2.1 1.5s-.1-.7-.5-.9"/><path class="st6" d="M122.4 128.7c-.5-.9-1.3-1.4-1.3-1.4-1.6-.9-3.5-2.2-3.5-2.2-1.7-1.4-6-2.5-6-2.5-2.3-.8-6.7-.9-6.7-.9-2.8-.1-7.6.8-7.6.8-4.2.9-7.9 2.7-7.9 2.7-1.6.6-6 2.4-6 2.4-4.3-5.1-6.4-5.3-6.4-5.3-1.2-.1-1.2 1.6-1.2 1.6-.1 1.6 1.9 5.4 1.9 5.4-.7 1.3-1.3 3.6-1.3 3.6-.7 2.4.4 2.8.4 2.8.8.7 1.8-.3 1.8-.3l5.2-4.4c5.8 2.5 10.5 3.8 10.5 3.8 3 1 8.6 1.6 8.6 1.6 4.5.7 7.7 0 7.7 0 4.6-.7 6.2-2.5 6.2-2.5 5.6-.4 6.7-3.3 6.7-3.3l-2.6.6 2.1-1.3c1-.7.4-1.3.4-1.3-.4-.2-.7-.1-1 .1-.2.2-.3.4-.3.4"/><path class="st7" d="M112.1 125.1c-4.8 4.4-3.4 6.4-1.9 7.3"/><path class="st8" d="M110.9 132.3c-2.7-2.3 1.1-7.1 1.2-7.2"/><path class="st3" d="M111.1 131.8s0 .4.1.4c0 0-1.8.2-2.1.2h-.8s-.7 0-.9.1c0 0-.7.1-1.1.2 0 0-.3.1-.3.2 0 0-.7.1-.4.8 0 0 .4.3.4.5 0 0 .5.7 1.1.9 0 0 1.2.7 2.4.2l2.6-2.1s.5.4.7.4"/><path class="st9" d="M83.3 128.6s-2.4-.6-3.3-1.8m2.5 2.3s-2.3-.1-3.2.5m4 .2s-2 .7-2.9 1.8"/><path class="st10" d="M111.3 132.5l-1.6.6m1.6-.3s-1.4.6-1.8 1m2-.9s-.6.4-.9.9"/><circle class="st11" cx="117.2" cy="127.7" r="1.3"/><circle cx="117.5" cy="127.7" r=".4"/><path class="st7" d="M114.6 125.1s-4.9 6 0 7.9c0-.1-7.5-1.1 0-7.9z"/><path class="st6" d="M111.2 132.2l.9 1 .8.9.3-.4-2.2-2.1z"/><path class="st3" d="M169.6 159.9s-1.5 1.4-2.3 1.9c0 0-.4.2-.5 0 0 0-.3-.2-.3-.6m1.8-1.5s-1.1 1.2-1.7 1.5c-.1.1-.2.1-.3.1 0 0-.7-.1-.8-.4 0 0 .9-.7 1.4-1.4m-.3 1.7l1.2-1.8 2 .3-.2.2-2.4 1.5zm-2.6-14.8c-.2-1.4-1.1-2.4-1.1-2.4-.2-.2.2-.3.2-.3 5.1-2 11-2.6 11-2.6.4-.1.5.1.5.1l1.5 4.5m-15.1 1.6l-2.6-1.9s-.2-.2-.6 0l-3.2 2s-.2.1 0 .3l1.5 1.5m5.8 9.2s-3.3 1.4-5.8 2c0 0-.2 0-.2-.3 0 0 .2-1.3 0-1.7 0 0-.5-1.1.2-2"/><path class="st4" d="M160.1 157.8l-1.8.8m.5-1.2l-1 .6m0-1l-.5.3"/><path class="st5" d="M159.5 147.9s-.4-.6-.9-.9m-.5 1.4s-.5-.9-1.5-1.4m.5 1.9s-.4-.6-.8-.8m17.9-2.6s.2-1.1-.3-2.2m-1.5 2.1s.3-.6-.3-1.7m-1.8 1.8s.1-.7-.1-1.1m-2.2 1.3s0-.7-.5-1.1m-2.1 1.5s0-.7-.4-1m8.3.4s.2-1.1-.2-1.8m-1.6 1.7s.2-1-.4-1.5m-1.9 1.7s0-.8-.3-1.2m-2.1 1.5s-.1-.7-.5-.9"/><path class="st6" d="M190 152.3c-.5-.9-1.3-1.4-1.3-1.4-1.6-.9-3.5-2.2-3.5-2.2-1.7-1.4-6-2.5-6-2.5-2.3-.8-6.7-.9-6.7-.9-2.8-.1-7.6.8-7.6.8-4.2.9-7.9 2.7-7.9 2.7-1.6.6-6 2.4-6 2.4-4.3-5.1-6.4-5.3-6.4-5.3-1.2-.1-1.2 1.6-1.2 1.6-.1 1.6 1.9 5.4 1.9 5.4-.7 1.3-1.3 3.6-1.3 3.6-.7 2.4.4 2.8.4 2.8.8.7 1.8-.3 1.8-.3l5.2-4.4c5.8 2.5 10.5 3.8 10.5 3.8 3 1 8.6 1.6 8.6 1.6 4.5.7 7.7 0 7.7 0 4.6-.7 6.2-2.5 6.2-2.5 5.6-.4 6.7-3.3 6.7-3.3l-2.6.6 2.1-1.3c1-.7.4-1.3.4-1.3-.4-.2-.8 0-1 .1-.2.2-.3.4-.3.4"/><path class="st7" d="M179.6 148.7c-4.8 4.4-3.4 6.4-1.9 7.3"/><path class="st8" d="M178.4 155.9c-2.7-2.3 1.1-7.1 1.2-7.2"/><path class="st3" d="M178.6 155.4s0 .4.1.4c0 0-1.8.2-2.1.2h-.8s-.7 0-.9.1c0 0-.7.1-1.1.2 0 0-.3.1-.3.2 0 0-.7.1-.4.8 0 0 .4.3.4.5 0 0 .5.7 1.1.9 0 0 1.2.7 2.4.2l2.6-2.1s.5.4.7.4"/><path class="st9" d="M150.9 152.2s-2.4-.6-3.3-1.8m2.5 2.3s-2.3-.1-3.2.5m4 .2s-2 .7-2.9 1.8"/><path class="st10" d="M178.8 156.1l-1.6.7m1.6-.4s-1.4.6-1.8 1m2-.8s-.6.4-.9.9"/><circle class="st11" cx="184.8" cy="151.3" r="1.3"/><circle cx="185" cy="151.3" r=".4"/><path class="st7" d="M182.2 148.7s-4.9 6 0 7.9c0 0-7.5-1 0-7.9z"/><path class="st6" d="M178.7 155.8l.9 1.1.9.8.3-.3-2.2-2.2z"/><path class="st3" d="M260.9 209.7s-1.5 1.4-2.3 1.9c0 0-.4.2-.5 0 0 0-.3-.2-.3-.6m1.7-1.5s-1.1 1.2-1.7 1.5c-.1.1-.2.1-.3.1 0 0-.7-.1-.8-.4 0 0 .9-.7 1.4-1.4m-.3 1.7l1.3-1.8 2 .3-.2.2-2.5 1.5zm-2.6-14.8c-.2-1.4-1.1-2.4-1.1-2.4-.2-.2.2-.3.2-.3 5.1-2 11-2.6 11-2.6.4-.1.5.1.5.1l1.5 4.5m-15.1 1.6l-2.6-1.9s-.2-.2-.6 0l-3.2 2s-.2.1 0 .3l1.5 1.5m5.9 9.2s-3.3 1.4-5.8 2c0 0-.2 0-.2-.3 0 0 .2-1.3 0-1.7 0 0-.5-1.1.2-2"/><path class="st4" d="M251.4 207.6l-1.9.8m.5-1.2l-1 .6m0-1l-.5.3"/><path class="st5" d="M250.7 197.6s-.4-.6-.9-.9m-.4 1.5s-.5-.9-1.5-1.4m.4 1.8s-.4-.6-.8-.8m17.9-2.5s.2-1.1-.3-2.2m-1.4 2.1s.3-.6-.3-1.7m-1.9 1.8s.1-.7-.1-1.1m-2.2 1.3s0-.7-.5-1.1m-2.1 1.5s0-.7-.4-1m8.3.4s.2-1.1-.2-1.8m-1.6 1.7s.2-1-.4-1.5m-1.8 1.7s0-.8-.3-1.2m-2.1 1.5s-.1-.7-.5-.9"/><path class="st6" d="M281.2 202.1c-.5-.9-1.3-1.4-1.3-1.4-1.6-.9-3.5-2.2-3.5-2.2-1.7-1.4-6-2.5-6-2.5-2.3-.8-6.7-.9-6.7-.9-2.8-.1-7.6.8-7.6.8-4.2.9-7.9 2.7-7.9 2.7-1.6.6-6 2.4-6 2.4-4.3-5.1-6.4-5.3-6.4-5.3-1.2-.1-1.2 1.6-1.2 1.6-.1 1.6 1.9 5.4 1.9 5.4-.7 1.3-1.3 3.6-1.3 3.6-.7 2.4.4 2.8.4 2.8.8.7 1.8-.3 1.8-.3l5.2-4.4c5.8 2.5 10.5 3.8 10.5 3.8 3 1 8.6 1.6 8.6 1.6 4.5.7 7.7 0 7.7 0 4.6-.7 6.2-2.5 6.2-2.5 5.6-.4 6.7-3.3 6.7-3.3l-2.6.6 2.1-1.3c1-.7.4-1.3.4-1.3-.4-.2-.7-.1-1 .1-.2.2-.3.4-.3.4"/><path class="st7" d="M270.9 198.5c-4.8 4.4-3.4 6.4-1.9 7.3"/><path class="st8" d="M269.7 205.7c-2.7-2.3 1.1-7.1 1.2-7.2"/><path class="st3" d="M269.9 205.2s0 .4.1.4c0 0-1.8.2-2.1.2h-.8s-.7 0-.9.1c0 0-.7.1-1.1.2 0 0-.3.1-.3.2 0 0-.7.1-.4.8 0 0 .4.3.4.5 0 0 .5.7 1.1.9 0 0 1.2.7 2.4.2l2.6-2.1s.5.4.7.4"/><path class="st9" d="M242.1 202s-2.4-.6-3.3-1.8m2.5 2.3s-2.3-.1-3.2.5m4 .2s-2 .7-2.9 1.8"/><path class="st10" d="M270.1 205.9l-1.6.6m1.6-.3s-1.4.6-1.8 1m2-.9s-.6.4-.9.9"/><circle class="st11" cx="276" cy="201.1" r="1.3"/><circle cx="276.3" cy="201.1" r=".4"/><path class="st7" d="M273.4 198.5s-4.9 6 0 7.9c0-.1-7.5-1.1 0-7.9z"/><path class="st6" d="M270 205.6l.9 1 .8.9.3-.3-2.2-2.2z"/><path class="st3" d="M345.9 178.7s-1.5 1.4-2.3 1.9c0 0-.4.2-.5 0 0 0-.3-.2-.3-.6m1.8-1.5s-1.1 1.2-1.7 1.5c-.1.1-.2.1-.3.1 0 0-.7-.1-.8-.4 0 0 .9-.7 1.4-1.4m-.3 1.7l1.2-1.8 2 .4-.2.1-2.4 1.5zm-2.6-14.8c-.2-1.4-1.1-2.4-1.1-2.4-.2-.2.2-.3.2-.3 5.1-2 11-2.6 11-2.6.4-.1.5.1.5.1l1.5 4.5m-15.1 1.6l-2.6-1.9s-.2-.2-.6 0l-3.2 2s-.2.1 0 .3l1.5 1.5m5.8 9.2s-3.3 1.4-5.8 2c0 0-.2 0-.2-.3 0 0 .2-1.3 0-1.7 0 0-.5-1.1.2-2"/><path class="st4" d="M336.4 176.7l-1.8.7m.5-1.2l-1 .7m0-1l-.5.2"/><path class="st5" d="M335.8 166.7s-.4-.6-.9-.9m-.5 1.4s-.5-.9-1.5-1.4m.5 1.9s-.4-.6-.8-.8m17.9-2.6s.2-1.1-.3-2.2m-1.5 2.1s.3-.6-.3-1.7m-1.8 1.8s.1-.7-.1-1.1m-2.2 1.4s0-.7-.5-1.1m-2.1 1.4s0-.7-.4-1m8.3.4s.2-1.1-.2-1.8m-1.6 1.7s.2-1-.4-1.5m-1.9 1.7s0-.8-.3-1.2m-2.1 1.5s-.1-.7-.5-.9"/><path class="st6" d="M366.3 171.2c-.5-.9-1.3-1.4-1.3-1.4-1.6-.9-3.5-2.2-3.5-2.2-1.7-1.4-6-2.5-6-2.5-2.3-.8-6.7-.9-6.7-.9-2.8-.1-7.6.8-7.6.8-4.2.9-7.9 2.7-7.9 2.7-1.6.6-6 2.4-6 2.4-4.3-5.1-6.4-5.3-6.4-5.3-1.2-.1-1.2 1.6-1.2 1.6-.1 1.6 1.9 5.4 1.9 5.4-.7 1.3-1.3 3.6-1.3 3.6-.7 2.4.4 2.8.4 2.8.8.7 1.8-.3 1.8-.3l5.2-4.4c5.8 2.5 10.5 3.8 10.5 3.8 3 1 8.6 1.6 8.6 1.6 4.5.7 7.7 0 7.7 0 4.6-.7 6.2-2.5 6.2-2.5 5.6-.4 6.7-3.3 6.7-3.3l-2.6.6 2.1-1.3c1-.7.4-1.3.4-1.3-.4-.2-.8-.1-1 .1-.2.2-.3.4-.3.4"/><path class="st7" d="M356 167.5c-4.8 4.4-3.4 6.4-1.9 7.3"/><path class="st8" d="M354.8 174.7c-2.7-2.3 1.1-7.1 1.2-7.2"/><path class="st3" d="M354.9 174.3s0 .4.1.4c0 0-1.8.2-2.1.2h-.8s-.7 0-.9.1c0 0-.7.1-1.1.2 0 0-.3.1-.3.2 0 0-.7.1-.4.8 0 0 .4.3.4.5 0 0 .5.7 1.1.9 0 0 1.2.7 2.4.2l2.6-2.1s.5.4.7.4"/><path class="st9" d="M327.2 171.1s-2.4-.6-3.3-1.8m2.5 2.3s-2.3-.1-3.2.5m4 .1s-2 .7-2.9 1.8"/><path class="st10" d="M355.1 174.9l-1.6.7m1.6-.3s-1.4.6-1.8 1m2.1-.9s-.6.4-.9.9"/><circle class="st11" cx="361.1" cy="170.1" r="1.3"/><circle cx="361.3" cy="170.1" r=".4"/><path class="st7" d="M358.5 167.5s-4.9 6 0 7.9c0 0-7.5-1 0-7.9z"/><path class="st6" d="M355 174.7l1 1 .8.8.3-.3-2.2-2.2z"/><path class="st3" d="M399.6 289s-1.5 1.4-2.3 1.9c0 0-.4.2-.5 0 0 0-.3-.2-.3-.6m1.7-1.5s-1.1 1.2-1.7 1.5c-.1.1-.2.1-.3.1 0 0-.7-.1-.8-.4 0 0 .9-.7 1.4-1.4m-.3 1.7l1.3-1.8 2 .3-.2.2-2.5 1.5zm-2.6-14.8c-.2-1.4-1.1-2.4-1.1-2.4-.2-.2.2-.3.2-.3 5.1-2 11-2.6 11-2.6.4-.1.5.1.5.1l1.5 4.5m-15 1.6l-2.6-1.9s-.2-.2-.6 0l-3.2 2s-.2.1 0 .3l1.5 1.5m5.8 9.2s-3.3 1.4-5.8 2c0 0-.2 0-.2-.3 0 0 .2-1.3 0-1.7 0 0-.5-1.1.2-2"/><path class="st4" d="M390.1 287l-1.9.7m.6-1.2l-1.1.6m0-1l-.5.3"/><path class="st5" d="M389.4 277s-.4-.6-.9-.9m-.4 1.4s-.5-.9-1.5-1.4m.4 1.9s-.4-.6-.8-.8m18-2.6s.2-1.1-.3-2.2m-1.5 2.1s.3-.6-.3-1.7m-1.8 1.8s.1-.7-.1-1.1m-2.3 1.3s0-.7-.5-1.1m-2.1 1.5s0-.7-.4-1m8.4.4s.2-1.1-.2-1.8m-1.7 1.7s.2-1-.4-1.5m-1.8 1.7s0-.8-.3-1.2m-2.1 1.5s-.1-.7-.5-.9"/><path class="st6" d="M420 281.4c-.5-.9-1.3-1.4-1.3-1.4-1.6-.9-3.5-2.2-3.5-2.2-1.7-1.4-6-2.5-6-2.5-2.3-.8-6.7-.9-6.7-.9-2.8-.1-7.6.8-7.6.8-4.2.9-7.9 2.7-7.9 2.7-1.6.6-6 2.4-6 2.4-4.3-5.1-6.4-5.3-6.4-5.3-1.2-.1-1.2 1.6-1.2 1.6-.1 1.6 1.9 5.4 1.9 5.4-.7 1.3-1.3 3.6-1.3 3.6-.7 2.4.4 2.8.4 2.8.8.7 1.8-.3 1.8-.3l5.2-4.4c5.8 2.5 10.5 3.8 10.5 3.8 3 1 8.6 1.6 8.6 1.6 4.5.7 7.7 0 7.7 0 4.6-.7 6.2-2.5 6.2-2.5 5.6-.4 6.7-3.3 6.7-3.3l-2.6.6 2.1-1.3c1-.7.4-1.3.4-1.3-.5-.2-.8 0-1 .1-.2.2-.3.4-.3.4"/><path class="st7" d="M409.6 277.8c-4.8 4.4-3.4 6.4-1.9 7.3"/><path class="st8" d="M408.4 285c-2.7-2.3 1.1-7.1 1.2-7.2"/><path class="st3" d="M408.6 284.5s0 .4.1.4c0 0-1.8.2-2.1.2h-.8s-.7 0-.9.1c0 0-.7.1-1.1.2 0 0-.3.1-.3.2 0 0-.7.1-.4.8 0 0 .4.3.4.5 0 0 .5.7 1.1.9 0 0 1.2.7 2.4.2l2.6-2.1s.5.4.7.4"/><path class="st9" d="M380.8 281.4s-2.4-.6-3.3-1.8m2.5 2.2s-2.3-.1-3.2.5m4 .2s-2 .7-2.9 1.8"/><path class="st10" d="M408.8 285.2l-1.6.7m1.6-.4s-1.4.6-1.8 1m2-.8s-.6.4-.9.9"/><circle class="st11" cx="414.7" cy="280.4" r="1.3"/><circle cx="415" cy="280.4" r=".4"/><path class="st7" d="M412.1 277.8s-4.9 6 0 7.9c0 0-7.5-1 0-7.9z"/><path class="st6" d="M408.7 284.9l.9 1.1.8.8.3-.3-2.2-2.2z"/><path class="st3" d="M313.7 289.8s-1.5 1.4-2.3 1.9c0 0-.4.2-.5 0 0 0-.3-.2-.3-.6m1.8-1.5s-1.1 1.2-1.7 1.5c-.1.1-.2.1-.3.1 0 0-.7-.1-.8-.4 0 0 .9-.7 1.4-1.4m-.3 1.7l1.3-1.8 1.9.3-.2.2-2.4 1.5zm-2.6-14.8c-.2-1.4-1.1-2.4-1.1-2.4-.2-.2.2-.3.2-.3 5.1-2 11-2.6 11-2.6.4-.1.5.1.5.1l1.5 4.5m-15.1 1.6l-2.6-1.9s-.2-.2-.6 0l-3.2 2s-.2.1 0 .3l1.5 1.5m5.8 9.2s-3.3 1.4-5.8 2c0 0-.2 0-.2-.3 0 0 .2-1.3 0-1.7 0 0-.5-1.1.2-2"/><path class="st4" d="M304.2 287.7l-1.8.8m.5-1.2l-1 .6m0-1l-.5.3"/><path class="st5" d="M303.6 277.7s-.4-.6-.9-.9m-.4 1.5s-.5-.9-1.5-1.4m.4 1.9s-.4-.6-.8-.8m17.9-2.6s.2-1.1-.3-2.2m-1.5 2.1s.3-.6-.3-1.7m-1.8 1.8s.1-.7-.1-1.1m-2.2 1.3s0-.7-.5-1.1m-2.1 1.5s0-.7-.4-1m8.3.4s.2-1.1-.2-1.8m-1.6 1.7s.2-1-.4-1.5m-1.8 1.7s0-.8-.3-1.2m-2.2 1.5s-.1-.7-.5-.9"/><path class="st6" d="M334.1 282.2c-.5-.9-1.3-1.4-1.3-1.4-1.6-.9-3.5-2.2-3.5-2.2-1.7-1.4-6-2.5-6-2.5-2.3-.8-6.7-.9-6.7-.9-2.8-.1-7.6.8-7.6.8-4.2.9-7.9 2.7-7.9 2.7-1.6.6-6 2.4-6 2.4-4.3-5.1-6.4-5.3-6.4-5.3-1.2-.1-1.2 1.6-1.2 1.6-.1 1.6 1.9 5.4 1.9 5.4-.7 1.3-1.3 3.6-1.3 3.6-.7 2.4.4 2.8.4 2.8.8.7 1.8-.3 1.8-.3l5.2-4.4c5.8 2.5 10.5 3.8 10.5 3.8 3 1 8.6 1.6 8.6 1.6 4.5.7 7.7 0 7.7 0 4.6-.7 6.2-2.5 6.2-2.5 5.6-.4 6.7-3.3 6.7-3.3l-2.6.6 2.1-1.3c1-.7.4-1.3.4-1.3-.4-.2-.8 0-1 .1-.2.2-.3.4-.3.4"/><path class="st7" d="M323.8 278.6c-4.8 4.4-3.4 6.4-1.9 7.3"/><path class="st8" d="M322.6 285.8c-2.7-2.3 1.1-7.1 1.2-7.2"/><path class="st3" d="M322.8 285.3s0 .4.1.4c0 0-1.8.2-2.1.2h-.8s-.7 0-.9.1c0 0-.7.1-1.1.2 0 0-.3.1-.3.2 0 0-.7.1-.4.8 0 0 .4.3.4.5 0 0 .5.7 1.1.9 0 0 1.2.7 2.4.2l2.6-2.1s.5.4.7.4"/><path class="st9" d="M295 282.1s-2.4-.6-3.3-1.8m2.5 2.3s-2.3-.1-3.2.5m4 .2s-2 .7-2.9 1.8"/><path class="st10" d="M323 286l-1.6.7m1.6-.4s-1.4.6-1.8 1m2-.8s-.6.4-.9.9"/><circle class="st11" cx="328.9" cy="281.2" r="1.3"/><circle cx="329.1" cy="281.2" r=".4"/><path class="st7" d="M326.3 278.6s-4.9 6 0 7.9c0 0-7.5-1 0-7.9z"/><path class="st6" d="M322.9 285.7l.9 1 .8.9.3-.3-2.2-2.2z"/><path class="st3" d="M211.2 281.4s-1.5 1.4-2.3 1.9c0 0-.4.2-.5 0 0 0-.3-.2-.3-.6m1.8-1.5s-1.1 1.2-1.7 1.5c-.1.1-.2.1-.3.1 0 0-.7-.1-.8-.4 0 0 .9-.7 1.4-1.4m-.3 1.7l1.2-1.8 2 .3-.2.2-2.4 1.5zm-2.6-14.8c-.2-1.4-1.1-2.4-1.1-2.4-.2-.2.2-.3.2-.3 5.1-2 11-2.6 11-2.6.4-.1.5.1.5.1l1.5 4.5m-15.1 1.6l-2.6-1.9s-.2-.2-.6 0l-3.2 2s-.2.1 0 .3l1.5 1.5m5.8 9.2s-3.3 1.4-5.8 2c0 0-.2 0-.2-.3 0 0 .2-1.3 0-1.7 0 0-.5-1.1.2-2"/><path class="st4" d="M201.7 279.4l-1.8.7m.5-1.2l-1 .6m0-.9l-.5.2"/><path class="st5" d="M201.1 269.4s-.4-.6-.9-.9m-.5 1.4s-.5-.9-1.5-1.4m.5 1.9s-.4-.6-.8-.8m17.9-2.6s.2-1.1-.3-2.2m-1.5 2.1s.3-.6-.3-1.7m-1.8 1.8s.1-.7-.1-1.1m-2.2 1.3s0-.7-.5-1.1m-2.1 1.5s0-.7-.4-1m8.3.4s.2-1.1-.2-1.8m-1.6 1.7s.2-1-.4-1.5m-1.9 1.7s0-.8-.3-1.2m-2.1 1.5s-.1-.7-.5-.9"/><path class="st6" d="M231.6 273.8c-.5-.9-1.3-1.4-1.3-1.4-1.6-.9-3.5-2.2-3.5-2.2-1.7-1.4-6-2.5-6-2.5-2.3-.8-6.7-.9-6.7-.9-2.8-.1-7.6.8-7.6.8-4.2.9-7.9 2.7-7.9 2.7-1.6.6-6 2.4-6 2.4-4.3-5.1-6.4-5.3-6.4-5.3-1.2-.1-1.2 1.6-1.2 1.6-.1 1.6 1.9 5.4 1.9 5.4-.7 1.3-1.3 3.6-1.3 3.6-.7 2.4.4 2.8.4 2.8.8.7 1.8-.3 1.8-.3l5.2-4.4c5.8 2.5 10.5 3.8 10.5 3.8 3 1 8.6 1.6 8.6 1.6 4.5.7 7.7 0 7.7 0 4.6-.7 6.2-2.5 6.2-2.5 5.6-.4 6.7-3.3 6.7-3.3l-2.6.6 2.1-1.3c1-.7.4-1.3.4-1.3-.4-.2-.8 0-1 .1-.2.2-.3.4-.3.4"/><path class="st7" d="M221.3 270.2c-4.8 4.4-3.4 6.4-1.9 7.3"/><path class="st8" d="M220.1 277.4c-2.7-2.3 1.1-7.1 1.2-7.2"/><path class="st3" d="M220.3 276.9s0 .4.1.4c0 0-1.8.2-2.1.2h-.8s-.7 0-.9.1c0 0-.7.1-1.1.2 0 0-.3.1-.3.2 0 0-.7.1-.4.8 0 0 .4.3.4.5 0 0 .5.7 1.1.9 0 0 1.2.7 2.4.2l2.6-2.1s.5.4.7.4"/><path class="st9" d="M192.5 273.8s-2.4-.6-3.3-1.8m2.5 2.2s-2.3-.1-3.2.5m4 .2s-2 .7-2.9 1.8"/><path class="st10" d="M220.4 277.6l-1.5.7m1.5-.4s-1.4.6-1.8 1m2.1-.8s-.6.4-.9.9"/><circle class="st11" cx="226.4" cy="272.8" r="1.3"/><circle cx="226.6" cy="272.8" r=".4"/><path class="st7" d="M223.8 270.2s-4.9 6 0 7.9c0 0-7.5-1 0-7.9z"/><path class="st6" d="M220.3 277.3l1 1.1.8.8.3-.3-2.2-2.2z"/><path class="st3" d="M115.9 294.7s-1.5 1.4-2.3 1.9c0 0-.4.2-.5 0 0 0-.3-.2-.3-.6m1.7-1.4s-1.1 1.2-1.7 1.5c-.1.1-.2.1-.3.1 0 0-.7-.1-.8-.4 0 0 .9-.7 1.4-1.4m-.3 1.7l1.3-1.8 2 .3-.2.1-2.5 1.5zm-2.6-14.8c-.2-1.4-1.1-2.4-1.1-2.4-.2-.2.2-.3.2-.3 5.1-2 11-2.6 11-2.6.4-.1.5.1.5.1l1.5 4.5m-15 1.5l-2.6-1.9s-.2-.2-.6 0l-3.2 2s-.2.1 0 .3l1.5 1.5m5.8 9.3s-3.3 1.4-5.8 2c0 0-.2 0-.2-.3 0 0 .2-1.3 0-1.7 0 0-.5-1.1.2-2"/><path class="st4" d="M106.4 292.7l-1.9.7m.5-1.1l-1 .6m0-1l-.5.2"/><path class="st5" d="M105.7 282.7s-.4-.6-.9-.9m-.4 1.4s-.5-.9-1.5-1.4m.4 1.9s-.4-.6-.8-.8m17.9-2.5s.2-1.1-.3-2.2m-1.4 2.1s.3-.6-.3-1.7m-1.9 1.7s.1-.7-.1-1.1m-2.2 1.4s0-.7-.5-1.1m-2.1 1.5s0-.7-.4-1m8.4.4s.2-1.1-.2-1.8m-1.7 1.7s.2-1-.4-1.5m-1.8 1.6s0-.8-.3-1.2m-2.1 1.5s-.1-.7-.5-.9"/><path class="st6" d="M136.2 287.2c-.5-.9-1.3-1.4-1.3-1.4-1.6-.9-3.5-2.2-3.5-2.2-1.7-1.4-6-2.5-6-2.5-2.3-.8-6.7-.9-6.7-.9-2.8-.1-7.6.8-7.6.8-4.2.9-7.9 2.7-7.9 2.7-1.6.6-6 2.4-6 2.4-4.3-5.1-6.4-5.3-6.4-5.3-1.2-.1-1.2 1.6-1.2 1.6-.1 1.6 1.9 5.4 1.9 5.4-.7 1.3-1.3 3.6-1.3 3.6-.7 2.4.4 2.8.4 2.8.8.7 1.8-.3 1.8-.3l5.2-4.4c5.8 2.5 10.5 3.8 10.5 3.8 3 1 8.6 1.6 8.6 1.6 4.5.7 7.7 0 7.7 0 4.6-.7 6.2-2.5 6.2-2.5 5.6-.4 6.7-3.3 6.7-3.3l-2.6.6 2.1-1.3c1-.7.4-1.3.4-1.3-.4-.2-.7-.1-1 .1-.2.2-.3.4-.3.4"/><path class="st7" d="M125.9 283.5c-4.8 4.4-3.4 6.4-1.9 7.3"/><path class="st8" d="M124.7 290.7c-2.7-2.3 1.1-7.1 1.2-7.2"/><path class="st3" d="M124.9 290.3s0 .4.1.4c0 0-1.8.2-2.1.2h-.8s-.7 0-.9.1c0 0-.7.1-1.1.2 0 0-.3.1-.3.2 0 0-.7.1-.4.8 0 0 .4.3.4.5 0 0 .5.7 1.1.9 0 0 1.2.7 2.4.2l2.6-2.1s.5.4.7.4"/><path class="st9" d="M97.1 287.1s-2.4-.6-3.3-1.8m2.5 2.3s-2.3-.1-3.2.5m4 .1s-2 .7-2.9 1.8"/><path class="st10" d="M125.1 290.9l-1.6.7m1.6-.3s-1.4.6-1.8 1m2-.9s-.6.4-.9.9"/><circle class="st11" cx="131" cy="286.1" r="1.3"/><circle cx="131.3" cy="286.1" r=".4"/><path class="st7" d="M128.4 283.5s-4.9 6 0 7.9c0 0-7.5-1 0-7.9z"/><path class="st6" d="M125 290.7l.9 1 .8.8.3-.3-2.2-2.1z"/><path class="st3" d="M46.6 271s-1.5 1.4-2.3 1.9c0 0-.4.2-.5 0 0 0-.3-.2-.3-.6m1.7-1.5s-1.1 1.2-1.7 1.5c-.1.1-.2.1-.3.1 0 0-.7-.1-.8-.4 0 0 .9-.7 1.4-1.4m-.3 1.7l1.3-1.8 2 .3-.2.2-2.5 1.5zm-2.6-14.8c-.2-1.4-1.1-2.4-1.1-2.4-.2-.2.2-.3.2-.3 5.1-2 11-2.6 11-2.6.4-.1.5.1.5.1l1.5 4.5m-15.1 1.6l-2.6-1.9s-.2-.2-.6 0l-3.2 2s-.2.1 0 .3l1.5 1.5m5.9 9.2s-3.3 1.4-5.8 2c0 0-.2 0-.2-.3 0 0 .2-1.3 0-1.7 0 0-.5-1.1.2-2"/><path class="st4" d="M37.1 269l-1.9.7m.5-1.2l-1 .6m0-.9l-.5.2"/><path class="st5" d="M36.4 259s-.4-.6-.9-.9m-.4 1.4s-.5-.9-1.5-1.4m.4 1.9s-.4-.6-.8-.8m17.9-2.6s.2-1.1-.3-2.2m-1.4 2.1s.3-.6-.3-1.7m-1.9 1.8s.1-.7-.1-1.1m-2.2 1.3s0-.7-.5-1.1m-2.1 1.5s0-.7-.4-1m8.3.4s.2-1.1-.2-1.8m-1.6 1.7s.2-1-.4-1.5m-1.8 1.7s0-.8-.3-1.2m-2.1 1.5s-.1-.7-.5-.9"/><path class="st6" d="M66.9 263.4c-.5-.9-1.3-1.4-1.3-1.4-1.6-.9-3.5-2.2-3.5-2.2-1.7-1.4-6-2.5-6-2.5-2.3-.8-6.7-.9-6.7-.9-2.8-.1-7.6.8-7.6.8-4.2.9-7.9 2.7-7.9 2.7-1.6.6-6 2.4-6 2.4-4.3-5.1-6.4-5.3-6.4-5.3-1.2-.1-1.2 1.6-1.2 1.6-.1 1.6 1.9 5.4 1.9 5.4-.7 1.3-1.3 3.6-1.3 3.6-.7 2.4.4 2.8.4 2.8.8.7 1.8-.3 1.8-.3l5.2-4.4c5.8 2.5 10.5 3.8 10.5 3.8 3 1 8.6 1.6 8.6 1.6 4.5.7 7.7 0 7.7 0 4.6-.7 6.2-2.5 6.2-2.5 5.6-.4 6.7-3.3 6.7-3.3l-2.6.6 2.1-1.3c1-.7.4-1.3.4-1.3-.4-.2-.7 0-1 .1-.2.2-.3.4-.3.4"/><path class="st7" d="M56.6 259.8c-4.8 4.4-3.4 6.4-1.9 7.3"/><path class="st8" d="M55.4 267c-2.7-2.3 1.1-7.1 1.2-7.2"/><path class="st3" d="M55.6 266.5s0 .4.1.4c0 0-1.8.2-2.1.2h-.8s-.7 0-.9.1c0 0-.7.1-1.1.2 0 0-.3.1-.3.2 0 0-.7.1-.4.8 0 0 .4.3.4.5 0 0 .5.7 1.1.9 0 0 1.2.7 2.4.2l2.6-2.1s.5.4.7.4"/><path class="st9" d="M27.8 263.4s-2.4-.6-3.3-1.8m2.5 2.2s-2.3-.1-3.2.5m4 .2s-2 .7-2.9 1.8"/><path class="st10" d="M55.8 267.2l-1.6.7m1.6-.4s-1.4.6-1.8 1m2-.8s-.6.4-.9.9"/><circle class="st11" cx="61.7" cy="262.4" r="1.3"/><circle cx="62" cy="262.4" r=".4"/><path class="st7" d="M59.1 259.8s-4.9 6 0 7.9c0 0-7.5-1 0-7.9z"/><path class="st6" d="M55.7 266.9l.9 1.1.8.8.3-.3-2.2-2.2z"/></svg>