<svg xmlns="http://www.w3.org/2000/svg" width="823.7" height="978.8" viewBox="0 0 823.7 978.8"><style type="text/css">.st0{fill:#1EA5A6;} .st1{fill:#95D5D2;}</style><circle class="st0" cx="532.6" cy="96.5" r="15.7"/><path class="st1" d="M535.7 109.9c-8.8 0-15.9-7.4-15.9-16.5 0-1.5.2-2.9.5-4.2-1.3 2.1-2 4.6-2 7.3 0 7.9 6.4 14.3 14.3 14.3 1.9 0 3.7-.4 5.4-1.1-.7.1-1.5.2-2.3.2zm1-26.8s6.4 1.9 9.5 9.4c0 0-4.5-3.7-11-4 .1.1 2.3-2.2 1.5-5.4z"/><circle class="st0" cx="403" cy="96.5" r="15.7"/><path class="st1" d="M406.1 109.9c-8.8 0-15.9-7.4-15.9-16.5 0-1.5.2-2.9.5-4.2-1.3 2.1-2 4.6-2 7.3 0 7.9 6.4 14.3 14.3 14.3 1.9 0 3.7-.4 5.4-1.1-.7.1-1.5.2-2.3.2zm1-26.8s6.4 1.9 9.5 9.4c0 0-4.5-3.7-11-4 .1.1 2.3-2.2 1.5-5.4z"/><circle class="st0" cx="724.7" cy="96.5" r="15.7"/><path class="st1" d="M727.8 109.9c-8.8 0-15.9-7.4-15.9-16.5 0-1.5.2-2.9.5-4.2-1.3 2.1-2 4.6-2 7.3 0 7.9 6.4 14.3 14.3 14.3 1.9 0 3.7-.4 5.4-1.1-.7.1-1.5.2-2.3.2zm1-26.8s6.4 1.9 9.5 9.4c0 0-4.5-3.7-11-4 .1.1 2.3-2.2 1.5-5.4z"/><circle class="st0" cx="789.5" cy="96.5" r="15.7"/><path class="st1" d="M792.6 109.9c-8.8 0-15.9-7.4-15.9-16.5 0-1.5.2-2.9.5-4.2-1.3 2.1-2 4.6-2 7.3 0 7.9 6.4 14.3 14.3 14.3 1.9 0 3.7-.4 5.4-1.1-.7.1-1.5.2-2.3.2zm1-26.8s6.4 1.9 9.5 9.4c0 0-4.5-3.7-11-4 .1.1 2.3-2.2 1.5-5.4z"/><circle class="st0" cx="467" cy="96.5" r="15.7"/><path class="st1" d="M470.1 109.9c-8.8 0-15.9-7.4-15.9-16.5 0-1.5.2-2.9.5-4.2-1.3 2.1-2 4.6-2 7.3 0 7.9 6.4 14.3 14.3 14.3 1.9 0 3.7-.4 5.4-1.1-.8.1-1.5.2-2.3.2zm1-26.8s6.4 1.9 9.5 9.4c0 0-4.5-3.7-11-4 0 .1 2.3-2.2 1.5-5.4z"/><circle class="st0" cx="597.8" cy="96.5" r="15.7"/><path class="st1" d="M600.9 109.9c-8.8 0-15.9-7.4-15.9-16.5 0-1.5.2-2.9.5-4.2-1.3 2.1-2 4.6-2 7.3 0 7.9 6.4 14.3 14.3 14.3 1.9 0 3.7-.4 5.4-1.1-.7.1-1.5.2-2.3.2zm1-26.8s6.4 1.9 9.5 9.4c0 0-4.5-3.7-11-4 0 .1 2.3-2.2 1.5-5.4z"/><circle class="st0" cx="660.5" cy="96.5" r="15.7"/><path class="st1" d="M663.6 109.9c-8.8 0-15.9-7.4-15.9-16.5 0-1.5.2-2.9.5-4.2-1.3 2.1-2 4.6-2 7.3 0 7.9 6.4 14.3 14.3 14.3 1.9 0 3.7-.4 5.4-1.1-.7.1-1.5.2-2.3.2zm1-26.8s6.4 1.9 9.5 9.4c0 0-4.5-3.7-11-4 0 .1 2.3-2.2 1.5-5.4z"/><circle class="st0" cx="339.7" cy="96.5" r="15.7"/><path class="st1" d="M342.7 109.9c-8.8 0-15.9-7.4-15.9-16.5 0-1.5.2-2.9.5-4.2-1.3 2.1-2 4.6-2 7.3 0 7.9 6.4 14.3 14.3 14.3 1.9 0 3.7-.4 5.4-1.1-.7.1-1.5.2-2.3.2zm1.1-26.8s6.4 1.9 9.5 9.4c0 0-4.5-3.7-11-4 0 .1 2.2-2.2 1.5-5.4z"/><circle class="st0" cx="339.7" cy="317.4" r="15.7"/><path class="st1" d="M342.7 330.8c-8.8 0-15.9-7.4-15.9-16.5 0-1.5.2-2.9.5-4.2-1.3 2.1-2 4.6-2 7.3 0 7.9 6.4 14.3 14.3 14.3 1.9 0 3.7-.4 5.4-1.1-.7.2-1.5.2-2.3.2zm1.1-26.7s6.4 1.9 9.5 9.4c0 0-4.5-3.7-11-4 0 0 2.2-2.2 1.5-5.4z"/><circle class="st0" cx="339.7" cy="172.8" r="15.7"/><path class="st1" d="M342.7 186.2c-8.8 0-15.9-7.4-15.9-16.5 0-1.5.2-2.9.5-4.2-1.3 2.1-2 4.6-2 7.3 0 7.9 6.4 14.3 14.3 14.3 1.9 0 3.7-.4 5.4-1.1-.7.1-1.5.2-2.3.2zm1.1-26.7s6.4 1.9 9.5 9.4c0 0-4.5-3.7-11-4 0 0 2.2-2.3 1.5-5.4z"/><circle class="st0" cx="339.7" cy="385.2" r="15.7"/><path class="st1" d="M342.7 398.6c-8.8 0-15.9-7.4-15.9-16.5 0-1.5.2-2.9.5-4.2-1.3 2.1-2 4.6-2 7.3 0 7.9 6.4 14.3 14.3 14.3 1.9 0 3.7-.4 5.4-1.1-.7.2-1.5.2-2.3.2zm1.1-26.7s6.4 1.9 9.5 9.4c0 0-4.5-3.7-11-4 0 0 2.2-2.2 1.5-5.4z"/><circle class="st0" cx="339.7" cy="240.7" r="15.7"/><path class="st1" d="M342.7 254.2c-8.8 0-15.9-7.4-15.9-16.5 0-1.5.2-2.9.5-4.2-1.3 2.1-2 4.6-2 7.3 0 7.9 6.4 14.3 14.3 14.3 1.9 0 3.7-.4 5.4-1.1-.7.1-1.5.2-2.3.2zm1.1-26.8s6.4 1.9 9.5 9.4c0 0-4.5-3.7-11-4 0 0 2.2-2.2 1.5-5.4z"/><circle class="st0" cx="339.7" cy="25.1" r="15.7"/><path class="st1" d="M342.7 38.5c-8.8 0-15.9-7.4-15.9-16.5 0-1.5.2-2.9.5-4.2-1.3 2.1-2 4.6-2 7.3 0 7.9 6.4 14.3 14.3 14.3 1.9 0 3.7-.4 5.4-1.1-.7.1-1.5.2-2.3.2zm1.1-26.8s6.4 1.9 9.5 9.4c0 0-4.5-3.7-11-4 0 0 2.2-2.2 1.5-5.4z"/><circle class="st0" cx="341" cy="456" r="15.7"/><path class="st1" d="M344 469.4c-8.8 0-15.9-7.4-15.9-16.5 0-1.5.2-2.9.5-4.2-1.3 2.1-2 4.6-2 7.3 0 7.9 6.4 14.3 14.3 14.3 1.9 0 3.7-.4 5.4-1.1-.7.1-1.5.2-2.3.2zm1.1-26.8s6.4 1.9 9.5 9.4c0 0-4.5-3.7-11-4 0 0 2.2-2.2 1.5-5.4z"/><circle class="st0" cx="403.7" cy="669.3" r="15.7"/><path class="st1" d="M406.8 682.7c-8.8 0-15.9-7.4-15.9-16.5 0-1.5.2-2.9.5-4.2-1.3 2.1-2 4.6-2 7.3 0 7.9 6.4 14.3 14.3 14.3 1.9 0 3.7-.4 5.4-1.1-.8.1-1.5.2-2.3.2zm1-26.7s6.4 1.9 9.5 9.4c0 0-4.5-3.7-11-4 0 0 2.2-2.3 1.5-5.4z"/><circle class="st0" cx="403.7" cy="890.2" r="15.7"/><path class="st1" d="M406.8 903.6c-8.8 0-15.9-7.4-15.9-16.5 0-1.5.2-2.9.5-4.2-1.3 2.1-2 4.6-2 7.3 0 7.9 6.4 14.3 14.3 14.3 1.9 0 3.7-.4 5.4-1.1-.8.2-1.5.2-2.3.2zm1-26.7s6.4 1.9 9.5 9.4c0 0-4.5-3.7-11-4 0 0 2.2-2.2 1.5-5.4z"/><circle class="st0" cx="403.7" cy="745.6" r="15.7"/><path class="st1" d="M406.8 759c-8.8 0-15.9-7.4-15.9-16.5 0-1.5.2-2.9.5-4.2-1.3 2.1-2 4.6-2 7.3 0 7.9 6.4 14.3 14.3 14.3 1.9 0 3.7-.4 5.4-1.1-.8.1-1.5.2-2.3.2zm1-26.7s6.4 1.9 9.5 9.4c0 0-4.5-3.7-11-4 0 0 2.2-2.3 1.5-5.4z"/><circle class="st0" cx="403.7" cy="958" r="15.7"/><path class="st1" d="M406.8 971.4c-8.8 0-15.9-7.4-15.9-16.5 0-1.5.2-2.9.5-4.2-1.3 2.1-2 4.6-2 7.3 0 7.9 6.4 14.3 14.3 14.3 1.9 0 3.7-.4 5.4-1.1-.8.2-1.5.2-2.3.2zm1-26.7s6.4 1.9 9.5 9.4c0 0-4.5-3.7-11-4 0 0 2.2-2.2 1.5-5.4z"/><circle class="st0" cx="403.7" cy="813.5" r="15.7"/><path class="st1" d="M406.8 827c-8.8 0-15.9-7.4-15.9-16.5 0-1.5.2-2.9.5-4.2-1.3 2.1-2 4.6-2 7.3 0 7.9 6.4 14.3 14.3 14.3 1.9 0 3.7-.4 5.4-1.1-.8.1-1.5.2-2.3.2zm1-26.8s6.4 1.9 9.5 9.4c0 0-4.5-3.7-11-4 0 0 2.2-2.2 1.5-5.4z"/><circle class="st0" cx="403.7" cy="597.9" r="15.7"/><path class="st1" d="M406.8 611.3c-8.8 0-15.9-7.4-15.9-16.5 0-1.5.2-2.9.5-4.2-1.3 2.1-2 4.6-2 7.3 0 7.9 6.4 14.3 14.3 14.3 1.9 0 3.7-.4 5.4-1.1-.8.1-1.5.2-2.3.2zm1-26.8s6.4 1.9 9.5 9.4c0 0-4.5-3.7-11-4 0 0 2.2-2.2 1.5-5.4z"/><circle class="st0" cx="403.7" cy="524" r="15.7"/><path class="st1" d="M406.8 537.4c-8.8 0-15.9-7.4-15.9-16.5 0-1.5.2-2.9.5-4.2-1.3 2.1-2 4.6-2 7.3 0 7.9 6.4 14.3 14.3 14.3 1.9 0 3.7-.4 5.4-1.1-.8.1-1.5.2-2.3.2zm1-26.8s6.4 1.9 9.5 9.4c0 0-4.5-3.7-11-4 0 .1 2.2-2.2 1.5-5.4z"/><circle class="st0" cx="533.9" cy="456" r="15.7"/><path class="st1" d="M537 469.4c-8.8 0-15.9-7.4-15.9-16.5 0-1.5.2-2.9.5-4.2-1.3 2.1-2 4.6-2 7.3 0 7.9 6.4 14.3 14.3 14.3 1.9 0 3.7-.4 5.4-1.1-.7.1-1.5.2-2.3.2zm1-26.8s6.4 1.9 9.5 9.4c0 0-4.5-3.7-11-4 .1 0 2.3-2.2 1.5-5.4z"/><circle class="st0" cx="404.3" cy="456" r="15.7"/><path class="st1" d="M407.4 469.4c-8.8 0-15.9-7.4-15.9-16.5 0-1.5.2-2.9.5-4.2-1.3 2.1-2 4.6-2 7.3 0 7.9 6.4 14.3 14.3 14.3 1.9 0 3.7-.4 5.4-1.1-.7.1-1.5.2-2.3.2zm1-26.8s6.4 1.9 9.5 9.4c0 0-4.5-3.7-11-4 .1 0 2.3-2.2 1.5-5.4z"/><circle class="st0" cx="726" cy="456" r="15.7"/><path class="st1" d="M729.1 469.4c-8.8 0-15.9-7.4-15.9-16.5 0-1.5.2-2.9.5-4.2-1.3 2.1-2 4.6-2 7.3 0 7.9 6.4 14.3 14.3 14.3 1.9 0 3.7-.4 5.4-1.1-.7.1-1.5.2-2.3.2zm1-26.8s6.4 1.9 9.5 9.4c0 0-4.5-3.7-11-4 .1 0 2.3-2.2 1.5-5.4z"/><circle class="st0" cx="790.8" cy="456" r="15.7"/><path class="st1" d="M793.9 469.4c-8.8 0-15.9-7.4-15.9-16.5 0-1.5.2-2.9.5-4.2-1.3 2.1-2 4.6-2 7.3 0 7.9 6.4 14.3 14.3 14.3 1.9 0 3.7-.4 5.4-1.1-.7.1-1.5.2-2.3.2zm1-26.8s6.4 1.9 9.5 9.4c0 0-4.5-3.7-11-4 .1 0 2.3-2.2 1.5-5.4z"/><circle class="st0" cx="468.3" cy="456" r="15.7"/><path class="st1" d="M471.4 469.4c-8.8 0-15.9-7.4-15.9-16.5 0-1.5.2-2.9.5-4.2-1.3 2.1-2 4.6-2 7.3 0 7.9 6.4 14.3 14.3 14.3 1.9 0 3.7-.4 5.4-1.1-.8.1-1.5.2-2.3.2zm1-26.8s6.4 1.9 9.5 9.4c0 0-4.5-3.7-11-4 0 0 2.3-2.2 1.5-5.4z"/><circle class="st0" cx="599.1" cy="456" r="15.7"/><path class="st1" d="M602.2 469.4c-8.8 0-15.9-7.4-15.9-16.5 0-1.5.2-2.9.5-4.2-1.3 2.1-2 4.6-2 7.3 0 7.9 6.4 14.3 14.3 14.3 1.9 0 3.7-.4 5.4-1.1-.7.1-1.5.2-2.3.2zm1-26.8s6.4 1.9 9.5 9.4c0 0-4.5-3.7-11-4 0 0 2.3-2.2 1.5-5.4z"/><circle class="st0" cx="661.8" cy="456" r="15.7"/><path class="st1" d="M664.9 469.4c-8.8 0-15.9-7.4-15.9-16.5 0-1.5.2-2.9.5-4.2-1.3 2.1-2 4.6-2 7.3 0 7.9 6.4 14.3 14.3 14.3 1.9 0 3.7-.4 5.4-1.1-.7.1-1.5.2-2.3.2zm1-26.8s6.4 1.9 9.5 9.4c0 0-4.5-3.7-11-4 0 0 2.3-2.2 1.5-5.4z"/><circle class="st0" cx="22.3" cy="384.7" r="15.7"/><path class="st1" d="M25.4 398.1c-8.8 0-15.9-7.4-15.9-16.5 0-1.5.2-2.9.5-4.2-1.3 2.1-2 4.6-2 7.3 0 7.9 6.4 14.3 14.3 14.3 1.9 0 3.7-.4 5.4-1.1-.7.1-1.5.2-2.3.2zm1-26.8s6.4 1.9 9.5 9.4c0 0-4.5-3.7-11-4 0 0 2.3-2.2 1.5-5.4z"/><circle class="st0" cx="214.4" cy="384.7" r="15.7"/><path class="st1" d="M217.5 398.1c-8.8 0-15.9-7.4-15.9-16.5 0-1.5.2-2.9.5-4.2-1.3 2.1-2 4.6-2 7.3 0 7.9 6.4 14.3 14.3 14.3 1.9 0 3.7-.4 5.4-1.1-.7.1-1.5.2-2.3.2zm1-26.8s6.4 1.9 9.5 9.4c0 0-4.5-3.7-11-4 0 0 2.3-2.2 1.5-5.4z"/><circle class="st0" cx="279.2" cy="384.7" r="15.7"/><path class="st1" d="M282.3 398.1c-8.8 0-15.9-7.4-15.9-16.5 0-1.5.2-2.9.5-4.2-1.3 2.1-2 4.6-2 7.3 0 7.9 6.4 14.3 14.3 14.3 1.9 0 3.7-.4 5.4-1.1-.7.1-1.5.2-2.3.2zm1-26.8s6.4 1.9 9.5 9.4c0 0-4.5-3.7-11-4 0 0 2.3-2.2 1.5-5.4z"/><circle class="st0" cx="87.5" cy="384.7" r="15.7"/><path class="st1" d="M90.6 398.1c-8.8 0-15.9-7.4-15.9-16.5 0-1.5.2-2.9.5-4.2-1.3 2.1-2 4.6-2 7.3 0 7.9 6.4 14.3 14.3 14.3 1.9 0 3.7-.4 5.4-1.1-.8.1-1.5.2-2.3.2zm1-26.8s6.4 1.9 9.5 9.4c0 0-4.5-3.7-11-4 0 0 2.3-2.2 1.5-5.4z"/><circle class="st0" cx="150.2" cy="384.7" r="15.7"/><path class="st1" d="M153.3 398.1c-8.8 0-15.9-7.4-15.9-16.5 0-1.5.2-2.9.5-4.2-1.3 2.1-2 4.6-2 7.3 0 7.9 6.4 14.3 14.3 14.3 1.9 0 3.7-.4 5.4-1.1-.7.1-1.5.2-2.3.2zm1-26.8s6.4 1.9 9.5 9.4c0 0-4.5-3.7-11-4 0 0 2.3-2.2 1.5-5.4z"/><circle class="st0" cx="344.2" cy="669.3" r="15.7"/><path class="st1" d="M347.3 682.7c-8.8 0-15.9-7.4-15.9-16.5 0-1.5.2-2.9.5-4.2-1.3 2.1-2 4.6-2 7.3 0 7.9 6.4 14.3 14.3 14.3 1.9 0 3.7-.4 5.4-1.1-.8.1-1.5.2-2.3.2zm1-26.7s6.4 1.9 9.5 9.4c0 0-4.5-3.7-11-4 0 0 2.3-2.3 1.5-5.4z"/><circle class="st0" cx="23.5" cy="669.3" r="15.7"/><path class="st1" d="M26.6 682.7c-8.8 0-15.9-7.4-15.9-16.5 0-1.5.2-2.9.5-4.2-1.3 2.1-2 4.6-2 7.3 0 7.9 6.4 14.3 14.3 14.3 1.9 0 3.7-.4 5.4-1.1-.7.1-1.5.2-2.3.2zm1-26.7s6.4 1.9 9.5 9.4c0 0-4.5-3.7-11-4 .1 0 2.3-2.3 1.5-5.4z"/><circle class="st0" cx="215.7" cy="669.3" r="15.7"/><path class="st1" d="M218.7 682.7c-8.8 0-15.9-7.4-15.9-16.5 0-1.5.2-2.9.5-4.2-1.3 2.1-2 4.6-2 7.3 0 7.9 6.4 14.3 14.3 14.3 1.9 0 3.7-.4 5.4-1.1-.7.1-1.5.2-2.3.2zm1.1-26.7s6.4 1.9 9.5 9.4c0 0-4.5-3.7-11-4 0 0 2.2-2.3 1.5-5.4z"/><circle class="st0" cx="280.4" cy="669.3" r="15.7"/><path class="st1" d="M283.5 682.7c-8.8 0-15.9-7.4-15.9-16.5 0-1.5.2-2.9.5-4.2-1.3 2.1-2 4.6-2 7.3 0 7.9 6.4 14.3 14.3 14.3 1.9 0 3.7-.4 5.4-1.1-.7.1-1.5.2-2.3.2zm1-26.7s6.4 1.9 9.5 9.4c0 0-4.5-3.7-11-4 .1 0 2.3-2.3 1.5-5.4z"/><circle class="st0" cx="88.7" cy="669.3" r="15.7"/><path class="st1" d="M91.8 682.7c-8.8 0-15.9-7.4-15.9-16.5 0-1.5.2-2.9.5-4.2-1.3 2.1-2 4.6-2 7.3 0 7.9 6.4 14.3 14.3 14.3 1.9 0 3.7-.4 5.4-1.1-.7.1-1.5.2-2.3.2zm1-26.7s6.4 1.9 9.5 9.4c0 0-4.5-3.7-11-4 0 0 2.3-2.3 1.5-5.4z"/><circle class="st0" cx="151.4" cy="669.3" r="15.7"/><path class="st1" d="M154.5 682.7c-8.8 0-15.9-7.4-15.9-16.5 0-1.5.2-2.9.5-4.2-1.3 2.1-2 4.6-2 7.3 0 7.9 6.4 14.3 14.3 14.3 1.9 0 3.7-.4 5.4-1.1-.7.1-1.5.2-2.3.2zm1-26.7s6.4 1.9 9.5 9.4c0 0-4.5-3.7-11-4 .1 0 2.3-2.3 1.5-5.4z"/><circle class="st0" cx="18.8" cy="25.1" r="15.7"/><path class="st1" d="M21.9 38.5c-8.8 0-15.9-7.4-15.9-16.5 0-1.5.2-2.9.5-4.2-1.3 2.1-2 4.6-2 7.3 0 7.9 6.4 14.3 14.3 14.3 1.9 0 3.7-.4 5.4-1.1-.8.1-1.5.2-2.3.2zm1-26.8s6.4 1.9 9.5 9.4c0 0-4.5-3.7-11-4 0 0 2.3-2.2 1.5-5.4z"/><circle class="st0" cx="210.9" cy="25.1" r="15.7"/><path class="st1" d="M214 38.5c-8.8 0-15.9-7.4-15.9-16.5 0-1.5.2-2.9.5-4.2-1.3 2.1-2 4.6-2 7.3 0 7.9 6.4 14.3 14.3 14.3 1.9 0 3.7-.4 5.4-1.1-.8.1-1.5.2-2.3.2zm1-26.8s6.4 1.9 9.5 9.4c0 0-4.5-3.7-11-4 0 0 2.3-2.2 1.5-5.4z"/><circle class="st0" cx="275.7" cy="25.1" r="15.7"/><path class="st1" d="M278.8 38.5c-8.8 0-15.9-7.4-15.9-16.5 0-1.5.2-2.9.5-4.2-1.3 2.1-2 4.6-2 7.3 0 7.9 6.4 14.3 14.3 14.3 1.9 0 3.7-.4 5.4-1.1-.8.1-1.5.2-2.3.2zm1-26.8s6.4 1.9 9.5 9.4c0 0-4.5-3.7-11-4 0 0 2.3-2.2 1.5-5.4z"/><circle class="st0" cx="84" cy="25.1" r="15.7"/><path class="st1" d="M87.1 38.5c-8.8 0-15.9-7.4-15.9-16.5 0-1.5.2-2.9.5-4.2-1.3 2.1-2 4.6-2 7.3 0 7.9 6.4 14.3 14.3 14.3 1.9 0 3.7-.4 5.4-1.1-.8.1-1.5.2-2.3.2zm1-26.8s6.4 1.9 9.5 9.4c0 0-4.5-3.7-11-4 0 0 2.2-2.2 1.5-5.4z"/><circle class="st0" cx="146.7" cy="25.1" r="15.7"/><path class="st1" d="M149.8 38.5c-8.8 0-15.9-7.4-15.9-16.5 0-1.5.2-2.9.5-4.2-1.3 2.1-2 4.6-2 7.3 0 7.9 6.4 14.3 14.3 14.3 1.9 0 3.7-.4 5.4-1.1-.8.1-1.5.2-2.3.2zm1-26.8s6.4 1.9 9.5 9.4c0 0-4.5-3.7-11-4 0 0 2.3-2.2 1.5-5.4z"/></svg>