<svg xmlns="http://www.w3.org/2000/svg" width="149" height="68" viewBox="0 0 149 68"><style type="text/css">.st0{fill:#0094B0;} .st1{fill:none;stroke:#007D95;stroke-width:0.79;stroke-linecap:round;stroke-linejoin:round;stroke-miterlimit:10;} .st2{fill:#95D5D2;} .st3{fill:#95D5D2;stroke:#95D5D2;stroke-width:0.395;stroke-linecap:round;stroke-linejoin:round;stroke-miterlimit:10;} .st4{fill:none;stroke:#1EA5A6;stroke-width:0.395;stroke-linecap:round;stroke-miterlimit:10;} .st5{fill:none;stroke:#1EA5A6;stroke-width:0.79;stroke-linecap:round;stroke-linejoin:round;stroke-miterlimit:10;} .st6{fill:#FFFFFF;stroke:#1EA5A6;stroke-width:0.79;stroke-linecap:round;stroke-linejoin:round;stroke-miterlimit:10;} .st7{fill:#169293;} .st8{fill:none;stroke:#1EA5A6;stroke-width:0.395;stroke-linecap:round;stroke-linejoin:round;stroke-miterlimit:10;} .st9{fill:#FFFFFF;} .st10{stroke:#000000;stroke-width:0.395;stroke-linecap:round;stroke-linejoin:round;stroke-miterlimit:10;}</style><path class="st0" d="M25.8 34.2s5.2-2.3 9.9-4.2v16.2c-2.8-1.1-5.7-2.3-8.8-3.6l-13.5 11.6s-2.5 2.6-4.7.9c0 0-3-1-1.1-7.2 0 0 1.6-6.1 3.4-9.4 0 0-5.2-9.6-4.9-13.9 0 0 .1-4.2 3.1-4.1 0 0 5.5.6 16.6 13.7z"/><path class="st1" d="M25.3 36.7s-6.2-1.5-8.6-4.8m6.5 6s-6-.1-8.3 1.2m10.4.5s-5.2 1.7-7.4 4.6"/><path class="st2" d="M67.6 59.7v2c-.1 0-.1-.1-.1-.2 0 0-.6-.5-.7-1.3v-.2l.8-.9v.6z"/><path class="st3" d="M67.6 55.9v3.7c-.3.2-.6.4-.8.5-.3.1-.5.2-.7.2 0 0-1.9-.2-2-1.1 0 .1 2.1-1.7 3.5-3.3z"/><path class="st4" d="M67.6 59.7c-.5.4-.8.6-.8.6"/><path class="st2" d="M54.8 52.9s-8.5 3.7-15.1 5.3c0 0-.6.1-.6-.9 0 0 .4-3.4 0-4.4 0 0-1.2-2.7.5-5.2l15.2 5.2zm-2.4-28.8l-6.8-4.9s-.6-.6-1.5 0l-8.2 5.2s-.5.2 0 .7l4 3.8 12.5-4.8zm15.1-2.7l-7.4.5c-.6-3.7-2.9-6.2-2.9-6.2-.4-.6.4-.8.4-.8 3.3-1.3 6.7-2.4 10-3.2v8.9l-.1.8z"/><path class="st5" d="M50.1 51.5l-4.9 1.9m1.5-3.1l-2.7 1.6m0-2.5l-1.3.6"/><path class="st6" d="M48.3 25.6s-1.1-1.5-2.2-2.2"/><path class="st5" d="M44.9 26.9s-1.4-2.4-3.9-3.6"/><path class="st6" d="M42.1 28.2s-1.1-1.6-2.1-2"/><path class="st5" d="M63.7 21s.1-1.8-.9-2.5"/><path class="st6" d="M67.5 20.4s-.4-1.9-1.2-2.5"/><path class="st0" d="M67.6 55.7c-4.3-.7-9.3-1.7-12.9-2.8h-.1c-.4-.1-2-.6-4.6-1.4l-3.4-1.1c-.8-.4-1.6-.7-2.6-1-1.4-.5-2.9-1.1-4.5-1.7l-3-1.1v-16.3c1.2-.5 2.3-.9 3.4-1.3h.1c.8-.3 1.6-.6 2.2-.8 0 0 .3-.1.8-.4.5-.2 1.1-.5 2-.9.9-.4 2.1-.9 3.4-1.4 1.2-.5 2.5-.9 4-1.4 2.4-.8 5-1.6 7.7-2.3.8-.2 1.6-.4 2.5-.6 0 0 2-.4 4.9-.8v.9l.1 34.4z"/><path class="st2" d="M76 56.2s-3.8 3.6-5.9 4.8c0 0-1.1.5-1.3 0v-2.1l3.1-3.2h.4l2.8.4h.3c.4 0 .5 0 .6.1z"/><path class="st3" d="M72.6 55.7l-.1.1-.1.2c-.6.7-2.2 2.3-3.5 3.1v-3.7c.1-.1.2-.2.2-.3h.4l2.7.4h.2c.1.2.1.2.2.2z"/><path class="st4" d="M68.8 59.2c.7-.6 2-1.6 3.5-3.3.1-.1.1-.1.1-.2l.1-.1"/><path class="st2" d="M68.8 19.8v-8.8c9.9-2.6 18.6-3.6 18.6-3.6 1.1-.2 1.4.3 1.4.3l3.9 11.6-23.9 1.5v-1z"/><path class="st5" d="M87.9 18.9s.5-2.9-.8-5.8m-3.8 5.5s.7-1.6-.7-4.3"/><path class="st6" d="M77.8 18.8s.3-1.8-.3-2.8"/><path class="st5" d="M71.8 19.4s.1-1.9-1.3-3m15.1 2.5s.4-2.8-.6-4.6m-4.1 4.3s.5-2.6-1-3.8m-4.9 4.3s.1-2-.8-3.1"/><path class="st0" d="M100.5 20.8v35.2l-2.2.4s-8.3 1.8-20 .1c0 0-.8-.1-2.2-.3-.1 0-.3 0-.4-.1h-.3c-.8-.1-1.7-.2-2.7-.4h-.3c-.8-.1-1.8-.3-2.7-.4h-.2c-.1 0-.3 0-.4-.1v-35.2c.9-.1 1.9-.3 3-.4l3.3-.4c.9-.1 1.9-.2 2.8-.2 1-.1 2.1-.1 3-.2h2.8s.8 0 2 .1c.7 0 1.4.1 2.3.1 1.4.1 3 .2 4.7.4 2.4.2 5.2.7 7.5 1.4z"/><path class="st7" d="M100.5 37.4v5.4c-.7-1.3-.9-3.1 0-5.4zm0-8.4c-2.5 3.7-7.2 12.1-1.7 16.7l.9.7.8.5v.3c-.5-.1-1-.3-1.6-.5-.6-.2-1.2-.5-1.8-.8-4-2.1-7.4-7 3.4-17.5v.6z"/><path class="st2" d="M100.5 45.7v3.8l-5.2 4.1c-3.2 1.4-6.3-.4-6.3-.4-1.4-.5-2.7-2.4-2.7-2.4-.2-.5-1.2-1.4-1.2-1.4-.6-1.7 1.2-2.1 1.2-2.1.2-.1.9-.4.9-.4 1-.4 2.9-.5 2.9-.5.5-.1 2.2-.2 2.2-.2.8-.1 2 0 2 0 .3 0 1.6-.1 2.8-.3.6-.1 1.2-.1 1.7-.2l.9-.1v-.1c-.1-.1-.1-.3-.1-.5l-.1-.5 1 1.2z"/><path class="st8" d="M99.9 46.3l-4.1 1.7m4.1-.8s-3.7 1.6-4.7 2.7m5.3-2.4s-1.7 1-2.2 2.4"/><path class="st0" d="M99.2 43.6l1.3 1v2l-.9-1-.1-.6zm39.1.2l6.7-1.5s-2.8 7.3-17.3 8.5c0 0-3.8 4-14.2 6v-35.3l.7.2s11 2.8 15.5 6.5c0 0 4.8 3.3 9 5.7 0 0 2.2 1.1 3.4 3.5.6-.5 1.5-.8 2.7-.2 0 0 1.8 1.5-.9 3.3l-5.6 3.3z"/><circle class="st9" cx="128.6" cy="34.6" r="3.5"/><circle class="st10" cx="129.3" cy="34.6" r="1.1"/><path class="st7" d="M113.5 43c1.6 4.3 8.3 5.2 8.3 5.2-12.5-4.8-.3-20.1 0-20.4-5 4.6-7.5 8.2-8.3 11v4.2zm1.6 5.3s-.3 0-.6-.1-.6-.1-1-.2v-.4c.2.1.5.3.8.4.3 0 .6.2.8.3zm.1-20.4c-.1.1-.7.9-1.6 2.2v-.7c.4-.5 1-1 1.6-1.5z"/><path class="st2" d="M117.1 50.1c-.1 0-.4-.1-.6-.2-.4-.3-.9-.6-1.1-.8l-1.8 1.4v-4.2l3.5 3.8z"/><path class="st8" d="M113.8 48.3l-.2.2"/><path class="st0" d="M118.1 48.6l-.3 2.2-1.3-.9-1.1-.8-.1-.1-.8-.8-.2-.3-.8-.8v-1.9z"/></svg>