<svg xmlns="http://www.w3.org/2000/svg" width="120" height="86" viewBox="0 0 120 86"><style type="text/css">.st0{fill:#7D6F78;} .st1{fill:#1EA5A6;} .st2{fill:#FFFFFF;} .st3{fill:#A7A9AC;}</style><ellipse class="st0" cx="31.9" cy="55.9" rx="25.8" ry="26.1"/><path class="st0" d="M13.7 37.5l8.7-15s4.4-7.4 11-8.4c0 0 16.6.8 20.4 5.1 0 0 1.9 1 3.9 5.7 0 0 2.6-1.1 6.8 0 0 0 1-4.1 3.7-5.6l20.3-6s5.9 1.7 9.5 6.6l9.7 16.2-41.3 29.8s-5.5 3.1-10.7 0l-42-28.4z"/><circle class="st1" cx="61" cy="55.9" r="3.9"/><circle class="st0" cx="44.2" cy="14" r="10.9"/><circle class="st0" cx="77.6" cy="14" r="10.9"/><circle class="st0" cx="90.5" cy="55.9" r="26.1"/><circle class="st2" cx="89.6" cy="55.9" r="17"/><path class="st3" d="M78.1 55.9s.1-10 10.7-11.3c0 0 3.1-.2 3 2.2 0 0-.1 1.9-2.3 2.3 0 0-6.3-.1-7 6.9 0 0 0 2.3-2 2.3-.1-.1-2.3-.2-2.4-2.4z"/><circle class="st2" cx="32.2" cy="55.9" r="17"/><path class="st3" d="M20.6 55.9s.1-10 10.7-11.3c0 0 3.1-.2 3 2.2 0 0-.1 1.9-2.3 2.3 0 0-6.3-.1-7 6.9 0 0 0 2.3-2 2.3-.1-.1-2.3-.2-2.4-2.4z"/></svg>