<svg xmlns="http://www.w3.org/2000/svg" width="143" height="151" viewBox="0 0 143 151"><style type="text/css">.st0{fill:#898B8E;} .st1{fill:#9BD2A8;}</style><path class="st0" d="M138.4 72.5h-13.8v74.4h-108.4v-74.4h-13.9l68.1-68z"/><path class="st1" d="M32.6 94c-1.1-1.1-1.7-2.6-1.7-4.4 0-2.2.8-4.2 2.4-5.8 1.6-1.6 3.9-2.4 6.9-2.4 2.9 0 5.1.8 6.8 2.3 1.6 1.5 2.5 3.3 2.5 5.3 0 1.9-.5 3.4-1.4 4.6-.5.7-1.4 1.3-2.5 1.9 1.3.6 2.2 1.2 3 2 1.3 1.4 2 3.2 2 5.5 0 2.6-.9 4.9-2.7 6.7-1.8 1.8-4.3 2.8-7.5 2.8-2.9 0-5.4-.8-7.4-2.4-2-1.6-3-3.9-3-6.9 0-1.8.4-3.3 1.3-4.6.9-1.3 2.2-2.3 3.9-3-1.2-.5-2-1-2.6-1.6zm12.2 13.6c1.2-.9 1.7-2.4 1.7-4.2 0-1.9-.6-3.4-1.8-4.4-1.2-1-2.7-1.5-4.6-1.5-1.8 0-3.3.5-4.4 1.5-1.1 1-1.7 2.5-1.7 4.3 0 1.6.5 2.9 1.6 4.1 1 1.1 2.7 1.7 4.8 1.7 1.8-.1 3.3-.6 4.4-1.5zm-.7-14.9c.9-.9 1.4-2 1.4-3.3 0-1.1-.4-2.2-1.3-3.1s-2.3-1.4-4.1-1.4c-1.8 0-3.1.5-3.9 1.4-.8.9-1.2 2-1.2 3.3 0 1.4.5 2.5 1.6 3.3s2.3 1.2 3.7 1.2c1.6 0 2.9-.5 3.8-1.4zm18.1-12h3.2l-9.8 30.8h-3.2l9.8-30.8zm6.3 9.6v-2.9c2.7-.3 4.6-.7 5.7-1.3 1.1-.6 1.9-2.1 2.4-4.4h3v29.9h-4v-21.3h-7.1zm39.9-4c1.3 2.5 2 5.9 2 10.2 0 4.1-.6 7.5-1.8 10.1-1.8 3.8-4.6 5.8-8.7 5.8-3.6 0-6.3-1.6-8.1-4.7-1.5-2.6-2.2-6.1-2.2-10.5 0-3.4.4-6.3 1.3-8.8 1.7-4.6 4.6-6.8 9-6.8 3.9-.1 6.7 1.5 8.5 4.7zm-3.8 20c1.2-1.7 1.7-5 1.7-9.7 0-3.4-.4-6.2-1.3-8.4-.8-2.2-2.5-3.3-4.9-3.3-2.2 0-3.9 1-4.9 3.1-1 2.1-1.5 5.2-1.5 9.2 0 3.1.3 5.5 1 7.4 1 2.8 2.7 4.3 5.2 4.3 2 0 3.5-.8 4.7-2.6z"/></svg>