<svg xmlns="http://www.w3.org/2000/svg" width="163" height="183" viewBox="0 0 163 183"><style type="text/css">.st0{fill:#7D6F78;} .st1{fill:#9FC195;} .st2{fill:#95D5D2;}</style><path class="st0" d="M119.7 128.4l3 10.8-36-4.1s-3.7-.6-3.9 2.2l1.1 40.9h-5.6l1.1-40.9c-.1-2.9-3.9-2.2-3.9-2.2l-36 4.1 3-10.8c.8-3.2-2.2-6-2.2-6l-36.6-31.2 7.2-3.4c3.2-1.4 2.4-5.3 2.4-5.3l-6.3-24.4 21.1 4.5c3.5.9 4.5-2.7 4.5-2.7l2.5-9.7 15.8 18.6c3.5 4.7 6.2 3 6.2 3 1.9-.9 1.2-5.4 1.2-5.4l-7.3-40.8 10.8 5.8c4.3 2.2 6.1-1.9 6.1-1.9l13.2-26.2 13.3 26.1s1.8 4.1 6.1 1.9l10.8-5.8-7.3 40.8s-.8 4.5 1.2 5.4c0 0 2.7 1.7 6.2-3l15.6-18.5 2.5 9.7s1 3.7 4.5 2.7l21.1-4.5-6.3 24.5s-.9 3.8 2.4 5.3l7.2 3.4-36.5 31.2c0-.1-2.9 2.8-2.2 5.9z"/><circle class="st1" cx="28" cy="27" r="4.8"/><path class="st1" d="M27.5 33.1s-9.7-1-10.5 4.2l-1.2 17.5s.1 2.6 2 2.6c0 0 2.4-.2 2.3-3l.2-12.4s0-1.5 1.4-1.4c0 0 .8-.3.7 2.6l-.8 34.8s0 3.3 1.6 3.7c0 0 3.3.8 3.3-3.8l.5-19.6s0-2.5 1-2.2c0 0 .9 0 .9 2.3v19.8s-.3 3.1 1.9 3.1c0 0 2.8.3 2.8-3.3v-35.9s-.3-1.7 1.1-1.7c0 0 .7.2.7 2v11.6s-.4 2.6 1.3 3.3c0 0 2.2.6 2.3-3v-14.3s-.7-5.5-4.5-6.4c0 0-3.5-.5-7-.5z"/><circle class="st1" cx="29.1" cy="90.8" r="4.8"/><path class="st1" d="M28.6 96.8s-9.7-1-10.5 4.2l-1.2 17.5s.1 2.6 2 2.6c0 0 2.4-.2 2.3-3l.2-12.4s0-1.5 1.4-1.4c0 0 .8-.3.7 2.6l-.7 34.9s0 3.3 1.6 3.7c0 0 3.3.8 3.3-3.8l.5-19.7s0-2.5 1-2.2c0 0 .9 0 .9 2.3v19.9s-.3 3.1 1.9 3.1c0 0 2.8.3 2.8-3.3v-35.8s-.3-1.7 1.1-1.7c0 0 .7.2.7 2v11.6s-.4 2.6 1.3 3.3c0 0 2.2.6 2.3-3v-14.3s-.7-5.5-4.5-6.4c-.1-.1-3.6-.7-7.1-.7z"/><circle class="st1" cx="55.6" cy="27" r="4.8"/><path class="st1" d="M55.1 33.1s-9.7-1-10.5 4.2l-1.2 17.5s.1 2.6 2 2.6c0 0 2.4-.2 2.3-3l.2-12.4s0-1.5 1.4-1.4c0 0 .8-.3.7 2.6l-.8 34.8s0 3.3 1.6 3.7c0 0 3.3.8 3.3-3.8l.5-19.7s0-2.5 1-2.2c0 0 .9 0 .9 2.3v19.8s-.3 3.1 1.9 3.1c0 0 2.8.3 2.8-3.3v-35.8s-.3-1.7 1.1-1.7c0 0 .7.2.7 2v11.6s-.4 2.6 1.3 3.3c0 0 2.2.6 2.3-3v-14.3s-.7-5.5-4.5-6.4c0 0-3.5-.5-7-.5z"/><circle class="st1" cx="56.1" cy="91.9" r="4.8"/><path class="st1" d="M55.5 97.9s-9.7-1-10.5 4.2l-1.2 17.5s.1 2.6 2 2.6c0 0 2.4-.2 2.3-3l.2-12.4s0-1.5 1.4-1.4c0 0 .8-.3.7 2.6l-.7 34.9s0 3.3 1.6 3.7c0 0 3.3.8 3.3-3.8l.5-19.7s0-2.5 1-2.2c0 0 .9 0 .9 2.3v19.8s-.3 3.1 1.9 3.1c0 0 2.8.3 2.8-3.3v-35.8s-.3-1.7 1.1-1.7c0 0 .7.2.7 2v11.6s-.4 2.6 1.3 3.3c0 0 2.2.6 2.3-3v-14.3s-.7-5.5-4.5-6.4c0 0-3.5-.6-7.1-.6z"/><circle class="st1" cx="82.4" cy="27" r="4.8"/><path class="st1" d="M81.9 33.1s-9.7-1-10.5 4.2l-1.2 17.5s.1 2.6 2 2.6c0 0 2.4-.2 2.3-3l.2-12.4s0-1.5 1.4-1.4c0 0 .8-.3.7 2.6l-.8 34.8s0 3.3 1.6 3.7c0 0 3.3.8 3.3-3.8l.5-19.7s0-2.5 1-2.2c0 0 .9 0 .9 2.3v19.8s-.3 3.1 1.9 3.1c0 0 2.8.3 2.8-3.3v-35.8s-.3-1.7 1.1-1.7c0 0 .7.2.7 2v11.6s-.4 2.6 1.3 3.3c0 0 2.2.6 2.3-3v-14.3s-.7-5.5-4.5-6.4c.1 0-3.4-.5-7-.5z"/><circle class="st2" cx="82.4" cy="91.9" r="4.8"/><path class="st2" d="M81.9 97.9s-9.7-1-10.5 4.2l-1.2 17.5s.1 2.6 2 2.6c0 0 2.4-.2 2.3-3l.2-12.4s0-1.5 1.4-1.4c0 0 .8-.3.7 2.6l-.8 34.8s0 3.3 1.6 3.7c0 0 3.3.8 3.3-3.8l.5-19.7s0-2.5 1-2.2c0 0 .9 0 .9 2.3v19.9s-.3 3.1 1.9 3.1c0 0 2.8.3 2.8-3.3v-35.8s-.3-1.7 1.1-1.7c0 0 .7.2.7 2v11.6s-.4 2.6 1.3 3.3c0 0 2.2.6 2.3-3v-14.3s-.7-5.5-4.5-6.4c.1 0-3.4-.6-7-.6z"/><circle class="st1" cx="108.4" cy="27" r="4.8"/><path class="st1" d="M107.9 33.1s-9.7-1-10.5 4.2l-1.2 17.5s.1 2.6 2 2.6c0 0 2.4-.2 2.3-3l.2-12.4s0-1.5 1.4-1.4c0 0 .8-.3.7 2.6l-.8 34.8s0 3.3 1.6 3.7c0 0 3.3.8 3.3-3.8l.5-19.7s0-2.5 1-2.2c0 0 .9 0 .9 2.3v19.8s-.3 3.1 1.9 3.1c0 0 2.8.3 2.8-3.3v-35.8s-.3-1.7 1.1-1.7c0 0 .7.2.7 2v11.6s-.4 2.6 1.3 3.3c0 0 2.2.6 2.3-3v-14.3s-.7-5.5-4.5-6.4c0 0-3.5-.5-7-.5z"/><circle class="st1" cx="109" cy="91.9" r="4.8"/><path class="st1" d="M108.5 97.9s-9.7-1-10.5 4.2l-1.2 17.5s.1 2.6 2 2.6c0 0 2.4-.2 2.3-3l.2-12.4s0-1.5 1.4-1.4c0 0 .8-.3.7 2.6l-.7 34.9s0 3.3 1.6 3.7c0 0 3.3.8 3.3-3.8l.5-19.7s0-2.5 1-2.2c0 0 .9 0 .9 2.3v19.8s-.3 3.1 1.9 3.1c0 0 2.8.3 2.8-3.3v-35.8s-.3-1.7 1.1-1.7c0 0 .7.2.7 2v11.6s-.4 2.6 1.3 3.3c0 0 2.2.6 2.3-3v-14.3s-.7-5.5-4.5-6.4c0 0-3.5-.6-7.1-.6z"/><circle class="st1" cx="135.4" cy="27" r="4.8"/><path class="st1" d="M134.8 33.1s-9.7-1-10.5 4.2l-1.2 17.5s.1 2.6 2 2.6c0 0 2.4-.2 2.3-3l.2-12.4s0-1.5 1.4-1.4c0 0 .8-.3.7 2.6l-.7 34.8s0 3.3 1.6 3.7c0 0 3.3.8 3.3-3.8l.5-19.7s0-2.5 1-2.2c0 0 .9 0 .9 2.3v19.8s-.3 3.1 1.9 3.1c0 0 2.8.3 2.8-3.3v-35.8s-.3-1.7 1.1-1.7c0 0 .7.2.7 2v11.6s-.4 2.6 1.3 3.3c0 0 2.2.6 2.3-3v-14.3s-.7-5.5-4.5-6.4c0 0-3.5-.5-7.1-.5z"/><circle class="st1" cx="135.4" cy="91.9" r="4.8"/><path class="st1" d="M134.8 97.9s-9.7-1-10.5 4.2l-1.2 17.5s.1 2.6 2 2.6c0 0 2.4-.2 2.3-3l.2-12.4s0-1.5 1.4-1.4c0 0 .8-.3.7 2.6l-.7 34.9s0 3.3 1.6 3.7c0 0 3.3.8 3.3-3.8l.5-19.7s0-2.5 1-2.2c0 0 .9 0 .9 2.3v19.8s-.3 3.1 1.9 3.1c0 0 2.8.3 2.8-3.3v-35.8s-.3-1.7 1.1-1.7c0 0 .7.2.7 2v11.6s-.4 2.6 1.3 3.3c0 0 2.2.6 2.3-3v-14.3s-.7-5.5-4.5-6.4c0 0-3.5-.6-7.1-.6z"/></svg>