<svg xmlns="http://www.w3.org/2000/svg" width="125" height="85" viewBox="0 0 125 85"><style type="text/css">.st0{fill:#9FC195;} .st1{fill:#7F9D79;} .st2{fill:none;stroke:#7F9D79;stroke-miterlimit:10;}</style><path class="st0" d="M121.3 15.1v54.3c0 6.6-5.4 12-12 12h-94c-6.6 0-12-5.4-12-12v-54.3c0-6.6 5.4-12 12-12h94c6.6 0 12 5.4 12 12z"/><path class="st1" d="M121.3 15.1v.7h-118v-.7c0-6.6 5.4-12 12-12h94c6.6 0 12 5.4 12 12zm-108.8 8.3h34.1v47.6h-34.1zm40.5 0h61.1v5.7h-61.1zm43.9 15.5h17.2v3.3h-17.2zm-21 0h17.2v3.3h-17.2zm-22.9 0h17.2v3.3h-17.2zm43.9 7.5h17.2v3.3h-17.2zm-21 0h17.2v3.3h-17.2zm-22.9 0h17.2v3.3h-17.2z"/><path d="M52.9 73.8l.4.6.3.5.3-.5.4-.6h.6l-1 1.4 1 1.5h-.6l-.4-.7-.3-.5-.3.5-.4.7h-.6l1-1.5-1-1.4h.6z"/><path class="st2" d="M52.2 77.6h57"/></svg>