<svg xmlns="http://www.w3.org/2000/svg" width="156" height="110" viewBox="0 0 156 110"><style type="text/css">.st0{fill:#9FC195;stroke:#23BDBD;stroke-width:2;stroke-linecap:round;stroke-linejoin:round;stroke-miterlimit:10;} .st1{fill:#9BD2A8;stroke:#23BDBD;stroke-width:2;stroke-linecap:round;stroke-linejoin:round;stroke-miterlimit:10;} .st2{fill:#9BD2A8;stroke:#23BDBD;stroke-width:2;stroke-miterlimit:10;} .st3{fill:#9FC195;stroke:#23BDBD;stroke-width:2;stroke-miterlimit:10;}</style><path class="st0" d="M134.7 59.8c.2.9 0 1.3 0 1.3l-.7 2.5c-.5 1.5-2.2 1.9-2.2 1.9-2.4.7-4.5 1.6-4.5 1.6-3 1.1-4.2 2.4-4.2 2.4-.7.3-.6 1-.6 1 .3 1.8-2.3 5.4-2.3 5.4-.4.5-.1 1.4-.1 1.4.1 2.9-1.7 5.1-1.9 5.4 1.7-1.7 2.1-5.3 2.1-5.3.2-.9.7-1.4.7-1.4l3.3-4c.6-.8 1.6-1.1 1.6-1.1 1-.6 1.5-.3 1.5-.3.4.5 1.2.3 1.2.3 2.1 1.2.8 1.7.8 1.7-1.3.5-1.1.9-1.1.9.1.2 0 .3-.1.5-.2.3-.6.4-.6.4-.2-.1-.6.2-.6.2-.1.3-1.1.3-1.1.3s-.8-.3-1.2 1.2c0 0-.2.3-1.2 0 0 0-1.6.3-1.2 1.7 0 0 .2.8-1.1 2.3v.1c-.2.2-.1.5-.1.5.3 1.5.2 5.1.2 5.1.1.7-.4.9-.4.9l-.8.6c-.5.2-.4.8-.4.8-.1 1.4-3 1.6-3 1.6-.7 0-.9.3-.9.3-.8 0-1.5.5-1.5.5 0 .2-1.3.5-1.3.5-.5 0-.6.5-.6.5l-.3.6s.5-2-1.2-1.4c0 0-2.4 1.7-4.8.6 0 0-.7-.7-1.9-.7h-1.7s-.5-.1-.7-.5c0 0-.2-.7-1.3-1.3 0 0-.8-.8-.9-2.1l-2-11.8v-.7c0-.7.3-.2.3-.2s.7.8.8.8c.1 0 .4-.3.4-.3-.9-.9-.4-2.1-.4-2.1.3-.9-.5-1-.5-1-.4-.1-.3-.5-.3-.5 0-.8-.9-1.7-.9-1.7-.5-.8 0-1.3 0-1.3.4-1.1-1-1.2-1-1.2-.6-.5-1-.9-1-.9-.8-1.1.2-1.4.2-1.4 1.9.1 2.5-1.2 2.5-1.2 1.5-1.4.7-5.6.7-5.6-.2-1.5-3.9-4-3.9-4-.7-.3-.7-.5-.7-.5-.5-.4.6-2.8.6-2.8.3-1.3-1.2-3.2-1.2-3.2-.3-.5-.2-1.7-.2-1.7 0-.7-.5-1.4-.5-1.4-.6-1.5-.3-1.6-.3-1.6.8-1.2 2.1-.8 2.1-.8 2.1.8 2.9-.8 2.9-.8.7-.6 1.4.1 1.4.1.7.2 1.1.2 1.1.2 1 .5 2.1 1.7 2.1 1.7.7.7 1.2.2 1.2.2 1-.9 1.4-.4 1.4-.4.1.3.8.6.8.6.7.4.6 2.2.6 2.2.2.9.8 1.2.8 1.2.7.6.3 1.1.3 1.1-.5.6 0 1 0 1 .3.2.7-.2.7-.2.9-.9 1.9.1 1.9.1.6.4 1.1.1 1.1.1.4-.2.4-.6.4-.6.1-1.3.7-1.6.7-1.6.4-.2 0-.8 0-.8-.3-1.7.5-4.2.5-4.2s.4 2.1 1.2 2.3c0 0 .9.2.5 1 0 0-.5.5.4.6 0 0 1.2-.8 1.3-.3 0 0 .1.5 0 1.1 0 0-.2 1.1.6 1.5 0 0 1-.1 1.2.7 0 0-.4.6.2 1v1s-.1.5.3.6c0 0 .2 0 .2.4v.6s.1.5.6.5c0 0 1-.4.8.2 0 0-.2.5.3.5 0 0 1.1.2.9 1 0 0-.4.5-.2 1 0 0 .6 1-.1 1.4 0 0-.8-.5-1.1.2 0 0-.5.6-2.3.4 0 0-1.3-.7-1.5-.5 0 0-.2.1.2.7 0 0 .3.5-.3.4 0 0-.9-.1-.7.2 0 0 0 .2.4.5 0 0 .7.2-.2.7 0 0-.3.5.1 1.1 0 0 .7.6.8 1 0 0-.1.5.6.4 0 0 .8 0 .8.6 0 0 .1 1.7.7 1.5 0 0 .5 0 .3-1 0 0 .3-.6.7 0 0 0 .1 1 0 1.5 0 0-.1.7.6.5 0 0 .4-.5.7-.3 0 0 .5.3.8-.2 0 0 .2-.7.9-.3l.9.7s.3.2.3-.1v-1.3s-.8-.7-.8-2.2c0 0 .3-.4.8-.3 0 0 .5.3.4.9 0 0-.4.6 0 1.1 0 0 .6.9 1.6.3l9.8-5.4 1.1-.6.2.4c-2 2.1-1.5 2.3-1.5 2.3z"/><path class="st1" d="M112.1 91.9l-.6 1.1c0 .5-.9.7-.9.7-.5.1-.9.8-.9.8-.3.8-1.6.9-1.6.9-1-.1-1.6.9-1.6.9-.5.7-1.3.3-1.3.3-.6.1-1.2.4-1.2.4-1 .5-.5 1.2-.5 1.2.5.7 1.1-.1 1.1-.1.8-.4 1.3.5 1.3.5.5 1.1-1.2 1.4-1.2 1.4-.9 0-1.6.4-1.6.4-.4.2 0 .4 0 .4.4.2.1.4.1.4-.3.1-1 0-1 0-1.3-.2-2.1.9-2.1.9-.4.6-.9 1.1-.9 1.1-1.3 1.1-2.4.3-2.4.3-.5-.5.6-1 .6-1 .8-.6-.1-1.4-.1-1.4-.3-.3.1-.7.1-.7l1.1-1.1c.9-.6-.1-1.7-.1-1.7-.5-1 .5-1.5.5-1.5.9-.7-.1-1.4-.1-1.4-1.3-.7-.8-1.2-.8-1.2.9-.6 1.8.7 1.8.7.5 1.4 1.6.8 1.6.8 1.4-1.3-.6-2.4-.6-2.4-.6-.1-.5-.6-.5-.6-.1-1.2-2.4-.7-2.4-.7-3.8.9-6.1-.2-6.1-.2-.7-.2-2.1-3.6-2.1-3.6 0-.3-.5-.3-.5-.3h-1.5c-.3 0-.5-.5-.5-.5l-1-1.8h-3.5c-.6.4-.5 1.3-.5 1.3 0 .5-.7.2-.7.2-.6-.2-.7.6-.7.6-.5 1.3-2.3.4-2.3.4-.9-.5-1.5.1-1.5.1-.5.5-1 0-1 0-.8-.6-1.6-.4-1.6-.4-.9.1-.6-.6-.6-.6-.2-.9-1.4-.1-1.4-.1-2.1.6-2.6-.9-2.6-.9 0-.3-.3-.4-.6-.4h-.6c-13.5.6-27.5-2.5-37.8-5.6-.5-.4-.6-1-.6-1-.3-.6-.1-1.8-.1-1.8.2-1.1-.2-1.6-.2-1.6-.6-.8-.7-1.3-.7-1.3 0-1.7-.4-1.5-.4-1.5-.3-.2-.2-.6-.2-.6.1-.3-.5-1.3-.5-1.3 0-.3-.3-.5-.3-.5-.1-.2 0-.5 0-.5 0-.4-.5-.7-.5-.7-.1-.3 0-.5 0-.5.1-.4-.4-.5-.4-.5-.2-.2-.1-.6-.1-.6l-.1-1.5c0-.3-.4-.4-.4-.4-.3-.2-.2-.6-.2-.6 0-.4-.4-.5-.4-.5-.3-.2-.4-.5-.4-.5-.2-.3.2-.5.2-.5.4-.1.1-.5.1-.5-.2-.2.2-.7.2-.7l8.5-17.2c-17.5-6.3-26-14.9-26-14.9-.1-.5-.3-.8-.3-.8l-1-1.2 17.4-19.5c1.2-1.7 1.8-.5 1.8-.5 1 2 1.2 4.7 1.2 4.7 0 .5.3.1.3.1.7-1.2 1.2-1.3 1.2-1.3 1.2-.6 2.1.1 2.1.1s1.3 1.3 2.2 1.1c.9-.2 2.1-.1 2.1-.1 1.2.1.1 1.3.1 1.3-.1.4.2.3.2.3.8.3 1.3-.5 1.3-.5.5-1.2.8-.9.8-.9.7.4.7 3 .7 3 .1.8.6.2.6.2.5-1 1.2-.7 1.2-.7.4.6-.5 2.1-.5 2.1 0 .7.6.4.6.4.8-1.3 1.6-.9 1.6-.9.5 0 .6.9.6.9.1.7.8 1.1.8 1.1.9.5 1.2 1.3 1.2 1.3 0 .4.9 1 .9 1 .7.9 1.7.5 1.7.5.7-.1.9.7.9.7-.1.4.5.7.5.7.3.3.1 1.2.1 1.2 0 .6-1.3.9-1.3.9.4 1.7 2.3 1.1 2.3 1.1.7-.5 1.3.5 1.3.5.6.5 1.6 0 1.6 0 1.5-.3 1.2.9 1.2.9-.2 3.2.6 2.7.6 2.7.7-.3.5-2.1.5-2.1 0-.7.6-1 .6-1 .2 0 .5-.3.5-.3.6-.6 1-.6 1-.6.9-.4 1.6.4 1.6.4.5.8 1.3.7 1.3.7 1 0 .9 1 .9 1 .4.7 1.5.5 1.5.5s1.1-.5 1.9-.1c.8.5 1.3 0 1.3 0 .6-.2.3-1 .3-1-.3-.4-.1-.6-.1-.6.3-.6 1.7.2 1.7.2 1.2.3.8 1.3.8 1.3-.2 1.9.5 1.8.5 1.8.6 0 .5-1.5.5-1.5-.1-.9 1.5-1.6 1.5-1.6.8-.8-.4-1.4-.4-1.4-.9-.5-.3-1.1-.3-1.1.5-.3.5-.7.5-.7.1-.5-2.3-1.5-2.3-1.5-.8-.4 0-1.7 0-1.7.5-.7-.1-1.4-.1-1.4-.4-.5.1-.8.1-.8.7-.2.5-1.3.5-1.3.2-.8 1.5-.2 1.5-.2 1.6.7 1.8 2.2 1.8 2.2-.2.9.7 1.7.7 1.7.6.9-.1 1.9-.1 1.9-.4.7.9.5.9.5.9 0 .7.7.7.7-.1.5.1.7.1.7.1.2 0 .5 0 .5v1.2c-.1.7.6.2.6.2.5-.1.5-1.5.5-1.5 0-.6.9-.6.9-.6.8.3 1.6 2 1.6 2 .2.6-.1.7-.1.7-.4.3 0 1 0 1 0 .5 1 1.8 1 1.8.6.4.7-.2.7-.3 0-.1.2-1.4.2-1.4.1-.8 0-2 0-2-.1-.9.8-1 .8-1 .4-.1.1-.4.1-.4-.9-.6-1.5-1.6-1.5-1.6-.4-.6.2-.9.2-.9 1.2-.9 2.6 0 2.6 0 .5.7 1.4.8 1.4.8.5.1.9.4.9.4.8.2.5 1.6.5 1.6-.5.4-.4.9-.4.9 0 .9 1.2 2.8 1.2 2.8.5 1.2-1.4 1.9-1.4 1.9-.7.3-.7 1.1-.7 1.1-.1.5-1 .8-1 .8-.6.5-1 .1-1 .1-.7-.8-1-.5-1-.5-.6.1-.1 1.2-.1 1.2.2 1.1-1.1 2.2-1.1 2.2-.2.5-1.3 0-1.3 0-.2-.3-1.3-.2-1.3-.2-.6.2-1-.3-1-.4.1.2.2.5.2.5.7.7 3 .8 3 .8 1.1.5.4 1.3.4 1.3-.4.4-.6 1.3-.6 1.3-.2 1-2.2 1.4-2.2 1.4-.7.1-.6.9-.6.9 0 .8-1 .5-1 .5-.3-.4-.9-.2-.9-.2-.6-.1-.5.6-.5.6 0 .6.5.6.5.6s1.4 0 1.2.9c-.2.9-1.7.7-1.7.7.2.7-.5.8-.5.8-.4.2-.9.9-.9.9-.7.6-.6 1.4-.6 1.4.1.8-.8 1.5-.8 1.5-.9.6-.7 1.5-.7 1.5.1.6-.2 1-.2 1-.3.3-.2.7-.2.7v2.7c0 .7.3.6.3.6 2.6 0 3 2.3 3 2.3.3.8 0 1.9 0 1.9.1.9.7.7.7.7.5-.1 1.1-.2 1.1-.2 1.8-.3 3.5.5 4.8 1.4 1.4 1 2.4 2.1 2.4 2.1.5.7 2 .5 2 .5 1-.1 1.6.6 1.6.6.5.8 1.6.5 1.6.5l4.3-.3c-.2 1.3.9 3.8.9 3.8.1.9 1.6 1 1.6 1 1.3-.1 1.7.7 1.7.7.5 1.1-.5.9-.5.9-.7-.4-2-.5-2-.5-.6.1 0 .4 0 .4 1 .3 1.8 1.7 1.8 1.7.5.9 2.5 1.9 2.5 1.9.5.2.6-.2.6-.2l2 11.8c.1 1.3.9 2.1.9 2.1 1.1.6 1.3 1.3 1.3 1.3.2.4.7.5.7.5h1.7c1.2 0 1.9.7 1.9.7 2.5 1.1 4.8-.6 4.8-.6 1.6-.9 1 1.2 1 1.2zm25.1-35.8c-.3.3-.5.6-.7.8l-.2-.4-1.1.6-9.8 5.4c-1 .6-1.6-.3-1.6-.3-.5-.5 0-1.1 0-1.1.2-.6-.4-.9-.4-.9-.5-.1-.8.3-.8.3-.1 1.5.8 2.2.8 2.2v1.3c0 .4-.3.1-.3.1l-.9-.7c-.7-.3-.9.3-.9.3-.3.5-.8.2-.8.2-.3-.1-.7.3-.7.3-.7.2-.6-.5-.6-.5v-1.5c-.4-.6-.7 0-.7 0 .2 1-.3 1-.3 1-.6.2-.7-1.5-.7-1.5 0-.6-.8-.6-.8-.6-.7.1-.6-.4-.6-.4-.1-.4-.8-1-.8-1-.4-.6-.1-1.1-.1-1.1.9-.6.2-.7.2-.7-.4-.2-.4-.5-.4-.5-.1-.3.7-.2.7-.2.6 0 .3-.4.3-.4-.3-.6-.2-.7-.2-.7.2-.2 1.5.5 1.5.5 1.8.2 2.3-.4 2.3-.4.3-.7 1.1-.2 1.1-.2.7-.4.1-1.4.1-1.4-.2-.5.2-1 .2-1 .1-.7-.9-1-.9-1-.5 0-.3-.5-.3-.5.2-.6-.8-.2-.8-.2-.5 0-.6-.5-.6-.5v-.6c.1-.4-.2-.4-.2-.4-.3-.1-.3-.6-.3-.6v-1c-.6-.4-.2-1-.2-1-.2-.8-1.2-.7-1.2-.7-.9-.4-.6-1.5-.6-1.5.1-.6 0-1.1 0-1.1-.1-.5-1.3.3-1.3.3-.9-.1-.4-.6-.4-.6.4-.8-.5-1-.5-1-.7-.2-1.2-2.3-1.2-2.3 1.2 2.4 3.2 2 3.2 2 1 0 .9.9.9.9.1.7.8.6.8.6 1 0 1.2.9 1.2.9.1.5.7.5.7.5.8 0 .8.5.8.5.2.7.8.8.8.8.9.8.7 1.7.7 1.7.5 1.5 1.6.5 1.6.5 1-.6 1.8.2 1.8.2.6.6 1.6.4 1.6.4.7-.2 1.4.3 1.4.3.7.4.8-.4.8-.4.2-1 .9-1.1.9-1.1.9-.3 1.1.5 1.1.5.3 1-1.4 2.9-1.4 2.9-2.1 2.6-1 2.8-1 2.8 1.3-.1 1.6-2.4 1.6-2.4.3-1.3.8-1.5.8-1.5 1-.6 1.6.3 1.6.3.3.5.4.1.4.1.3-.9 1.3-.7 1.3-.7 1.1 0 1.2 1.2 1.2 1.2.2.8.8.6.8.6.7.2 1.1.7 1.1.7 1.2 1.7 0 2.9 0 2.9zm3.4 21.7c-.4.8-2 1.4-2 1.4-.7.2-.8 1.1-.8 1.1-.2.8-1.2.8-1.2.8-.9.1-.6.9-.6.9.3.9-.9 1-.9 1-.7.5-.3 1.6-.3 1.6.1.3 0 .6 0 .6-.1.4 0 1 0 1 0 .7-.7.6-.7.6-.5-.2-.8.1-.8.1h-1.2c-.9 0-.7-.9-.7-.9.3-.8-.4-1.2-.4-1.2-.4-.5.1-1 .1-1l1.2-1c.4-.3.3-1.1.3-1.1 0-.2.1-.2.1-.2l.7-.5c-.3-.1-.6-.5-.6-.5v-.7c0-.5-.4 0-.4 0-.3.2-.7 1.5-.7 1.5-.1.6-.6.9-.6.9-.8 1.1-1.2 2.7-1.2 2.7-.4.9-1.4.2-1.4.2l-1.5-1.4c-.3-.3-.5-.3-.5-.3-.6-.1-.7-.8-.7-.8-.2-1.2-1.3-3-1.3-3-.7-.7-1.2 0-1.2 0-.4.8-1.7.3-1.7.3-.2 0-.3 0-.4.1 1.3-1.5 1.1-2.3 1.1-2.3-.3-1.5 1.2-1.7 1.2-1.7 1 .3 1.2 0 1.2 0 .4-1.6 1.2-1.2 1.2-1.2.6.5 1.5.3 1.5.3.6-.2 1-.9 1-.9 1.3-.4 1.2.9 1.2.9-.2 2 1.6 2.5 1.6 2.5.4.1 1.1.4 1.1.4.4.2 1.2.4 1.2.4 2.3.5 3.2-.9 3.2-.9.4-1 2.1-.7 2.1-.7 2.2.7 1.8 1 1.8 1z"/><path class="st2" d="M128.6 67.7s.8.2 1.2 0c0 0 .5-.5 1.2-.3 0 0 1.2.1 1.1.7 0 0 0 2-5.7 1 0 0-.3-.2 0-.4 0 0 .7.1.7-.3.1 0 .4-1.1 1.5-.7zm7.8 9.1l-.6.6s-.2.3-.7.3c0 0-2 .1-2.5-.4 0 0-1.5-.4-1-1.1 0 0 .6-.5 1 0 0 0 .1.6.7.5 0 0 2-1.3 2.8-1.2 0 0 .9-.1.9.3 0-.1.2.4-.6 1zm4.4-1.8s-.3.9-.8 1.2c0 0-.3.2-1 0 0 0-1.2-.2-1.1-.7 0 0 .1-1 0-1.6 0 0-.5-1.4.5-1.6 0 0 .9.2.9.7 0 0-.2.6 0 1 0 0 .1.4.4.1 0 0 1-.9 1-.2.1.1.5.7.1 1.1z"/><path class="st1" d="M138 56.4s.3-.6.7-.5c0 0 .4.1.1.8 0 0-.2.3.1.5 0 0 .9.4.6.7 0 0-.3.3-.1.7 0 0 .7.6.5.9l-.2.4s-.2.4.2.2c0 0 .9-.9 1.6-.3 0 0 .6.3.3 1.1 0 0 0 .2.6 0 0 0 1.2-1.9 2-1.7 0 0 1.3-.3 1.5.3 0 0 .5 1.5 1.3 1.1 0 0 .7-.6.7-.8 0 0 .4.2.1.8 0 0-.5.6-.2 1.3 0 0 .2.7.6.6 0 0 .7-.8.7-1.5 0 0 0 1.6.5 1.6 0 0 .4.5.7-1.4 0 0 .3-.8.9 1.5l.4 1.6s.1 1.1-.6 1.2c0 0-.7.2-1.2-.6 0 0-.2-.4-.2 0 0 0 .1.9-.7.5 0 0-.3-1.5-.9-1.5 0 0-.7 0-.4 1.9 0 0 .3 1.1-.4 1.5 0 0-.5.9-1.5.5 0 0-.7-.5-.2-1.4 0 0 .4-.7.4-1.1 0 0 .2-.4-.2-.1 0 0-.4.8-.9.6 0 0-.7-.2-.9.5 0 0-.3 1.5-1.2 1.4 0 0-.7.1-1.4.1 0 0-.4-.1-.8.8 0 0-.7 1.4-1.7 1.3 0 0-.8-.3-.2-1.9 0 0 .5-1.4-.7-.9 0 0-.7.6-.6-.5 0 0 .7-1 .3-2.3.4 0-1.4-6.2.4-7.9z"/><path class="st3" d="M112.1 91.9l-.6 1.1c0 .5-.9.7-.9.7-.5.1-.9.8-.9.8-.3.8-1.6.9-1.6.9-1-.1-1.6.9-1.6.9-.5.7-1.3.3-1.3.3-.6.1-1.2.4-1.2.4-1 .5-.5 1.2-.5 1.2.5.7 1.1-.1 1.1-.1.8-.4 1.3.5 1.3.5.5 1.1-1.2 1.4-1.2 1.4-.9 0-1.6.4-1.6.4-.4.2 0 .4 0 .4.4.2.1.4.1.4-.3.1-1 0-1 0-1.3-.2-2.1.9-2.1.9-.4.6-.9 1.1-.9 1.1-1.3 1.1-2.4.3-2.4.3-.5-.5.6-1 .6-1 .8-.6-.1-1.4-.1-1.4-.3-.3.1-.7.1-.7l1.1-1.1c.9-.6-.1-1.7-.1-1.7-.5-1 .5-1.5.5-1.5.9-.7-.1-1.4-.1-1.4-1.3-.7-.8-1.2-.8-1.2.9-.6 1.8.7 1.8.7.5 1.4 1.6.8 1.6.8 1.4-1.3-.6-2.4-.6-2.4-.6-.1-.5-.6-.5-.6-.1-1.2-2.4-.7-2.4-.7-3.8.9-6.1-.2-6.1-.2-.7-.2-2.1-3.6-2.1-3.6 0-.3-.5-.3-.5-.3h-1.5c-.3 0-.5-.5-.5-.5l-1-1.8h-3.5c-.6.4-.5 1.3-.5 1.3 0 .5-.7.2-.7.2-.6-.2-.7.6-.7.6-.5 1.3-2.3.4-2.3.4-.9-.5-1.5.1-1.5.1-.5.5-1 0-1 0-.8-.6-1.6-.4-1.6-.4-.9.1-.6-.6-.6-.6-.2-.9-1.4-.1-1.4-.1-2.1.6-2.6-.9-2.6-.9 0-.3-.3-.4-.6-.4l.9-13 9.4-10.7c1.4 1 2.4 2.1 2.4 2.1.5.7 2 .5 2 .5 1-.1 1.6.6 1.6.6.5.8 1.6.5 1.6.5l4.3-.3c-.4 1.7.7 4.2.7 4.2.1.9 1.6 1 1.6 1 1.3-.1 1.7.7 1.7.7.5 1.1-.5.9-.5.9-.7-.4-2-.5-2-.5-.6.1 0 .4 0 .4 1 .3 1.8 1.7 1.8 1.7.5.9 2.5 1.9 2.5 1.9.5.2.6-.2.6-.2l2 11.8c.1 1.3.9 2.1.9 2.1 1.1.6 1.3 1.3 1.3 1.3.2.4.7.5.7.5h1.7c1.2 0 1.9.7 1.9.7 2.5 1.1 4.8-.6 4.8-.6 1.6-.9 1 1.2 1 1.2z"/><path class="st2" d="M137.2 56.1c-.3.3-.5.6-.7.8l-.2-.4-1.1.6-9.8 5.4c-1 .6-1.6-.3-1.6-.3-.5-.5 0-1.1 0-1.1.2-.6-.4-.9-.4-.9-.5-.1-.8.3-.8.3-.1 1.5.8 2.2.8 2.2v1.3c0 .4-.3.1-.3.1l-.9-.7c-.7-.3-.9.3-.9.3-.3.5-.8.2-.8.2-.3-.1-.7.3-.7.3-.7.2-.6-.5-.6-.5v-1.5c-.4-.6-.7 0-.7 0 .2 1-.3 1-.3 1-.6.2-.7-1.5-.7-1.5 0-.6-.8-.6-.8-.6-.7.1-.6-.4-.6-.4-.1-.4-.8-1-.8-1-.4-.6-.1-1.1-.1-1.1.9-.6.2-.7.2-.7-.4-.2-.4-.5-.4-.5-.1-.3.7-.2.7-.2.6 0 .3-.4.3-.4-.3-.6-.2-.7-.2-.7.2-.2 1.5.5 1.5.5 1.8.2 2.3-.4 2.3-.4.3-.7 1.1-.2 1.1-.2.7-.4.1-1.4.1-1.4-.2-.5.2-1 .2-1 .1-.7-.9-1-.9-1-.5 0-.3-.5-.3-.5.2-.6-.8-.2-.8-.2-.5 0-.6-.5-.6-.5v-.6c.1-.4-.2-.4-.2-.4-.3-.1-.3-.6-.3-.6v-1c-.6-.4-.2-1-.2-1-.2-.8-1.2-.7-1.2-.7-.9-.4-.6-1.5-.6-1.5.1-.6 0-1.1 0-1.1-.1-.5-1.3.3-1.3.3-.9-.1-.4-.6-.4-.6.4-.8-.5-1-.5-1-.7-.2-1.2-2.3-1.2-2.3 1.2 2.4 3.2 2 3.2 2 1 0 .9.9.9.9.1.7.8.6.8.6 1 0 1.2.9 1.2.9.1.5.7.5.7.5.8 0 .8.5.8.5.2.7.8.8.8.8.9.8.7 1.7.7 1.7.5 1.5 1.6.5 1.6.5 1-.6 1.8.2 1.8.2.6.6 1.6.4 1.6.4.7-.2 1.4.3 1.4.3.7.4.8-.4.8-.4.2-1 .9-1.1.9-1.1.9-.3 1.1.5 1.1.5.3 1-1.4 2.9-1.4 2.9-2.1 2.6-1 2.8-1 2.8 1.3-.1 1.6-2.4 1.6-2.4.3-1.3.8-1.5.8-1.5 1-.6 1.6.3 1.6.3.3.5.4.1.4.1.3-.9 1.3-.7 1.3-.7 1.1 0 1.2 1.2 1.2 1.2.2.8.8.6.8.6.7.2 1.1.7 1.1.7 1.2 1.7 0 2.9 0 2.9zm-5.6 20s.6-.5 1 0c0 0 .1.6.7.5 0 0 2-1.3 2.8-1.2 0 0 .9-.1.9.3 0 0 .2.5-.6 1.1l-.6.6s-.2.3-.7.3c0 0-2 .1-2.5-.4 0 0-1.5-.4-1-1.2zm9 1.7c-.4.8-2 1.4-2 1.4-.7.2-.8 1.1-.8 1.1-.2.8-1.2.8-1.2.8-.9.1-.6.9-.6.9.3.9-.9 1-.9 1-.7.5-.3 1.6-.3 1.6.1.3 0 .6 0 .6-.1.4 0 1 0 1 0 .7-.7.6-.7.6-.5-.2-.8.1-.8.1h-1.2c-.9 0-.7-.9-.7-.9.3-.8-.4-1.2-.4-1.2-.4-.5.1-1 .1-1l1.2-1c.4-.3.3-1.1.3-1.1 0-.2.1-.2.1-.2l.7-.5c-.3-.1-.6-.5-.6-.5v-.7c0-.5-.4 0-.4 0-.3.2-.7 1.5-.7 1.5-.1.6-.6.9-.6.9-.8 1.1-1.2 2.7-1.2 2.7-.4.9-1.4.2-1.4.2l-1.5-1.4c-.3-.3-.5-.3-.5-.3-.6-.1-.7-.8-.7-.8-.2-1.2-1.3-3-1.3-3-.7-.7-1.2 0-1.2 0-.4.8-1.7.3-1.7.3-.2 0-.3 0-.4.1 1.3-1.5 1.1-2.3 1.1-2.3-.3-1.5 1.2-1.7 1.2-1.7 1 .3 1.2 0 1.2 0 .4-1.6 1.2-1.2 1.2-1.2.6.5 1.5.3 1.5.3.6-.2 1-.9 1-.9 1.3-.4 1.2.9 1.2.9-.2 2 1.6 2.5 1.6 2.5.4.1 1.1.4 1.1.4.4.2 1.2.4 1.2.4 2.3.5 3.2-.9 3.2-.9.4-1 2.1-.7 2.1-.7 2.2.7 1.8 1 1.8 1zm.2-2.8s-.3.9-.8 1.2c0 0-.3.2-1 0 0 0-1.2-.2-1.1-.7 0 0 .1-1 0-1.6 0 0-.5-1.4.5-1.6 0 0 .9.2.9.7 0 0-.2.6 0 1 0 0 .1.4.4.1 0 0 1-.9 1-.2.1.1.5.7.1 1.1z"/><path class="st3" d="M30.2 78.7s.1.6.6 1c-9.3-2.8-15.5-5.5-15.5-5.5-1.8-.1-1.2-1.7-1.2-1.7 1-1.1-.9-1.8-.9-1.8-1.4-.5-.6-2-.6-2 .5-1.5-.8-1.6-.8-1.6-1-.1-.7-1.3-.7-1.3.3-1.3-1.2-1.4-1.2-1.4-1.4-1.8.7-4.3.7-4.3.7-.6-.2-1-.2-1-.7-.9.1-1.3.1-1.3.7-.3-.1-.9-.1-.9-.6-.8.5-1.4.5-1.4.5-.6-.9-.5-.9-.5-.5 0-.2-.5-.2-.5.8-1.5-.1-3.3-.1-3.3-.2-.6.4-.4.4-.4 1.4.2 1.6-1.1 1.6-1.1.2-.8 1.1-1 1.1-1 .4-1.2-1.3-3-1.3-3-.4-.3-.1-1-.1-1 .8-3.6.6-7 .6-7-.3-1.2.4-2.5.4-2.5-1.2-2.2-1.8-.9-1.8-.9-.1.7-1.8.4-1.8.4-.7 0-.5-.9-.5-.9l.1-3.4c0-.2 0-.4-.1-.6 0 0 8.5 8.6 25.8 15.1l-8.5 17.2s-.3.4-.2.7c0 0 .2.4-.1.5 0 0-.4.2-.2.5 0 0 .1.3.4.5 0 0 .4.1.4.5 0 0-.1.4.2.6 0 0 .4.1.4.4l.1 1.5s-.1.4.1.6c0 0 .5.1.4.5 0 0-.1.2 0 .5 0 0 .5.3.5.7 0 0-.1.3 0 .5 0 0 .4.1.3.5 0 0 .6 1 .5 1.3 0 0-.1.4.2.6 0 0 .3-.2.4 1.5 0 0 .1.5.7 1.3 0 0 .4.4.2 1.6.1 0 0 1.2.3 1.8z"/></svg>