<svg xmlns="http://www.w3.org/2000/svg" width="322" height="310" viewBox="0 0 322 310"><style type="text/css">.st0{fill:#1EA5A6;} .st1{fill:#95D5D2;} .st2{fill:#9FC195;}</style><path class="st0" d="M141.9 20.9h-58.3c-3.4 0-6.2-2.8-6.2-6.2 0-3.4 2.8-6.2 6.2-6.2h58.3c3.4 0 6.2 2.8 6.2 6.2 0 3.4-2.8 6.2-6.2 6.2zm74.1 0h-48.2c-3.1 0-5.7-2.6-5.7-5.7v-1c0-3.1 2.6-5.7 5.7-5.7h48.2c3.1 0 5.7 2.6 5.7 5.7v1c0 3.1-2.6 5.7-5.7 5.7zm77.6 0h-41.8c-2.9 0-5.3-2.4-5.3-5.3v-1.7c0-2.9 2.4-5.3 5.3-5.3h41.8c2.9 0 5.3 2.4 5.3 5.3v1.7c0 2.9-2.4 5.3-5.3 5.3z"/><path class="st1" d="M138 64.5h-49.5c-5.3 0-9.7-4.4-9.7-9.7v-22.9c0-5.3 4.4-9.7 9.7-9.7h49.5c5.3 0 9.7 4.4 9.7 9.7v22.8c0 5.4-4.4 9.8-9.7 9.8zm44.4-.2h-25.6c-4.1 0-7.4-3.3-7.4-7.4v-27.3c0-4.1 3.3-7.4 7.4-7.4h25.6c4.1 0 7.4 3.3 7.4 7.4v27.2c.1 4.2-3.3 7.5-7.4 7.5zm43.9 0h-26.9c-4.2 0-7.6-3.4-7.6-7.6v-26.8c0-4.2 3.4-7.6 7.6-7.6h26.9c4.2 0 7.6 3.4 7.6 7.6v26.9c0 4.1-3.4 7.5-7.6 7.5zm40.7.1h-23.6c-4 0-7.2-3.2-7.2-7.2v-27.8c0-4 3.2-7.2 7.2-7.2h23.6c4 0 7.2 3.2 7.2 7.2v27.8c0 4-3.3 7.2-7.2 7.2zm38.4.1h-22c-3.9 0-7-3.2-7-7v-28.3c0-3.9 3.2-7 7-7h22c3.9 0 7 3.2 7 7v28.3c0 3.9-3.1 7-7 7zm-234 1.7h-59.4c-3 0-5.4 2.4-5.4 5.4v3.2c0 3 2.4 5.4 5.4 5.4h59.4c3 0 5.4-2.4 5.4-5.4v-3.2c0-3-2.4-5.4-5.4-5.4zm71 0h-58.4c-2.9 0-5.3 2.4-5.3 5.3v3.3c0 2.9 2.4 5.3 5.3 5.3h58.4c2.9 0 5.3-2.4 5.3-5.3v-3.3c0-2.9-2.4-5.3-5.3-5.3zm0 16h-58.4c-2.9 0-5.3 2.4-5.3 5.3v3.3c0 2.9 2.4 5.3 5.3 5.3h58.4c2.9 0 5.3-2.4 5.3-5.3v-3.3c0-3-2.4-5.3-5.3-5.3zm0 15.8h-58.4c-2.9 0-5.3 2.4-5.3 5.3v3.3c0 2.9 2.4 5.3 5.3 5.3h58.4c2.9 0 5.3-2.4 5.3-5.3v-3.3c0-2.9-2.4-5.3-5.3-5.3zm0 16h-58.4c-2.9 0-5.3 2.4-5.3 5.3v3.3c0 2.9 2.4 5.3 5.3 5.3h58.4c2.9 0 5.3-2.4 5.3-5.3v-3.3c0-2.9-2.4-5.3-5.3-5.3zm0 16.2h-58.4c-2.9 0-5.3 2.4-5.3 5.3v3.3c0 2.9 2.4 5.3 5.3 5.3h58.4c2.9 0 5.3-2.4 5.3-5.3v-3.3c0-2.9-2.4-5.3-5.3-5.3zm0 16h-58.4c-2.9 0-5.3 2.4-5.3 5.3v3.3c0 2.9 2.4 5.3 5.3 5.3h58.4c2.9 0 5.3-2.4 5.3-5.3v-3.3c0-3-2.4-5.3-5.3-5.3zm0 15.9h-58.4c-2.9 0-5.3 2.4-5.3 5.3v3.3c0 2.9 2.4 5.3 5.3 5.3h58.4c2.9 0 5.3-2.4 5.3-5.3v-3.3c0-2.9-2.4-5.3-5.3-5.3zm-.6 15.9h-58.3c-2.9 0-5.3 2.4-5.3 5.3v3.3c0 2.9 2.4 5.3 5.3 5.3h58.4c2.9 0 5.3-2.4 5.3-5.3v-3.3c0-2.9-2.4-5.3-5.4-5.3zm.6 15.8h-58.4c-2.9 0-5.3 2.4-5.3 5.3v3.3c0 2.9 2.4 5.3 5.3 5.3h58.4c2.9 0 5.3-2.4 5.3-5.3v-3.3c0-3-2.4-5.3-5.3-5.3zm0 15.9h-58.4c-2.9 0-5.3 2.4-5.3 5.3v3.3c0 2.9 2.4 5.3 5.3 5.3h58.4c2.9 0 5.3-2.4 5.3-5.3v-3.3c0-2.9-2.4-5.3-5.3-5.3zm0 15.9h-58.4c-2.9 0-5.3 2.4-5.3 5.3v3.3c0 2.9 2.4 5.3 5.3 5.3h58.4c2.9 0 5.3-2.4 5.3-5.3v-3.3c0-2.9-2.4-5.3-5.3-5.3zm0 15.9h-58.4c-2.9 0-5.3 2.4-5.3 5.3v3.3c0 2.9 2.4 5.3 5.3 5.3h58.4c2.9 0 5.3-2.4 5.3-5.3v-3.3c0-2.9-2.4-5.3-5.3-5.3zm0 16.3h-58.4c-2.9 0-5.3 2.4-5.3 5.3v3.3c0 2.9 2.4 5.3 5.3 5.3h58.4c2.9 0 5.3-2.4 5.3-5.3v-3.3c0-3-2.4-5.3-5.3-5.3zm-.1 15.9h-58.4c-2.9 0-5.3 2.4-5.3 5.3v3.3c0 2.9 2.4 5.3 5.3 5.3h58.4c2.9 0 5.3-2.4 5.3-5.3v-3.3c0-2.9-2.3-5.3-5.3-5.3zm0 15.9h-58.4c-2.9 0-5.3 2.4-5.3 5.3v3.3c0 2.9 2.4 5.3 5.3 5.3h58.4c2.9 0 5.3-2.4 5.3-5.3v-3.2c0-3-2.3-5.4-5.3-5.4zm43.5-223.4h-32.4c-2.3 0-4.1 1.8-4.1 4.1v5.8c0 2.3 1.8 4.1 4.1 4.1h32.4c2.3 0 4.1-1.8 4.1-4.1v-5.8c0-2.3-1.9-4.1-4.1-4.1zm0 16h-32.4c-2.3 0-4.1 1.8-4.1 4.1v5.8c0 2.3 1.8 4.1 4.1 4.1h32.4c2.3 0 4.1-1.8 4.1-4.1v-5.8c0-2.3-1.9-4.1-4.1-4.1zm.1 15.8h-32.4c-2.3 0-4.1 1.8-4.1 4.1v5.8c0 2.3 1.8 4.1 4.1 4.1h32.4c2.3 0 4.1-1.8 4.1-4.1v-5.8c0-2.2-1.9-4.1-4.1-4.1zm-.1 16h-32.4c-2.3 0-4.1 1.8-4.1 4.1v5.8c0 2.3 1.8 4.1 4.1 4.1h32.4c2.3 0 4.1-1.8 4.1-4.1v-5.8c0-2.3-1.9-4.1-4.1-4.1zm0 16.2h-32.4c-2.3 0-4.1 1.8-4.1 4.1v5.8c0 2.3 1.8 4.1 4.1 4.1h32.4c2.3 0 4.1-1.8 4.1-4.1v-5.8c0-2.3-1.9-4.1-4.1-4.1zm0 16h-32.4c-2.3 0-4.1 1.8-4.1 4.1v5.8c0 2.3 1.8 4.1 4.1 4.1h32.4c2.3 0 4.1-1.8 4.1-4.1v-5.8c0-2.3-1.9-4.1-4.1-4.1zm0 15.9h-32.4c-2.3 0-4.1 1.8-4.1 4.1v5.8c0 2.3 1.8 4.1 4.1 4.1h32.4c2.3 0 4.1-1.8 4.1-4.1v-5.8c0-2.3-1.9-4.1-4.1-4.1zm0 15.9h-32.4c-2.3 0-4.1 1.8-4.1 4.1v5.8c0 2.3 1.8 4.1 4.1 4.1h32.4c2.3 0 4.1-1.8 4.1-4.1v-5.8c0-2.2-1.9-4.1-4.1-4.1zm0 15.8h-32.4c-2.3 0-4.1 1.8-4.1 4.1v5.8c0 2.3 1.8 4.1 4.1 4.1h32.4c2.3 0 4.1-1.8 4.1-4.1v-5.8c0-2.3-1.9-4.1-4.1-4.1zm0 15.9h-32.4c-2.3 0-4.1 1.8-4.1 4.1v5.8c0 2.3 1.8 4.1 4.1 4.1h32.4c2.3 0 4.1-1.8 4.1-4.1v-5.8c0-2.3-1.9-4.1-4.1-4.1zm0 15.9h-32.4c-2.3 0-4.1 1.8-4.1 4.1v5.8c0 2.3 1.8 4.1 4.1 4.1h32.4c2.3 0 4.1-1.8 4.1-4.1v-5.8c0-2.3-1.9-4.1-4.1-4.1zm0 15.9h-32.4c-2.3 0-4.1 1.8-4.1 4.1v5.8c0 2.3 1.8 4.1 4.1 4.1h32.4c2.3 0 4.1-1.8 4.1-4.1v-5.8c0-2.2-1.9-4.1-4.1-4.1zm0 16.3h-32.4c-2.3 0-4.1 1.8-4.1 4.1v5.8c0 2.3 1.8 4.1 4.1 4.1h32.4c2.3 0 4.1-1.8 4.1-4.1v-5.8c0-2.3-1.9-4.1-4.1-4.1zm0 15.9h-32.4c-2.3 0-4.1 1.8-4.1 4.1v5.8c0 2.3 1.8 4.1 4.1 4.1h32.4c2.3 0 4.1-1.8 4.1-4.1v-5.8c0-2.3-1.9-4.1-4.1-4.1zm0 15.9h-32.4c-2.3 0-4.1 1.8-4.1 4.1v5.8c0 2.3 1.8 4.1 4.1 4.1h32.4c2.3 0 4.1-1.8 4.1-4.1v-5.8c0-2.2-1.9-4.1-4.1-4.1zm44-223.4h-33.8c-2.3 0-4.2 1.9-4.2 4.2v5.6c0 2.3 1.9 4.2 4.2 4.2h33.8c2.3 0 4.2-1.9 4.2-4.2v-5.7c0-2.2-1.9-4.1-4.2-4.1zm0 16h-33.8c-2.3 0-4.2 1.9-4.2 4.2v5.6c0 2.3 1.9 4.2 4.2 4.2h33.8c2.3 0 4.2-1.9 4.2-4.2v-5.7c0-2.3-1.9-4.1-4.2-4.1zm0 15.8h-33.8c-2.3 0-4.2 1.9-4.2 4.2v5.7c0 2.3 1.9 4.2 4.2 4.2h33.8c2.3 0 4.2-1.9 4.2-4.2v-5.7c0-2.3-1.9-4.2-4.2-4.2zm0 16h-33.8c-2.3 0-4.2 1.9-4.2 4.2v5.7c0 2.3 1.9 4.2 4.2 4.2h33.8c2.3 0 4.2-1.9 4.2-4.2v-5.7c0-2.4-1.9-4.2-4.2-4.2zm0 16.2h-33.8c-2.3 0-4.2 1.9-4.2 4.2v5.7c0 2.3 1.9 4.2 4.2 4.2h33.8c2.3 0 4.2-1.9 4.2-4.2v-5.7c0-2.3-1.9-4.2-4.2-4.2zm0 16h-33.8c-2.3 0-4.2 1.9-4.2 4.2v5.7c0 2.3 1.9 4.2 4.2 4.2h33.8c2.3 0 4.2-1.9 4.2-4.2v-5.7c0-2.4-1.9-4.2-4.2-4.2zm0 15.9h-33.8c-2.3 0-4.2 1.9-4.2 4.2v5.7c0 2.3 1.9 4.2 4.2 4.2h33.8c2.3 0 4.2-1.9 4.2-4.2v-5.7c0-2.4-1.9-4.2-4.2-4.2zm0 15.9h-33.8c-2.3 0-4.2 1.9-4.2 4.2v5.7c0 2.3 1.9 4.2 4.2 4.2h33.8c2.3 0 4.2-1.9 4.2-4.2v-5.7c0-2.3-1.9-4.2-4.2-4.2zm0 15.8h-33.8c-2.3 0-4.2 1.9-4.2 4.2v5.7c0 2.3 1.9 4.2 4.2 4.2h33.8c2.3 0 4.2-1.9 4.2-4.2v-5.7c0-2.4-1.9-4.2-4.2-4.2zm0 15.9h-33.8c-2.3 0-4.2 1.9-4.2 4.2v5.7c0 2.3 1.9 4.2 4.2 4.2h33.8c2.3 0 4.2-1.9 4.2-4.2v-5.7c0-2.3-1.9-4.2-4.2-4.2zm0 15.9h-33.8c-2.3 0-4.2 1.9-4.2 4.2v5.7c0 2.3 1.9 4.2 4.2 4.2h33.8c2.3 0 4.2-1.9 4.2-4.2v-5.7c0-2.3-1.9-4.2-4.2-4.2zm0 15.9h-33.8c-2.3 0-4.2 1.9-4.2 4.2v5.7c0 2.3 1.9 4.2 4.2 4.2h33.8c2.3 0 4.2-1.9 4.2-4.2v-5.7c0-2.4-1.9-4.2-4.2-4.2zm0 16.3h-33.8c-2.3 0-4.2 1.9-4.2 4.2v5.7c0 2.3 1.9 4.2 4.2 4.2h33.8c2.3 0 4.2-1.9 4.2-4.2v-5.7c0-2.4-1.9-4.2-4.2-4.2zm0 15.9h-33.8c-2.3 0-4.2 1.9-4.2 4.2v5.7c0 2.3 1.9 4.2 4.2 4.2h33.8c2.3 0 4.2-1.9 4.2-4.2v-5.7c0-2.3-1.9-4.2-4.2-4.2zm.1 15.9h-33.8c-2.3 0-4.2 1.9-4.2 4.2v5.7c0 2.3 1.9 4.2 4.2 4.2h33.8c2.3 0 4.2-1.9 4.2-4.2v-5.7c-.1-2.3-1.9-4.2-4.2-4.2zm40.5-223.4h-30.4c-2.2 0-4 1.8-4 4v6c0 2.2 1.8 4 4 4h30.4c2.2 0 4-1.8 4-4v-6c0-2.2-1.8-4-4-4zm0 16h-30.4c-2.2 0-4 1.8-4 4v6c0 2.2 1.8 4 4 4h30.4c2.2 0 4-1.8 4-4v-6c0-2.3-1.8-4-4-4zm0 15.8h-30.4c-2.2 0-4 1.8-4 4v6c0 2.2 1.8 4 4 4h30.4c2.2 0 4-1.8 4-4v-6c0-2.2-1.8-4-4-4zm0 16h-30.4c-2.2 0-4 1.8-4 4v6c0 2.2 1.8 4 4 4h30.4c2.2 0 4-1.8 4-4v-6c0-2.2-1.8-4-4-4zm0 16.2h-30.4c-2.2 0-4 1.8-4 4v6c0 2.2 1.8 4 4 4h30.4c2.2 0 4-1.8 4-4v-6c0-2.2-1.8-4-4-4zm0 16h-30.4c-2.2 0-4 1.8-4 4v6c0 2.2 1.8 4 4 4h30.4c2.2 0 4-1.8 4-4v-6c0-2.3-1.8-4-4-4zm0 15.8h-30.4c-2.2 0-4 1.8-4 4v6c0 2.2 1.8 4 4 4h30.4c2.2 0 4-1.8 4-4v-6c0-2.3-1.8-4-4-4zm0 16h-30.4c-2.2 0-4 1.8-4 4v6c0 2.2 1.8 4 4 4h30.4c2.2 0 4-1.8 4-4v-6c0-2.2-1.8-4-4-4zm0 15.8h-30.4c-2.2 0-4 1.8-4 4v6c0 2.2 1.8 4 4 4h30.4c2.2 0 4-1.8 4-4v-6c0-2.3-1.8-4-4-4zm0 15.9h-30.4c-2.2 0-4 1.8-4 4v6c0 2.2 1.8 4 4 4h30.4c2.2 0 4-1.8 4-4v-6c0-2.2-1.8-4-4-4zm0 15.9h-30.4c-2.2 0-4 1.8-4 4v6c0 2.2 1.8 4 4 4h30.4c2.2 0 4-1.8 4-4v-6c0-2.2-1.8-4-4-4zm0 15.9h-30.4c-2.2 0-4 1.8-4 4v6c0 2.2 1.8 4 4 4h30.4c2.2 0 4-1.8 4-4v-6c0-2.2-1.8-4-4-4zm0 16.3h-30.4c-2.2 0-4 1.8-4 4v6c0 2.2 1.8 4 4 4h30.4c2.2 0 4-1.8 4-4v-6c0-2.2-1.8-4-4-4zm0 15.9h-30.4c-2.2 0-4 1.8-4 4v6c0 2.2 1.8 4 4 4h30.4c2.2 0 4-1.8 4-4v-6c0-2.2-1.8-4-4-4zm0 15.9h-30.4c-2.2 0-4 1.8-4 4v6c0 2.2 1.8 4 4 4h30.4c2.2 0 4-1.8 4-4v-6c0-2.2-1.8-4-4-4zm-198.9-207.4h-59.5c-3 0-5.4 2.4-5.4 5.4v3.2c0 3 2.4 5.4 5.4 5.4h59.5c3 0 5.4-2.4 5.4-5.4v-3.2c-.1-3-2.5-5.4-5.4-5.4zm-.1 15.8h-59.4c-3 0-5.4 2.4-5.4 5.4v3.2c0 3 2.4 5.4 5.4 5.4h59.4c3 0 5.4-2.4 5.4-5.4v-3.2c0-3-2.4-5.4-5.4-5.4zm.1 16h-59.5c-3 0-5.4 2.4-5.4 5.4v3.2c0 3 2.4 5.4 5.4 5.4h59.5c3 0 5.4-2.4 5.4-5.4v-3.2c-.1-3-2.5-5.4-5.4-5.4zm-.1 16.2h-59.4c-3 0-5.4 2.4-5.4 5.4v3.2c0 3 2.4 5.4 5.4 5.4h59.4c3 0 5.4-2.4 5.4-5.4v-3.2c0-3-2.4-5.4-5.4-5.4zm0 16h-59.4c-3 0-5.4 2.4-5.4 5.4v3.2c0 3 2.4 5.4 5.4 5.4h59.5c3 0 5.4-2.4 5.4-5.4v-3.2c-.1-3-2.5-5.4-5.5-5.4zm0 15.9h-59.4c-3 0-5.4 2.4-5.4 5.4v3.2c0 3 2.4 5.4 5.4 5.4h59.4c3 0 5.4-2.4 5.4-5.4v-3.2c0-3-2.4-5.4-5.4-5.4zm0 31.7h-59.4c-3 0-5.4 2.4-5.4 5.4v3.2c0 3 2.4 5.4 5.4 5.4h59.4c3 0 5.4-2.4 5.4-5.4v-3.2c0-3-2.4-5.4-5.4-5.4zm0 15.9h-59.4c-3 0-5.4 2.4-5.4 5.4v3.2c0 3 2.4 5.4 5.4 5.4h59.5c3 0 5.4-2.4 5.4-5.4v-3.2c-.1-3-2.5-5.4-5.5-5.4zm0 15.9h-59.4c-3 0-5.4 2.4-5.4 5.4v3.2c0 3 2.4 5.4 5.4 5.4h59.4c3 0 5.4-2.4 5.4-5.4v-3.2c0-3-2.4-5.4-5.4-5.4zm0 15.9h-59.4c-3 0-5.4 2.4-5.4 5.4v3.2c0 3 2.4 5.4 5.4 5.4h59.5c3 0 5.4-2.4 5.4-5.4v-3.2c-.1-3-2.5-5.4-5.5-5.4zm0 16.3h-59.4c-3 0-5.4 2.4-5.4 5.4v3.2c0 3 2.4 5.4 5.4 5.4h59.4c3 0 5.4-2.4 5.4-5.4v-3.2c0-3-2.4-5.4-5.4-5.4zm0 15.9h-59.4c-3 0-5.4 2.4-5.4 5.4v3.2c0 3 2.4 5.4 5.4 5.4h59.5c3 0 5.4-2.4 5.4-5.4v-3.2c-.1-3-2.5-5.4-5.5-5.4zm0 15.9h-59.4c-3 0-5.4 2.4-5.4 5.4v3.2c0 3 2.4 5.4 5.4 5.4h59.4c3 0 5.4-2.4 5.4-5.4v-3.2c0-3-2.5-5.4-5.4-5.4zm0-111.6h-59.4c-3 0-5.4 2.4-5.4 5.4v3.2c0 3 2.4 5.4 5.4 5.4h59.5c3 0 5.4-2.4 5.4-5.4v-3.2c-.1-3-2.5-5.4-5.5-5.4z"/><path d="M87.7 11.8v.6h-1.8v4.8h-.7v-4.8h-1.8v-.6h4.3zm2.6 1.8c.3.3.5.8.5 1.5 0 .6-.2 1.2-.5 1.6-.3.4-.8.6-1.4.6-.5 0-1-.2-1.3-.5s-.5-.9-.5-1.5c0-.7.2-1.2.5-1.6.3-.4.8-.6 1.3-.6.6 0 1.1.2 1.4.5zm-.4 2.6c.2-.3.2-.7.2-1.1 0-.4-.1-.7-.2-.9-.2-.4-.5-.5-1-.5-.4 0-.7.2-.9.5s-.3.7-.3 1.1c0 .4.1.8.3 1s.5.4.9.4c.5 0 .8-.1 1-.5zm1.9-4.1h.7v1.1h.6v.5h-.6v2.6c0 .1 0 .2.1.3h.5v.5h-.5c-.3 0-.5-.1-.6-.2-.1-.2-.2-.4-.2-.6v-2.6h-.5v-.5h.5v-1.1zm4.1 2.7c.2 0 .3-.1.3-.2v-.3c0-.2-.1-.4-.2-.5s-.4-.2-.7-.2c-.3 0-.6.1-.7.3-.1.1-.1.3-.2.5h-.6c0-.5.2-.8.5-1 .3-.2.7-.3 1.1-.3.5 0 .8.1 1.1.3.3.2.4.5.4.8v2.5s.1.1.2.1h.2v.5c-.1 0-.2 0-.2.1h-.2c-.2 0-.4-.1-.5-.2-.1-.1-.1-.2-.1-.4-.1.2-.3.3-.6.5-.3.1-.5.2-.8.2-.4 0-.7-.1-.9-.3-.2-.2-.3-.5-.3-.8 0-.4.1-.6.3-.8.2-.2.5-.3.9-.4l1-.4zm-1.4 1.8c.1.1.3.2.5.2s.5-.1.7-.2c.4-.2.6-.5.6-.9v-.5c-.1.1-.2.1-.3.1l-.4.1-.4.1c-.2 0-.4.1-.5.2-.2.1-.3.3-.3.5-.2.1-.1.3.1.4zm3.4-4.8h.7v5.4h-.7v-5.4zm3.4 3.3h.9l.3-1.3h-.8l.1-.4h.8l.4-1.6h.5l-.4 1.6h.8l.4-1.6h.5l-.4 1.6h.9l-.1.4h-.9l-.3 1.3h.9l-.1.4h-.8l-.4 1.6h-.6l.4-1.6h-.8l-.4 1.6h-.5l.4-1.6h-.8v-.4zm2.2 0l.3-1.3h-.8l-.3 1.3h.8zm7.3-1.5c.3.3.5.8.5 1.5 0 .6-.2 1.2-.5 1.6-.3.4-.8.6-1.4.6-.5 0-1-.2-1.3-.5s-.5-.9-.5-1.5c0-.7.2-1.2.5-1.6.3-.4.8-.6 1.3-.6.6 0 1.1.2 1.4.5zm-.4 2.6c.2-.3.2-.7.2-1.1 0-.4-.1-.7-.2-.9-.2-.4-.5-.5-1-.5-.4 0-.7.2-.9.5s-.3.7-.3 1.1c0 .4.1.8.3 1s.5.4.9.4c.6 0 .8-.1 1-.5zm2.1-4.2c.2-.2.5-.3.9-.3h.3v.6h-.3c-.2 0-.3.1-.4.2 0 .1-.1.4-.1.8h.7v.5h-.6v3.4h-.7v-3.4h-.5v-.5h.5v-.6c0-.4.1-.6.2-.7zm5.1-.2h.8l2 5.4h-.8l-.6-1.6h-2.1l-.6 1.6h-.8l2.1-5.4zm1.2 3.1l-.8-2.4-.9 2.4h1.7zm2.1-1.7h.6v.6c.2-.2.4-.4.6-.5s.4-.2.7-.2c.6 0 .9.2 1.1.6.1.2.2.5.2.9v2.5h-.7v-2.5c0-.2 0-.4-.1-.6-.1-.2-.3-.4-.6-.4h-.4l-.5.3c-.1.1-.2.3-.2.4v2.7h-.7v-3.8zm6.4.2c.1.1.3.2.4.4v-.5h.6v3.6c0 .5-.1.9-.2 1.2-.3.5-.8.8-1.5.8-.4 0-.8-.1-1.1-.3-.3-.2-.4-.5-.5-.9h.7c0 .2.1.3.2.4.1.1.4.2.7.2.5 0 .8-.2 1-.5.1-.2.1-.6.1-1.1-.1.2-.3.4-.5.4-.2.1-.4.1-.7.1-.4 0-.8-.2-1.1-.5-.3-.3-.5-.8-.5-1.5s.2-1.2.5-1.5c.3-.4.7-.6 1.2-.6.2.1.5.1.7.3zm.1.7c-.2-.2-.5-.4-.8-.4-.5 0-.8.2-1 .7-.1.2-.1.5-.1.9s.1.8.3 1c.2.2.4.3.7.3.5 0 .8-.2 1-.6.1-.2.2-.5.2-.8 0-.5-.1-.9-.3-1.1zm1.9-2.3h.7v5.4h-.7v-5.4zm4.1 1.5c.3.1.5.3.6.5.1.2.2.4.3.7 0 .2.1.5.1.9h-2.9c0 .4.1.7.3 1 .2.2.4.4.8.4.3 0 .6-.1.8-.3.1-.1.2-.3.2-.5h.7c0 .1-.1.3-.2.5s-.2.3-.3.4c-.2.2-.4.3-.7.4l-.5.1c-.5 0-.9-.2-1.2-.5-.3-.4-.5-.9-.5-1.5s.2-1.1.5-1.5.8-.6 1.3-.6c.2-.2.5-.1.7 0zm.3 1.6c0-.3-.1-.5-.2-.7-.2-.3-.5-.5-.9-.5-.3 0-.6.1-.8.3-.2.2-.3.5-.3.8h2.2zm1.5-1.7h.6v.7c.1-.1.2-.3.4-.5s.4-.3.7-.3h.3v.7h-.2c-.3 0-.6.1-.8.3-.2.2-.3.5-.3.7v2.3h-.7v-3.9zm2.9 2.7c0 .2.1.4.2.5.2.2.5.3.9.3.2 0 .5-.1.7-.2.2-.1.3-.3.3-.5s-.1-.3-.2-.4c-.1-.1-.3-.1-.6-.2l-.5-.1c-.3-.1-.6-.2-.8-.3-.3-.2-.4-.4-.4-.7 0-.4.1-.7.4-.9.3-.2.6-.3 1.1-.3.6 0 1 .2 1.3.5.2.2.2.5.2.7h-.7c0-.1-.1-.3-.2-.4-.2-.2-.4-.3-.8-.3-.3 0-.5 0-.6.1-.1.1-.2.2-.2.4s.1.3.3.4c.1.1.2.1.4.2l.4.1c.5.1.8.2 1 .3.3.2.4.4.4.8s-.1.7-.4.9c-.3.3-.7.4-1.2.4-.6 0-1-.1-1.3-.4-.2-.3-.4-.6-.4-1h.7zm41-4.1h2.4c.5 0 .9.1 1.2.4s.4.7.4 1.1c0 .4-.1.8-.4 1.1-.3.3-.7.5-1.2.5h-1.7v2.3h-.7v-5.4zm2.8.7c-.2-.1-.4-.1-.7-.1h-1.4v1.9h1.4c.3 0 .6-.1.8-.2s.3-.4.3-.7c.1-.5-.1-.8-.4-.9zm4.5.8c.3.1.5.3.6.5.1.2.2.4.3.7 0 .2.1.5.1.9h-2.9c0 .4.1.7.3 1s.4.4.8.4c.3 0 .6-.1.8-.3.1-.1.2-.3.2-.5h.7c0 .1-.1.3-.2.5s-.2.3-.3.4c-.2.2-.4.3-.7.4l-.5.1c-.5 0-.9-.2-1.2-.5-.3-.4-.5-.9-.5-1.5s.2-1.1.5-1.5.8-.6 1.3-.6c.2-.2.4-.1.7 0zm.2 1.6c0-.3-.1-.5-.2-.7-.2-.3-.5-.5-.9-.5-.3 0-.6.1-.8.3-.2.2-.3.5-.3.8h2.2zm1.6-1.7h.6v.7c.1-.1.2-.3.4-.5s.4-.3.7-.3h.3v.7h-.2c-.3 0-.6.1-.8.3-.2.2-.3.5-.3.7v2.3h-.7v-3.9zm5 .2c.3.2.4.6.5 1.1h-.6c0-.2-.1-.4-.3-.6-.1-.2-.4-.2-.7-.2-.4 0-.7.2-.9.6-.1.3-.2.6-.2 1s.1.7.2 1c.2.3.4.4.8.4.3 0 .5-.1.7-.3.2-.2.3-.4.3-.7h.6c-.1.5-.3.9-.6 1.1s-.7.4-1.1.4c-.5 0-.9-.2-1.2-.6-.3-.4-.5-.8-.5-1.4 0-.7.2-1.2.5-1.6.3-.4.8-.6 1.3-.6.6.1 1 .2 1.2.4zm3.6-.1c.3.1.5.3.6.5.1.2.2.4.3.7 0 .2.1.5.1.9h-2.9c0 .4.1.7.3 1s.4.4.8.4c.3 0 .6-.1.8-.3.1-.1.2-.3.2-.5h.7c0 .1-.1.3-.2.5s-.2.3-.3.4c-.2.2-.4.3-.7.4l-.5.1c-.5 0-.9-.2-1.2-.5-.3-.4-.5-.9-.5-1.5s.2-1.1.5-1.5.8-.6 1.3-.6c.2-.2.5-.1.7 0zm.3 1.6c0-.3-.1-.5-.2-.7-.2-.3-.5-.5-.9-.5-.3 0-.6.1-.8.3-.2.2-.3.5-.3.8h2.2zm1.5-1.7h.6v.6c.2-.2.4-.4.6-.5s.4-.2.7-.2c.6 0 .9.2 1.1.6.1.2.2.5.2.9v2.5h-.7v-2.5c0-.2 0-.4-.1-.6-.1-.2-.3-.4-.6-.4h-.4l-.5.3c-.1.1-.2.3-.2.4v2.7h-.7v-3.8zm4.3-1.1h.7v1.1h.6v.5h-.6v2.6c0 .1 0 .2.1.3h.5v.5h-.5c-.3 0-.5-.1-.6-.2-.1-.2-.2-.4-.2-.6v-2.6h-.5v-.5h.5v-1.1zm51.5-.5h.8l2 5.4h-.8l-.6-1.6h-2.1l-.6 1.6h-.8l2.1-5.4zm1.2 3.2l-.8-2.4-.9 2.4h1.7zm2.3-1.7l1.1 3.2 1.1-3.2h.7l-1.5 3.9h-.7l-1.5-3.9h.8zm5.9.1c.3.1.5.3.6.5.1.2.2.4.3.7 0 .2.1.5.1.9h-2.9c0 .4.1.7.3 1 .2.2.4.4.8.4.3 0 .6-.1.8-.3.1-.1.2-.3.2-.5h.7c0 .1-.1.3-.2.5s-.2.3-.3.4c-.2.2-.4.3-.7.4l-.5.1c-.5 0-.9-.2-1.2-.5-.3-.4-.5-.9-.5-1.5s.2-1.1.5-1.5.8-.6 1.3-.6c.2-.2.4-.2.7 0zm.2 1.5c0-.3-.1-.5-.2-.7-.2-.3-.5-.5-.9-.5-.3 0-.6.1-.8.3-.2.2-.3.5-.3.8h2.2zm1.6-1.6h.6v.7c.1-.1.2-.3.4-.5s.4-.3.7-.3h.3v.7h-.2c-.3 0-.6.1-.8.3-.2.2-.3.5-.3.7v2.3h-.7v-3.9zm4.6 1.5c.2 0 .3-.1.3-.2v-.3c0-.2-.1-.4-.2-.5s-.4-.2-.7-.2c-.3 0-.6.1-.7.3-.1.1-.1.3-.2.5h-.6c0-.5.2-.8.5-1 .3-.2.7-.3 1.1-.3.5 0 .8.1 1.1.3.3.2.4.5.4.8v2.5s.1.1.2.1h.2v.4c-.1 0-.2 0-.2.1h-.2c-.2 0-.4-.1-.5-.2-.1-.1-.1-.2-.1-.4-.1.2-.3.3-.6.5-.3.1-.5.2-.8.2-.4 0-.7-.1-.9-.3-.2-.2-.3-.5-.3-.8 0-.4.1-.6.3-.8.2-.2.5-.3.9-.4l1-.3zm-1.4 1.8c.1.1.3.2.5.2s.5-.1.7-.2c.4-.2.6-.5.6-.9v-.5c-.1.1-.2.1-.3.1l-.4.1-.4.1c-.2 0-.4.1-.5.2-.2.1-.3.3-.3.5-.1.1-.1.3.1.4zm5.6-3.2c.1.1.3.2.4.4v-.5h.6v3.6c0 .5-.1.9-.2 1.2-.3.5-.8.8-1.5.8-.4 0-.8-.1-1.1-.3-.3-.2-.4-.5-.5-.9h.7c0 .2.1.3.2.4.1.1.4.2.7.2.5 0 .8-.2 1-.5.1-.2.1-.6.1-1.1-.1.2-.3.4-.5.4-.2.1-.4.1-.7.1-.4 0-.8-.2-1.1-.5s-.5-.8-.5-1.5.2-1.2.5-1.5.7-.6 1.2-.6l.7.3zm.1.7c-.2-.2-.5-.4-.8-.4-.5 0-.8.2-1 .7-.1.2-.1.5-.1.9s.1.8.3 1c.2.2.4.3.7.3.5 0 .8-.2 1-.6.1-.2.2-.5.2-.8 0-.5-.1-.8-.3-1.1zm4.4-.7c.3.1.5.3.6.5.1.2.2.4.3.7 0 .2.1.5.1.9h-2.9c0 .4.1.7.3 1 .2.2.4.4.8.4.3 0 .6-.1.8-.3.1-.1.2-.3.2-.5h.7c0 .1-.1.3-.2.5s-.2.3-.3.4c-.2.2-.4.3-.7.4l-.5.1c-.5 0-.9-.2-1.2-.5-.3-.4-.5-.9-.5-1.5s.2-1.1.5-1.5.8-.6 1.3-.6c.1-.2.4-.2.7 0zm.2 1.5c0-.3-.1-.5-.2-.7-.2-.3-.5-.5-.9-.5-.3 0-.6.1-.8.3-.2.2-.3.5-.3.8h2.2zm4.9-3.1h.8l2 5.4h-.8l-.6-1.6h-2.1l-.6 1.6h-.8l2.1-5.4zm1.2 3.2l-.8-2.4-.9 2.4h1.7zm4.3-1.6c.1.1.3.2.4.4v-.5h.6v3.6c0 .5-.1.9-.2 1.2-.3.5-.8.8-1.5.8-.4 0-.8-.1-1.1-.3-.3-.2-.4-.5-.5-.9h.7c0 .2.1.3.2.4.1.1.4.2.7.2.5 0 .8-.2 1-.5.1-.2.1-.6.1-1.1-.1.2-.3.4-.5.4-.2.1-.4.1-.7.1-.4 0-.8-.2-1.1-.5-.3-.3-.5-.8-.5-1.5s.2-1.2.5-1.5c.3-.4.7-.6 1.2-.6l.7.3zm.1.7c-.2-.2-.5-.4-.8-.4-.5 0-.8.2-1 .7-.1.2-.1.5-.1.9s.1.8.3 1c.2.2.4.3.7.3.5 0 .8-.2 1-.6.1-.2.2-.5.2-.8 0-.5-.1-.8-.3-1.1zm4.3-.7c.3.1.5.3.6.5.1.2.2.4.3.7 0 .2.1.5.1.9h-2.9c0 .4.1.7.3 1s.4.4.8.4c.3 0 .6-.1.8-.3.1-.1.2-.3.2-.5h.7c0 .1-.1.3-.2.5s-.2.3-.3.4c-.2.2-.4.3-.7.4l-.5.1c-.5 0-.9-.2-1.2-.5-.3-.4-.5-.9-.5-1.5s.2-1.1.5-1.5.8-.6 1.3-.6c.2-.2.5-.2.7 0zm.3 1.5c0-.3-.1-.5-.2-.7-.2-.3-.5-.5-.9-.5-.3 0-.6.1-.8.3-.2.2-.3.5-.3.8h2.2z"/><circle class="st2" cx="102.2" cy="27.5" r="3.1"/><path class="st2" d="M101.9 31.7s-4.4-.8-5.4 1.6l-3.5 10.4s-.1 1.2.4 1.7c0 0 1.6.5 1.8-.8l2.7-7.9s.2-1 .8-.7c0 0 .4.1-.2 1.5l-4.2 12.5s-.7 1 .4 1.1h3.5l.1 9.6s0 1.8 1.5 1.6c0 0 1.4.2 1.3-1.8l-.1-8.8s-.2-.8.5-.8c0 0 .4-.1.5.8v8.7s0 1.9 1.5 1.8c0 0 1.7.1 1.6-2.2v-8.9l3.5-.1s.7.1.4-.8l-3.6-13.6s-.4-.8.5-.8c0 0 .3.2.5 1.1l2.3 7.9s.2 1.1 1.4.9c0 0 1-.2.5-1.8l-2.5-9.5s-.7-2.5-3.3-2.7h-2.9z"/><circle class="st2" cx="213.1" cy="27.4" r="3.1"/><path class="st2" d="M212.9 31.7s-4.4-.8-5.4 1.6l-3.5 10.4s-.1 1.2.4 1.7c0 0 1.6.5 1.8-.8l2.7-7.9s.2-1 .8-.7c0 0 .4.1-.2 1.5l-4.2 12.5s-.7 1 .4 1.1h3.5l.1 9.6s0 1.8 1.5 1.6c0 0 1.4.2 1.3-1.8l-.1-8.8s-.2-.8.5-.8c0 0 .4-.1.5.8v8.7s0 1.9 1.5 1.8c0 0 1.7.1 1.6-2.2v-8.9l3.5-.1s.7.1.4-.8l-3.6-13.6s-.4-.8.5-.8c0 0 .3.2.5 1.1l2.3 7.9s.2 1.1 1.4.9c0 0 1-.2.5-1.8l-2.5-9.5s-.7-2.5-3.3-2.7h-2.9z"/><circle class="st2" cx="294.6" cy="27.5" r="3.1"/><path class="st2" d="M294.3 31.7s-4.4-.8-5.4 1.6l-3.5 10.4s-.1 1.2.4 1.7c0 0 1.6.5 1.8-.8l2.7-7.9s.2-1 .8-.7c0 0 .4.1-.2 1.5l-4.2 12.5s-.7 1 .4 1.1h3.5l.1 9.6s0 1.8 1.5 1.6c0 0 1.4.2 1.3-1.8l-.1-8.8s-.2-.8.5-.8c0 0 .4-.1.5.8v8.7s0 1.9 1.5 1.8c0 0 1.7.1 1.6-2.2v-8.9l3.5-.1s.7.1.4-.8l-3.6-13.6s-.4-.8.5-.8c0 0 .3.2.5 1.1l2.3 7.9s.2 1.1 1.4.9c0 0 1-.2.5-1.8l-2.5-9.5s-.7-2.5-3.3-2.7h-2.9z"/><circle class="st2" cx="125.4" cy="27.5" r="3.1"/><path class="st2" d="M125.1 31.3s-6.2-.6-6.7 2.7l-.8 11.1s.1 1.6 1.3 1.6c0 0 1.5-.1 1.5-1.9l.1-7.9s0-1 .9-.9c0 0 .5-.2.5 1.6l-.5 22.2s0 2.1 1 2.4c0 0 2.1.5 2.1-2.4l.3-12.5s0-1.6.6-1.4c0 0 .6 0 .6 1.5v12.6s-.2 1.9 1.2 1.9c0 0 1.8.2 1.8-2.1v-22.7s-.2-1.1.7-1.1c0 0 .4.1.4 1.3v7.4s-.2 1.6.8 2.1c0 0 1.4.4 1.5-1.9v-9.1s-.4-3.5-2.9-4.1c0 0-2.2-.4-4.4-.4z"/><circle class="st2" cx="170" cy="27.5" r="3.1"/><path class="st2" d="M169.6 31.3s-6.2-.6-6.7 2.7l-.8 11.1s.1 1.6 1.3 1.6c0 0 1.5-.1 1.5-1.9l.1-7.9s0-1 .9-.9c0 0 .5-.2.5 1.6l-.5 22.2s0 2.1 1 2.4c0 0 2.1.5 2.1-2.4l.3-12.5s0-1.6.6-1.4c0 0 .6 0 .6 1.5v12.6s-.2 1.9 1.2 1.9c0 0 1.8.2 1.8-2.1v-22.7s-.2-1.1.7-1.1c0 0 .4.1.4 1.3v7.4s-.2 1.6.8 2.1c0 0 1.4.4 1.5-1.9v-9.1s-.4-3.5-2.9-4.1c.1 0-2.1-.4-4.4-.4z"/><circle class="st2" cx="255.6" cy="27.5" r="3.1"/><path class="st2" d="M255.2 31.3s-6.2-.6-6.7 2.7l-.8 11.1s.1 1.6 1.3 1.6c0 0 1.5-.1 1.5-1.9l.1-7.9s0-1 .9-.9c0 0 .5-.2.5 1.6l-.5 22.2s0 2.1 1 2.4c0 0 2.1.5 2.1-2.4l.3-12.5s0-1.6.6-1.4c0 0 .6 0 .6 1.5v12.6s-.2 1.9 1.2 1.9c0 0 1.8.2 1.8-2.1v-22.7s-.2-1.1.7-1.1c0 0 .4.1.4 1.3v7.4s-.2 1.6.8 2.1c0 0 1.4.4 1.5-1.9v-9.1s-.4-3.5-2.9-4.1c.1 0-2.1-.4-4.4-.4z"/><path d="M28.4 70.1h.9l2.7 4.4v-4.4h.7v5.4h-.8l-2.7-4.4v4.4h-.7v-5.4zm5.5 0h3.7v.7h-3v1.6h2.7v.6h-2.7v2.5h-.7v-5.4zm7.2 1.7c-.1-.2-.1-.3-.1-.5 0-.3.1-.6.4-.9.2-.2.5-.3.9-.3s.7.1.9.3.3.5.3.8c0 .3-.1.6-.3.9-.1.2-.3.3-.6.5l1 1.2c.1-.2.1-.3.1-.4s.1-.2.1-.4h.6c0 .3-.1.7-.2 1-.1.3-.2.4-.2.4l1 1.2h-1l-.5-.6-.5.5c-.3.2-.6.3-1 .3-.6 0-1-.2-1.2-.5s-.4-.6-.4-1 .1-.8.4-1c.2-.2.4-.4.8-.6-.3-.5-.4-.7-.5-.9zm1.6 3l.5-.4-1.2-1.5c-.3.2-.6.4-.7.5-.2.2-.2.4-.2.7 0 .3.1.5.3.7s.3.2.6.2c.2 0 .5 0 .7-.2zm-.1-3c.1-.2.2-.4.2-.6 0-.2-.1-.3-.2-.4-.1-.1-.2-.2-.4-.2-.3 0-.5.1-.6.3-.1.1-.1.2-.1.3 0 .1 0 .3.1.4.1.1.2.3.4.5.4-.1.5-.2.6-.3zm5.1-1.7h.7v4.8h2.7v.6h-3.4v-5.4zm-12 17h2.4c.5 0 .9.1 1.2.4s.4.7.4 1.1c0 .4-.1.8-.4 1.1-.3.3-.7.5-1.2.5h-1.7v2.3h-.7v-5.4zm2.8.7c-.2-.1-.4-.1-.7-.1h-1.4v1.9h1.4c.3 0 .6-.1.8-.2s.4-.4.4-.8-.2-.6-.5-.8zm2.2-.7h3.9v.7h-3.2v1.6h3v.6h-3v1.8h3.3v.6h-4v-5.3zm5.1 0h.7v5.4h-.7v-5.4zm-9 15.5h.9l2.7 4.4v-4.4h.6v5.4h-.8l-2.7-4.4v4.4h-.7v-5.4zm5.9 3.7c0 .3.1.6.2.7.2.4.6.5 1.2.5.3 0 .5 0 .7-.1.4-.2.6-.4.6-.8 0-.3-.1-.5-.3-.6-.2-.1-.5-.2-.8-.3l-.7-.2c-.5-.1-.8-.2-1-.4-.3-.2-.5-.6-.5-1 0-.5.2-.9.5-1.2.3-.3.8-.5 1.4-.5.6 0 1 .1 1.4.4.4.3.6.7.6 1.3h-.7c0-.3-.1-.5-.2-.7-.2-.3-.6-.4-1.1-.4-.4 0-.7.1-.9.3-.2.2-.3.4-.3.6 0 .3.1.5.3.6.1.1.5.2 1 .3l.7.2c.4.1.6.2.8.3.3.3.5.6.5 1.1 0 .6-.2 1-.6 1.3-.4.3-.9.4-1.5.4-.7 0-1.2-.2-1.5-.5-.4-.3-.6-.8-.5-1.4h.7zm-5.9 11.8h.9l2.7 4.4v-4.4h.6v5.4h-.8l-2.7-4.4v4.4h-.7v-5.4zm5.4 0h2.3c.6 0 1.1.2 1.4.6.2.2.2.5.2.8 0 .3-.1.6-.3.8-.1.1-.2.2-.4.3.3.1.5.2.6.4.2.2.4.6.4 1 0 .3-.1.7-.3.9-.3.4-.8.6-1.6.6h-2.3v-5.4zm2 2.3c.3 0 .6 0 .7-.1.3-.1.4-.4.4-.7 0-.4-.1-.6-.4-.7-.2-.1-.4-.1-.7-.1h-1.3v1.7h1.3zm.3 2.5c.5 0 .8-.1 1-.4.1-.2.2-.4.2-.6 0-.4-.2-.7-.5-.8-.2-.1-.4-.1-.7-.1h-1.5v1.9h1.5zm-3.6 17.4l-.4.4-.8-.6c-.2.1-.4.2-.7.3-.2.1-.5.1-.8.1-.8 0-1.5-.3-2-.8-.4-.5-.6-1.2-.6-2 0-.7.2-1.4.5-1.9.5-.7 1.2-1 2.1-1 1 0 1.7.3 2.1.9.4.5.5 1.1.5 1.8 0 .3 0 .7-.1 1-.1.5-.3.9-.7 1.2l.9.6zm-2.1-.6l.3-.1-.6-.5.4-.5.7.5c.2-.3.4-.5.5-.9.1-.3.1-.6.1-.9 0-.6-.2-1.1-.5-1.5s-.8-.6-1.4-.6c-.6 0-1 .2-1.4.6-.3.4-.5.9-.5 1.7 0 .6.2 1.2.5 1.6.3.4.8.6 1.4.6.2.1.4.1.5 0zm3-4.8h2.3c.6 0 1.1.2 1.4.6.2.2.2.5.2.8 0 .3-.1.6-.3.8-.1.1-.2.2-.4.3.3.1.5.2.6.4.2.2.4.6.4 1 0 .3-.1.7-.3.9-.3.4-.8.6-1.6.6h-2.3v-5.4zm2.1 2.2c.3 0 .6 0 .7-.1.3-.1.4-.4.4-.7 0-.4-.1-.6-.4-.7-.2-.1-.4-.1-.7-.1h-1.3v1.7h1.3zm.2 2.5c.5 0 .8-.1 1-.4.1-.2.2-.4.2-.6 0-.4-.2-.7-.5-.8-.2-.1-.4-.1-.7-.1h-1.5v1.9h1.5zm-4 11.6c.4.5.5 1.1.5 1.8 0 .8-.2 1.5-.6 2-.5.6-1.2.9-2.1.9-.8 0-1.5-.3-2-.8-.4-.5-.6-1.2-.6-2 0-.7.2-1.4.5-1.9.5-.7 1.2-1 2.1-1 1 .1 1.7.4 2.2 1zm-.6 3.5c.3-.5.4-1 .4-1.6 0-.6-.2-1.1-.5-1.5s-.8-.6-1.4-.6c-.6 0-1 .2-1.4.6-.4.4-.5 1-.5 1.7 0 .6.2 1.1.5 1.5.3.4.8.6 1.5.6.6 0 1.1-.3 1.4-.7zm2-4.2h.9l2.7 4.4v-4.4h.7v5.4h-.8l-2.7-4.4v4.4h-.7v-5.4zm-5.9 16.3h1l1.6 4.6 1.5-4.6h1v5.4h-.7v-4.5l-1.5 4.6h-.7l-1.6-4.6v4.6h-.7v-5.5zm6.3 0h2.3c.6 0 1.1.2 1.4.6.2.2.2.5.2.8 0 .3-.1.6-.3.8-.1.1-.2.2-.4.3.3.1.5.2.6.4.2.2.4.6.4 1 0 .3-.1.7-.3.9-.3.4-.8.6-1.6.6h-2.3v-5.4zm2 2.2c.3 0 .6 0 .7-.1.3-.1.4-.4.4-.7 0-.4-.1-.6-.4-.7-.2-.1-.4-.1-.7-.1h-1.3v1.7h1.3zm.3 2.5c.5 0 .8-.1 1-.4.1-.2.2-.4.2-.6 0-.4-.2-.7-.5-.8-.2-.1-.4-.1-.7-.1h-1.5v1.9h1.5zm-7 14.4c0 .3.1.6.2.7.2.4.6.5 1.2.5.3 0 .5 0 .7-.1.4-.2.6-.4.6-.8 0-.3-.1-.5-.3-.6-.2-.1-.5-.2-.8-.3l-.7-.2c-.5-.1-.8-.2-1-.4-.3-.2-.5-.6-.5-1 0-.5.2-.9.5-1.2.3-.3.8-.5 1.4-.5.6 0 1 .1 1.4.4.4.3.6.7.6 1.3h-.7c0-.3-.1-.5-.2-.7-.2-.3-.6-.4-1.1-.4-.4 0-.7.1-.9.3-.2.2-.3.4-.3.6 0 .3.1.5.3.6.1.1.5.2 1 .3l.7.2c.4.1.6.2.8.3.3.3.5.6.5 1.1 0 .6-.2 1-.6 1.3-.4.3-.9.4-1.5.4-.7 0-1.2-.2-1.5-.5-.4-.3-.6-.8-.5-1.4h.7zm4.6-3.7h.7v2.6l2.7-2.6h1l-2.3 2.2 2.4 3.2h-1l-1.9-2.7-.9.8v1.9h-.7v-5.4zm-3.5 15.9h.8l2 5.4h-.8l-.6-1.6h-2.1l-.6 1.6h-.8l2.1-5.4zm1.3 3.2l-.8-2.4-.9 2.4h1.7zm2.2-3.2h2.3c.6 0 1.1.2 1.4.6.2.2.2.5.2.8 0 .3-.1.6-.3.8-.1.1-.2.2-.4.3.3.1.5.2.6.4.2.2.4.6.4 1 0 .3-.1.7-.3.9-.3.4-.8.6-1.6.6h-2.3v-5.4zm2 2.3c.3 0 .6 0 .7-.1.3-.1.4-.4.4-.7 0-.4-.1-.6-.4-.7-.2-.1-.4-.1-.7-.1h-1.3v1.7h1.3zm.3 2.5c.5 0 .8-.1 1-.4.1-.2.2-.4.2-.6 0-.4-.2-.7-.5-.8-.2-.1-.4-.1-.7-.1h-1.5v1.9h1.5zm-30.9 11.5h2.3c.6 0 1.1.2 1.4.6.2.2.2.5.2.8 0 .3-.1.6-.3.8-.1.1-.2.2-.4.3.3.1.5.2.6.4.2.2.4.6.4 1 0 .3-.1.7-.3.9-.3.4-.8.6-1.6.6h-2.3v-5.4zm2 2.3c.3 0 .6 0 .7-.1.3-.1.4-.4.4-.7 0-.4-.1-.6-.4-.7-.2-.1-.4-.1-.7-.1h-1.3v1.7h1.3zm.3 2.4c.5 0 .8-.1 1-.4.1-.2.2-.4.2-.6 0-.4-.2-.7-.5-.8-.2-.1-.4-.1-.7-.1h-1.5v1.9h1.5zm6.5-4.3c.4.4.6.8.6 1.2h-.7c-.1-.3-.2-.6-.5-.8-.2-.2-.6-.3-1-.3-.5 0-.9.2-1.3.6s-.5.9-.5 1.7c0 .6.1 1.1.4 1.5.3.4.7.6 1.3.6.5 0 .9-.2 1.2-.6.1-.2.3-.5.3-.9h.7c-.1.6-.3 1-.6 1.4-.4.5-1 .7-1.7.7-.6 0-1.1-.2-1.6-.6-.6-.5-.8-1.3-.8-2.3 0-.8.2-1.5.6-2 .5-.6 1.1-.8 1.9-.8.8 0 1.3.2 1.7.6zm4.2 1.3c-.1-.2-.1-.4-.1-.5 0-.3.1-.6.4-.9.2-.2.5-.3.9-.3s.7.1.9.3.3.5.3.8c0 .3-.1.6-.3.9-.1.2-.3.3-.6.5l1 1.2c.1-.2.1-.3.1-.4s.1-.2.1-.4h.6c0 .3-.1.7-.2 1-.1.3-.2.4-.2.4l1 1.2h-.9l-.5-.6-.5.5c-.3.2-.6.3-1 .3-.6 0-1-.2-1.2-.5s-.4-.6-.4-1 .1-.8.4-1c.2-.2.4-.4.8-.6-.3-.5-.5-.7-.6-.9zm1.6 3l.5-.4-1.2-1.5c-.3.2-.6.4-.7.5-.2.2-.2.4-.2.7 0 .3.1.5.3.7s.4.2.7.2c.2 0 .4 0 .6-.2zm0-3c.1-.2.2-.4.2-.6 0-.2-.1-.3-.2-.4-.1-.1-.2-.2-.4-.2-.3 0-.5.1-.6.3-.1.1-.1.2-.1.3 0 .1 0 .3.1.4.1.1.2.3.4.5.3-.1.5-.2.6-.3zm5.1-1.7h3.7v.7h-3v1.6h2.7v.6h-2.7v2.5h-.7v-5.4zm4.5 1.4h.6v.7c.1-.1.2-.3.4-.5s.4-.3.7-.3h.3v.7h-.2c-.3 0-.6.1-.8.3-.2.2-.3.5-.3.7v2.3h-.7v-3.9zm4.9.1c.3.1.5.3.6.5.1.2.2.4.3.7 0 .2.1.5.1.9h-2.9c0 .4.1.7.3 1 .2.2.4.4.8.4.3 0 .6-.1.8-.3.1-.1.2-.3.2-.5h.7c0 .1-.1.3-.2.5s-.2.3-.3.4c-.2.2-.4.3-.7.4l-.5.1c-.5 0-.9-.2-1.2-.5-.3-.4-.5-.9-.5-1.5s.2-1.1.5-1.5.8-.6 1.3-.6c.1-.2.4-.1.7 0zm.2 1.6c0-.3-.1-.5-.2-.7-.2-.3-.5-.5-.9-.5-.3 0-.6.1-.8.3-.2.2-.3.5-.3.8h2.2zm1.9 1c0 .2.1.4.2.5.2.2.5.3.9.3.2 0 .5-.1.7-.2.2-.1.3-.3.3-.5s-.1-.3-.2-.4c-.1-.1-.3-.1-.6-.2l-.5-.1c-.3-.1-.6-.2-.8-.3-.3-.2-.4-.4-.4-.7 0-.4.1-.7.4-.9.3-.2.6-.3 1.1-.3.6 0 1 .2 1.3.5.2.2.2.5.2.7h-.6c0-.1-.1-.3-.2-.4-.2-.2-.4-.3-.8-.3-.3 0-.5 0-.6.1-.1.1-.2.2-.2.4s.1.3.3.4c.1.1.2.1.4.2l.4.1c.5.1.8.2 1 .3.3.2.4.4.4.8s-.1.7-.4.9c-.3.3-.7.4-1.2.4-.6 0-1-.1-1.3-.4-.2-.3-.4-.6-.4-1h.6zm3.4-4.1h.7v2l.4-.4c.2-.1.5-.2.8-.2.6 0 1 .2 1.2.6.1.2.2.5.2.9v2.5h-.7v-2.5c0-.3 0-.5-.1-.6-.1-.2-.3-.3-.7-.3-.3 0-.5.1-.7.3s-.3.5-.3 1.1v2.1h-.7v-5.5zm4.5 1.4l.8 3.1.8-3.1h.7l.8 3.1.8-3.1h.7l-1.1 3.9h-.8l-.8-3-.8 3h-.7l-1.1-3.9h.7zm7.2 1.6c.2 0 .3-.1.3-.2v-.3c0-.2-.1-.4-.2-.5-.2-.1-.4-.2-.7-.2-.3 0-.6.1-.7.3-.1.1-.1.3-.2.5h-.6c0-.5.2-.8.5-1 .3-.2.7-.3 1.1-.3.5 0 .8.1 1.1.3.3.2.4.5.4.8v2.5s.1.1.2.1h.2v.5c-.1 0-.2 0-.2.1h-.2c-.2 0-.4-.1-.5-.2-.1-.1-.1-.2-.1-.4-.1.2-.3.3-.6.5-.3.1-.5.2-.8.2-.4 0-.7-.1-.9-.3-.2-.2-.3-.5-.3-.8 0-.4.1-.6.3-.8.2-.2.5-.3.9-.4l1-.4zm-1.4 1.8c.1.1.3.2.5.2s.5-.1.7-.2c.4-.2.6-.5.6-.9v-.5c-.1.1-.2.1-.3.1l-.4.1-.4.1c-.2 0-.4.1-.5.2-.2.1-.3.3-.3.5-.1.1 0 .3.1.4zm3.6-4.5h.7v1.1h.6v.5h-.6v2.6c0 .1 0 .2.1.3h.5v.5h-.5c-.3 0-.5-.1-.6-.2-.1-.2-.2-.4-.2-.6v-2.6h-.5v-.5h.5v-1.1zm4.4 1.2c.3.1.5.3.6.5.1.2.2.4.3.7 0 .2.1.5.1.9h-2.9c0 .4.1.7.3 1 .2.2.4.4.8.4.3 0 .6-.1.8-.3.1-.1.2-.3.2-.5h.7c0 .1-.1.3-.2.5s-.2.3-.3.4c-.2.2-.4.3-.7.4l-.5.1c-.5 0-.9-.2-1.2-.5-.3-.4-.5-.9-.5-1.5s.2-1.1.5-1.5.8-.6 1.3-.6c.2-.2.5-.1.7 0zm.3 1.6c0-.3-.1-.5-.2-.7-.2-.3-.5-.5-.9-.5-.3 0-.6.1-.8.3-.2.2-.3.5-.3.8h2.2zm1.5-1.7h.6v.7c.1-.1.2-.3.4-.5s.4-.3.7-.3h.3v.7h-.2c-.3 0-.6.1-.8.3-.2.2-.3.5-.3.7v2.3h-.7v-3.9zm-57.5 14.2h2.3c.6 0 1.1.2 1.4.6.2.2.2.5.2.8 0 .3-.1.6-.3.8-.1.1-.2.2-.4.3.3.1.5.2.6.4.2.2.4.6.4 1 0 .3-.1.7-.3.9-.3.4-.8.6-1.6.6h-2.3v-5.4zm2 2.2c.3 0 .6 0 .7-.1.3-.1.4-.4.4-.7 0-.4-.1-.6-.4-.7-.2-.1-.4-.1-.7-.1h-1.3v1.7h1.3zm.3 2.5c.5 0 .8-.1 1-.4.1-.2.2-.4.2-.6 0-.4-.2-.7-.5-.8-.2-.1-.4-.1-.7-.1h-1.5v1.9h1.5zm6.5-4.3c.4.4.6.8.6 1.2h-.7c-.1-.3-.2-.6-.5-.8-.2-.2-.6-.3-1-.3-.5 0-.9.2-1.3.6s-.5.9-.5 1.7c0 .6.1 1.1.4 1.5.3.4.7.6 1.3.6.5 0 .9-.2 1.2-.6.1-.2.3-.5.3-.9h.7c-.1.6-.3 1-.6 1.4-.4.5-1 .7-1.7.7-.6 0-1.1-.2-1.6-.6-.6-.5-.8-1.3-.8-2.3 0-.8.2-1.5.6-2 .5-.6 1.1-.8 1.9-.8.8 0 1.3.2 1.7.6zm4.2 1.3c-.1-.2-.1-.4-.1-.5 0-.3.1-.6.4-.9.2-.2.5-.3.9-.3s.7.1.9.3.3.5.3.8c0 .3-.1.6-.3.9-.1.2-.3.3-.6.5l1 1.2c.1-.2.1-.3.1-.4s.1-.2.1-.4h.6c0 .3-.1.7-.2 1-.1.3-.2.4-.2.4l1 1.2h-.9l-.5-.6-.5.5c-.3.2-.6.3-1 .3-.6 0-1-.2-1.2-.5s-.4-.6-.4-1 .1-.8.4-1c.2-.2.4-.4.8-.6-.3-.5-.5-.7-.6-.9zm1.6 3l.5-.4-1.2-1.5c-.3.2-.6.4-.7.5-.2.2-.2.4-.2.7 0 .3.1.5.3.7s.4.2.7.2c.2 0 .4-.1.6-.2zm0-3c.1-.2.2-.4.2-.6 0-.2-.1-.3-.2-.4-.1-.1-.2-.2-.4-.2-.3 0-.5.1-.6.3-.1.1-.1.2-.1.3 0 .1 0 .3.1.4.1.1.2.3.4.5.3-.1.5-.2.6-.3zm8.8-1.7v.6h-1.8v4.8h-.7v-4.8h-1.8v-.6h4.3zm.3 0h.7v.8h-.7v-.8zm0 1.4h.7v3.9h-.7v-3.9zm3.9.1l.4.4v-2h.6v5.4h-.6v-.5c-.2.2-.3.4-.5.5-.2.1-.5.2-.7.2-.4 0-.8-.2-1.1-.6-.3-.4-.5-.9-.5-1.5s.1-1.1.4-1.5c.3-.4.7-.6 1.2-.6.3 0 .6.1.8.2zm-1.5 3c.2.3.5.4.9.4.3 0 .6-.1.8-.4.2-.3.3-.6.3-1.1 0-.5-.1-.9-.3-1.1-.2-.2-.5-.4-.7-.4-.3 0-.6.1-.8.4s-.3.6-.3 1.1c-.2.5-.1.8.1 1.1zm5.6-1.5c.2 0 .3-.1.3-.2v-.3c0-.2-.1-.4-.2-.5-.2-.1-.4-.2-.7-.2-.3 0-.6.1-.7.3-.1.1-.1.3-.2.5h-.6c0-.5.2-.8.5-1 .3-.2.7-.3 1.1-.3.5 0 .8.1 1.1.3.3.2.4.5.4.8v2.5s.1.1.2.1h.2v.5c-.1 0-.2 0-.2.1h-.2c-.2 0-.4-.1-.5-.2-.1-.1-.1-.2-.1-.4-.1.2-.3.3-.6.5-.3.1-.5.2-.8.2-.4 0-.7-.1-.9-.3-.2-.2-.3-.5-.3-.8 0-.4.1-.6.3-.8.2-.2.5-.3.9-.4l1-.4zm-1.4 1.8c.1.1.3.2.5.2s.5-.1.7-.2c.4-.2.6-.5.6-.9v-.5c-.1.1-.2.1-.3.1l-.4.1-.4.1c-.2 0-.4.1-.5.2-.2.1-.3.3-.3.5-.1.1 0 .3.1.4zm3.5-4.8h.7v5.4h-.7v-5.4zm4.2 0l1 4.4 1.2-4.4h.8l1.2 4.4 1-4.4h.8l-1.4 5.4h-.8l-1.2-4.5-1.3 4.5h-.7l-1.4-5.4h.8zm8.5 3c.2 0 .3-.1.3-.2v-.3c0-.2-.1-.4-.2-.5s-.4-.2-.7-.2c-.3 0-.6.1-.7.3-.1.1-.1.3-.2.5h-.6c0-.5.2-.8.5-1 .3-.2.7-.3 1.1-.3.5 0 .8.1 1.1.3.3.2.4.5.4.8v2.5s.1.1.2.1h.2v.5c-.1 0-.2 0-.2.1h-.2c-.2 0-.4-.1-.5-.2-.1-.1-.1-.2-.1-.4-.1.2-.3.3-.6.5-.3.1-.5.2-.8.2-.4 0-.7-.1-.9-.3-.2-.2-.3-.5-.3-.8 0-.4.1-.6.3-.8.2-.2.5-.3.9-.4l1-.4zm-1.4 1.8c.1.1.3.2.5.2s.5-.1.7-.2c.4-.2.6-.5.6-.9v-.5c-.1.1-.2.1-.3.1l-.4.1-.4.1c-.2 0-.4.1-.5.2-.2.1-.3.3-.3.5-.1.1 0 .3.1.4zm3.6-4.5h.7v1.1h.6v.5h-.6v2.6c0 .1 0 .2.1.3h.5v.5h-.5c-.3 0-.5-.1-.6-.2s-.2-.4-.2-.6v-2.5h-.5v-.5h.5v-1.2zm4.4 1.2c.3.1.5.3.6.5.1.2.2.4.3.7 0 .2.1.5.1.9h-2.9c0 .4.1.7.3 1s.4.4.8.4c.3 0 .6-.1.8-.3.1-.1.2-.3.2-.5h.7c0 .1-.1.3-.2.5s-.2.3-.3.4c-.2.2-.4.3-.7.4l-.5.1c-.5 0-.9-.2-1.2-.5-.3-.4-.5-.9-.5-1.5s.2-1.1.5-1.5.8-.6 1.3-.6c.2-.2.4-.1.7 0zm.2 1.6c0-.3-.1-.5-.2-.7-.2-.3-.5-.5-.9-.5-.3 0-.6.1-.8.3-.2.2-.3.5-.3.8h2.2zm1.6-1.7h.6v.7c.1-.1.2-.3.4-.5s.4-.3.7-.3h.3v.7h-.2c-.3 0-.6.1-.8.3-.2.2-.3.5-.3.7v2.3h-.7v-3.9zm2.8 2.7c0 .2.1.4.2.5.2.2.5.3.9.3.2 0 .5-.1.7-.2.2-.1.3-.3.3-.5s-.1-.3-.2-.4c-.1-.1-.3-.1-.6-.2l-.5-.1c-.3-.1-.6-.2-.8-.3-.3-.2-.4-.4-.4-.7 0-.4.1-.7.4-.9.3-.2.6-.3 1.1-.3.6 0 1 .2 1.3.5.2.2.2.5.2.7h-.7c0-.1-.1-.3-.2-.4-.2-.2-.4-.3-.8-.3-.3 0-.4 0-.6.1-.1.1-.2.2-.2.4s.1.3.3.4c.1.1.2.1.4.2l.4.1c.5.1.8.2 1 .3.3.2.4.4.4.8s-.1.7-.4.9c-.3.3-.7.4-1.2.4-.6 0-1-.1-1.3-.4s-.4-.6-.4-1h.7zm-30.9 11.8h.8l1.6 2.6 1.6-2.6h.8l-2 3.2v2.2h-.7v-2.2l-2.1-3.2zm5.4 0h.7v2.6l2.7-2.6h1l-2.3 2.2 2.4 3.2h-1l-1.9-2.7-.9.8v1.9h-.7v-5.4zm-9.7 16.7h.9l2.7 4.4v-4.4h.7v5.4h-.8l-2.7-4.4v4.4h-.7v-5.4zm5.8 0l1 4.4 1.2-4.4h.8l1.3 4.4 1-4.4h.8l-1.4 5.4h-.8l-1.2-4.5-1.3 4.5h-.8l-1.4-5.4h.8zm10.7 0v.6h-1.8v4.8h-.7v-4.8h-1.9v-.6h4.4zm-12.6 15.1h.9l2.7 4.4v-4.4h.6v5.4h-.8l-2.7-4.4v4.4h-.7v-5.4zm9.3 0v.6h-1.8v4.8h-.7v-4.8h-1.8v-.6h4.3zm-13.8 16.5c.4.4.6.8.6 1.2h-.7c-.1-.3-.2-.6-.5-.8s-.6-.3-1-.3c-.5 0-.9.2-1.3.6s-.5.9-.5 1.7c0 .6.1 1.1.4 1.5.3.4.7.6 1.3.6.5 0 .9-.2 1.2-.6.1-.2.3-.5.3-.9h.7c-.1.6-.3 1-.6 1.4-.4.5-1 .7-1.7.7-.6 0-1.1-.2-1.6-.6-.6-.5-.8-1.3-.8-2.3 0-.8.2-1.5.6-2 .5-.6 1.1-.8 1.9-.8.8 0 1.3.2 1.7.6zm3.6 2.6c.2 0 .3-.1.3-.2v-.3c0-.2-.1-.4-.2-.5-.2-.1-.4-.2-.7-.2-.3 0-.6.1-.7.3-.1.1-.1.3-.2.5h-.6c0-.5.2-.8.5-1 .3-.2.7-.3 1.1-.3.5 0 .8.1 1.1.3.3.2.4.5.4.8v2.5s.1.1.2.1h.2v.5c-.1 0-.2 0-.2.1h-.2c-.2 0-.4-.1-.5-.2-.1-.1-.1-.2-.1-.4-.1.2-.3.3-.6.5-.3.1-.5.2-.8.2-.4 0-.7-.1-.9-.3-.2-.2-.3-.5-.3-.8 0-.4.1-.6.3-.8.2-.2.5-.3.9-.4l1-.4zm-1.4 1.8c.1.1.3.2.5.2s.5-.1.7-.2c.4-.2.6-.5.6-.9v-.5c-.1.1-.2.1-.3.1l-.4.1-.4.1c-.2 0-.4.1-.5.2-.2.1-.3.3-.3.5-.1.1 0 .3.1.4zm3.5-3.4h.6v.6c.2-.2.4-.4.6-.5s.4-.2.7-.2c.6 0 .9.2 1.1.6.1.2.2.5.2.9v2.5h-.7v-2.5c0-.2 0-.4-.1-.6-.1-.2-.3-.4-.6-.4h-.4l-.5.3c-.1.1-.2.3-.2.4v2.7h-.7v-3.8zm6.3 1.6c.2 0 .3-.1.3-.2v-.3c0-.2-.1-.4-.2-.5-.2-.1-.4-.2-.7-.2-.3 0-.6.1-.7.3-.1.1-.1.3-.2.5h-.6c0-.5.2-.8.5-1 .3-.2.7-.3 1.1-.3.5 0 .8.1 1.1.3.3.2.4.5.4.8v2.5s.1.1.2.1h.2v.5c-.1 0-.2 0-.2.1h-.2c-.2 0-.4-.1-.5-.2-.1-.1-.1-.2-.1-.4-.1.2-.3.3-.6.5-.3.1-.5.2-.8.2-.4 0-.7-.1-.9-.3-.2-.2-.3-.5-.3-.8 0-.4.1-.6.3-.8.2-.2.5-.3.9-.4l1-.4zm-1.4 1.8c.1.1.3.2.5.2s.5-.1.7-.2c.4-.2.6-.5.6-.9v-.5c-.1.1-.2.1-.3.1l-.4.1-.4.1c-.2 0-.4.1-.5.2-.2.1-.3.3-.3.5-.1.1-.1.3.1.4zm5.6-3.2l.4.4v-2h.6v5.4h-.6v-.5c-.2.2-.3.4-.5.5-.2.1-.5.2-.7.2-.4 0-.8-.2-1.1-.6-.3-.4-.5-.9-.5-1.5s.1-1.1.4-1.5c.3-.4.7-.6 1.2-.6.4 0 .6 0 .8.2zm-1.5 2.9c.2.3.5.4.9.4.3 0 .6-.1.8-.4.2-.3.3-.6.3-1.1 0-.5-.1-.9-.3-1.1-.2-.2-.5-.4-.7-.4-.3 0-.6.1-.8.4s-.3.6-.3 1.1c-.1.5 0 .8.1 1.1zm5.6-1.5c.2 0 .3-.1.3-.2v-.3c0-.2-.1-.4-.2-.5-.2-.1-.4-.2-.7-.2-.3 0-.6.1-.7.3-.1.1-.1.3-.2.5h-.6c0-.5.2-.8.5-1 .3-.2.7-.3 1.1-.3.5 0 .8.1 1.1.3.3.2.4.5.4.8v2.5s.1.1.2.1h.2v.5c-.1 0-.2 0-.2.1h-.2c-.2 0-.4-.1-.5-.2-.1-.1-.1-.2-.1-.4-.1.2-.3.3-.6.5-.3.1-.5.2-.8.2-.4 0-.7-.1-.9-.3-.2-.2-.3-.5-.3-.8 0-.4.1-.6.3-.8.2-.2.5-.3.9-.4l1-.4zm-1.4 1.8c.1.1.3.2.5.2s.5-.1.7-.2c.4-.2.6-.5.6-.9v-.5c-.1.1-.2.1-.3.1l-.4.1-.4.1c-.2 0-.4.1-.5.2-.2.1-.3.3-.3.5-.1.1 0 .3.1.4zm45.5-226.7v-.7c.6-.1 1.1-.2 1.3-.3.3-.1.4-.5.6-1h.7v7h-.9v-5h-1.7zm5.4 4.5c-.4-.5-.6-1-.6-1.7h.9c0 .5.1.8.3 1 .2.4.6.6 1.2.6.5 0 .8-.1 1.1-.4.3-.2.4-.6.4-1 0-.5-.1-.8-.4-1s-.7-.3-1.2-.3h-.4v-.8h.4c.3 0 .6-.1.8-.2.4-.2.6-.5.6-1 0-.3-.1-.6-.4-.8-.2-.2-.5-.3-.9-.3-.6 0-1 .2-1.2.6-.1.2-.2.5-.2.9h-.9c0-.5.1-1 .3-1.3.4-.7 1-1 1.9-1 .7 0 1.3.2 1.7.5.4.3.6.8.6 1.4 0 .4-.1.8-.3 1-.1.2-.3.3-.6.4.4.1.7.3.9.6.2.3.3.6.3 1.1 0 .7-.2 1.2-.7 1.6-.4.4-1.1.6-1.9.6-.7.2-1.3-.1-1.7-.5zm5.8-4.5v-.7c.6-.1 1.1-.2 1.3-.3.3-.1.4-.5.6-1h.7v7h-.9v-5h-1.7zm5.4 6c.2 0 .4-.2.5-.5l.1-.4v-.2h-.5v-1.1h1v1c0 .4-.1.7-.2 1-.2.3-.4.5-.8.5v-.3zm3.2-2.8c.1.5.3.9.7 1 .2.1.5.1.7.1.5 0 .9-.2 1.2-.5s.4-.7.4-1.1c0-.5-.1-.9-.4-1.1-.3-.3-.7-.4-1.1-.4-.3 0-.6.1-.8.2-.2.1-.4.3-.6.5h-.8l.5-3.8h3.6v.9h-3l-.3 2 .5-.3c.3-.1.6-.2.9-.2.6 0 1.2.2 1.6.6.4.4.7.9.7 1.6 0 .7-.2 1.2-.6 1.8-.4.5-1.1.8-2 .8-.6 0-1.1-.2-1.5-.5-.4-.3-.7-.8-.7-1.5h1zm9.6-5.1v.8c-.2.2-.5.6-.9 1.1-.4.5-.7 1.1-1 1.8-.3.6-.5 1.2-.6 1.7-.1.3-.2.8-.4 1.6h-1c.2-1.3.7-2.7 1.5-4 .4-.8.9-1.4 1.4-2h-3.9v-1h4.9zm1.3 2.8c-.3-.3-.4-.6-.4-1 0-.5.2-1 .6-1.3.4-.4.9-.6 1.6-.6.7 0 1.2.2 1.6.5s.6.8.6 1.2c0 .4-.1.8-.3 1.1-.1.2-.3.3-.6.5.3.1.5.3.7.5.3.3.5.8.5 1.3 0 .6-.2 1.1-.6 1.6s-1 .6-1.8.6c-.7 0-1.3-.2-1.7-.6-.5-.4-.7-.9-.7-1.6 0-.4.1-.8.3-1.1.2-.3.5-.5.9-.7-.4-.2-.6-.3-.7-.4zm2.8 3.1c.3-.2.4-.5.4-1s-.1-.8-.4-1-.6-.4-1.1-.4c-.4 0-.8.1-1 .4-.3.2-.4.6-.4 1s.1.7.4.9c.2.3.6.4 1.1.4.4.1.8 0 1-.3zm-.1-3.4c.2-.2.3-.5.3-.8 0-.3-.1-.5-.3-.7-.2-.2-.5-.3-1-.3-.4 0-.7.1-.9.3-.2.2-.3.5-.3.8 0 .3.1.6.4.8s.5.3.9.3c.3-.1.7-.2.9-.4zm-25.2 13.5c.3.4.5.8.5 1.3h-.9c-.1-.3-.1-.5-.2-.7-.2-.3-.5-.4-1-.4s-.9.2-1.2.7c-.3.5-.5 1.1-.5 2 .2-.3.5-.5.8-.7.3-.1.6-.2.9-.2.6 0 1.1.2 1.5.6.4.4.7.9.7 1.7 0 .6-.2 1.2-.6 1.7-.4.5-1 .7-1.8.7-.7 0-1.2-.2-1.7-.7-.5-.5-.7-1.3-.7-2.5 0-.9.1-1.6.3-2.2.4-1.2 1.2-1.7 2.2-1.7.9-.2 1.4 0 1.7.4zm-.6 5.4c.2-.3.3-.7.3-1.1 0-.4-.1-.7-.3-1-.2-.3-.6-.5-1.1-.5-.4 0-.7.1-1 .4-.3.3-.4.6-.4 1.1 0 .4.1.8.4 1.1.3.3.6.5 1.1.5.4 0 .7-.2 1-.5zm2.5 2.1c.2 0 .4-.2.5-.5l.1-.4v-.2h-.5v-1.1h1v1c0 .4-.1.7-.2 1-.2.3-.4.5-.8.5v-.3zm3.3-2.7c0 .5.2.8.6 1 .2.1.4.1.6.1.4 0 .8-.2 1.1-.5.3-.4.5-1.1.6-2.1-.2.3-.4.5-.7.7s-.6.2-.9.2c-.7 0-1.2-.2-1.6-.6-.4-.4-.6-1-.6-1.6 0-.6.2-1.2.6-1.7.4-.5 1-.7 1.7-.7 1 0 1.7.5 2.1 1.4.2.5.3 1.1.3 1.9 0 .9-.1 1.6-.4 2.3-.4 1.1-1.2 1.7-2.2 1.7-.7 0-1.2-.2-1.6-.5-.4-.4-.5-.8-.5-1.4h.9zm2.3-1.8c.3-.2.4-.6.4-1.2 0-.5-.1-.9-.4-1.2s-.6-.4-1-.4-.8.1-1 .4c-.3.3-.4.7-.4 1.2s.1.8.3 1.1c.2.3.6.4 1.1.4.4 0 .7-.1 1-.3zm2.6 1.9c.2-.4.6-.9 1.3-1.2l.9-.5c.4-.2.7-.5.9-.6.3-.3.4-.6.4-.9 0-.4-.1-.7-.4-1s-.6-.4-1-.4c-.6 0-1 .2-1.3.7-.1.2-.2.6-.2 1h-.9c0-.6.1-1.1.3-1.5.4-.7 1.1-1 2-1 .8 0 1.4.2 1.8.7.4.4.6.9.6 1.5s-.2 1-.6 1.4c-.2.2-.6.5-1.2.8l-.7.4c-.3.2-.6.3-.8.5-.3.3-.5.6-.6.9h3.8v.8h-4.8c.2-.6.3-1.2.5-1.6zm6.2-.1c0 .5.2.8.6 1 .2.1.4.1.6.1.4 0 .8-.2 1.1-.5.3-.4.5-1.1.6-2.1-.2.3-.4.5-.7.7s-.6.2-.9.2c-.7 0-1.2-.2-1.6-.6-.4-.4-.6-1-.6-1.6 0-.6.2-1.2.6-1.7.4-.5 1-.7 1.7-.7 1 0 1.7.5 2.1 1.4.2.5.3 1.1.3 1.9 0 .9-.1 1.6-.4 2.3-.4 1.1-1.2 1.7-2.2 1.7-.7 0-1.2-.2-1.6-.5-.4-.4-.5-.8-.5-1.4h.9zm2.3-1.8c.3-.2.4-.6.4-1.2 0-.5-.1-.9-.4-1.2s-.6-.4-1-.4-.8.1-1 .4c-.3.3-.4.7-.4 1.2s.1.8.3 1.1c.2.3.6.4 1.1.4.4 0 .7-.1 1-.3zm-22.3 19v-1.7h-3.1v-.9l3.2-4.5h.7v4.6h1v.8h-1v1.7h-.8zm0-2.5v-3.2l-2.2 3.2h2.2zm3.1 2c-.4-.5-.6-1-.6-1.7h.9c0 .5.1.8.3 1 .2.4.6.6 1.2.6.5 0 .8-.1 1.1-.4.3-.2.4-.6.4-1 0-.5-.1-.8-.4-1-.3-.2-.7-.3-1.2-.3h-.4v-.7h.4c.3 0 .6-.1.8-.2.4-.2.6-.5.6-1 0-.3-.1-.6-.4-.8s-.5-.3-.9-.3c-.6 0-1 .2-1.2.6-.1.2-.2.5-.2.9h-.9c0-.5.1-1 .3-1.3.4-.7 1-1 1.9-1 .7 0 1.3.2 1.7.5.4.3.6.8.6 1.4 0 .4-.1.8-.3 1-.1.2-.3.3-.6.4.4.1.7.3.9.6.2.3.3.6.3 1.1 0 .7-.2 1.2-.7 1.6-.4.4-1.1.6-1.9.6-.7.1-1.3-.1-1.7-.6zm5.6 1.5c.2 0 .4-.2.5-.5l.1-.4v-.2h-.5v-1.1h1v1c0 .4-.1.7-.2 1-.2.3-.4.5-.8.5v-.3zm7.2-7.9v.8c-.2.2-.5.6-.9 1.1-.4.5-.7 1.1-1 1.8-.3.6-.5 1.2-.6 1.7-.1.3-.2.8-.4 1.6h-1c.2-1.3.7-2.7 1.5-4 .4-.8.9-1.4 1.4-2h-3.9v-.9h4.9zm5.6 0v.8c-.2.2-.5.6-.9 1.1-.4.5-.7 1.1-1 1.8-.3.6-.5 1.2-.6 1.7-.1.3-.2.8-.4 1.6h-1c.2-1.3.7-2.7 1.5-4 .4-.8.9-1.4 1.4-2h-3.9v-.9h4.9zm1.6 5.1c.1.5.3.9.7 1 .2.1.5.1.7.1.5 0 .9-.2 1.2-.5.3-.3.4-.7.4-1.1 0-.5-.1-.9-.4-1.1-.3-.3-.7-.4-1.1-.4-.3 0-.6.1-.8.2-.2.1-.4.3-.6.5h-.8l.5-3.8h3.6v.9h-3l-.3 2 .5-.3c.3-.1.6-.2.9-.2.6 0 1.2.2 1.6.6s.7.9.7 1.6c0 .7-.2 1.2-.6 1.8-.4.5-1.1.8-2 .8-.6 0-1.1-.2-1.5-.5-.4-.3-.7-.8-.7-1.5h1zm-23 17.8v-1.7h-3.1v-.9l3.2-4.5h.7v4.6h1v.8h-1v1.7h-.8zm0-2.5v-3.2l-2.2 3.2h2.2zm3 2c-.4-.5-.6-1-.6-1.7h.9c0 .5.1.8.3 1 .2.4.6.6 1.2.6.5 0 .8-.1 1.1-.4.3-.2.4-.6.4-1 0-.5-.1-.8-.4-1s-.7-.3-1.2-.3h-.4v-.7h.4c.3 0 .6-.1.8-.2.4-.2.6-.5.6-1 0-.3-.1-.6-.4-.8-.2-.2-.5-.3-.9-.3-.6 0-1 .2-1.2.6-.1.2-.2.5-.2.9h-.9c0-.5.1-1 .3-1.3.4-.7 1-1 1.9-1 .7 0 1.3.2 1.7.5.4.3.6.8.6 1.4 0 .4-.1.8-.3 1-.1.2-.3.3-.6.4.4.1.7.3.9.6.2.3.3.6.3 1.1 0 .7-.2 1.2-.7 1.6-.4.4-1.1.6-1.9.6-.7.1-1.3-.1-1.7-.6zm5.6 1.5c.2 0 .4-.2.5-.5l.1-.4v-.2h-.5v-.9h1v1c0 .4-.1.7-.2 1-.2.3-.4.5-.8.5v-.5zm2.8-1.5c-.4-.5-.6-1-.6-1.7h.9c0 .5.1.8.3 1 .2.4.6.6 1.2.6.5 0 .8-.1 1.1-.4.3-.2.4-.6.4-1 0-.5-.1-.8-.4-1-.3-.2-.7-.3-1.2-.3h-.4v-.7h.4c.3 0 .6-.1.8-.2.4-.2.6-.5.6-1 0-.3-.1-.6-.4-.8s-.5-.3-.9-.3c-.6 0-1 .2-1.2.6-.1.2-.2.5-.2.9h-.9c0-.5.1-1 .3-1.3.4-.7 1-1 1.9-1 .7 0 1.3.2 1.7.5.4.3.6.8.6 1.4 0 .4-.1.8-.3 1-.1.2-.3.3-.6.4.4.1.7.3.9.6.2.3.3.6.3 1.1 0 .7-.2 1.2-.7 1.6-.4.4-1.1.6-1.9.6-.7.1-1.3-.1-1.7-.6zm5.7-3.6c-.3-.3-.4-.6-.4-1 0-.5.2-1 .6-1.3.4-.4.9-.6 1.6-.6.7 0 1.2.2 1.6.5s.6.8.6 1.2c0 .4-.1.8-.3 1.1-.1.2-.3.3-.6.5.3.1.5.3.7.5.3.3.5.8.5 1.3 0 .6-.2 1.1-.6 1.6s-1 .6-1.8.6c-.7 0-1.3-.2-1.7-.6-.5-.4-.7-.9-.7-1.6 0-.4.1-.8.3-1.1.2-.3.5-.5.9-.7-.3-.1-.5-.2-.7-.4zm2.9 3.2c.3-.2.4-.5.4-1s-.1-.8-.4-1-.6-.4-1.1-.4c-.4 0-.8.1-1 .4-.3.2-.4.6-.4 1s.1.7.4.9c.2.3.6.4 1.1.4.4 0 .7-.1 1-.3zm-.2-3.5c.2-.2.3-.5.3-.8 0-.3-.1-.5-.3-.7-.2-.2-.5-.3-1-.3-.4 0-.7.1-.9.3-.2.2-.3.5-.3.8 0 .3.1.6.4.8s.5.3.9.3c.4-.1.7-.2.9-.4zm2.6 2.8c.2-.4.6-.9 1.3-1.2l.9-.5c.4-.2.7-.5.9-.6.3-.3.4-.6.4-.9 0-.4-.1-.7-.4-1s-.6-.4-1-.4c-.6 0-1 .2-1.3.7-.1.2-.2.6-.2 1h-.9c0-.6.1-1.1.3-1.5.4-.7 1.1-1 2-1 .8 0 1.4.2 1.8.7.4.4.6.9.6 1.5s-.2 1-.6 1.4c-.2.2-.6.5-1.2.8l-.7.4c-.3.2-.6.3-.8.5-.3.3-.5.6-.6.9h3.8v.8h-4.8c.2-.6.3-1.1.5-1.6zm-23.7 11.4c.3.4.5.8.5 1.3h-.9c-.1-.3-.1-.5-.2-.7-.2-.3-.5-.4-1-.4s-.9.2-1.2.7c-.3.5-.5 1.1-.5 2 .2-.3.5-.5.8-.7.3-.1.6-.2.9-.2.6 0 1.1.2 1.5.6.4.4.7.9.7 1.7 0 .6-.2 1.2-.6 1.7-.4.5-1 .7-1.8.7-.7 0-1.2-.2-1.7-.7-.5-.5-.7-1.3-.7-2.5 0-.9.1-1.6.3-2.2.4-1.2 1.2-1.7 2.2-1.7.8-.2 1.4 0 1.7.4zm-.7 5.4c.2-.3.3-.7.3-1.1 0-.4-.1-.7-.3-1-.2-.3-.6-.5-1.1-.5-.4 0-.7.1-1 .4-.3.3-.4.6-.4 1.1 0 .4.1.8.4 1.1.3.3.6.5 1.1.5.5 0 .8-.2 1-.5zm2.9-.7c.1.5.3.9.7 1 .2.1.5.1.7.1.5 0 .9-.2 1.2-.5s.4-.7.4-1.1c0-.5-.1-.9-.4-1.1-.3-.3-.7-.4-1.1-.4-.3 0-.6.1-.8.2-.2.1-.4.3-.6.5h-.8l.5-3.8h3.6v.9h-3l-.3 2 .5-.3c.3-.1.6-.2.9-.2.6 0 1.2.2 1.6.6.4.4.7.9.7 1.6 0 .7-.2 1.2-.6 1.8-.4.5-1.1.8-2 .8-.6 0-1.1-.2-1.5-.5-.4-.3-.7-.8-.7-1.5h1zm9-4.7c.3.4.5.8.5 1.3h-.9c-.1-.3-.1-.5-.2-.7-.2-.3-.5-.4-1-.4s-.9.2-1.2.7c-.3.5-.5 1.1-.5 2 .2-.3.5-.5.8-.7.3-.1.6-.2.9-.2.6 0 1.1.2 1.5.6.4.4.7.9.7 1.7 0 .6-.2 1.2-.6 1.7-.4.5-1 .7-1.8.7-.7 0-1.2-.2-1.7-.7-.5-.5-.7-1.3-.7-2.5 0-.9.1-1.6.3-2.2.4-1.2 1.2-1.7 2.2-1.7.8-.2 1.3 0 1.7.4zm-.7 5.4c.2-.3.3-.7.3-1.1 0-.4-.1-.7-.3-1-.2-.3-.6-.5-1.1-.5-.4 0-.7.1-1 .4-.3.3-.4.6-.4 1.1 0 .4.1.8.4 1.1.3.3.6.5 1.1.5.4 0 .8-.2 1-.5zm2.5 2.1c.2 0 .4-.2.5-.5l.1-.4v-.2h-.6v-1.1h1v1c0 .4-.1.7-.2 1-.2.3-.4.5-.8.5v-.3zm3.2-2.8c.1.5.3.9.7 1 .2.1.5.1.7.1.5 0 .9-.2 1.2-.5.3-.3.4-.7.4-1.1 0-.5-.1-.9-.4-1.1-.3-.3-.7-.4-1.1-.4-.3 0-.6.1-.8.2-.2.1-.4.3-.6.5h-.8l.5-3.8h3.6v.9h-3l-.3 2 .5-.3c.3-.1.6-.2.9-.2.6 0 1.2.2 1.6.6s.7.9.7 1.6c0 .7-.2 1.2-.6 1.8-.4.5-1.1.8-2 .8-.6 0-1.1-.2-1.5-.5-.4-.3-.7-.8-.7-1.5h1zm7.7 1.8v-1.7h-3.1v-.9l3.2-4.5h.7v4.6h1v.8h-1v1.7h-.8zm0-2.5v-3.2l-2.2 3.2h2.2zm3 2c-.4-.5-.6-1-.6-1.7h.9c0 .5.1.8.3 1 .2.4.6.6 1.2.6.5 0 .8-.1 1.1-.4.3-.2.4-.6.4-1 0-.5-.1-.8-.4-1s-.7-.3-1.2-.3h-.4v-.8h.4c.3 0 .6-.1.8-.2.4-.2.6-.5.6-1 0-.3-.1-.6-.4-.8-.2-.2-.5-.3-.9-.3-.6 0-1 .2-1.2.6-.1.2-.2.5-.2.9h-.9c0-.5.1-1 .3-1.3.4-.7 1-1 1.9-1 .7 0 1.3.2 1.7.5.4.3.6.8.6 1.4 0 .4-.1.8-.3 1-.1.2-.3.3-.6.4.4.1.7.3.9.6.2.3.3.6.3 1.1 0 .7-.2 1.2-.7 1.6-.4.4-1.1.6-1.9.6-.7.2-1.3-.1-1.7-.5zm-25.9 9.7v.8c-.2.2-.5.6-.9 1.1-.4.5-.7 1.1-1 1.8-.3.6-.5 1.2-.6 1.7-.1.3-.2.8-.4 1.6h-1c.2-1.3.7-2.7 1.5-4 .4-.8.9-1.4 1.4-2h-3.9v-.9h4.9zm4.9.5c.3.4.5.8.5 1.3h-.9c-.1-.3-.1-.5-.2-.7-.2-.3-.5-.4-1-.4s-.9.2-1.2.7c-.3.5-.5 1.1-.5 2 .2-.3.5-.5.8-.7.3-.1.6-.2.9-.2.6 0 1.1.2 1.5.6.4.4.7.9.7 1.7 0 .6-.2 1.2-.6 1.7-.4.5-1 .7-1.8.7-.7 0-1.2-.2-1.7-.7-.5-.5-.7-1.3-.7-2.5 0-.9.1-1.6.3-2.2.4-1.2 1.2-1.7 2.2-1.7.8-.2 1.4 0 1.7.4zm-.7 5.4c.2-.3.3-.7.3-1.1 0-.4-.1-.7-.3-1-.2-.3-.6-.5-1.1-.5-.4 0-.7.1-1 .4-.3.3-.4.6-.4 1.1 0 .4.1.8.4 1.1.3.3.6.5 1.1.5.5-.1.8-.2 1-.5zm5 1v-1.7h-3.1v-.9l3.2-4.5h.7v4.6h1v.8h-1v1.7h-.8zm0-2.5v-3.2l-2.2 3.2h2.2zm3.1 3.6c.2 0 .4-.2.5-.5l.1-.4v-.2h-.5v-1.1h1v1c0 .4-.1.7-.2 1-.2.3-.4.5-.8.5v-.3zm2.8-1.6c-.4-.5-.6-1-.6-1.7h.9c0 .5.1.8.3 1 .2.4.6.6 1.2.6.5 0 .8-.1 1.1-.4.3-.2.4-.6.4-1 0-.5-.1-.8-.4-1-.3-.2-.7-.3-1.2-.3h-.4v-.8h.4c.3 0 .6-.1.8-.2.4-.2.6-.5.6-1 0-.3-.1-.6-.4-.8s-.5-.3-.9-.3c-.6 0-1 .2-1.2.6-.1.2-.2.5-.2.9h-.9c0-.5.1-1 .3-1.3.4-.7 1-1 1.9-1 .7 0 1.3.2 1.7.5.4.3.6.8.6 1.4 0 .4-.1.8-.3 1-.1.2-.3.3-.6.4.4.1.7.3.9.6.2.3.3.6.3 1.1 0 .7-.2 1.2-.7 1.6-.4.4-1.1.6-1.9.6-.8.2-1.4 0-1.7-.5zm10-6.4v.8c-.2.2-.5.6-.9 1.1-.4.5-.7 1.1-1 1.8-.3.6-.5 1.2-.6 1.7-.1.3-.2.8-.4 1.6h-1c.2-1.3.7-2.7 1.5-4 .4-.8.9-1.4 1.4-2h-3.9v-.9h4.9zm3.7 6.9v-1.7h-3.1v-.9l3.2-4.5h.7v4.6h1v.8h-1v1.7h-.8zm0-2.5v-3.2l-2.2 3.2h2.2zm-33.5 13.3v-.7c.6-.1 1.1-.2 1.3-.3.3-.1.4-.5.6-1h.7v7h-.9v-5h-1.7zm5.3 3.4c.2-.4.6-.9 1.3-1.2l.9-.5c.4-.2.7-.5.9-.6.3-.3.4-.6.4-.9 0-.4-.1-.7-.4-1s-.6-.4-1-.4c-.6 0-1 .2-1.3.7-.1.2-.2.6-.2 1h-.9c0-.6.1-1.1.3-1.5.4-.7 1.1-1 2-1 .8 0 1.4.2 1.8.7.4.4.6.9.6 1.5s-.2 1-.6 1.4c-.2.2-.6.5-1.2.8l-.7.4c-.3.2-.6.3-.8.5-.3.3-.5.6-.6.9h3.8v.8h-4.8c.1-.7.3-1.2.5-1.6zm5.8-3.4v-.7c.6-.1 1.1-.2 1.3-.3.3-.1.4-.5.6-1h.7v7h-.9v-5h-1.7zm5.5 6c.2 0 .4-.2.5-.5l.1-.4v-.2h-.5v-1.1h1v1c0 .4-.1.7-.2 1-.2.3-.4.5-.8.5v-.3zm7.2-7.9v.8c-.2.2-.5.6-.9 1.1-.4.5-.7 1.1-1 1.8-.3.6-.5 1.2-.6 1.7-.1.3-.2.8-.4 1.6h-1c.2-1.3.7-2.7 1.5-4 .4-.8.9-1.4 1.4-2h-3.9v-.9h4.9zm1.3 2.7c-.3-.3-.4-.6-.4-1 0-.5.2-1 .6-1.3.4-.4.9-.6 1.6-.6.7 0 1.2.2 1.6.5s.6.8.6 1.2c0 .4-.1.8-.3 1.1-.1.2-.3.3-.6.5.3.1.5.3.7.5.3.3.5.8.5 1.3 0 .6-.2 1.1-.6 1.6s-1 .6-1.8.6c-.7 0-1.3-.2-1.7-.6-.5-.4-.7-.9-.7-1.6 0-.4.1-.8.3-1.1.2-.3.5-.5.9-.7-.4-.1-.6-.2-.7-.4zm2.8 3.2c.3-.2.4-.5.4-1s-.1-.8-.4-1c-.3-.2-.6-.4-1.1-.4-.4 0-.8.1-1 .4-.3.2-.4.6-.4 1s.1.7.4.9c.2.3.6.4 1.1.4.4 0 .8-.1 1-.3zm-.1-3.5c.2-.2.3-.5.3-.8 0-.3-.1-.5-.3-.7-.2-.2-.5-.3-1-.3-.4 0-.7.1-.9.3-.2.2-.3.5-.3.8 0 .3.1.6.4.8.2.2.5.3.9.3s.7-.1.9-.4zm2.9.3c-.3-.3-.4-.6-.4-1 0-.5.2-1 .6-1.3.4-.4.9-.6 1.6-.6.7 0 1.2.2 1.6.5s.6.8.6 1.2c0 .4-.1.8-.3 1.1-.1.2-.3.3-.6.5.3.1.5.3.7.5.3.3.5.8.5 1.3 0 .6-.2 1.1-.6 1.6s-1 .6-1.8.6c-.7 0-1.3-.2-1.7-.6-.5-.4-.7-.9-.7-1.6 0-.4.1-.8.3-1.1.2-.3.5-.5.9-.7-.4-.1-.6-.2-.7-.4zm2.8 3.2c.3-.2.4-.5.4-1s-.1-.8-.4-1c-.3-.2-.6-.4-1.1-.4-.4 0-.8.1-1 .4-.3.2-.4.6-.4 1s.1.7.4.9c.2.3.6.4 1.1.4.4 0 .7-.1 1-.3zm-.1-3.5c.2-.2.3-.5.3-.8 0-.3-.1-.5-.3-.7-.2-.2-.5-.3-1-.3-.4 0-.7.1-.9.3-.2.2-.3.5-.3.8 0 .3.1.6.4.8.2.2.5.3.9.3.3 0 .6-.1.9-.4zm-33.4 15.9v-.7c.6-.1 1.1-.2 1.3-.3.3-.1.4-.5.6-1h.7v7h-.9v-5h-1.7zm4.8 0v-.7c.6-.1 1.1-.2 1.3-.3.3-.1.4-.5.6-1h.7v7h-.9v-5h-1.7zm6 3.2c0 .5.2.8.6 1 .2.1.4.1.6.1.4 0 .8-.2 1.1-.5.3-.4.5-1.1.6-2.1-.2.3-.4.5-.7.7s-.6.2-.9.2c-.7 0-1.2-.2-1.6-.6-.4-.4-.6-1-.6-1.6 0-.6.2-1.2.6-1.7.4-.5 1-.7 1.7-.7 1 0 1.7.5 2.1 1.4.2.5.3 1.1.3 1.9 0 .9-.1 1.6-.4 2.3-.4 1.1-1.2 1.7-2.2 1.7-.7 0-1.2-.2-1.6-.5s-.5-.8-.5-1.4h.9zm2.3-1.7c.3-.2.4-.6.4-1.2 0-.5-.1-.9-.4-1.2s-.6-.4-1-.4-.8.1-1 .4-.4.7-.4 1.2.1.8.3 1.1c.2.3.6.4 1.1.4.4 0 .7-.1 1-.3zm2.8 4.5c.2 0 .4-.2.5-.5l.1-.4v-.2h-.5v-1.1h1v1c0 .4-.1.7-.2 1-.2.3-.4.5-.8.5v-.3zm2.9-5.2c-.3-.3-.4-.6-.4-1 0-.5.2-1 .6-1.3.4-.4.9-.6 1.6-.6.7 0 1.2.2 1.6.5s.6.8.6 1.2c0 .4-.1.8-.3 1.1-.1.2-.3.3-.6.5.3.1.5.3.7.5.3.3.5.8.5 1.3 0 .6-.2 1.1-.6 1.6s-1 .6-1.8.6c-.7 0-1.3-.2-1.7-.6-.5-.4-.7-.9-.7-1.6 0-.4.1-.8.3-1.1.2-.3.5-.5.9-.7-.4-.1-.6-.2-.7-.4zm2.8 3.2c.3-.2.4-.5.4-1s-.1-.8-.4-1-.6-.4-1.1-.4c-.4 0-.8.1-1 .4-.3.2-.4.6-.4 1s.1.7.4.9c.2.3.6.4 1.1.4.4 0 .7-.1 1-.3zm-.1-3.5c.2-.2.3-.5.3-.8 0-.3-.1-.5-.3-.7-.2-.2-.5-.3-1-.3-.4 0-.7.1-.9.3-.2.2-.3.5-.3.8 0 .3.1.6.4.8s.5.3.9.3c.3 0 .6-.1.9-.4zm2.6 2.9c.2-.4.6-.9 1.3-1.2l.9-.5c.4-.2.7-.5.9-.6.3-.3.4-.6.4-.9 0-.4-.1-.7-.4-1s-.6-.4-1-.4c-.6 0-1 .2-1.3.7-.1.2-.2.6-.2 1h-.9c0-.6.1-1.1.3-1.5.4-.7 1.1-1 2-1 .8 0 1.4.2 1.8.7.4.4.6.9.6 1.5s-.2 1-.6 1.4c-.2.2-.6.5-1.2.8l-.7.4c-.3.2-.6.3-.8.5-.3.3-.5.6-.6.9h3.8v.8h-4.7c0-.7.2-1.2.4-1.6zm8.2 1.5v-1.7h-3.1v-.8l3.2-4.5h.7v4.6h1v.8h-1v1.7h-.8zm0-2.4v-3.2l-2.2 3.2h2.2zm-32.2 13v-.7c.6-.1 1.1-.2 1.3-.3.3-.1.4-.5.6-1h.7v7h-1v-5h-1.6zm9.8-1.9v.8c-.2.2-.5.6-.9 1.1-.4.5-.7 1.1-1 1.8-.3.6-.5 1.2-.6 1.7-.1.3-.2.8-.4 1.6h-1c.2-1.3.7-2.7 1.5-4 .4-.8.9-1.4 1.4-2h-3.9v-.9h4.9zm1.7 5.2c0 .5.2.8.6 1 .2.1.4.1.6.1.4 0 .8-.2 1.1-.5.3-.4.5-1.1.6-2.1-.2.3-.4.5-.7.7s-.6.2-.9.2c-.7 0-1.2-.2-1.6-.6-.4-.4-.6-1-.6-1.6 0-.6.2-1.2.6-1.7.4-.5 1-.7 1.7-.7 1 0 1.7.5 2.1 1.4.2.5.3 1.1.3 1.9 0 .9-.1 1.6-.4 2.3-.4 1.1-1.2 1.7-2.2 1.7-.7 0-1.2-.2-1.6-.5s-.5-.8-.5-1.4h.9zm2.3-1.8c.3-.2.4-.6.4-1.2 0-.5-.1-.9-.4-1.2s-.6-.4-1-.4-.8.1-1 .4-.4.7-.4 1.2.1.8.3 1.1c.2.3.6.4 1.1.4.4.1.7 0 1-.3zm2.8 4.5c.2 0 .4-.2.5-.5l.1-.4v-.2h-.6v-1h1v1c0 .4-.1.7-.2 1-.2.3-.4.5-.8.5v-.4zm5.3-1v-1.7h-3.1v-.9l3.2-4.5h.7v4.6h1v.8h-1v1.7h-.8zm0-2.5v-3.2l-2.2 3.2h2.2zm6.8-3.9c.3.4.5.8.5 1.3h-.9c-.1-.3-.1-.5-.2-.7-.2-.3-.5-.4-1-.4s-.9.2-1.2.7c-.3.5-.5 1.1-.5 2 .2-.3.5-.5.8-.7.3-.1.6-.2.9-.2.6 0 1.1.2 1.5.6.4.4.7.9.7 1.7 0 .6-.2 1.2-.6 1.7-.4.5-1 .7-1.8.7-.7 0-1.2-.2-1.7-.7-.5-.5-.7-1.3-.7-2.5 0-.9.1-1.6.3-2.2.4-1.2 1.2-1.7 2.2-1.7.8-.2 1.4 0 1.7.4zm-.7 5.3c.2-.3.3-.7.3-1.1 0-.4-.1-.7-.3-1-.2-.3-.6-.5-1.1-.5-.4 0-.7.1-1 .4-.3.3-.4.6-.4 1.1 0 .4.1.8.4 1.1.3.3.6.5 1.1.5.5 0 .8-.1 1-.5zm2.7-3.9v-.7c.6-.1 1.1-.2 1.3-.3.3-.1.4-.5.6-1h.7v7h-.9v-5h-1.7zm-31.1 19.1c.2-.4.6-.9 1.3-1.2l.9-.5c.4-.2.7-.5.9-.6.3-.3.4-.6.4-.9 0-.4-.1-.7-.4-1s-.6-.4-1-.4c-.6 0-1 .2-1.3.7-.1.2-.2.6-.2 1h-.9c0-.6.1-1.1.3-1.5.4-.7 1.1-1 2-1 .8 0 1.4.2 1.8.7.4.4.6.9.6 1.5s-.2 1-.6 1.4c-.2.2-.6.5-1.2.8l-.7.4c-.3.2-.6.3-.8.5-.3.3-.5.6-.6.9h3.8v.8h-4.8c.2-.6.3-1.2.5-1.6zm5.9-3.4v-.7c.6-.1 1.1-.2 1.3-.3.3-.1.4-.5.6-1h.7v7h-.9v-5h-1.7zm4.8 0v-.7c.6-.1 1.1-.2 1.3-.3.3-.1.4-.5.6-1h.7v7h-.9v-5h-1.7zm5.5 6c.2 0 .4-.2.5-.5l.1-.4v-.2h-.5v-1.1h1v1c0 .4-.1.7-.2 1-.2.3-.4.5-.8.5v-.3zm5.2-1v-1.7h-3.1v-.9l3.2-4.5h.7v4.6h1v.8h-1v1.7h-.8zm0-2.5v-3.2l-2.2 3.2h2.2zm7-3.4c.3.6.5 1.4.5 2.4s-.1 1.7-.4 2.4c-.4.9-1.1 1.3-2 1.3-.8 0-1.5-.4-1.9-1.1-.3-.6-.5-1.4-.5-2.5 0-.8.1-1.5.3-2.1.4-1.1 1.1-1.6 2.1-1.6.8.1 1.5.4 1.9 1.2zm-.9 4.7c.3-.4.4-1.2.4-2.3 0-.8-.1-1.5-.3-2s-.6-.8-1.1-.8c-.5 0-.9.2-1.1.7-.2.5-.4 1.2-.4 2.2 0 .7.1 1.3.2 1.7.2.7.6 1 1.2 1 .5.1.8-.1 1.1-.5zm2.6.7c-.4-.5-.6-1-.6-1.7h.9c0 .5.1.8.3 1 .2.4.6.6 1.2.6.5 0 .8-.1 1.1-.4.3-.2.4-.6.4-1 0-.5-.1-.8-.4-1s-.7-.3-1.2-.3h-.4v-.8h.4c.3 0 .6-.1.8-.2.4-.2.6-.5.6-1 0-.3-.1-.6-.4-.8-.2-.2-.5-.3-.9-.3-.6 0-1 .2-1.2.6-.1.2-.2.5-.2.9h-.9c0-.5.1-1 .3-1.3.4-.7 1-1 1.9-1 .7 0 1.3.2 1.7.5.4.3.6.8.6 1.4 0 .4-.1.8-.3 1-.1.2-.3.3-.6.4.4.1.7.3.9.6.2.3.3.6.3 1.1 0 .7-.2 1.2-.7 1.6-.4.4-1.1.6-1.9.6-.7.2-1.3-.1-1.7-.5zm-29.4 11.6v-.7c.6-.1 1.1-.2 1.3-.3.3-.1.4-.5.6-1h.7v7h-.9v-5h-1.7zm9.2-1.5c.3.4.5.8.5 1.3h-.9c-.1-.3-.1-.5-.2-.7-.2-.3-.5-.4-1-.4s-.9.2-1.2.7c-.3.5-.5 1.1-.5 2 .2-.3.5-.5.8-.7.3-.1.6-.2.9-.2.6 0 1.1.2 1.5.6.4.4.7.9.7 1.7 0 .6-.2 1.2-.6 1.7-.4.5-1 .7-1.8.7-.7 0-1.2-.2-1.7-.7-.5-.5-.7-1.3-.7-2.5 0-.9.1-1.6.3-2.2.4-1.2 1.2-1.7 2.2-1.7.8-.2 1.4 0 1.7.4zm-.7 5.4c.2-.3.3-.7.3-1.1 0-.4-.1-.7-.3-1-.2-.3-.6-.5-1.1-.5-.4 0-.7.1-1 .4-.3.3-.4.6-.4 1.1 0 .4.1.8.4 1.1.3.3.6.5 1.1.5.5 0 .8-.2 1-.5zm3-.6c0 .5.2.8.6 1 .2.1.4.1.6.1.4 0 .8-.2 1.1-.5.3-.4.5-1.1.6-2.1-.2.3-.4.5-.7.7s-.6.2-.9.2c-.7 0-1.2-.2-1.6-.6-.4-.4-.6-1-.6-1.6 0-.6.2-1.2.6-1.7.4-.5 1-.7 1.7-.7 1 0 1.7.5 2.1 1.4.2.5.3 1.1.3 1.9 0 .9-.1 1.6-.4 2.3-.4 1.1-1.2 1.7-2.2 1.7-.7 0-1.2-.2-1.6-.5-.4-.4-.5-.8-.5-1.4h.9zm2.3-1.8c.3-.2.4-.6.4-1.2 0-.5-.1-.9-.4-1.2s-.6-.4-1-.4-.8.1-1 .4c-.3.3-.4.7-.4 1.2s.1.8.3 1.1c.2.3.6.4 1.1.4.4 0 .7-.1 1-.3zm2.8 4.5c.2 0 .4-.2.5-.5l.1-.4v-.2h-.5v-1.1h1v1c0 .4-.1.7-.2 1-.2.3-.4.5-.8.5v-.3zm2.9-5.1c-.3-.3-.4-.6-.4-1 0-.5.2-1 .6-1.3.4-.4.9-.6 1.6-.6.7 0 1.2.2 1.6.5s.6.8.6 1.2c0 .4-.1.8-.3 1.1-.1.2-.3.3-.6.5.3.1.5.3.7.5.3.3.5.8.5 1.3 0 .6-.2 1.1-.6 1.6s-1 .6-1.8.6c-.7 0-1.3-.2-1.7-.6-.5-.4-.7-.9-.7-1.6 0-.4.1-.8.3-1.1.2-.3.5-.5.9-.7-.3-.2-.5-.3-.7-.4zm2.9 3.1c.3-.2.4-.5.4-1s-.1-.8-.4-1c-.3-.2-.6-.4-1.1-.4-.4 0-.8.1-1 .4-.3.2-.4.6-.4 1s.1.7.4.9c.2.3.6.4 1.1.4.4.1.7 0 1-.3zm-.2-3.4c.2-.2.3-.5.3-.8 0-.3-.1-.5-.3-.7-.2-.2-.5-.3-1-.3-.4 0-.7.1-.9.3-.2.2-.3.5-.3.8 0 .3.1.6.4.8.2.2.5.3.9.3.4-.1.7-.2.9-.4zm6.5-2.1c.3.4.5.8.5 1.3h-.9c-.1-.3-.1-.5-.2-.7-.2-.3-.5-.4-1-.4s-.9.2-1.2.7c-.3.5-.5 1.1-.5 2 .2-.3.5-.5.8-.7.3-.1.6-.2.9-.2.6 0 1.1.2 1.5.6.4.4.7.9.7 1.7 0 .6-.2 1.2-.6 1.7-.4.5-1 .7-1.8.7-.7 0-1.2-.2-1.7-.7-.5-.5-.7-1.3-.7-2.5 0-.9.1-1.6.3-2.2.4-1.2 1.2-1.7 2.2-1.7.9-.2 1.4 0 1.7.4zm-.6 5.4c.2-.3.3-.7.3-1.1 0-.4-.1-.7-.3-1-.2-.3-.6-.5-1.1-.5-.4 0-.7.1-1 .4-.3.3-.4.6-.4 1.1 0 .4.1.8.4 1.1.3.3.6.5 1.1.5.4 0 .7-.2 1-.5zm2.4.6c-.4-.5-.6-1-.6-1.7h.9c0 .5.1.8.3 1 .2.4.6.6 1.2.6.5 0 .8-.1 1.1-.4.3-.2.4-.6.4-1 0-.5-.1-.8-.4-1s-.7-.3-1.2-.3h-.4v-.8h.4c.3 0 .6-.1.8-.2.4-.2.6-.5.6-1 0-.3-.1-.6-.4-.8-.2-.2-.5-.3-.9-.3-.6 0-1 .2-1.2.6-.1.2-.2.5-.2.9h-.9c0-.5.1-1 .3-1.3.4-.7 1-1 1.9-1 .7 0 1.3.2 1.7.5.4.3.6.8.6 1.4 0 .4-.1.8-.3 1-.1.2-.3.3-.6.4.4.1.7.3.9.6.2.3.3.6.3 1.1 0 .7-.2 1.2-.7 1.6-.4.4-1.1.6-1.9.6-.7.2-1.3-.1-1.7-.5zm-25.6 14.7c.1.5.3.9.7 1 .2.1.5.1.7.1.5 0 .9-.2 1.2-.5.3-.3.4-.7.4-1.1 0-.5-.1-.9-.4-1.1-.3-.3-.7-.4-1.1-.4-.3 0-.6.1-.8.2-.2.1-.4.3-.6.5h-.8l.5-3.8h3.6v.9h-3l-.3 2 .5-.3c.3-.1.6-.2.9-.2.6 0 1.2.2 1.6.6s.7.9.7 1.6c0 .7-.2 1.2-.6 1.8-.4.5-1.1.8-2 .8-.6 0-1.1-.2-1.5-.5-.4-.3-.7-.8-.7-1.5h1zm5.2 2.8c.2 0 .4-.2.5-.5l.1-.4v-.2h-.5v-1.1h1v1c0 .4-.1.7-.2 1-.2.3-.4.5-.8.5v-.3zm6.6-6.9c.3.6.5 1.4.5 2.4s-.1 1.7-.4 2.4c-.4.9-1.1 1.3-2 1.3-.8 0-1.5-.4-1.9-1.1-.3-.6-.5-1.4-.5-2.5 0-.8.1-1.5.3-2.1.4-1.1 1.1-1.6 2.1-1.6.9.1 1.5.4 1.9 1.2zm-.9 4.7c.3-.4.4-1.2.4-2.3 0-.8-.1-1.5-.3-2s-.6-.8-1.1-.8c-.5 0-.9.2-1.1.7s-.4 1.2-.4 2.2c0 .7.1 1.3.2 1.7.2.7.6 1 1.2 1 .5.1.9-.1 1.1-.5zm5.1 1.2v-1.7h-3.1v-.9l3.2-4.5h.7v4.6h1v.8h-1v1.7h-.8zm0-2.5v-3.2l-2.2 3.2h2.2zm3.2-1.6c-.3-.3-.4-.6-.4-1 0-.5.2-1 .6-1.3.4-.4.9-.6 1.6-.6.7 0 1.2.2 1.6.5s.6.8.6 1.2c0 .4-.1.8-.3 1.1-.1.2-.3.3-.6.5.3.1.5.3.7.5.3.3.5.8.5 1.3 0 .6-.2 1.1-.6 1.6s-1 .6-1.8.6c-.7 0-1.3-.2-1.7-.6-.5-.4-.7-.9-.7-1.6 0-.4.1-.8.3-1.1.2-.3.5-.5.9-.7-.3-.2-.5-.3-.7-.4zm2.9 3.1c.3-.2.4-.5.4-1s-.1-.8-.4-1-.6-.4-1.1-.4c-.4 0-.8.1-1 .4-.3.2-.4.6-.4 1s.1.7.4.9c.2.3.6.4 1.1.4.4.1.7 0 1-.3zm-.2-3.4c.2-.2.3-.5.3-.8 0-.3-.1-.5-.3-.7-.2-.2-.5-.3-1-.3-.4 0-.7.1-.9.3-.2.2-.3.5-.3.8 0 .3.1.6.4.8s.5.3.9.3c.4-.1.7-.2.9-.4zm-22.5 18.9c.2-.4.6-.9 1.3-1.2l.9-.5c.4-.2.7-.5.9-.6.3-.3.4-.6.4-.9 0-.4-.1-.7-.4-1s-.6-.4-1-.4c-.6 0-1 .2-1.3.7-.1.2-.2.6-.2 1h-.9c0-.6.1-1.1.3-1.5.4-.7 1.1-1 2-1 .8 0 1.4.2 1.8.7s.6.9.6 1.5-.2 1-.6 1.4c-.2.2-.6.5-1.2.8l-.7.4c-.3.2-.6.3-.8.5-.3.3-.5.6-.6.9h3.8v.8h-4.8c.2-.6.3-1.2.5-1.6zm5.7 2.6c.2 0 .4-.2.5-.5l.1-.4v-.2h-.5v-1.1h1v1c0 .4-.1.7-.2 1-.2.3-.4.5-.8.5v-.3zm2.9-6v-.7c.6-.1 1.1-.2 1.3-.3.3-.1.4-.5.6-1h.7v7h-.9v-5h-1.7zm5.5 4.5c-.4-.5-.6-1-.6-1.7h.9c0 .5.1.8.3 1 .2.4.6.6 1.2.6.5 0 .8-.1 1.1-.4.3-.2.4-.6.4-1 0-.5-.1-.8-.4-1-.3-.2-.7-.3-1.2-.3h-.4v-.8h.4c.3 0 .6-.1.8-.2.4-.2.6-.5.6-1 0-.3-.1-.6-.4-.8s-.5-.3-.9-.3c-.6 0-1 .2-1.2.6-.1.2-.2.5-.2.9h-.9c0-.5.1-1 .3-1.3.4-.7 1-1 1.9-1 .7 0 1.3.2 1.7.5.4.3.6.8.6 1.4 0 .4-.1.8-.3 1-.1.2-.3.3-.6.4.4.1.7.3.9.6.2.3.3.6.3 1.1 0 .7-.2 1.2-.7 1.6-.4.4-1.1.6-1.9.6-.8.2-1.4-.1-1.7-.5zm5.7-3.6c-.3-.3-.4-.6-.4-1 0-.5.2-1 .6-1.3.4-.4.9-.6 1.6-.6.7 0 1.2.2 1.6.5s.6.8.6 1.2c0 .4-.1.8-.3 1.1-.1.2-.3.3-.6.5.3.1.5.3.7.5.3.3.5.8.5 1.3 0 .6-.2 1.1-.6 1.6s-1 .6-1.8.6c-.7 0-1.3-.2-1.7-.6-.5-.4-.7-.9-.7-1.6 0-.4.1-.8.3-1.1.2-.3.5-.5.9-.7-.4-.2-.6-.3-.7-.4zm2.8 3.1c.3-.2.4-.5.4-1s-.1-.8-.4-1-.6-.4-1.1-.4c-.4 0-.8.1-1 .4-.3.2-.4.6-.4 1s.1.7.4.9c.2.3.6.4 1.1.4.4.1.8 0 1-.3zm-.1-3.4c.2-.2.3-.5.3-.8 0-.3-.1-.5-.3-.7-.2-.2-.5-.3-1-.3-.4 0-.7.1-.9.3-.2.2-.3.5-.3.8 0 .3.1.6.4.8s.5.3.9.3c.4-.1.7-.2.9-.4zm-14.1 13.4v.8c-.2.2-.5.6-.9 1.1-.4.5-.7 1.1-1 1.8-.3.6-.5 1.2-.6 1.7-.1.3-.2.8-.4 1.6h-1c.2-1.3.7-2.7 1.5-4 .4-.8.9-1.4 1.4-2h-3.9v-1h4.9zm5 .4c.3.4.5.8.5 1.3h-.9c-.1-.3-.1-.5-.2-.7-.2-.3-.5-.4-1-.4s-.9.2-1.2.7c-.3.5-.5 1.1-.5 2 .2-.3.5-.5.8-.7.3-.1.6-.2.9-.2.6 0 1.1.2 1.5.6.4.4.7.9.7 1.7 0 .6-.2 1.2-.6 1.7-.4.5-1 .7-1.8.7-.7 0-1.2-.2-1.7-.7-.5-.5-.7-1.3-.7-2.5 0-.9.1-1.6.3-2.2.4-1.2 1.2-1.7 2.2-1.7.8-.2 1.3 0 1.7.4zm-.7 5.4c.2-.3.3-.7.3-1.1 0-.4-.1-.7-.3-1-.2-.3-.6-.5-1.1-.5-.4 0-.7.1-1 .4-.3.3-.4.6-.4 1.1 0 .4.1.8.4 1.1.3.3.6.5 1.1.5.4 0 .8-.2 1-.5zm3-.6c0 .5.2.8.6 1 .2.1.4.1.6.1.4 0 .8-.2 1.1-.5.3-.4.5-1.1.6-2.1-.2.3-.4.5-.7.7s-.6.2-.9.2c-.7 0-1.2-.2-1.6-.6-.4-.4-.6-1-.6-1.6 0-.6.2-1.2.6-1.7.4-.5 1-.7 1.7-.7 1 0 1.7.5 2.1 1.4.2.5.3 1.1.3 1.9 0 .9-.1 1.6-.4 2.3-.4 1.1-1.2 1.7-2.2 1.7-.7 0-1.2-.2-1.6-.5s-.5-.8-.5-1.4h.9zm2.3-1.8c.3-.2.4-.6.4-1.2 0-.5-.1-.9-.4-1.2s-.6-.4-1-.4-.8.1-1 .4-.4.7-.4 1.2.1.8.3 1.1c.2.3.6.4 1.1.4.4 0 .7-.1 1-.3zm-26.1 17.8c.2-.4.6-.9 1.3-1.2l.9-.5c.4-.2.7-.5.9-.6.3-.3.4-.6.4-.9 0-.4-.1-.7-.4-1s-.6-.4-1-.4c-.6 0-1 .2-1.3.7-.1.2-.2.6-.2 1h-.9c0-.6.1-1.1.3-1.5.4-.7 1.1-1 2-1 .8 0 1.4.2 1.8.7.4.4.6.9.6 1.5s-.2 1-.6 1.4c-.2.2-.6.5-1.2.8l-.7.4c-.3.2-.6.3-.8.5-.3.3-.5.6-.6.9h3.8v.8h-4.8c.2-.6.3-1.1.5-1.6zm5.8 2.6c.2 0 .4-.2.5-.5l.1-.4v-.2h-.5v-1.1h1v1c0 .4-.1.7-.2 1-.2.3-.4.5-.8.5v-.3zm5.3-1v-1.7h-3.1v-.9l3.2-4.5h.7v4.6h1v.8h-1v1.7h-.8zm-.1-2.5v-3.2l-2.2 3.2h2.2zm3.5.7c.1.5.3.9.7 1 .2.1.5.1.7.1.5 0 .9-.2 1.2-.5.3-.3.4-.7.4-1.1 0-.5-.1-.9-.4-1.1-.3-.3-.7-.4-1.1-.4-.3 0-.6.1-.8.2-.2.1-.4.3-.6.5h-.8l.5-3.8h3.6v.9h-3l-.3 2 .5-.3c.3-.1.6-.2.9-.2.6 0 1.2.2 1.6.6s.7.9.7 1.6c0 .7-.2 1.2-.6 1.8-.4.5-1.1.8-2 .8-.6 0-1.1-.2-1.5-.5-.4-.3-.7-.8-.7-1.5h1zm9-4.6c.3.4.5.8.5 1.3h-.9c-.1-.3-.1-.5-.2-.7-.2-.3-.5-.4-1-.4s-.9.2-1.2.7c-.3.5-.5 1.1-.5 2 .2-.3.5-.5.8-.7.3-.1.6-.2.9-.2.6 0 1.1.2 1.5.6.4.4.7.9.7 1.7 0 .6-.2 1.2-.6 1.7-.4.5-1 .7-1.8.7-.7 0-1.2-.2-1.7-.7-.5-.5-.7-1.3-.7-2.5 0-.9.1-1.6.3-2.2.4-1.2 1.2-1.7 2.2-1.7.8-.2 1.4 0 1.7.4zm-.7 5.3c.2-.3.3-.7.3-1.1 0-.4-.1-.7-.3-1-.2-.3-.6-.5-1.1-.5-.4 0-.7.1-1 .4-.3.3-.4.6-.4 1.1 0 .4.1.8.4 1.1.3.3.6.5 1.1.5.4 0 .8-.1 1-.5zm2.5 2.1c.2 0 .4-.2.5-.5l.1-.4v-.2h-.5v-1.1h1v1c0 .4-.1.7-.2 1-.2.3-.4.5-.8.5v-.3zm2.9-5.1c-.3-.3-.4-.6-.4-1 0-.5.2-1 .6-1.3.4-.4.9-.6 1.6-.6.7 0 1.2.2 1.6.5s.6.8.6 1.2c0 .4-.1.8-.3 1.1-.1.2-.3.3-.6.5.3.1.5.3.7.5.3.3.5.8.5 1.3 0 .6-.2 1.1-.6 1.6s-1 .6-1.8.6c-.7 0-1.3-.2-1.7-.6-.5-.4-.7-.9-.7-1.6 0-.4.1-.8.3-1.1.2-.3.5-.5.9-.7-.4-.1-.5-.2-.7-.4zm2.9 3.2c.3-.2.4-.5.4-1s-.1-.8-.4-1-.6-.4-1.1-.4c-.4 0-.8.1-1 .4-.3.2-.4.6-.4 1s.1.7.4.9c.2.3.6.4 1.1.4.4 0 .7-.1 1-.3zm-.2-3.5c.2-.2.3-.5.3-.8 0-.3-.1-.5-.3-.7-.2-.2-.5-.3-1-.3-.4 0-.7.1-.9.3-.2.2-.3.5-.3.8 0 .3.1.6.4.8s.5.3.9.3c.4-.1.7-.2.9-.4zm7.2-2.5v.8c-.2.2-.5.6-.9 1.1-.4.5-.7 1.1-1 1.8-.3.6-.5 1.2-.6 1.7-.1.3-.2.8-.4 1.6h-1c.2-1.3.7-2.7 1.5-4 .4-.8.9-1.4 1.4-2h-3.9v-.9h4.9zm4.9.5c.3.4.5.8.5 1.3h-.9c-.1-.3-.1-.5-.2-.7-.2-.3-.5-.4-1-.4s-.9.2-1.2.7c-.3.5-.5 1.1-.5 2 .2-.3.5-.5.8-.7.3-.1.6-.2.9-.2.6 0 1.1.2 1.5.6.4.4.7.9.7 1.7 0 .6-.2 1.2-.6 1.7-.4.5-1 .7-1.8.7-.7 0-1.2-.2-1.7-.7-.5-.5-.7-1.3-.7-2.5 0-.9.1-1.6.3-2.2.4-1.2 1.2-1.7 2.2-1.7.8-.2 1.4 0 1.7.4zm-.7 5.3c.2-.3.3-.7.3-1.1 0-.4-.1-.7-.3-1-.2-.3-.6-.5-1.1-.5-.4 0-.7.1-1 .4-.3.3-.4.6-.4 1.1 0 .4.1.8.4 1.1.3.3.6.5 1.1.5.5 0 .8-.1 1-.5z"/><path class="st1" d="M308.5 66.2h-28.2c-2.1 0-3.8 1.7-3.8 3.8v6.3c0 2.1 1.7 3.8 3.8 3.8h28.2c2.1 0 3.8-1.7 3.8-3.8v-6.3c.1-2.1-1.7-3.8-3.8-3.8zm0 16h-28.2c-2.1 0-3.8 1.7-3.8 3.8v6.3c0 2.1 1.7 3.8 3.8 3.8h28.2c2.1 0 3.8-1.7 3.8-3.8v-6.3c.1-2.1-1.7-3.8-3.8-3.8zm0 15.8h-28.2c-2.1 0-3.8 1.7-3.8 3.8v6.3c0 2.1 1.7 3.8 3.8 3.8h28.2c2.1 0 3.8-1.7 3.8-3.8v-6.3c.1-2.1-1.7-3.8-3.8-3.8zm0 32.2h-28.2c-2.1 0-3.8 1.7-3.8 3.8v6.3c0 2.1 1.7 3.8 3.8 3.8h28.2c2.1 0 3.8-1.7 3.8-3.8v-6.3c.1-2.1-1.7-3.8-3.8-3.8zm0-16.2h-28.2c-2.1 0-3.8 1.7-3.8 3.8v6.3c0 2.1 1.7 3.8 3.8 3.8h28.2c2.1 0 3.8-1.7 3.8-3.8v-6.3c.1-2.1-1.7-3.8-3.8-3.8zm0 32.2h-28.2c-2.1 0-3.8 1.7-3.8 3.8v6.3c0 2.1 1.7 3.8 3.8 3.8h28.2c2.1 0 3.8-1.7 3.8-3.8v-6.3c.1-2.1-1.7-3.8-3.8-3.8zm0 63.5h-28.2c-2.1 0-3.8 1.7-3.8 3.8v6.3c0 2.1 1.7 3.8 3.8 3.8h28.2c2.1 0 3.8-1.7 3.8-3.8v-6.3c.1-2.1-1.7-3.8-3.8-3.8zm0 31.8h-28.2c-2.1 0-3.8 1.7-3.8 3.8v6.3c0 2.1 1.7 3.8 3.8 3.8h28.2c2.1 0 3.8-1.7 3.8-3.8v-6.3c.1-2.1-1.7-3.8-3.8-3.8zm0-15.8h-28.2c-2.1 0-3.8 1.7-3.8 3.8v6.3c0 2.1 1.7 3.8 3.8 3.8h28.2c2.1 0 3.8-1.7 3.8-3.8v-6.3c.1-2.1-1.7-3.8-3.8-3.8zm0 32.1h-28.2c-2.1 0-3.8 1.7-3.8 3.8v6.3c0 2.1 1.7 3.8 3.8 3.8h28.2c2.1 0 3.8-1.7 3.8-3.8v-6.3c.1-2-1.7-3.8-3.8-3.8zm0 31.8h-28.2c-2.1 0-3.8 1.7-3.8 3.8v6.3c0 2.1 1.7 3.8 3.8 3.8h28.2c2.1 0 3.8-1.7 3.8-3.8v-6.3c.1-2.1-1.7-3.8-3.8-3.8zm0-15.8h-28.2c-2.1 0-3.8 1.7-3.8 3.8v6.3c0 2.1 1.7 3.8 3.8 3.8h28.2c2.1 0 3.8-1.7 3.8-3.8v-6.3c.1-2.1-1.7-3.8-3.8-3.8zm0-111.8h-28.2c-2.1 0-3.8 1.7-3.8 3.8v6.3c0 2.1 1.7 3.8 3.8 3.8h28.2c2.1 0 3.8-1.7 3.8-3.8v-6.3c.1-2.1-1.7-3.8-3.8-3.8zm0 31.8h-28.2c-2.1 0-3.8 1.7-3.8 3.8v6.3c0 2.1 1.7 3.8 3.8 3.8h28.2c2.1 0 3.8-1.7 3.8-3.8v-6.3c.1-2.1-1.7-3.8-3.8-3.8zm0-15.8h-28.2c-2.1 0-3.8 1.7-3.8 3.8v6.3c0 2.1 1.7 3.8 3.8 3.8h28.2c2.1 0 3.8-1.7 3.8-3.8v-6.3c.1-2.1-1.7-3.8-3.8-3.8z"/><path d="M165.4 90.7c0 .5.2.8.6 1 .2.1.4.1.6.1.4 0 .8-.2 1.1-.5.3-.4.5-1.1.6-2.1-.2.3-.4.5-.7.7s-.6.2-.9.2c-.7 0-1.2-.2-1.6-.6-.4-.4-.6-1-.6-1.6 0-.6.2-1.2.6-1.7.4-.5 1-.7 1.7-.7 1 0 1.7.5 2.1 1.4.2.5.3 1.1.3 1.9 0 .9-.1 1.6-.4 2.3-.4 1.1-1.2 1.7-2.2 1.7-.7 0-1.2-.2-1.6-.5s-.5-.8-.5-1.4h.9zm2.3-1.8c.3-.2.4-.6.4-1.2 0-.5-.1-.9-.4-1.2s-.6-.4-1-.4-.8.1-1 .4-.4.7-.4 1.2.1.8.3 1.1c.2.3.6.4 1.1.4.4 0 .7-.1 1-.3zm5.3 3.5v-1.7h-3.1v-.9l3.2-4.5h.7v4.6h1v.8h-1v1.7h-.8zm0-2.5v-3.2l-2.2 3.2h2.2zm-7.7 14.2c-.3-.3-.4-.6-.4-1 0-.5.2-1 .6-1.3.4-.4.9-.6 1.6-.6.7 0 1.2.2 1.6.5s.6.8.6 1.2c0 .4-.1.8-.3 1.1-.1.2-.3.3-.6.5.3.1.5.3.7.5.3.3.5.8.5 1.3 0 .6-.2 1.1-.6 1.6s-1 .6-1.8.6c-.7 0-1.3-.2-1.7-.6-.5-.4-.7-.9-.7-1.6 0-.4.1-.8.3-1.1.2-.3.5-.5.9-.7-.4-.1-.6-.2-.7-.4zm2.8 3.2c.3-.2.4-.5.4-1s-.1-.8-.4-1-.6-.4-1.1-.4c-.4 0-.8.1-1 .4-.3.2-.4.6-.4 1s.1.7.4.9c.2.3.6.4 1.1.4.4 0 .7-.1 1-.3zm-.1-3.5c.2-.2.3-.5.3-.8 0-.3-.1-.5-.3-.7-.2-.2-.5-.3-1-.3-.4 0-.7.1-.9.3-.2.2-.3.5-.3.8 0 .3.1.6.4.8s.5.3.9.3c.3 0 .6-.2.9-.4zm3.2 2.7c0 .5.2.8.6 1 .2.1.4.1.6.1.4 0 .8-.2 1.1-.5.3-.4.5-1.1.6-2.1-.2.3-.4.5-.7.7s-.6.2-.9.2c-.7 0-1.2-.2-1.6-.6-.4-.4-.6-1-.6-1.6 0-.6.2-1.2.6-1.7.4-.5 1-.7 1.7-.7 1 0 1.7.5 2.1 1.4.2.5.3 1.1.3 1.9 0 .9-.1 1.6-.4 2.3-.4 1.1-1.2 1.7-2.2 1.7-.7 0-1.2-.2-1.6-.5-.4-.4-.5-.8-.5-1.4h.9zm2.3-1.8c.3-.2.4-.6.4-1.2 0-.5-.1-.9-.4-1.2s-.6-.4-1-.4-.8.1-1 .4c-.3.3-.4.7-.4 1.2s.1.8.3 1.1c.2.3.6.4 1.1.4.4.1.7 0 1-.3zm-8.1 15.1c-.3-.3-.4-.6-.4-1 0-.5.2-1 .6-1.3.4-.4.9-.6 1.6-.6.7 0 1.2.2 1.6.5s.6.8.6 1.2c0 .4-.1.8-.3 1.1-.1.2-.3.3-.6.5.3.1.5.3.7.5.3.3.5.8.5 1.3 0 .6-.2 1.1-.6 1.6s-1 .6-1.8.6c-.7 0-1.3-.2-1.7-.6-.5-.4-.7-.9-.7-1.6 0-.4.1-.8.3-1.1.2-.3.5-.5.9-.7-.4-.1-.6-.2-.7-.4zm2.8 3.2c.3-.2.4-.5.4-1s-.1-.8-.4-1-.6-.4-1.1-.4c-.4 0-.8.1-1 .4-.3.2-.4.6-.4 1s.1.7.4.9c.2.3.6.4 1.1.4.4 0 .7-.1 1-.3zm-.2-3.5c.2-.2.3-.5.3-.8 0-.3-.1-.5-.3-.7-.2-.2-.5-.3-1-.3-.4 0-.7.1-.9.3-.2.2-.3.5-.3.8 0 .3.1.6.4.8s.5.3.9.3.7-.2.9-.4zm6.6-2c.3.4.5.8.5 1.3h-.9c-.1-.3-.1-.5-.2-.7-.2-.3-.5-.4-1-.4s-.9.2-1.2.7c-.3.5-.5 1.1-.5 2 .2-.3.5-.5.8-.7.3-.1.6-.2.9-.2.6 0 1.1.2 1.5.6.4.4.7.9.7 1.7 0 .6-.2 1.2-.6 1.7-.4.5-1 .7-1.8.7-.7 0-1.2-.2-1.7-.7-.5-.5-.7-1.3-.7-2.5 0-.9.1-1.6.3-2.2.4-1.2 1.2-1.7 2.2-1.7.8-.2 1.3 0 1.7.4zm-.7 5.4c.2-.3.3-.7.3-1.1 0-.4-.1-.7-.3-1-.2-.3-.6-.5-1.1-.5-.4 0-.7.1-1 .4-.3.3-.4.6-.4 1.1 0 .4.1.8.4 1.1.3.3.6.5 1.1.5.4-.1.8-.2 1-.5zm-4.8 10.8c.3.4.5.8.5 1.3h-.9c-.1-.3-.1-.5-.2-.7-.2-.3-.5-.4-1-.4s-.9.2-1.2.7c-.3.5-.5 1.1-.5 2 .2-.3.5-.5.8-.7.3-.1.6-.2.9-.2.6 0 1.1.2 1.5.6.4.4.7.9.7 1.7 0 .6-.2 1.2-.6 1.7-.4.5-1 .7-1.8.7-.7 0-1.2-.2-1.7-.7-.5-.5-.7-1.3-.7-2.5 0-.9.1-1.6.3-2.2.4-1.2 1.2-1.7 2.2-1.7.8-.2 1.4 0 1.7.4zm-.7 5.4c.2-.3.3-.7.3-1.1 0-.4-.1-.7-.3-1-.2-.3-.6-.5-1.1-.5-.4 0-.7.1-1 .4-.3.3-.4.6-.4 1.1 0 .4.1.8.4 1.1.3.3.6.5 1.1.5.4 0 .8-.2 1-.5zm2.6-3c-.3-.3-.4-.6-.4-1 0-.5.2-1 .6-1.3.4-.4.9-.6 1.6-.6.7 0 1.2.2 1.6.5s.6.8.6 1.2c0 .4-.1.8-.3 1.1-.1.2-.3.3-.6.5.3.1.5.3.7.5.3.3.5.8.5 1.3 0 .6-.2 1.1-.6 1.6s-1 .6-1.8.6c-.7 0-1.3-.2-1.7-.6-.5-.4-.7-.9-.7-1.6 0-.4.1-.8.3-1.1.2-.3.5-.5.9-.7-.3-.2-.5-.3-.7-.4zm2.9 3.1c.3-.2.4-.5.4-1s-.1-.8-.4-1c-.3-.2-.6-.4-1.1-.4-.4 0-.8.1-1 .4-.3.2-.4.6-.4 1s.1.7.4.9c.2.3.6.4 1.1.4.4.1.7 0 1-.3zm-.2-3.4c.2-.2.3-.5.3-.8 0-.3-.1-.5-.3-.7-.2-.2-.5-.3-1-.3-.4 0-.7.1-.9.3-.2.2-.3.5-.3.8 0 .3.1.6.4.8.2.2.5.3.9.3.4-.1.7-.2.9-.4zm-4.1 13.4v.8c-.2.2-.5.6-.9 1.1-.4.5-.7 1.1-1 1.8-.3.6-.5 1.2-.6 1.7-.1.3-.2.8-.4 1.6h-1c.2-1.3.7-2.7 1.5-4 .4-.8.9-1.4 1.4-2h-3.9v-.9h4.9zm3.6 6.9v-1.7h-3.1v-.9l3.2-4.5h.7v4.6h1v.8h-1v1.7h-.8zm0-2.5v-3.2l-2.2 3.2h2.2zm-3.6 12.1v.8c-.2.2-.5.6-.9 1.1-.4.5-.7 1.1-1 1.8-.3.6-.5 1.2-.6 1.7-.1.3-.2.8-.4 1.6h-1c.2-1.3.7-2.7 1.5-4 .4-.8.9-1.4 1.4-2h-3.9v-.9h4.9zm1.3 2.8c-.3-.3-.4-.6-.4-1 0-.5.2-1 .6-1.3.4-.4.9-.6 1.6-.6.7 0 1.2.2 1.6.5s.6.8.6 1.2c0 .4-.1.8-.3 1.1-.1.2-.3.3-.6.5.3.1.5.3.7.5.3.3.5.8.5 1.3 0 .6-.2 1.1-.6 1.6s-1 .6-1.8.6c-.7 0-1.3-.2-1.7-.6-.5-.4-.7-.9-.7-1.6 0-.4.1-.8.3-1.1.2-.3.5-.5.9-.7-.4-.2-.6-.3-.7-.4zm2.8 3.1c.3-.2.4-.5.4-1s-.1-.8-.4-1c-.3-.2-.6-.4-1.1-.4-.4 0-.8.1-1 .4-.3.2-.4.6-.4 1s.1.7.4.9c.2.3.6.4 1.1.4.4.1.7 0 1-.3zm-.2-3.4c.2-.2.3-.5.3-.8 0-.3-.1-.5-.3-.7-.2-.2-.5-.3-1-.3-.4 0-.7.1-.9.3-.2.2-.3.5-.3.8 0 .3.1.6.4.8.2.2.5.3.9.3.4-.1.7-.2.9-.4zm-3.8 13.4v.8c-.2.2-.5.6-.9 1.1-.4.5-.7 1.1-1 1.8-.3.6-.5 1.2-.6 1.7-.1.3-.2.8-.4 1.6h-1c.2-1.3.7-2.7 1.5-4 .4-.8.9-1.4 1.4-2h-3.9v-.9h4.9zm1.1 5.4c.2-.4.6-.9 1.3-1.2l.9-.5c.4-.2.7-.5.9-.6.3-.3.4-.6.4-.9 0-.4-.1-.7-.4-1s-.6-.4-1-.4c-.6 0-1 .2-1.3.7-.1.2-.2.6-.2 1h-.9c0-.6.1-1.1.3-1.5.4-.7 1.1-1 2-1 .8 0 1.4.2 1.8.7.4.4.6.9.6 1.5s-.2 1-.6 1.4c-.2.2-.6.5-1.2.8l-.7.4c-.3.2-.6.3-.8.5-.3.3-.5.6-.6.9h3.8v.8h-4.8c.1-.7.2-1.2.5-1.6zm-1.1 10.2v.8c-.2.2-.5.6-.9 1.1-.4.5-.7 1.1-1 1.8-.3.6-.5 1.2-.6 1.7-.1.3-.2.8-.4 1.6h-1c.2-1.3.7-2.7 1.5-4 .4-.8.9-1.4 1.4-2h-3.9v-.9h4.9zm1.7 5.2c0 .5.2.8.6 1 .2.1.4.1.6.1.4 0 .8-.2 1.1-.5.3-.4.5-1.1.6-2.1-.2.3-.4.5-.7.7s-.6.2-.9.2c-.7 0-1.2-.2-1.6-.6-.4-.4-.6-1-.6-1.6 0-.6.2-1.2.6-1.7.4-.5 1-.7 1.7-.7 1 0 1.7.5 2.1 1.4.2.5.3 1.1.3 1.9 0 .9-.1 1.6-.4 2.3-.4 1.1-1.2 1.7-2.2 1.7-.7 0-1.2-.2-1.6-.5s-.5-.8-.5-1.4h.9zm2.3-1.8c.3-.2.4-.6.4-1.2 0-.5-.1-.9-.4-1.2s-.6-.4-1-.4-.8.1-1 .4-.4.7-.4 1.2.1.8.3 1.1c.2.3.6.4 1.1.4.4.1.7 0 1-.3zm-8.4 15.1c-.3-.3-.4-.6-.4-1 0-.5.2-1 .6-1.3.4-.4.9-.6 1.6-.6.7 0 1.2.2 1.6.5s.6.8.6 1.2c0 .4-.1.8-.3 1.1-.1.2-.3.3-.6.5.3.1.5.3.7.5.3.3.5.8.5 1.3 0 .6-.2 1.1-.6 1.6s-1 .6-1.8.6c-.7 0-1.3-.2-1.7-.6-.5-.4-.7-.9-.7-1.6 0-.4.1-.8.3-1.1.2-.3.5-.5.9-.7-.4-.2-.6-.3-.7-.4zm2.8 3.1c.3-.2.4-.5.4-1s-.1-.8-.4-1c-.3-.2-.6-.4-1.1-.4-.4 0-.8.1-1 .4-.3.2-.4.6-.4 1s.1.7.4.9c.2.3.6.4 1.1.4.4.1.7 0 1-.3zm-.1-3.4c.2-.2.3-.5.3-.8 0-.3-.1-.5-.3-.7-.2-.2-.5-.3-1-.3-.4 0-.7.1-.9.3-.2.2-.3.5-.3.8 0 .3.1.6.4.8.2.2.5.3.9.3.3-.1.6-.2.9-.4zm2.9-.6v-.7c.6-.1 1.1-.2 1.3-.3.3-.1.4-.5.6-1h.7v7h-.9v-5h-1.7zm-1.3 14.7v.8c-.2.2-.5.6-.9 1.1-.4.5-.7 1.1-1 1.8-.3.6-.5 1.2-.6 1.7-.1.3-.2.8-.4 1.6h-1c.2-1.3.7-2.7 1.5-4 .4-.8.9-1.4 1.4-2h-3.9v-.9h4.9zm5.5 0v.8c-.2.2-.5.6-.9 1.1-.4.5-.7 1.1-1 1.8-.3.6-.5 1.2-.6 1.7-.1.3-.2.8-.4 1.6h-1c.2-1.3.7-2.7 1.5-4 .4-.8.9-1.4 1.4-2h-3.9v-.9h4.9zm-5.5 31.6v.8c-.2.2-.5.6-.9 1.1-.4.5-.7 1.1-1 1.8-.3.6-.5 1.2-.6 1.7-.1.3-.2.8-.4 1.6h-1c.2-1.3.7-2.7 1.5-4 .4-.8.9-1.4 1.4-2h-3.9v-.9h4.9zm5.5 0v.8c-.2.2-.5.6-.9 1.1-.4.5-.7 1.1-1 1.8-.3.6-.5 1.2-.6 1.7-.1.3-.2.8-.4 1.6h-1c.2-1.3.7-2.7 1.5-4 .4-.8.9-1.4 1.4-2h-3.9v-.9h4.9zm-5.4-16.1v.8c-.2.2-.5.6-.9 1.1-.4.5-.7 1.1-1 1.8-.3.6-.5 1.2-.6 1.7-.1.3-.2.8-.4 1.6h-1c.2-1.3.7-2.7 1.5-4 .4-.8.9-1.4 1.4-2h-3.9v-1h4.9zm1.3 1.9v-.7c.6-.1 1.1-.2 1.3-.3.3-.1.4-.5.6-1h.7v7h-.9v-5h-1.7zm-1.4 30.4v.8c-.2.2-.5.6-.9 1.1-.4.5-.7 1.1-1 1.8-.3.6-.5 1.2-.6 1.7-.1.3-.2.8-.4 1.6h-1c.2-1.3.7-2.7 1.5-4 .4-.8.9-1.4 1.4-2h-3.9v-.9h4.9zm1.2 6.5c-.4-.5-.6-1-.6-1.7h.9c0 .5.1.8.3 1 .2.4.6.6 1.2.6.5 0 .8-.1 1.1-.4.3-.2.4-.6.4-1 0-.5-.1-.8-.4-1-.3-.2-.7-.3-1.2-.3h-.4v-.8h.4c.3 0 .6-.1.8-.2.4-.2.6-.5.6-1 0-.3-.1-.6-.4-.8s-.5-.3-.9-.3c-.6 0-1 .2-1.2.6-.1.2-.2.5-.2.9h-.9c0-.5.1-1 .3-1.3.4-.7 1-1 1.9-1 .7 0 1.3.2 1.7.5.4.3.6.8.6 1.4 0 .4-.1.8-.3 1-.1.2-.3.3-.6.4.4.1.7.3.9.6.2.3.3.6.3 1.1 0 .7-.2 1.2-.7 1.6-.4.4-1.1.6-1.9.6-.7.1-1.3-.1-1.7-.5zm-1.2 9.6v.8c-.2.2-.5.6-.9 1.1-.4.5-.7 1.1-1 1.8-.3.6-.5 1.2-.6 1.7-.1.3-.2.8-.4 1.6h-1c.2-1.3.7-2.7 1.5-4 .4-.8.9-1.4 1.4-2h-3.9v-.9h4.9zm3.6 6.9v-1.7h-3.1v-.9l3.2-4.5h.7v4.6h1v.8h-1v1.7h-.8zm0-2.5v-3.2l-2.2 3.2h2.2zm-4.3-227.4c.3.4.5.8.5 1.3h-.9c-.1-.3-.1-.5-.2-.7-.2-.3-.5-.4-1-.4s-.9.2-1.2.7c-.3.5-.5 1.1-.5 2 .2-.3.5-.5.8-.7.3-.1.6-.2.9-.2.6 0 1.1.2 1.5.6.4.4.7.9.7 1.7 0 .6-.2 1.2-.6 1.7-.4.5-1 .7-1.8.7-.7 0-1.2-.2-1.7-.7-.5-.5-.7-1.3-.7-2.5 0-.9.1-1.6.3-2.2.4-1.2 1.2-1.7 2.2-1.7.9-.2 1.4 0 1.7.4zm-.6 5.4c.2-.3.3-.7.3-1.1 0-.4-.1-.7-.3-1-.2-.3-.6-.5-1.1-.5-.4 0-.7.1-1 .4-.3.3-.4.6-.4 1.1 0 .4.1.8.4 1.1.3.3.6.5 1.1.5.4 0 .7-.2 1-.5zm2.9-.7c.1.5.3.9.7 1 .2.1.5.1.7.1.5 0 .9-.2 1.2-.5.3-.3.4-.7.4-1.1 0-.5-.1-.9-.4-1.1-.3-.3-.7-.4-1.1-.4-.3 0-.6.1-.8.2-.2.1-.4.3-.6.5h-.8l.5-3.8h3.6v.9h-3l-.3 2 .5-.3c.3-.1.6-.2.9-.2.6 0 1.2.2 1.6.6s.7.9.7 1.6c0 .7-.2 1.2-.6 1.8-.4.5-1.1.8-2 .8-.6 0-1.1-.2-1.5-.5-.4-.3-.7-.8-.7-1.5h1zm37 1.3c-.4-.5-.6-1-.6-1.7h.9c0 .5.1.8.3 1 .2.4.6.6 1.2.6.5 0 .8-.1 1.1-.4.3-.2.4-.6.4-1 0-.5-.1-.8-.4-1-.3-.2-.7-.3-1.2-.3h-.4v-.8h.4c.3 0 .6-.1.8-.2.4-.2.6-.5.6-1 0-.3-.1-.6-.4-.8s-.5-.3-.9-.3c-.6 0-1 .2-1.2.6-.1.2-.2.5-.2.9h-.9c0-.5.1-1 .3-1.3.4-.7 1-1 1.9-1 .7 0 1.3.2 1.7.5.4.3.6.8.6 1.4 0 .4-.1.8-.3 1-.1.2-.3.3-.6.4.4.1.7.3.9.6.2.3.3.6.3 1.1 0 .7-.2 1.2-.7 1.6-.4.4-1.1.6-1.9.6-.7.2-1.3-.1-1.7-.5zm6.1-1.3c.1.5.3.9.7 1 .2.1.5.1.7.1.5 0 .9-.2 1.2-.5s.4-.7.4-1.1c0-.5-.1-.9-.4-1.1-.3-.3-.7-.4-1.1-.4-.3 0-.6.1-.8.2-.2.1-.4.3-.6.5h-.8l.5-3.8h3.6v.9h-3l-.3 2 .5-.3c.3-.1.6-.2.9-.2.6 0 1.2.2 1.6.6.4.4.7.9.7 1.6 0 .7-.2 1.2-.6 1.8-.4.5-1.1.8-2 .8-.6 0-1.1-.2-1.5-.5-.4-.3-.7-.8-.7-1.5h1zm39 1.8v-1.7h-3.1v-.9l3.2-4.5h.7v4.6h1v.8h-1v1.7h-.8zm0-2.5v-3.2l-2.2 3.2h2.2zm3.6.8c0 .5.2.8.6 1 .2.1.4.1.6.1.4 0 .8-.2 1.1-.5.3-.4.5-1.1.6-2.1-.2.3-.4.5-.7.7s-.6.2-.9.2c-.7 0-1.2-.2-1.6-.6-.4-.4-.6-1-.6-1.6 0-.6.2-1.2.6-1.7.4-.5 1-.7 1.7-.7 1 0 1.7.5 2.1 1.4.2.5.3 1.1.3 1.9 0 .9-.1 1.6-.4 2.3-.4 1.1-1.2 1.7-2.2 1.7-.7 0-1.2-.2-1.6-.5-.4-.4-.5-.8-.5-1.4h.9zm2.3-1.8c.3-.2.4-.6.4-1.2 0-.5-.1-.9-.4-1.2s-.6-.4-1-.4-.8.1-1 .4c-.3.3-.4.7-.4 1.2s.1.8.3 1.1c.2.3.6.4 1.1.4.4 0 .7-.1 1-.3zm33.3 34.8v-1.7h-3.1v-.9l3.2-4.5h.7v4.6h1v.8h-1v1.7h-.8zm0-2.5v-3.2l-2.2 3.2h2.2zm3.6.8c0 .5.2.8.6 1 .2.1.4.1.6.1.4 0 .8-.2 1.1-.5.3-.4.5-1.1.6-2.1-.2.3-.4.5-.7.7s-.6.2-.9.2c-.7 0-1.2-.2-1.6-.6-.4-.4-.6-1-.6-1.6 0-.6.2-1.2.6-1.7.4-.5 1-.7 1.7-.7 1 0 1.7.5 2.1 1.4.2.5.3 1.1.3 1.9 0 .9-.1 1.6-.4 2.3-.4 1.1-1.2 1.7-2.2 1.7-.7 0-1.2-.2-1.6-.5s-.5-.8-.5-1.4h.9zm2.3-1.8c.3-.2.4-.6.4-1.2 0-.5-.1-.9-.4-1.2s-.6-.4-1-.4-.8.1-1 .4-.4.7-.4 1.2.1.8.3 1.1c.2.3.6.4 1.1.4.4.1.7 0 1-.3zm-5.9 19.2v-1.7h-3.1v-.9l3.2-4.5h.7v4.6h1v.8h-1v1.7h-.8zm0-2.5v-3.2l-2.2 3.2h2.2zm3.6.8c0 .5.2.8.6 1 .2.1.4.1.6.1.4 0 .8-.2 1.1-.5.3-.4.5-1.1.6-2.1-.2.3-.4.5-.7.7s-.6.2-.9.2c-.7 0-1.2-.2-1.6-.6-.4-.4-.6-1-.6-1.6 0-.6.2-1.2.6-1.7.4-.5 1-.7 1.7-.7 1 0 1.7.5 2.1 1.4.2.5.3 1.1.3 1.9 0 .9-.1 1.6-.4 2.3-.4 1.1-1.2 1.7-2.2 1.7-.7 0-1.2-.2-1.6-.5-.4-.4-.5-.8-.5-1.4h.9zm2.3-1.8c.3-.2.4-.6.4-1.2 0-.5-.1-.9-.4-1.2s-.6-.4-1-.4-.8.1-1 .4c-.3.3-.4.7-.4 1.2s.1.8.3 1.1c.2.3.6.4 1.1.4.4.1.7 0 1-.3zm-5.9 19.8v-1.7h-3.1v-.9l3.2-4.5h.7v4.6h1v.8h-1v1.7h-.8zm0-2.5v-3.2l-2.2 3.2h2.2zm6.9-4c.3.4.5.8.5 1.3h-.9c-.1-.3-.1-.5-.2-.7-.2-.3-.5-.4-1-.4s-.9.2-1.2.7c-.3.5-.5 1.1-.5 2 .2-.3.5-.5.8-.7.3-.1.6-.2.9-.2.6 0 1.1.2 1.5.6.4.4.7.9.7 1.7 0 .6-.2 1.2-.6 1.7-.4.5-1 .7-1.8.7-.7 0-1.2-.2-1.7-.7-.5-.5-.7-1.3-.7-2.5 0-.9.1-1.6.3-2.2.4-1.2 1.2-1.7 2.2-1.7.8-.2 1.3 0 1.7.4zm-.7 5.4c.2-.3.3-.7.3-1.1 0-.4-.1-.7-.3-1-.2-.3-.6-.5-1.1-.5-.4 0-.7.1-1 .4-.3.3-.4.6-.4 1.1 0 .4.1.8.4 1.1.3.3.6.5 1.1.5.4 0 .8-.2 1-.5zm-6.2-62.2v-1.7h-3.1v-.9l3.2-4.5h.7v4.6h1v.8h-1v1.7h-.8zm0-2.5v-3.2l-2.2 3.2h2.2zm7.5-4.4v.8c-.2.2-.5.6-.9 1.1-.4.5-.7 1.1-1 1.8-.3.6-.5 1.2-.6 1.7-.1.3-.2.8-.4 1.6h-1c.2-1.3.7-2.7 1.5-4 .4-.8.9-1.4 1.4-2h-3.9v-1h4.9zm-7.5 22.4v-1.7h-3.1v-.9l3.2-4.5h.7v4.6h1v.8h-1v1.7h-.8zm0-2.5v-3.2l-2.2 3.2h2.2zm3.1 2c-.4-.5-.6-1-.6-1.7h.9c0 .5.1.8.3 1 .2.4.6.6 1.2.6.5 0 .8-.1 1.1-.4.3-.2.4-.6.4-1 0-.5-.1-.8-.4-1-.3-.2-.7-.3-1.2-.3h-.4v-.8h.4c.3 0 .6-.1.8-.2.4-.2.6-.5.6-1 0-.3-.1-.6-.4-.8s-.5-.3-.9-.3c-.6 0-1 .2-1.2.6-.1.2-.2.5-.2.9h-.9c0-.5.1-1 .3-1.3.4-.7 1-1 1.9-1 .7 0 1.3.2 1.7.5.4.3.6.8.6 1.4 0 .4-.1.8-.3 1-.1.2-.3.3-.6.4.4.1.7.3.9.6.2.3.3.6.3 1.1 0 .7-.2 1.2-.7 1.6-.4.4-1.1.6-1.9.6-.7.1-1.3-.1-1.7-.5zm-3.1 64.2v-1.7h-3.1v-.9l3.2-4.5h.7v4.6h1v.8h-1v1.7h-.8zm0-2.5v-3.2l-2.2 3.2h2.2zm3.1 2c-.4-.5-.6-1-.6-1.7h.9c0 .5.1.8.3 1 .2.4.6.6 1.2.6.5 0 .8-.1 1.1-.4.3-.2.4-.6.4-1 0-.5-.1-.8-.4-1-.3-.2-.7-.3-1.2-.3h-.4v-.8h.4c.3 0 .6-.1.8-.2.4-.2.6-.5.6-1 0-.3-.1-.6-.4-.8s-.5-.3-.9-.3c-.6 0-1 .2-1.2.6-.1.2-.2.5-.2.9h-.9c0-.5.1-1 .3-1.3.4-.7 1-1 1.9-1 .7 0 1.3.2 1.7.5.4.3.6.8.6 1.4 0 .4-.1.8-.3 1-.1.2-.3.3-.6.4.4.1.7.3.9.6.2.3.3.6.3 1.1 0 .7-.2 1.2-.7 1.6-.4.4-1.1.6-1.9.6-.7.2-1.3 0-1.7-.5zm-3.1 16.6v-1.7h-3.1v-.9l3.2-4.5h.7v4.6h1v.8h-1v1.7h-.8zm0-2.5v-3.2l-2.2 3.2h2.2zm7.5-4.4v.8c-.2.2-.5.6-.9 1.1-.4.5-.7 1.1-1 1.8-.3.6-.5 1.2-.6 1.7-.1.3-.2.8-.4 1.6h-1c.2-1.3.7-2.7 1.5-4 .4-.8.9-1.4 1.4-2h-3.9v-.9h4.9zm-7.5 23.2v-1.7h-3.1v-.8l3.2-4.5h.7v4.6h1v.8h-1v1.7h-.8zm0-2.4v-3.2l-2.2 3.2h2.2zm3.5.7c.1.5.3.9.7 1 .2.1.5.1.7.1.5 0 .9-.2 1.2-.5s.4-.7.4-1.1c0-.5-.1-.9-.4-1.1-.3-.3-.7-.4-1.1-.4-.3 0-.6.1-.8.2-.2.1-.4.3-.6.5h-.8l.5-3.8h3.6v.9h-3l-.3 2 .5-.3c.3-.1.6-.2.9-.2.6 0 1.2.2 1.6.6.4.4.7.9.7 1.6 0 .7-.2 1.2-.6 1.8-.4.5-1.1.8-2 .8-.6 0-1.1-.2-1.5-.5-.4-.3-.7-.8-.7-1.5h1zm-3.5 16.7v-1.7h-3.1v-.8l3.2-4.5h.7v4.6h1v.8h-1v1.7h-.8zm0-2.4v-3.2l-2.2 3.2h2.2zm3 .9c.2-.4.6-.9 1.3-1.2l.9-.5c.4-.2.7-.5.9-.6.3-.3.4-.6.4-.9 0-.4-.1-.7-.4-1s-.6-.4-1-.4c-.6 0-1 .2-1.3.7-.1.2-.2.6-.2 1h-.9c0-.6.1-1.1.3-1.5.4-.7 1.1-1 2-1 .8 0 1.4.2 1.8.7s.6.9.6 1.5-.2 1-.6 1.4c-.2.2-.6.5-1.2.8l-.7.4c-.3.2-.6.3-.8.5-.3.3-.5.6-.6.9h3.8v.8h-4.8c.1-.7.3-1.2.5-1.6zm-3 17.8v-1.7h-3.1v-.9l3.2-4.5h.7v4.6h1v.8h-1v1.7h-.8zm0-2.5v-3.2l-2.2 3.2h2.2zm3.6.8c0 .5.2.8.6 1 .2.1.4.1.6.1.4 0 .8-.2 1.1-.5.3-.4.5-1.1.6-2.1-.2.3-.4.5-.7.7s-.6.2-.9.2c-.7 0-1.2-.2-1.6-.6-.4-.4-.6-1-.6-1.6 0-.6.2-1.2.6-1.7.4-.5 1-.7 1.7-.7 1 0 1.7.5 2.1 1.4.2.5.3 1.1.3 1.9 0 .9-.1 1.6-.4 2.3-.4 1.1-1.2 1.7-2.2 1.7-.7 0-1.2-.2-1.6-.5-.4-.4-.5-.8-.5-1.4h.9zm2.3-1.8c.3-.2.4-.6.4-1.2 0-.5-.1-.9-.4-1.2s-.6-.4-1-.4-.8.1-1 .4c-.3.3-.4.7-.4 1.2s.1.8.3 1.1c.2.3.6.4 1.1.4.4 0 .7-.1 1-.3zm-8.4 18.6c-.4-.5-.6-1-.6-1.7h.9c0 .5.1.8.3 1 .2.4.6.6 1.2.6.5 0 .8-.1 1.1-.4.3-.2.4-.6.4-1 0-.5-.1-.8-.4-1-.3-.2-.7-.3-1.2-.3h-.4v-.8h.4c.3 0 .6-.1.8-.2.4-.2.6-.5.6-1 0-.3-.1-.6-.4-.8s-.5-.3-.9-.3c-.6 0-1 .2-1.2.6-.1.2-.2.5-.2.9h-.9c0-.5.1-1 .3-1.3.4-.7 1-1 1.9-1 .7 0 1.3.2 1.7.5.4.3.6.8.6 1.4 0 .4-.1.8-.3 1-.1.2-.3.3-.6.4.4.1.7.3.9.6.2.3.3.6.3 1.1 0 .7-.2 1.2-.7 1.6-.4.4-1.1.6-1.9.6-.7.1-1.3-.1-1.7-.5zm10-6.4v.8c-.2.2-.5.6-.9 1.1-.4.5-.7 1.1-1 1.8-.3.6-.5 1.2-.6 1.7-.1.3-.2.8-.4 1.6h-1c.2-1.3.7-2.7 1.5-4 .4-.8.9-1.4 1.4-2h-3.9v-.9h4.9zm-7.5 22.8v-1.7h-3.1v-.9l3.2-4.5h.7v4.6h1v.8h-1v1.7h-.8zm0-2.5v-3.2l-2.2 3.2h2.2zm5.6 2.5v-1.7h-3.1v-.9l3.2-4.5h.7v4.6h1v.8h-1v1.7h-.8zm0-2.5v-3.2l-2.2 3.2h2.2zm-8.1 18.7c-.4-.5-.6-1-.6-1.7h.9c0 .5.1.8.3 1 .2.4.6.6 1.2.6.5 0 .8-.1 1.1-.4.3-.2.4-.6.4-1 0-.5-.1-.8-.4-1s-.7-.3-1.2-.3h-.4v-.8h.4c.3 0 .6-.1.8-.2.4-.2.6-.5.6-1 0-.3-.1-.6-.4-.8-.2-.2-.5-.3-.9-.3-.6 0-1 .2-1.2.6-.1.2-.2.5-.2.9h-.9c0-.5.1-1 .3-1.3.4-.7 1-1 1.9-1 .7 0 1.3.2 1.7.5.4.3.6.8.6 1.4 0 .4-.1.8-.3 1-.1.2-.3.3-.6.4.4.1.7.3.9.6.2.3.3.6.3 1.1 0 .7-.2 1.2-.7 1.6-.4.4-1.1.6-1.9.6-.7.2-1.3-.1-1.7-.5zm10-6.4v.8c-.2.2-.5.6-.9 1.1-.4.5-.7 1.1-1 1.8-.3.6-.5 1.2-.6 1.7-.1.3-.2.8-.4 1.6h-1c.2-1.3.7-2.7 1.5-4 .4-.8.9-1.4 1.4-2h-3.9v-.9h4.9zm-10 22.3c-.4-.5-.6-1-.6-1.7h.9c0 .5.1.8.3 1 .2.4.6.6 1.2.6.5 0 .8-.1 1.1-.4.3-.2.4-.6.4-1 0-.5-.1-.8-.4-1s-.7-.3-1.2-.3h-.4v-.8h.4c.3 0 .6-.1.8-.2.4-.2.6-.5.6-1 0-.3-.1-.6-.4-.8-.2-.2-.5-.3-.9-.3-.6 0-1 .2-1.2.6-.1.2-.2.5-.2.9h-.9c0-.5.1-1 .3-1.3.4-.7 1-1 1.9-1 .7 0 1.3.2 1.7.5.4.3.6.8.6 1.4 0 .4-.1.8-.3 1-.1.2-.3.3-.6.4.4.1.7.3.9.6.2.3.3.6.3 1.1 0 .7-.2 1.2-.7 1.6-.4.4-1.1.6-1.9.6-.7.1-1.3-.1-1.7-.5zm5.7-3.7c-.3-.3-.4-.6-.4-1 0-.5.2-1 .6-1.3.4-.4.9-.6 1.6-.6.7 0 1.2.2 1.6.5s.6.8.6 1.2c0 .4-.1.8-.3 1.1-.1.2-.3.3-.6.5.3.1.5.3.7.5.3.3.5.8.5 1.3 0 .6-.2 1.1-.6 1.6s-1 .6-1.8.6c-.7 0-1.3-.2-1.7-.6-.5-.4-.7-.9-.7-1.6 0-.4.1-.8.3-1.1.2-.3.5-.5.9-.7-.3-.1-.5-.2-.7-.4zm2.9 3.2c.3-.2.4-.5.4-1s-.1-.8-.4-1c-.3-.2-.6-.4-1.1-.4-.4 0-.8.1-1 .4-.3.2-.4.6-.4 1s.1.7.4.9c.2.3.6.4 1.1.4.4.1.7-.1 1-.3zm-.2-3.4c.2-.2.3-.5.3-.8 0-.3-.1-.5-.3-.7-.2-.2-.5-.3-1-.3-.4 0-.7.1-.9.3-.2.2-.3.5-.3.8 0 .3.1.6.4.8.2.2.5.3.9.3.4-.1.7-.2.9-.4zm-5.9 20.3v-1.7h-3.1v-.9l3.2-4.5h.7v4.6h1v.8h-1v1.7h-.8zm0-2.5v-3.2l-2.2 3.2h2.2zm5.6 2.5v-1.7h-3.1v-.9l3.2-4.5h.7v4.6h1v.8h-1v1.7h-.8zm0-2.5v-3.2l-2.2 3.2h2.2zm-44.8-204.8v-1.7h-3.1v-.9l3.2-4.5h.7v4.6h1v.8h-1v1.7h-.8zm0-2.5v-3.2l-2.3 3.2h2.3zm3.6.8c0 .5.2.8.6 1 .2.1.4.1.6.1.4 0 .8-.2 1.1-.5.3-.4.5-1.1.6-2.1-.2.3-.4.5-.7.7s-.6.2-.9.2c-.7 0-1.2-.2-1.6-.6-.4-.4-.6-1-.6-1.6 0-.6.2-1.2.6-1.7.4-.5 1-.7 1.7-.7 1 0 1.7.5 2.1 1.4.2.5.3 1.1.3 1.9 0 .9-.1 1.6-.4 2.3-.4 1.1-1.2 1.7-2.2 1.7-.7 0-1.2-.2-1.6-.5-.4-.4-.5-.8-.5-1.4h.9zm2.3-1.8c.3-.2.4-.6.4-1.2 0-.5-.1-.9-.4-1.2s-.6-.4-1-.4-.8.1-1 .4c-.3.3-.4.7-.4 1.2s.1.8.3 1.1c.2.3.6.4 1.1.4.4 0 .7-.1 1-.3zm-5.9 34.5v-1.7h-3.1v-.8l3.2-4.5h.7v4.6h1v.8h-1v1.7h-.8zm0-2.4v-3.2l-2.2 3.2h2.2zm3.6.7c0 .5.2.8.6 1 .2.1.4.1.6.1.4 0 .8-.2 1.1-.5.3-.4.5-1.1.6-2.1-.2.3-.4.5-.7.7s-.6.2-.9.2c-.7 0-1.2-.2-1.6-.6-.4-.4-.6-1-.6-1.6 0-.6.2-1.2.6-1.7.4-.5 1-.7 1.7-.7 1 0 1.7.5 2.1 1.4.2.5.3 1.1.3 1.9 0 .9-.1 1.6-.4 2.3-.4 1.1-1.2 1.7-2.2 1.7-.7 0-1.2-.2-1.6-.5-.4-.4-.5-.8-.5-1.4h.9zm2.3-1.7c.3-.2.4-.6.4-1.2 0-.5-.1-.9-.4-1.2s-.6-.4-1-.4-.8.1-1 .4c-.3.3-.4.7-.4 1.2s.1.8.3 1.1c.2.3.6.4 1.1.4.4 0 .7-.1 1-.3zm-8-13.9c.1.5.3.9.7 1 .2.1.5.1.7.1.5 0 .9-.2 1.2-.5s.4-.7.4-1.1c0-.5-.1-.9-.4-1.1-.3-.3-.7-.4-1.1-.4-.3 0-.6.1-.8.2-.2.1-.4.3-.6.5h-.8l.5-3.8h3.6v.9h-3l-.3 2 .5-.3c.3-.1.6-.2.9-.2.6 0 1.2.2 1.6.6.4.4.7.9.7 1.6 0 .7-.2 1.2-.6 1.8-.4.5-1.1.8-2 .8-.6 0-1.1-.2-1.5-.5-.4-.3-.7-.8-.7-1.5h1zm9-4.1c.3.6.5 1.4.5 2.4s-.1 1.7-.4 2.4c-.4.9-1.1 1.3-2 1.3-.8 0-1.5-.4-1.9-1.1-.3-.6-.5-1.4-.5-2.5 0-.8.1-1.5.3-2.1.4-1.1 1.1-1.6 2.1-1.6.9.1 1.5.5 1.9 1.2zm-.9 4.7c.3-.4.4-1.2.4-2.3 0-.8-.1-1.5-.3-2s-.6-.8-1.1-.8c-.5 0-.9.2-1.1.7s-.4 1.2-.4 2.2c0 .7.1 1.3.2 1.7.2.7.6 1 1.2 1 .5.1.9-.1 1.1-.5zm-8.1 31.6c.1.5.3.9.7 1 .2.1.5.1.7.1.5 0 .9-.2 1.2-.5s.4-.7.4-1.1c0-.5-.1-.9-.4-1.1-.3-.3-.7-.4-1.1-.4-.3 0-.6.1-.8.2-.2.1-.4.3-.6.5h-.8l.5-3.8h3.6v.9h-3l-.3 2 .5-.3c.3-.1.6-.2.9-.2.6 0 1.2.2 1.6.6.4.4.7.9.7 1.6 0 .7-.2 1.2-.6 1.8-.4.5-1.1.8-2 .8-.6 0-1.1-.2-1.5-.5-.4-.3-.7-.8-.7-1.5h1zm9-4.1c.3.6.5 1.4.5 2.4s-.1 1.7-.4 2.4c-.4.9-1.1 1.3-2 1.3-.8 0-1.5-.4-1.9-1.1-.3-.6-.5-1.4-.5-2.5 0-.8.1-1.5.3-2.1.4-1.1 1.1-1.6 2.1-1.6.9.1 1.5.4 1.9 1.2zm-.9 4.7c.3-.4.4-1.2.4-2.3 0-.8-.1-1.5-.3-2s-.6-.8-1.1-.8c-.5 0-.9.2-1.1.7s-.4 1.2-.4 2.2c0 .7.1 1.3.2 1.7.2.7.6 1 1.2 1 .5.1.9-.1 1.1-.5zm-6 16.9v-1.7h-3.1v-.9l3.2-4.5h.7v4.6h1v.8h-1v1.7h-.8zm0-2.5v-3.2l-2.2 3.2h2.2zm6.8-4c.3.4.5.8.5 1.3h-.9c-.1-.3-.1-.5-.2-.7-.2-.3-.5-.4-1-.4s-.9.2-1.2.7c-.3.5-.5 1.1-.5 2 .2-.3.5-.5.8-.7.3-.1.6-.2.9-.2.6 0 1.1.2 1.5.6.4.4.7.9.7 1.7 0 .6-.2 1.2-.6 1.7-.4.5-1 .7-1.8.7-.7 0-1.2-.2-1.7-.7-.5-.5-.7-1.3-.7-2.5 0-.9.1-1.6.3-2.2.4-1.2 1.2-1.7 2.2-1.7.9-.2 1.4 0 1.7.4zm-.6 5.4c.2-.3.3-.7.3-1.1 0-.4-.1-.7-.3-1-.2-.3-.6-.5-1.1-.5-.4 0-.7.1-1 .4-.3.3-.4.6-.4 1.1 0 .4.1.8.4 1.1.3.3.6.5 1.1.5.4 0 .7-.2 1-.5zm-6.2 17.4v-1.7h-3.1v-.9l3.2-4.5h.7v4.6h1v.8h-1v1.7h-.8zm0-2.5v-3.2l-2.2 3.2h2.2zm3.2-1.7c-.3-.3-.4-.6-.4-1 0-.5.2-1 .6-1.3.4-.4.9-.6 1.6-.6.7 0 1.2.2 1.6.5s.6.8.6 1.2c0 .4-.1.8-.3 1.1-.1.2-.3.3-.6.5.3.1.5.3.7.5.3.3.5.8.5 1.3 0 .6-.2 1.1-.6 1.6s-1 .6-1.8.6c-.7 0-1.3-.2-1.7-.6-.5-.4-.7-.9-.7-1.6 0-.4.1-.8.3-1.1.2-.3.5-.5.9-.7-.4-.1-.6-.2-.7-.4zm2.8 3.2c.3-.2.4-.5.4-1s-.1-.8-.4-1-.6-.4-1.1-.4c-.4 0-.8.1-1 .4-.3.2-.4.6-.4 1s.1.7.4.9c.2.3.6.4 1.1.4.4.1.8-.1 1-.3zm-.1-3.5c.2-.2.3-.5.3-.8 0-.3-.1-.5-.3-.7-.2-.2-.5-.3-1-.3-.4 0-.7.1-.9.3-.2.2-.3.5-.3.8 0 .3.1.6.4.8s.5.3.9.3.7-.1.9-.4zm-5.9 19.9v-1.7h-3.1v-.9l3.2-4.5h.7v4.6h1v.8h-1v1.7h-.8zm0-2.5v-3.1l-2.2 3.2h2.2zm7.5-4.4v.8c-.2.2-.5.6-.9 1.1-.4.5-.7 1.1-1 1.8-.3.6-.5 1.2-.6 1.7-.1.3-.2.8-.4 1.6h-1c.2-1.3.7-2.7 1.5-4 .4-.8.9-1.4 1.4-2h-3.9v-.9h4.9zm-7.5 23.4v-1.7h-3.1v-.9l3.2-4.5h.7v4.6h1v.8h-1v1.7h-.8zm0-2.5v-3.2l-2.2 3.2h2.2zm5.6 2.5v-1.7h-3.1v-.9l3.2-4.5h.7v4.6h1v.8h-1v1.7h-.8zm0-2.5v-3.2l-2.2 3.2h2.2zm-7.7 16.4c.1.5.3.9.7 1 .2.1.5.1.7.1.5 0 .9-.2 1.2-.5s.4-.7.4-1.1c0-.5-.1-.9-.4-1.1-.3-.3-.7-.4-1.1-.4-.3 0-.6.1-.8.2-.2.1-.4.3-.6.5h-.8l.5-3.8h3.6v.9h-3l-.3 2 .5-.3c.3-.1.6-.2.9-.2.6 0 1.2.2 1.6.6.4.4.7.9.7 1.6 0 .7-.2 1.2-.6 1.8-.4.5-1.1.8-2 .8-.6 0-1.1-.2-1.5-.5-.4-.3-.7-.8-.7-1.5h1zm5.3-3.2v-.7c.6-.1 1.1-.2 1.3-.3.3-.1.4-.5.6-1h.7v7h-.9v-5h-1.7zm-3.2 20.6v-1.7h-3.1v-.9l3.2-4.5h.7v4.6h1v.8h-1v1.7h-.8zm0-2.5v-3.2l-2.2 3.2h2.2zm3.5.7c.1.5.3.9.7 1 .2.1.5.1.7.1.5 0 .9-.2 1.2-.5s.4-.7.4-1.1c0-.5-.1-.9-.4-1.1-.3-.3-.7-.4-1.1-.4-.3 0-.6.1-.8.2-.2.1-.4.3-.6.5h-.8l.5-3.8h3.6v.9h-3l-.3 2 .5-.3c.3-.1.6-.2.9-.2.6 0 1.2.2 1.6.6.4.4.7.9.7 1.6 0 .7-.2 1.2-.6 1.8-.4.5-1.1.8-2 .8-.6 0-1.1-.2-1.5-.5-.4-.3-.7-.8-.7-1.5h1zm-3.5 18.3v-1.7h-3.1v-.9l3.2-4.5h.7v4.6h1v.8h-1v1.7h-.8zm0-2.5v-3.2l-2.2 3.2h2.2zm3.5.7c.1.5.3.9.7 1 .2.1.5.1.7.1.5 0 .9-.2 1.2-.5.3-.3.4-.7.4-1.1 0-.5-.1-.9-.4-1.1-.3-.3-.7-.4-1.1-.4-.3 0-.6.1-.8.2-.2.1-.4.3-.6.5h-.8l.5-3.8h3.6v.9h-3l-.3 2 .5-.3c.3-.1.6-.2.9-.2.6 0 1.2.2 1.6.6s.7.9.7 1.6c0 .7-.2 1.2-.6 1.8-.4.5-1.1.8-2 .8-.6 0-1.1-.2-1.5-.5-.4-.3-.7-.8-.7-1.5h1zm-3.5 17.9v-1.7h-3.1v-.9l3.2-4.5h.7v4.6h1v.8h-1v1.7h-.8zm0-2.5v-3.2l-2.2 3.2h2.2zm3 2c-.4-.5-.6-1-.6-1.7h.9c0 .5.1.8.3 1 .2.4.6.6 1.2.6.5 0 .8-.1 1.1-.4.3-.2.4-.6.4-1 0-.5-.1-.8-.4-1-.3-.2-.7-.3-1.2-.3h-.4v-.8h.4c.3 0 .6-.1.8-.2.4-.2.6-.5.6-1 0-.3-.1-.6-.4-.8s-.5-.3-.9-.3c-.6 0-1 .2-1.2.6-.1.2-.2.5-.2.9h-.7c0-.5.1-1 .3-1.3.4-.7 1-1 1.9-1 .7 0 1.3.2 1.7.5.4.3.6.8.6 1.4 0 .4-.1.8-.3 1-.1.2-.3.3-.6.4.4.1.7.3.9.6.2.3.3.6.3 1.1 0 .7-.2 1.2-.7 1.6-.4.4-1.1.6-1.9.6-.9.2-1.5-.1-1.9-.5zm-3 16.4v-1.7h-3.1v-.9l3.2-4.5h.7v4.6h1v.8h-1v1.7h-.8zm0-2.5v-3.2l-2.2 3.2h2.2zm3 2c-.4-.5-.6-1-.6-1.7h.9c0 .5.1.8.3 1 .2.4.6.6 1.2.6.5 0 .8-.1 1.1-.4.3-.2.4-.6.4-1 0-.5-.1-.8-.4-1s-.7-.3-1.2-.3h-.4v-.8h.4c.3 0 .6-.1.8-.2.4-.2.6-.5.6-1 0-.3-.1-.6-.4-.8-.2-.2-.5-.3-.9-.3-.6 0-1 .2-1.2.6-.1.2-.2.5-.2.9h-.7c0-.5.1-1 .3-1.3.4-.7 1-1 1.9-1 .7 0 1.3.2 1.7.5.4.3.6.8.6 1.4 0 .4-.1.8-.3 1-.1.2-.3.3-.6.4.4.1.7.3.9.6.2.3.3.6.3 1.1 0 .7-.2 1.2-.7 1.6-.4.4-1.1.6-1.9.6-.9.1-1.5-.1-1.9-.5zm-3 16.4v-1.7h-3.1v-.9l3.2-4.5h.7v4.6h1v.8h-1v1.7h-.8zm0-2.5v-3.2l-2.2 3.2h2.2zm3.2-1.6c-.3-.3-.4-.6-.4-1 0-.5.2-1 .6-1.3.4-.4.9-.6 1.6-.6.7 0 1.2.2 1.6.5s.6.8.6 1.2c0 .4-.1.8-.3 1.1-.1.2-.3.3-.6.5.3.1.5.3.7.5.3.3.5.8.5 1.3 0 .6-.2 1.1-.6 1.6s-1 .6-1.8.6c-.7 0-1.3-.2-1.7-.6-.5-.4-.7-.9-.7-1.6 0-.4.1-.8.3-1.1.2-.3.5-.5.9-.7-.4-.1-.6-.3-.7-.4zm2.8 3.2c.3-.2.4-.5.4-1s-.1-.8-.4-1c-.3-.2-.6-.4-1.1-.4-.4 0-.8.1-1 .4-.3.2-.4.6-.4 1s.1.7.4.9c.2.3.6.4 1.1.4.4 0 .8-.1 1-.3zm-.1-3.5c.2-.2.3-.5.3-.8 0-.3-.1-.5-.3-.7-.2-.2-.5-.3-1-.3-.4 0-.7.1-.9.3-.2.2-.3.5-.3.8 0 .3.1.6.4.8.2.2.5.3.9.3.4-.1.7-.2.9-.4zm-50.5-192.1v-.7c.6-.1 1.1-.2 1.3-.3.3-.1.4-.5.6-1h.7v7h-.9v-5h-1.7zm4.8 0v-.7c.6-.1 1.1-.2 1.3-.3.3-.1.4-.5.6-1h.7v7h-.9v-5h-1.7zm-5.1 15.7v-.7c.6-.1 1.1-.2 1.3-.3.3-.1.4-.5.6-1h.7v7h-.9v-5h-1.7zm8 5v-1.7h-3.1v-.9l3.2-4.5h.7v4.6h1v.8h-1v1.7h-.8zm-.1-2.5v-3.2l-2.2 3.2h2.2zm-8.1 18.2c-.4-.5-.6-1-.6-1.7h.9c0 .5.1.8.3 1 .2.4.6.6 1.2.6.5 0 .8-.1 1.1-.4.3-.2.4-.6.4-1 0-.5-.1-.8-.4-1-.3-.2-.7-.3-1.2-.3h-.4v-.8h.4c.3 0 .6-.1.8-.2.4-.2.6-.5.6-1 0-.3-.1-.6-.4-.8s-.5-.3-.9-.3c-.6 0-1 .2-1.2.6-.1.2-.2.5-.2.9h-.9c0-.5.1-1 .3-1.3.4-.7 1-1 1.9-1 .7 0 1.3.2 1.7.5.4.3.6.8.6 1.4 0 .4-.1.8-.3 1-.1.2-.3.3-.6.4.4.1.7.3.9.6.2.3.3.6.3 1.1 0 .7-.2 1.2-.7 1.6-.4.4-1.1.6-1.9.6-.7.2-1.3-.1-1.7-.5zm5.5-1.1c.2-.4.6-.9 1.3-1.2l.9-.5c.4-.2.7-.5.9-.6.3-.3.4-.6.4-.9 0-.4-.1-.7-.4-1s-.6-.4-1-.4c-.6 0-1 .2-1.3.7-.1.2-.2.6-.2 1h-.9c0-.6.1-1.1.3-1.5.4-.7 1.1-1 2-1 .8 0 1.4.2 1.8.7.4.4.6.9.6 1.5s-.2 1-.6 1.4c-.2.2-.6.5-1.2.8l-.7.4c-.3.2-.6.3-.8.5-.3.3-.5.6-.6.9h3.8v.8h-4.8c.2-.6.3-1.1.5-1.6zm-5.6 16.3c.2-.4.6-.9 1.3-1.2l.9-.5c.4-.2.7-.5.9-.6.3-.3.4-.6.4-.9 0-.4-.1-.7-.4-1s-.6-.4-1-.4c-.6 0-1 .2-1.3.7-.1.2-.2.6-.2 1h-.9c0-.6.1-1.1.3-1.5.4-.7 1.1-1 2-1 .8 0 1.4.2 1.8.7.4.4.6.9.6 1.5s-.2 1-.6 1.4c-.2.2-.6.5-1.2.8l-.7.4c-.3.2-.6.3-.8.5-.3.3-.5.6-.6.9h3.8v.8h-4.8c.2-.7.3-1.2.5-1.6zm9.5-4.9c.3.4.5.8.5 1.3h-.9c-.1-.3-.1-.5-.2-.7-.2-.3-.5-.4-1-.4s-.9.2-1.2.7c-.3.5-.5 1.1-.5 2 .2-.3.5-.5.8-.7.3-.1.6-.2.9-.2.6 0 1.1.2 1.5.6.4.4.7.9.7 1.7 0 .6-.2 1.2-.6 1.7-.4.5-1 .7-1.8.7-.7 0-1.2-.2-1.7-.7-.5-.5-.7-1.3-.7-2.5 0-.9.1-1.6.3-2.2.4-1.2 1.2-1.7 2.2-1.7.8-.2 1.4 0 1.7.4zm-.7 5.4c.2-.3.3-.7.3-1.1 0-.4-.1-.7-.3-1-.2-.3-.6-.5-1.1-.5-.4 0-.7.1-1 .4-.3.3-.4.6-.4 1.1 0 .4.1.8.4 1.1.3.3.6.5 1.1.5.5-.1.8-.2 1-.5zm-8.5 15.2c.2-.4.6-.9 1.3-1.2l.9-.5c.4-.2.7-.5.9-.6.3-.3.4-.6.4-.9 0-.4-.1-.7-.4-1s-.6-.4-1-.4c-.6 0-1 .2-1.3.7-.1.2-.2.6-.2 1h-.9c0-.6.1-1.1.3-1.5.4-.7 1.1-1 2-1 .8 0 1.4.2 1.8.7s.6.9.6 1.5-.2 1-.6 1.4c-.2.2-.6.5-1.2.8l-.7.4c-.3.2-.6.3-.8.5-.3.3-.5.6-.6.9h3.8v.8h-4.7c.1-.7.2-1.2.4-1.6zm5.6 0c.2-.4.6-.9 1.3-1.2l.9-.5c.4-.2.7-.5.9-.6.3-.3.4-.6.4-.9 0-.4-.1-.7-.4-1s-.6-.4-1-.4c-.6 0-1 .2-1.3.7-.1.2-.2.6-.2 1h-.9c0-.6.1-1.1.3-1.5.4-.7 1.1-1 2-1 .8 0 1.4.2 1.8.7s.6.9.6 1.5-.2 1-.6 1.4c-.2.2-.6.5-1.2.8l-.7.4c-.3.2-.6.3-.8.5-.3.3-.5.6-.6.9h3.8v.8h-4.8c.1-.7.3-1.2.5-1.6zm-5.9 16.4c.2-.4.6-.9 1.3-1.2l.9-.5c.4-.2.7-.5.9-.6.3-.3.4-.6.4-.9 0-.4-.1-.7-.4-1s-.6-.4-1-.4c-.6 0-1 .2-1.3.7-.1.2-.2.6-.2 1h-.9c0-.6.1-1.1.3-1.5.4-.7 1.1-1 2-1 .8 0 1.4.2 1.8.7.4.4.6.9.6 1.5s-.2 1-.6 1.4c-.2.2-.6.5-1.2.8l-.7.4c-.3.2-.6.3-.8.5-.3.3-.5.6-.6.9h3.8v.8h-4.8c.2-.7.3-1.2.5-1.6zm5.9-2.6c-.3-.3-.4-.6-.4-1 0-.5.2-1 .6-1.3.4-.4.9-.6 1.6-.6.7 0 1.2.2 1.6.5s.6.8.6 1.2c0 .4-.1.8-.3 1.1-.1.2-.3.3-.6.5.3.1.5.3.7.5.3.3.5.8.5 1.3 0 .6-.2 1.1-.6 1.6s-1 .6-1.8.6c-.7 0-1.3-.2-1.7-.6-.5-.4-.7-.9-.7-1.6 0-.4.1-.8.3-1.1.2-.3.5-.5.9-.7-.4-.1-.6-.2-.7-.4zm2.8 3.2c.3-.2.4-.5.4-1s-.1-.8-.4-1-.6-.4-1.1-.4c-.4 0-.8.1-1 .4-.3.2-.4.6-.4 1s.1.7.4.9c.2.3.6.4 1.1.4.4 0 .8-.1 1-.3zm-.1-3.5c.2-.2.3-.5.3-.8 0-.3-.1-.5-.3-.7-.2-.2-.5-.3-1-.3-.4 0-.7.1-.9.3-.2.2-.3.5-.3.8 0 .3.1.6.4.8s.5.3.9.3c.3 0 .6-.1.9-.4zm-8.3 18.4c.2-.4.6-.9 1.3-1.2l.9-.5c.4-.2.7-.5.9-.6.3-.3.4-.6.4-.9 0-.4-.1-.7-.4-1s-.6-.4-1-.4c-.6 0-1 .2-1.3.7-.1.2-.2.6-.2 1h-.9c0-.6.1-1.1.3-1.5.4-.7 1.1-1 2-1 .8 0 1.4.2 1.8.7s.6.9.6 1.5-.2 1-.6 1.4c-.2.2-.6.5-1.2.8l-.7.4c-.3.2-.6.3-.8.5-.3.3-.5.6-.6.9h3.8v.8h-4.7c.1-.6.2-1.1.4-1.6zm5.9-3.4v-.7c.6-.1 1.1-.2 1.3-.3.3-.1.4-.5.6-1h.7v7h-.9v-5h-1.7zm-5.6 15.7v-.7c.6-.1 1.1-.2 1.3-.3.3-.1.4-.5.6-1h.7v7h-.9v-5h-1.7zm5.9 3.3c0 .5.2.8.6 1 .2.1.4.1.6.1.4 0 .8-.2 1.1-.5.3-.4.5-1.1.6-2.1-.2.3-.4.5-.7.7s-.6.2-.9.2c-.7 0-1.2-.2-1.6-.6-.4-.4-.6-1-.6-1.6 0-.6.2-1.2.6-1.7.4-.5 1-.7 1.7-.7 1 0 1.7.5 2.1 1.4.2.5.3 1.1.3 1.9 0 .9-.1 1.6-.4 2.3-.4 1.1-1.2 1.7-2.2 1.7-.7 0-1.2-.2-1.6-.5-.4-.4-.5-.8-.5-1.4h.9zm2.3-1.8c.3-.2.4-.6.4-1.2 0-.5-.1-.9-.4-1.2s-.6-.4-1-.4-.8.1-1 .4c-.3.3-.4.7-.4 1.2s.1.8.3 1.1c.2.3.6.4 1.1.4.4 0 .7-.1 1-.3zm-8.1 17.5c.2-.4.6-.9 1.3-1.2l.9-.5c.4-.2.7-.5.9-.6.3-.3.4-.6.4-.9 0-.4-.1-.7-.4-1s-.6-.4-1-.4c-.6 0-1 .2-1.3.7-.1.2-.2.6-.2 1h-.9c0-.6.1-1.1.3-1.5.4-.7 1.1-1 2-1 .8 0 1.4.2 1.8.7.4.4.6.9.6 1.5s-.2 1-.6 1.4c-.2.2-.6.5-1.2.8l-.7.4c-.3.2-.6.3-.8.5-.3.3-.5.6-.6.9h3.8v.8h-4.8c.2-.6.3-1.2.5-1.6zm5.7 1.1c-.4-.5-.6-1-.6-1.7h.9c0 .5.1.8.3 1 .2.4.6.6 1.2.6.5 0 .8-.1 1.1-.4.3-.2.4-.6.4-1 0-.5-.1-.8-.4-1-.3-.2-.7-.3-1.2-.3h-.4v-.8h.4c.3 0 .6-.1.8-.2.4-.2.6-.5.6-1 0-.3-.1-.6-.4-.8s-.5-.3-.9-.3c-.6 0-1 .2-1.2.6-.1.2-.2.5-.2.9h-.9c0-.5.1-1 .3-1.3.4-.7 1-1 1.9-1 .7 0 1.3.2 1.7.5.4.3.6.8.6 1.4 0 .4-.1.8-.3 1-.1.2-.3.3-.6.4.4.1.7.3.9.6.2.3.3.6.3 1.1 0 .7-.2 1.2-.7 1.6-.4.4-1.1.6-1.9.6-.7.1-1.3-.1-1.7-.5zm-5.7 15.4c.2-.4.6-.9 1.3-1.2l.9-.5c.4-.2.7-.5.9-.6.3-.3.4-.6.4-.9 0-.4-.1-.7-.4-1s-.6-.4-1-.4c-.6 0-1 .2-1.3.7-.1.2-.2.6-.2 1h-.9c0-.6.1-1.1.3-1.5.4-.7 1.1-1 2-1 .8 0 1.4.2 1.8.7.4.4.6.9.6 1.5s-.2 1-.6 1.4c-.2.2-.6.5-1.2.8l-.7.4c-.3.2-.6.3-.8.5-.3.3-.5.6-.6.9h3.8v.8h-4.8c.2-.6.3-1.2.5-1.6zm6.3-.1c0 .5.2.8.6 1 .2.1.4.1.6.1.4 0 .8-.2 1.1-.5.3-.4.5-1.1.6-2.1-.2.3-.4.5-.7.7s-.6.2-.9.2c-.7 0-1.2-.2-1.6-.6-.4-.4-.6-1-.6-1.6 0-.6.2-1.2.6-1.7.4-.5 1-.7 1.7-.7 1 0 1.7.5 2.1 1.4.2.5.3 1.1.3 1.9 0 .9-.1 1.6-.4 2.3-.4 1.1-1.2 1.7-2.2 1.7-.7 0-1.2-.2-1.6-.5-.4-.4-.5-.8-.5-1.4h.9zm2.2-1.8c.3-.2.4-.6.4-1.2 0-.5-.1-.9-.4-1.2s-.6-.4-1-.4-.8.1-1 .4c-.3.3-.4.7-.4 1.2s.1.8.3 1.1c.2.3.6.4 1.1.4.4 0 .8-.1 1-.3zm-8.9 18c.2-.4.6-.9 1.3-1.2l.9-.5c.4-.2.7-.5.9-.6.3-.3.4-.6.4-.9 0-.4-.1-.7-.4-1s-.6-.4-1-.4c-.6 0-1 .2-1.3.7-.1.2-.2.6-.2 1h-.9c0-.6.1-1.1.3-1.5.4-.7 1.1-1 2-1 .8 0 1.4.2 1.8.7.4.4.6.9.6 1.5s-.2 1-.6 1.4c-.2.2-.6.5-1.2.8l-.7.4c-.3.2-.6.3-.8.5-.3.3-.5.6-.6.9h3.8v.8h-4.7c.1-.6.2-1.2.4-1.6zm5.7 1.1c-.4-.5-.6-1-.6-1.7h.9c0 .5.1.8.3 1 .2.4.6.6 1.2.6.5 0 .8-.1 1.1-.4.3-.2.4-.6.4-1 0-.5-.1-.8-.4-1-.3-.2-.7-.3-1.2-.3h-.4v-.8h.4c.3 0 .6-.1.8-.2.4-.2.6-.5.6-1 0-.3-.1-.6-.4-.8s-.5-.3-.9-.3c-.6 0-1 .2-1.2.6-.1.2-.2.5-.2.9h-.9c0-.5.1-1 .3-1.3.4-.7 1-1 1.9-1 .7 0 1.3.2 1.7.5.4.3.6.8.6 1.4 0 .4-.1.8-.3 1-.1.2-.3.3-.6.4.4.1.7.3.9.6.2.3.3.6.3 1.1 0 .7-.2 1.2-.7 1.6-.4.4-1.1.6-1.9.6-.7.2-1.3-.1-1.7-.5zm-5.7 14.8c.2-.4.6-.9 1.3-1.2l.9-.5c.4-.2.7-.5.9-.6.3-.3.4-.6.4-.9 0-.4-.1-.7-.4-1s-.6-.4-1-.4c-.6 0-1 .2-1.3.7-.1.2-.2.6-.2 1h-.9c0-.6.1-1.1.3-1.5.4-.7 1.1-1 2-1 .8 0 1.4.2 1.8.7s.6.9.6 1.5-.2 1-.6 1.4c-.2.2-.6.5-1.2.8l-.7.4c-.3.2-.6.3-.8.5-.3.3-.5.6-.6.9h3.8v.8h-4.7c.1-.6.2-1.2.4-1.6zm10.2-5.3v.8c-.2.2-.5.6-.9 1.1-.4.5-.7 1.1-1 1.8-.3.6-.5 1.2-.6 1.7-.1.3-.2.8-.4 1.6h-1c.2-1.3.7-2.7 1.5-4 .4-.8.9-1.4 1.4-2h-3.9v-1h4.9zm-10.2 21.2c.2-.4.6-.9 1.3-1.2l.9-.5c.4-.2.7-.5.9-.6.3-.3.4-.6.4-.9 0-.4-.1-.7-.4-1s-.6-.4-1-.4c-.6 0-1 .2-1.3.7-.1.2-.2.6-.2 1h-.9c0-.6.1-1.1.3-1.5.4-.7 1.1-1 2-1 .8 0 1.4.2 1.8.7s.6.9.6 1.5-.2 1-.6 1.4c-.2.2-.6.5-1.2.8l-.7.4c-.3.2-.6.3-.8.5-.3.3-.5.6-.6.9h3.8v.8h-4.7c.1-.6.2-1.1.4-1.6zm9.5-4.8c.3.4.5.8.5 1.3h-.9c-.1-.3-.1-.5-.2-.7-.2-.3-.5-.4-1-.4s-.9.2-1.2.7c-.3.5-.5 1.1-.5 2 .2-.3.5-.5.8-.7.3-.1.6-.2.9-.2.6 0 1.1.2 1.5.6.4.4.7.9.7 1.7 0 .6-.2 1.2-.6 1.7-.4.5-1 .7-1.8.7-.7 0-1.2-.2-1.7-.7-.5-.5-.7-1.3-.7-2.5 0-.9.1-1.6.3-2.2.4-1.2 1.2-1.7 2.2-1.7.8-.2 1.4 0 1.7.4zm-.7 5.3c.2-.3.3-.7.3-1.1 0-.4-.1-.7-.3-1-.2-.3-.6-.5-1.1-.5-.4 0-.7.1-1 .4-.3.3-.4.6-.4 1.1 0 .4.1.8.4 1.1.3.3.6.5 1.1.5.4 0 .8-.1 1-.5zm-2.5-212.7c.3.4.5.8.5 1.3h-.9c-.1-.3-.1-.5-.2-.7-.2-.3-.5-.4-1-.4s-.9.2-1.2.7c-.3.5-.5 1.1-.5 2 .2-.3.5-.5.8-.7.3-.1.6-.2.9-.2.6 0 1.1.2 1.5.6.4.4.7.9.7 1.7 0 .6-.2 1.2-.6 1.7-.4.5-1 .7-1.8.7-.7 0-1.2-.2-1.7-.7-.5-.5-.7-1.3-.7-2.5 0-.9.1-1.6.3-2.2.4-1.2 1.2-1.7 2.2-1.7.8-.2 1.4 0 1.7.4zm-.7 5.4c.2-.3.3-.7.3-1.1 0-.4-.1-.7-.3-1-.2-.3-.6-.5-1.1-.5-.4 0-.7.1-1 .4-.3.3-.4.6-.4 1.1 0 .4.1.8.4 1.1.3.3.6.5 1.1.5.4 0 .8-.2 1-.5z"/></svg>