<svg xmlns="http://www.w3.org/2000/svg" width="665" height="365" viewBox="0 0 665 365"><style type="text/css">.st0{fill:#FFFFFF;} .st1{fill:#95D5D2;} .st2{fill:#898B8E;} .st3{fill:#A7A9AC;} .st4{fill:#A7A9AC;stroke:#A7A9AC;stroke-width:3.0577;stroke-linecap:round;stroke-linejoin:round;stroke-miterlimit:10;}</style><path class="st0" d="M324.2 79.3v.1-.1zm82.5-31c-3.4 1.8-6.5 4.3-9.4 7 2-3.1 4.5-6 7.2-8.6.3-.2.6-.4.9-.5.6-.3 1.4-.1 1.7.5.4.5.1 1.3-.4 1.6zm-396.9-56.4h-2.8c0-.2.2-.4.4-.6.6-.5 1.6-.4 2.1.2.1.2.2.3.3.4zm368.4 85.9c0 .1 0 .1-.1.1 0 0 0-.1.1-.1zm17.2-24.2l-.4.4.4-.4zm84 23.4v-.1z"/><path class="st1" d="M540.4 74.3s-.4 1.6-.8 3.1l-1-.1.7-3h1.1z"/><path class="st0" d="M605.6 77.1v-.3.3z"/><path class="st2" d="M608 357.7c-2.4 0-4.9-.3-7.3-.8-2-.5-3.9-1.1-5.6-1.9-1.3-.6-2.6-1.3-3.8-2-.7-.4-1.2-.8-1.7-1.2 0 0-.1 0-.1-.1l-.1-.1c-9.9-6.7-9.3-21-9.3-21.2l3.3-35.7 8.8 19c-2.5.7-4.5 2.1-5.9 4.2-4.3 6.2-1.6 16.2-1.5 16.6v.1c5 14.1 20 15.3 20.6 15.3h1.2c12 0 20.3-8 21-8.7 4.7-4.3 8.4-12 11-23h7c-.8 3.5-1.7 6.8-2.7 9.8-1.1 3.2-2.3 6-3.5 8.6-.1.2-.2.4-.3.5-1.1 2.1-2.2 4-3.5 5.7l-.8 1.2-.3.4c-.8 1-1.5 2-2.4 3-1 1.1-2 2.2-3 3.2-.7.7-1.4 1.3-2.1 1.8-1.1.9-2.7 1.5-4.2 2.1l-.6.2c-1.6.6-3.4 1.2-5.1 1.6-3.1.8-6.1 1.2-9 1.2l-.1.2zm-23.2-55.3l4.8 10.3c-2.4 1.1-3.9 2.8-4.9 4.2-.6.9-1.1 1.8-1.5 2.8l1.6-17.3m58.3 18c-.6 2.5-1.3 4.9-2.1 7.1-1.1 3.1-2.2 5.9-3.4 8.4-.1.2-.2.3-.2.5v.1c-1 2-2.1 3.8-3.3 5.5-.3.4-.5.8-.8 1.1l-.3.3-.1.1c-.7.9-1.4 1.9-2.3 2.8-.9 1.1-1.9 2.1-2.9 3-.7.6-1.3 1.2-2 1.7-.8.7-2.3 1.2-3.6 1.7l-.6.2c-1.6.6-3.2 1.1-4.8 1.6-2.9.7-5.8 1.1-8.5 1.1h-.1c-2.3 0-4.6-.3-6.8-.8-1.9-.4-3.6-1-5.3-1.8-1.2-.5-2.4-1.2-3.5-1.9-.6-.4-1-.7-1.4-1l-.3-.2-.1-.1c-7.4-5-8.3-15.1-8.3-18.3.3 1.9.6 3.2.7 3.6l.1.3c5.4 15.3 21.6 16.6 22.3 16.7h1.3c12.6 0 21.3-8.2 22.4-9.3 4.8-4.4 8.5-11.8 11.2-22.5h2.7m-60.9-33.1l-4 43.1s-.7 15.5 10.1 22.9l.1.1c.6.5 1.2.9 1.9 1.3 1.3.8 2.6 1.5 4 2.2 1.9.9 4 1.5 6 2 2.5.6 5.1.9 7.7.9h.1c3.2 0 6.4-.4 9.5-1.2 1.8-.5 3.6-1 5.3-1.7 1.8-.7 3.8-1.4 5.3-2.6.8-.6 1.5-1.3 2.2-2 1.1-1 2.2-2.2 3.2-3.3.9-1 1.7-2 2.5-3 .1-.2.2-.3.4-.5.3-.4.6-.8.8-1.2 1.3-1.9 2.5-3.8 3.6-5.9l.3-.6c1.4-2.8 2.6-5.8 3.6-8.9 1.4-4 2.4-8.2 3.3-12.4h-11.1c-2.3 10.2-5.7 19-10.8 23.6 0 0-7.9 8.2-19.6 8.2h-1s-14.3-1-18.8-14c0 0-4.8-17.6 8.4-18.8l-13-28.2z"/><path class="st3" d="M639.5 314.4c4.3-20.7 4.3-46.3 4.1-55.8 1.2.4 2.4.6 3.6.6.7 0 1.4-.1 2-.2 0 2-.1 4.4-.2 7.1 0 .4.1.8.3 1.1.3 6.1 1 27.2-2.9 47.2h-6.9zm6.2-53.3c.5.1 1.1.1 1.6.1 0 1.5-.1 3.1-.2 4.8 0 .6.1 1.2.3 1.7.3 6.3.8 25.8-2.6 44.7h-2.9c3.6-18.8 3.9-40.7 3.8-51.3m-4.2-6c.2 5.4.9 37.3-4.5 61.2h11.1c5.1-24.5 3.2-51 3.2-51l-.2.8c.2-3.8.2-7.2.2-9.9-1.2.6-2.6.9-4 .9-2.2.1-4.2-.7-5.8-2z"/><path class="st4" d="M647.2 239.1c-5 0-9.1 4.1-9.1 9 0 2.8 1.3 5.4 3.3 7 1.6 1.3 3.5 2 5.7 2 1.4 0 2.8-.3 4-.9 3-1.5 5-4.6 5-8.1.2-5-3.9-9-8.9-9zm2.6 12.2c-.7.6-1.5.9-2.5.9s-1.9-.4-2.6-1c-.9-.7-1.4-1.8-1.4-3 0-2.2 1.8-4 4-4s4 1.8 4 4c0 1.2-.6 2.4-1.5 3.1z"/><path class="st0" d="M475.7 75.7c-.1.3-.1.7-.3 1.3l.4-1.5-.1.2zm126.2 0c-.1.4-.2.9-.3 1.5.2-.5.3-1.2.4-1.7l-.1.2zm3.7 1.1v.4-.4zm37-8.6c-3.1-2.7-7.1-3.4-11.8-2.2-2.4.6-4.4 1.8-6 3.5-2.9 3.2-5.2 7.4-5.6 8.4-4.5 7.4-7.8 9.9-10.5 9.9-6.7 0-3.1-10.7-3-10.7v-.4.3c.1-.3.6-1.6.3-3.8 0 0-.4-2.7-2.1-4.4-.8-.9-2-1.7-4.2-1.8-2.9-.1-8.2 3.3-10.2 10.8-2.6 4.5-6.6 10.4-11.3 10-2.6-.3-4.4-2.6-5.5-6.1 1.6-2.7 3-5.8 4.1-8.7 5.7-15.1 11.1-33.7 4.3-34.6-5.6-.7-10.6 14.6-12.2 29.8-.3-.2-.7-.3-1.2-.3-2.6-.3-9.5 3.3-11.6 11.8-3.9 5.9-6.9 8-9.3 8-6.7 0-3.1-10.7-3-10.7 0 0 .7-1.4.3-3.8 0 0-.5-3.1-2.5-4.7-.8-.8-2-1.3-3.9-1.4-2.9-.1-8.2 3.2-10.1 10.6-2.6 4.5-6.6 10.5-11.6 10.1-7.9-.6-1.8-15-3.2-16.5-1.6-1.9-3.8-2.1-4.7.1-1 2.2-5.5 14.7-7 14.4-2-.5.9-7.6-.7-11.9-1.3-3.4-3.8-2.4-4.8-.6-1 1.6-1.6 2.6-2.2 3.7l-.2.4c-4.6 7.8-8.1 10.4-10.8 10.4-6.7 0-3.1-10.7-3-10.7v-.1s.7-1.4.3-3.8c0 0-.6-4-3.3-5.3-.8-.4-1.7-.7-3.1-.8-2.2-.1-6 2-8.5 6.4-4.9 5.6-9 8.5-9.1 8.6l-.3.3c-6.6 4.5-22 13.3-39.4 12.7-23.2-.8-20.8-21.3-20.8-22.7.6-18.6 23.7-38.6 48-37.7 13.1.5 11.7 6 11.7 6.1-.4 9.2-14.5 15-15.5 15.4-2 .7-3.1.7-2.2 2.5 1 2.1 4.6.7 5.9-.1 1.3-.7 15.8-8.8 15.7-18-.1-9.3-14.8-9.5-15.8-9.5-10.9-.4-21.7 3.2-30.6 9.1-5 3.1-10.3 7.4-13.7 10.4l-.1.1c-.1.1-.2.2-.4.3-.4.3-.7.6-1 .9-.1.1-.3.2-.4.4l-.5.4c-.1.1-.2.1-.2.2-.2.2-.4.4-.6.5-.1.1-.2.1-.2.2l-.4.4c-9.5 9.2-15.4 20.9-16.8 23.8 0 .1 0 .1-.1.1 0 .1-.1.2-.2.3-.3.6-.8 1.7-1.8 3.4-2.4 3.4-5.5 6.4-9.1 6.1-7.9-.6-1.8-15-3.2-16.5-1.6-1.9-3.8-2.1-4.7.1-1 2.2-5.5 14.7-7 14.4-2-.5.9-7.6-.7-11.9-1.3-3.4-3.8-2.4-4.8-.6-.2.4-.5.7-.6 1-.2 0-.4.2-.6.5-2.3 4.2-7.3 13.2-12.6 13.4-7.8.4-4-13.7-4-14.2 0-1.8-3.1-2-3.8-.2 0 0-.5 3.1-.8 5.4v.6c-.5 2.9-2 4.6-2.2 4.7-3.1 3-9.4 5.7-13.8 7 0 0-1 .2-2.7 1.6l-.3.3c-.1-5.5-.1-10.3.5-12.8 1.5-5.7 2.9-10.1 3-10.3.9-1.7-2.4-2.4-3.1-1l-1.2 2.3s-1.2-2.8-4.7-3.3c-3.4-.5-6.2 2.4-8.1 6.3-.1.1-.2.2-.3.4-2.3 4.2-6.9 13.2-13 12.7-7.9-.6-1.8-15-3.2-16.5-1.6-1.9-3.8-2.1-4.7.1-1 2.2-5.5 14.7-7 14.4-2-.5.9-7.6-.7-11.9-1.3-3.4-3.8-2.4-4.8-.6-.2.4-.5.7-.7 1-.2 0-.4.2-.5.5-2.3 4.2-7.3 13.2-12.6 13.4-7.8.4-4-13.7-4-14.2 0-1.8-3.1-2-3.8-.2l-.6 3.8c-2.6 4.6-6.7 11-11.5 11.1-4.6 0-4.3-6.8-4.1-9.4.3-3.6 3.2-7.8-2.3-7.8-4.1 0-8.9 13.6-8.9 13.6l.7-10s9.5-24.4 10.7-31.8c.9-5.4-3.5-6.7-4.6-6.7-3.8-.1-6.8 7.3-8 19.3-1.2 11.9-1.3 18.1-1.3 18.1s-.4 1.9-.8 4.5c-2.7 4.5-6.8 10.2-12.6 10.2-2.1 0-4-.7-5.5-2.1 2.8.5 6.6-2.4 7.1-7.4.1-2.2-2.7-8.9-2.8-11.1-.1-1.6.4-5.5-3-5.6-1.9 0-2.4 1.8-2.7 4l-.2 1.2v.1c-.7 3-2 5.9-2.4 6.9 0 0 0 .1-.1.1-2.3 4.2-7.3 13.2-12.6 13.4-7.8.4-4-13.7-4-14.2 0-1.8-3.1-2-3.8-.2 0 0-.6 3.5-.9 5.8-.6 3.2-1.4 3.9-1.4 3.9h.1c-4.6 7.3-9 11.5-12.8 12.1-5.6.8-7.9-7.5-8.3-9.2-.4-3.4-.4-6-.1-11.2.1-1.6.3-5.5.5-9.5 6-.2 17.5-.4 17.5-.4-.1 0 4.2.2 4.3-1.2.1-2.1-5-2-5-2-.1 0-7.4-.6-16.7-.2.5-8.5 1.9-22.4 1.9-25.8 8.5-.5 17.3-1.1 21.9-1.1h15s4.6.5 4.7-.9c.1-1.5-1.9-2.7-4.5-2.8-19-.7-21.3-.4-37.4 1.1-.1-1.1-.5-1.9-1.3-2-.9-.1-1.5.9-1.9 2.2-15.9 1.5-19.6 1.7-23.8 1.8-.8 0-1.6-.1-2.2 0-11 0-69-2.1-102.6-42.6h-2.9c-.3.8-.2 1.4.2 1.8 28.4 34.6 73.8 42.2 95.3 43.7 10.7.9 14.2.8 14.2.8 1.9.1 4.3 0 7.2-.2 3.1-.3 8.2-.7 13.8-1.1-.7 8.6-1.4 17.2-2.3 25.7-8.4.5-9.2 1-16.5 2.1-1 .1-2 .5-1.7 1.9.3 1.6 2.5 1 5 .8 1.9-.2 8.6-.8 12.9-1.1-.1 3.7-.2 9.1-.5 16.3-.1 2.7.1 4.7.5 6.3h-.1s.7 3.5 4.1 6.5c0 0 4.5 4.6 9.8 3.1h-.1c4.3-1.1 8.8-5.3 13.6-12.7.9 3.1 3.1 6.3 7.8 6.3 4.6 0 8.5-4.5 10.9-8.1 1.6 4.6 4.7 7.8 10.5 8.2 6.1.4 10.4-3.7 13.1-7.2-.1 2-.1 3.9.2 5.2.5 2.3 4.3 3.7 4.3.6 0-.8 5.9-14.4 7.4-14.2 1.1.2-4.4 16.5 7.1 16.3 5.1-.1 9.2-5.3 11.6-9.1.5 3.4 2.5 8.4 8.2 8.3 6.8 0 12.1-9.7 13.2-11.8.1 0 .2-.1.2-.2 1.3-2.4 2-4 2.3-4 .7 0 .7 1.5.5 3.6-.3 4-1.4 10.4 2.5 10.7 5 .3 7.4-12.2 8.2-12 1.5.4-2.6 12.7 7.7 13 4.6.2 8.2-3.5 10.5-6.7-.3 4 1.1 7.2 5.1 8.1 4.5 1 7.8-5.4 7.8-5.4s.3 3.9.5 9.7c-5.8 6.4-12.4 18.2-13.6 29.5-.7 7.3 2 10.7 5.1 10.6 8.5-.4 11.8-13.6 12-21.1.2-5.3-.2-12.2-.4-18.5 1.3-1.3 2.6-2.4 3.8-3.2 1.9-.6 11.7-3.7 15.7-8.6.9 3.1 3.1 6.3 7.8 6.3 6.8 0 12.1-9.7 13.2-11.8.1 0 .2-.1.2-.2 1.3-2.4 2-4 2.3-4 .7 0 .7 1.5.5 3.6-.3 4-1.4 10.4 2.5 10.7 5 .3 7.4-12.2 8.2-12 1.5.4-2.6 12.7 7.7 13 7.5.3 12.5-9.7 13.2-11.1.1-.2.2-.3.2-.5 0 0 .1-.2.1-.3l.1-.3c.3-.7.8-1.8 1.3-2.9 2.6-4.8 7.9-13.5 15.3-20.5-3.5 5.4-5.7 11.3-5.9 17-.7 18.1 11.1 25.7 26.1 26.3 19.9.8 38.6-12.7 39.7-13.7 1.1-1 1.8-1.8 2.3-2.5.9-.8 2.1-1.8 3.4-3.1l-.2 1.2c-1.2 9.4 3.6 11.1 5.5 11.1 3.5.1 7.1-6.5 7.1-6.5s.9 6.1 6.9 6c5.9-.1 10.9-8.4 12.6-11.6 1.3-2.4 2-4 2.3-4 .7 0 .7 1.5.5 3.6-.3 4-1.4 10.4 2.5 10.7 5 .3 7.4-12.2 8.2-12 1.5.4-2.6 12.7 7.7 13 4.8.2 8.5-3.8 10.8-7.1.2 6.6 4 7.9 5.7 7.9 3.5.1 7.1-6.5 7.1-6.5s.9 6.1 6.9 6c3.5-.1 6.6-3 9-6 .3 5.4 4 6.2 5.9 6.3 3.1.2 6.2-2.4 8.9-6.1 1.5 3.4 3.9 5.8 7.6 6 4.6.2 8.4-4 10.8-7.5.2 6.5 4 7.8 5.7 7.8 3.5.1 7.1-6.5 7.1-6.5s.9 6.1 6.9 6c5.9-.1 10.9-8.4 12.6-11.6.1-.1.2-.2.2-.4 0 0 2.3-4.7 5.3-7.9 1.3-1.4 2.9-2.3 4.8-2.8 4-1 7.1-.5 9.6 1.7 9.8 8.4 7.2 38.6 6.1 51.5-.2 1.8-.3 3.3-.4 4.4-1.3 19.4-1 39.4-.8 58.6.1 8.8.2 17.9.2 26.8l-.1 32.6c0 .7.6 1.3 1.2 1.3s1.2-.6 1.2-1.2l.1-32.7c0-8.9-.1-18-.2-26.8-.3-19.2-.5-39.1.8-58.5.1-1.1.2-2.6.4-4.4 1.5-14.5 4.2-44.5-6.7-53.7zm-426.9-27.8c3.7.6-5.5 23.7-5.5 23.7s2-24.3 5.5-23.7zm-30.3 44.2c-.7-1.1-1.4-2.4-1.8-3.9 0-.1-.1-.3-.2-.5l.9-2c1.3-2.3 2.9-5.7 3.1-8.7 1.1 2 3.1 3.5 3.1 9.2 0 3.1-1 5.5-4.6 5.8-.1 0-.3 0-.5.1zm116.2 32.6c-.5 8.7-3.9 17.7-8 16.9-2.9-.6-2-6.6-2-8.4 0-5.2 4.4-16.9 10.5-25 0 5-.1 10.8-.5 16.5zm-7.4-27.6c-2.6 0-1.8-5.3-1.1-9 .6-3.6 3.9-10 6.8-9.4 2.2.4 1.8 4.4 2.1 5.2.1.4 1 0 1 0s-3.9 13.3-8.8 13.2zm181.9-15.4s-.1.6-.3 1.3c-.1.5-.2 1-.4 1.5 0 .1-.1.2-.1.4-1 3.7-3.7 10.9-6.8 10.9-2.4 0-3.1-4.7-2-9.3 1-4.5 3.9-8.9 6.8-8.8 3 0 2.9 3.2 2.8 4zm64.3.1s-.1.5-.3 1.2c-.1.1-.1.1-.1.2-.4 2.5-3.5 12.5-7.2 12.5-2.4 0-3.1-4.7-2-9.3 1-4.5 3.9-8.9 6.8-8.8 3.1.1 2.9 3.6 2.8 4.2zm21.3 14.1c-2.3-.1-2.7-2.3-2.5-5.4.4-5 4.5-11.9 7.5-11.6.7.1 1.3.4 1.7.8-.1 3 .1 6.2.7 9.1-2.4 4.2-5 7.2-7.4 7.1zm9.8-11.6c-.4-5.3.3-11.8 1.7-17.9 3.2-13.6 6.2-16.2 7-16 .8.2-.7 11.5-2.2 16.6-.7 2.6-3.3 10.5-6.5 17.3zm30.8-2.5s-.1.5-.3 1.2l-.4 1.7c0 .1 0 .1-.1.2-1 3.8-3.7 10.8-6.8 10.8-2.4 0-3.1-4.7-2-9.3 1-4.5 3.9-8.9 6.8-8.8 3.1.1 2.9 3.7 2.8 4.2zm-437.2-11.6c-2.1-.3-3.1 2.2-3.1 3.1-.1 1 .3 2.6 2.2 2.9 1.5.2 2.8-.8 3-2.2.2-1.4.1-3.5-2.1-3.8zm73.3 0c-2.1-.3-3.1 2.2-3.1 3.1-.1 1 .3 2.6 2.2 2.9 1.5.2 2.8-.8 3-2.2.2-1.4.1-3.5-2.1-3.8zm88.9 0c-2.1-.3-3.1 2.2-3.1 3.1-.1 1 .3 2.6 2.2 2.9 1.5.2 2.8-.8 3-2.2.2-1.4.1-3.5-2.1-3.8z"/><path class="st1" d="M115.1 34.5s-6.1.2-10.5-.2l2.1-1.5 8.4.5v1.2zm361 39.7s-.4 1.6-.8 3.1l-1-.1.7-3h1.1z"/><path class="st0" d="M543.7 77.1z"/><path class="st1" d="M602.3 74.4s-.4 1.6-.8 3.1l-1-.1.7-3h1.1z"/></svg>