<svg xmlns="http://www.w3.org/2000/svg" width="236" height="204" viewBox="0 0 236 204"><style type="text/css">.st0{fill:#95D5D2;stroke:#95D5D2;stroke-miterlimit:10;} .st1{fill:none;stroke:#23BDBD;stroke-width:2;stroke-linecap:round;stroke-linejoin:round;stroke-miterlimit:10;} .st2{fill:none;stroke:#23BDBD;stroke-width:1.8221;stroke-linecap:round;stroke-linejoin:round;stroke-miterlimit:10;} .st3{fill:none;stroke:#23BDBD;stroke-width:1.7618;stroke-linecap:round;stroke-linejoin:round;stroke-miterlimit:10;} .st4{fill:#95D5D2;} .st5{fill:#A7A9AC;} .st6{fill:#0094B0;} .st7{fill:none;stroke:#007D95;stroke-width:3;stroke-linecap:round;stroke-linejoin:round;stroke-miterlimit:10;} .st8{fill:#007D95;} .st9{fill:none;stroke:#23BDBD;stroke-width:1.5;stroke-linecap:round;stroke-linejoin:round;stroke-miterlimit:10;} .st10{fill:#FFFFFF;} .st11{stroke:#000000;stroke-width:2;stroke-linecap:round;stroke-linejoin:round;stroke-miterlimit:10;}</style><path class="st0" d="M64.7 37.5c-1.9 2.2-3.8 4.6-5.6 7.3 0 0-12.1 18.6-17.1 43.3-4.8-4.6-5.1-6.2-5.1-6.2.8-4 0-7.1 0-7.1-2.6-.4-5.9-.2-5.9-.2 1-1.7 2.1-3.3 2.1-3.3 1.5-2.5.2-5.4.2-5.4-1.4-1.2-4.1-2.1-4.1-2.1 1.7-1.1 3.5-3.8 3.5-3.8.8-1.8.1-3.6.1-3.6-.8-1-3.6-1.7-3.6-1.7 1.2-1.3 3.5-3.2 3.5-3.2 1.3-1.2-.1-3.3-.1-3.3-.4-.8-3.4-1.9-3.4-1.9 2.2-2.3 4.5-3.5 4.5-3.5 1.8-1.8.5-3.1.5-3.1-3-1-3.1-2.2-3.1-2.2 1.2-2.9 19.4-2.6 19.4-2.6v-2.6c11.7-.4 14.2 5.2 14.2 5.2z"/><path class="st1" d="M47.5 61.6s-6.2-2.7-13.2 0m16.8-7.8s-5.7-5.1-16.8 0m20.1-7.6s-7.7-4.3-20.1 0m10.1 24.5s-4.1-.6-7.7 0"/><path class="st2" d="M43.8 80.5s-2.8-.8-5.7 1.4"/><path class="st1" d="M57.9 41.5s-5.5-5.4-21.3-3.7"/><path class="st3" d="M63 39.5s-4.6-5.1-11-6.4"/><path class="st4" d="M190.5 88.1c-10.1 27.5-47.2 20.9-47.2 20.9s2.5-3.6 5.9-7.1l.1-.1c1.9-2 4.2-3.8 6.4-4.9 0 0 12.4-6.1 20.5-11.6 5.7-1.1 14.3 2.8 14.3 2.8z"/><path class="st1" d="M170.8 88.7l13.9 3m-21 1l15.7 3.2m-23.7 1l19.9 3.2m-26.3 1.7l17.7 2.2"/><path class="st4" d="M168.7 130.6s-2.8-.3-6.2 2.7c-6.3-1-13.5-2.9-17.3-6.9 0 0-5.5-5.7-3.7-13.4l.1-.2s7.6 4.7 12.3 6c0 .1 14.4 5.5 14.8 11.8z"/><path class="st1" d="M143.3 121.6s1.3-1.2 3.6-1.6m-1.3 5.4s2.8-3.3 5.3-3.2m-1.7 6.8s3-4.8 6.3-4.9m-1.6 6.7s2.4-4.6 7-4.7m-2.8 5.7s3.1-3.4 6.2-3.4"/><path class="st5" d="M330.6 203.6l-.2.3c0 .1-.1.2-.1.2.1-.1.2-.3.3-.5zm0 0l-.3.6c0-.1.1-.2.1-.2.1-.2.1-.3.2-.4z"/><path class="st6" d="M221.5 63.1c-19.5 7.9-29.8 12.4-29.8 12.4-4.8 2-12.9 7.9-12.9 7.9-.8.6-1.7 1.3-2.6 1.9-8.1 5.5-20.5 11.6-20.5 11.6-2.2 1.1-4.5 3-6.4 4.9l-.1.1c-.5.4-3 2.3-6.2 5.2-7 6.4-17.3 17.6-16.8 28.2 0 0-2.7 18.4 36.5 32.3l10.3.7c-8.1-.4-58.8 3.4-58.8 3.4-8.2 0-16.8-2.8-16.8-2.8-3.9-2-13.2-5.1-13.2-5.1-17.5-7.6-31-27.9-31-27.9-13.8-19.4-11.5-46.2-11.5-46.2l.3-1.8c5-24.7 17.1-43.3 17.1-43.3 1.8-2.7 3.7-5.2 5.6-7.3 9-10.2 18-14 18-14 22.5-11.3 48.1-10.7 48.1-10.7 12.7.3 25.9-2.3 25.9-2.3 8.2-2.3 30.1-1.1 30.1-1.1 6.2 1.4 7.6-.3 7.6-.3 8.7-2.5 8.7 2.5 8.7 2.5l.3 20.8c-.3 3.1 2.8 5.1 2.8 5.1l11.8 3.6c11.3 2.5 11.3 10.4 11.3 10.4 1.2 7-7.8 11.8-7.8 11.8z"/><path class="st4" d="M226.3 175.2c1.4 12.7-5.1 22.5-5.1 22.5-2.5 4.2-8.2 0-8.2 0-14.9-9-31.8-24.8-31.8-24.8-1.2-1.2-2.3-2.1-3.3-2.7 0 0 32.4-13.9 5.9-39.5 23.6-19.7 34.3-25.9 34.3-25.9 2-1.1 3.9 0 3.9 0 10.7 12.7.3 42.2.3 42.2-1.7 3.4-.6 7.9-.6 7.9 3.8 11 4.6 20.3 4.6 20.3z"/><path d="M188.6 59.5s-5.9-31.2 12.1-46.7v23.4s-.3 3.1 2.3 3.4c0 0 19.4 3.9 21.7 10.1-.1-.1 2.5 7.2-36.1 9.8z"/><path class="st7" d="M191.7 12.7s-12.4 15.2-10.7 39.1m-.2-26.1s-7.7 9.6-7.7 27.3c0 0 .3 4.8-2.5 4.8 0 0-6.8 2-1.7 6.5 0 0 6.2 3.7 14.9 2 0 0 5.3-1.1 5.1-3.9m-77.2-8.6s4.2 23.9 19.7 31c0 0 27 11.5 53.2-13.2"/><path class="st4" d="M80.9 95.4s-41.2-14.4-75.4 13.1c0 0 32.5 41.2 77.8 3.4l-2.4-16.5z"/><path class="st1" d="M73.5 97.1s-28.2-6.9-60 12.6m60-9.6s-32.5-1.7-51.9 14.4m54.3-10.5s-28.1 2.5-46.7 14.9m48.3-11.6s-24.5 9.2-39.2 14.3m40.6-11.8s-12.7 10.1-31.3 14.2"/><path class="st4" d="M115.7 148.4s-9 23.1 11.4 38.5c0 0 6-3.7 15.1-4.7 0 0 18.8-1 20.4-6.4 0 0-5.4-2.1-6.4-6.9l-40.5-20.5z"/><path class="st8" d="M177.9 170.2c-2.8-1.8-4.6-1.8-4.6-1.8h-.4l-10.3-.7c-39.2-13.9-36.5-32.3-36.5-32.3-.1-1.6.1-3.2.5-4.7.9-4 3-8 5.6-11.7 3.3-4.6 7.4-8.8 10.7-11.8 3.2-2.9 5.7-4.8 6.2-5.2-3.4 3.5-5.9 7.1-5.9 7.1-.8 1.4-1.4 2.8-1.7 4.1-1.9 7.6 3.7 13.4 3.7 13.4 3.8 4 10.9 5.9 17.3 6.9 6.7 1.1 12.5 1 12.5 1 5.6-.6 8.7-3.6 8.7-3.6 26.6 25.3-5.8 39.3-5.8 39.3z"/><path class="st1" d="M191.7 130.6l27.3-19.2m-24.8 23.2l27.8-15.7m-25.8 19.8l25.8-10.8m-23.8 15.5l20.8-4.7m-19.5 9.7h18.1m-18.1 4.3l18.1 3.7m-18.1 2l19.5 6.7m-22.8-3.3l25.8 12.7m-27.8-6.8l24.8 16.5m-31.3-14l28.2 22.4"/><path class="st4" d="M109.7 118.9s-13.1 13.7-14.4 29.5c0 0 20.4-5 21.4-17.8l-7-11.7zm38.5 22.1s-14.4 1.7-21.6-10.4c.9-4 3-8 5.6-11.7.1 0 15.6 11.1 16 22.1z"/><path class="st9" d="M108.7 123.9s-5.7 12.3-9.4 17.2m12.4-14.3l-3 10.9m1.5-13.8s-3.8 15.3-7.9 19.4m26.8-16.5v3.2m1.4-6.1s3.4 8 5 10.7m-2.5-10.7s3.2 7 8.2 13.7m-8.2-16s8.5 11.7 12.6 16.1"/><path class="st1" d="M119.6 154.6s-1 19.3 7.7 26.8m-1.2-21.1s-.5 14.9 6.9 19.8m-1.3-16s0 11.8 5.7 14.9m0-12.9s-.7 8 4.8 12.9m1.1-11.3s.1 7.9 3.6 9.7m1.3-7.2s.2 3.5 4.1 7.2m.1-8.1s.7 5.3 5 6.7"/><circle class="st10" cx="154.9" cy="35.9" r="7.9"/><circle class="st11" cx="154.9" cy="35.9" r="3.4"/></svg>