<svg xmlns="http://www.w3.org/2000/svg" width="401.8" height="248.5" viewBox="0 0 401.8 248.5"><style type="text/css">.st0{fill:#FFFFFF;} .st1{fill:none;stroke:#FFFFFF;stroke-width:0.861;stroke-miterlimit:10;} .st2{fill:#7D6F78;stroke:#000000;stroke-width:0.861;stroke-linecap:round;stroke-linejoin:round;stroke-miterlimit:10;}</style><path class="st0" d="M41.2 225.6c.3.5.4 1.2.4 2.1 0 .9-.1 1.6-.4 2.1-.4.8-1 1.2-1.8 1.2s-1.3-.3-1.7-1c-.3-.5-.5-1.3-.5-2.2 0-.7.1-1.3.3-1.8.3-1 1-1.4 1.9-1.4.8 0 1.4.4 1.8 1zm-.8 4.2c.2-.4.4-1 .4-2 0-.7-.1-1.3-.3-1.8-.2-.5-.5-.7-1-.7s-.8.2-1 .7c-.2.4-.3 1.1-.3 1.9 0 .6.1 1.2.2 1.5.2.6.6.9 1.1.9.3.1.6-.1.9-.5zm48.5-.8c.1.5.3.8.6.9.2.1.4.1.7.1.5 0 .8-.1 1-.4s.3-.6.3-1-.1-.8-.4-1c-.3-.2-.6-.4-1-.4-.3 0-.5.1-.7.2-.2.1-.4.3-.5.4h-.7l.5-3.4h3.3v.8h-2.7l-.3 1.7c.1-.1.3-.2.4-.2.2-.1.5-.1.8-.1.6 0 1.1.2 1.5.6.4.4.6.8.6 1.4 0 .6-.2 1.1-.6 1.6-.4.5-1 .7-1.8.7-.5 0-1-.1-1.4-.4-.4-.3-.6-.7-.7-1.3h1.1zm48.2-2.8v-.6c.6-.1 1-.1 1.2-.3.2-.1.4-.4.5-.9h.6v6.3h-.8v-4.5h-1.5zm8.4-.9c.3.5.4 1.2.4 2.1 0 .9-.1 1.6-.4 2.1-.4.8-1 1.2-1.8 1.2s-1.3-.3-1.7-1c-.3-.5-.5-1.3-.5-2.2 0-.7.1-1.3.3-1.8.3-1 1-1.4 1.9-1.4.8 0 1.4.4 1.8 1zm-.8 4.2c.2-.4.4-1 .4-2 0-.7-.1-1.3-.3-1.8-.2-.5-.5-.7-1-.7s-.8.2-1 .7c-.2.4-.3 1.1-.3 1.9 0 .6.1 1.2.2 1.5.2.6.6.9 1.1.9.3.1.6-.1.9-.5zm43.2-3.3v-.6c.6-.1 1-.1 1.2-.3.2-.1.4-.4.5-.9h.6v6.3h-.8v-4.5h-1.5zm5.3 2.8c.1.5.3.8.6.9.2.1.4.1.7.1.5 0 .8-.1 1-.4s.3-.6.3-1-.1-.8-.4-1c-.3-.2-.6-.4-1-.4-.3 0-.5.1-.7.2-.2.1-.4.3-.5.4h-.7l.5-3.4h3.3v.8h-2.7l-.3 1.7c.1-.1.3-.2.4-.2.2-.1.5-.1.8-.1.6 0 1.1.2 1.5.6.4.4.6.8.6 1.4 0 .6-.2 1.1-.6 1.6-.4.5-1 .7-1.8.7-.5 0-1-.1-1.4-.4-.4-.3-.6-.7-.7-1.3h1.1zm44.7.5c.2-.4.6-.8 1.1-1.1l.8-.5c.4-.2.6-.4.8-.6.2-.2.4-.5.4-.8 0-.4-.1-.7-.3-.9s-.5-.3-.9-.3c-.5 0-.9.2-1.1.6-.1.2-.2.5-.2.9h-.8c0-.5.1-1 .3-1.3.3-.6.9-.9 1.8-.9.7 0 1.2.2 1.6.6.3.4.5.8.5 1.3s-.2.9-.5 1.3c-.2.2-.6.5-1.1.8l-.6.3c-.3.2-.5.3-.7.5-.3.3-.5.5-.6.8h3.4v.7h-4.3c.1-.5.2-1 .4-1.4zm8.6-3.9c.3.5.4 1.2.4 2.1 0 .9-.1 1.6-.4 2.1-.4.8-1 1.2-1.8 1.2s-1.3-.3-1.7-1c-.3-.5-.5-1.3-.5-2.2 0-.7.1-1.3.3-1.8.3-1 1-1.4 1.9-1.4.8 0 1.4.4 1.8 1zm-.8 4.2c.2-.4.4-1 .4-2 0-.7-.1-1.3-.3-1.8-.2-.5-.5-.7-1-.7s-.8.2-1 .7c-.2.4-.3 1.1-.3 1.9 0 .6.1 1.2.2 1.5.2.6.6.9 1.1.9.3.1.7-.1.9-.5zm42.7-.3c.2-.4.6-.8 1.1-1.1l.8-.5c.4-.2.6-.4.8-.6.2-.2.4-.5.4-.8 0-.4-.1-.7-.3-.9s-.5-.3-.9-.3c-.5 0-.9.2-1.1.6-.1.2-.2.5-.2.9h-.8c0-.5.1-1 .3-1.3.3-.6.9-.9 1.8-.9.7 0 1.2.2 1.6.6.3.4.5.8.5 1.3s-.2.9-.5 1.3c-.2.2-.6.5-1.1.8l-.6.3c-.3.2-.5.3-.7.5-.3.3-.5.5-.6.8h3.4v.7h-4.3c.1-.5.2-1 .4-1.4zm5.5-.2c.1.5.3.8.6.9.2.1.4.1.7.1.5 0 .8-.1 1-.4s.3-.6.3-1-.1-.8-.4-1c-.3-.2-.6-.4-1-.4-.3 0-.5.1-.7.2-.2.1-.4.3-.5.4h-.7l.5-3.4h3.3v.8h-2.7l-.3 1.7c.1-.1.3-.2.4-.2.2-.1.5-.1.8-.1.6 0 1.1.2 1.5.6.4.4.6.8.6 1.4 0 .6-.2 1.1-.6 1.6-.4.5-1 .7-1.8.7-.5 0-1-.1-1.4-.4-.4-.3-.6-.7-.7-1.3h1.1zm45.4.9c-.3-.4-.5-.9-.5-1.5h.8c0 .4.1.7.2.9.2.3.6.5 1.1.5.4 0 .8-.1 1-.3s.4-.5.4-.9-.1-.7-.4-.9c-.3-.2-.6-.3-1.1-.3h-.4v-.7h.4c.3 0 .5 0 .7-.1.3-.2.5-.5.5-.9 0-.3-.1-.6-.3-.7s-.5-.3-.8-.3c-.5 0-.9.2-1.1.5-.1.2-.2.5-.2.8h-.6c0-.5.1-.9.3-1.2.3-.6.9-.9 1.7-.9.6 0 1.1.1 1.5.4.4.3.5.7.5 1.2 0 .4-.1.7-.3.9-.1.1-.3.3-.5.4.3.1.6.3.8.5.2.3.3.6.3 1 0 .6-.2 1.1-.6 1.5-.4.4-1 .6-1.7.6-.8.1-1.3-.1-1.7-.5zm8.5-4.9c.3.5.4 1.2.4 2.1 0 .9-.1 1.6-.4 2.1-.4.8-1 1.2-1.8 1.2s-1.3-.3-1.7-1c-.3-.5-.5-1.3-.5-2.2 0-.7.1-1.3.3-1.8.3-1 1-1.4 1.9-1.4.9 0 1.4.4 1.8 1zm-.8 4.2c.2-.4.4-1 .4-2 0-.7-.1-1.3-.3-1.8-.2-.5-.5-.7-1-.7s-.8.2-1 .7c-.2.4-.3 1.1-.3 1.9 0 .6.1 1.2.2 1.5.2.6.6.9 1.1.9.3.1.7-.1.9-.5zm42.5.7c-.3-.4-.5-.9-.5-1.5h.8c0 .4.1.7.2.9.2.3.6.5 1.1.5.4 0 .8-.1 1-.3s.4-.5.4-.9-.1-.7-.4-.9c-.3-.2-.6-.3-1.1-.3h-.4v-.7h.4c.3 0 .5 0 .7-.1.3-.2.5-.5.5-.9 0-.3-.1-.6-.3-.7s-.5-.3-.8-.3c-.5 0-.9.2-1.1.5-.1.2-.2.5-.2.8h-.8c0-.5.1-.9.3-1.2.3-.6.9-.9 1.7-.9.6 0 1.1.1 1.5.4.4.3.5.7.5 1.2 0 .4-.1.7-.3.9-.1.1-.3.3-.5.4.3.1.6.3.8.5.2.3.3.6.3 1 0 .6-.2 1.1-.6 1.5-.4.4-1 .6-1.7.6-.6.1-1.1-.1-1.5-.5zm5.4-1.2c.1.5.3.8.6.9.2.1.4.1.7.1.5 0 .8-.1 1-.4s.3-.6.3-1-.1-.8-.4-1c-.3-.2-.6-.4-1-.4-.3 0-.5.1-.7.2-.2.1-.4.3-.5.4h-.7l.5-3.4h3.3v.8h-2.7l-.3 1.7c.1-.1.3-.2.4-.2.2-.1.5-.1.8-.1.6 0 1.1.2 1.5.6.4.4.6.8.6 1.4 0 .6-.2 1.1-.6 1.6-.4.5-1 .7-1.8.7-.5 0-1-.1-1.4-.4-.4-.3-.6-.7-.7-1.3h1.1z"/><path class="st1" d="M38.8 5.9v216"/><path class="st0" d="M25.5 8.9h1l3.2 5.2v-5.2h.8v6.5h-1l-3.3-5.2v5.2h-.8v-6.5zm6.5 0h.9v5.7h3.2v.8h-4.1v-6.5zm-7.2 14.6h1l1.9 3.1 1.9-3.1h1l-2.4 3.9v2.6h-.9v-2.6l-2.5-3.9zm11.2 0v.8h-2.2v5.7h-.8v-5.7h-2.2v-.8h5.2zm-11.1 18.2c0 .4.1.7.2.9.3.4.8.6 1.5.6.3 0 .6 0 .9-.1.5-.2.8-.5.8-1 0-.4-.1-.6-.3-.8-.2-.1-.6-.3-1-.4l-.8-.2c-.6-.1-.9-.3-1.2-.4-.4-.3-.6-.7-.6-1.2 0-.6.2-1.1.6-1.4.4-.4.9-.6 1.7-.6.7 0 1.2.2 1.7.5s.7.8.7 1.6h-.8c0-.3-.1-.6-.3-.8-.3-.3-.7-.5-1.3-.5-.5 0-.8.1-1.1.3-.2.2-.3.5-.3.8 0 .3.1.5.4.7.2.1.5.2 1.1.4l.9.2c.4.1.8.2 1 .4.4.3.6.7.6 1.3 0 .7-.3 1.2-.8 1.5-.5.3-1.1.5-1.8.5-.8 0-1.4-.2-1.8-.6-.4-.4-.7-1-.7-1.7h.7zm5.4-4.4h.9v3.2l3.2-3.2h1.2l-2.8 2.6 2.8 3.9h-1.1l-2.3-3.2-1.1 1v2.2h-.9v-6.5zm-6.7 14.9h1.3l1.9 5.5 1.8-5.5h1.2v6.5h-.8v-5.5l-1.8 5.4h-.9l-1.9-5.4v5.4h-.8v-6.4zm7.5 0h2.8c.8 0 1.3.2 1.6.7.2.3.3.6.3.9 0 .4-.1.7-.3 1-.1.1-.3.3-.5.4.3.1.6.3.7.4.3.3.4.7.4 1.2 0 .4-.1.8-.4 1.1-.4.5-1 .8-1.9.8h-2.7v-6.5zm2.4 2.7c.4 0 .7-.1.9-.2.3-.2.5-.5.5-.9s-.2-.7-.5-.9c-.2-.1-.5-.1-.9-.1h-1.6v2h1.6zm.3 3c.5 0 .9-.2 1.2-.5.1-.2.2-.4.2-.7 0-.5-.2-.8-.6-1-.2-.1-.5-.1-.9-.1h-1.8v2.3h1.9zm-3.6 14.7l-.4.5-1-.8c-.2.1-.5.2-.8.3s-.6.1-.9.1c-1 0-1.8-.3-2.4-1-.5-.6-.8-1.4-.8-2.4 0-.9.2-1.6.7-2.2.6-.8 1.4-1.2 2.5-1.2s2 .4 2.5 1.1c.4.6.6 1.3.6 2.2 0 .4-.1.8-.2 1.2-.2.6-.4 1.1-.8 1.4l1 .8zm-2.5-.6c.2 0 .3-.1.4-.1l-.7-.6.4-.5.8.7c.3-.3.4-.6.5-1 .1-.4.1-.7.1-1.1 0-.8-.2-1.4-.6-1.8-.4-.5-.9-.7-1.6-.7-.7 0-1.2.2-1.7.7s-.6 1.1-.6 2.1c0 .8.2 1.4.6 1.9s1 .7 1.7.7c.4-.3.6-.3.7-.3zm3.6-5.9h2.8c.8 0 1.3.2 1.6.7.2.3.3.6.3.9 0 .4-.1.7-.3 1-.1.1-.3.3-.5.4.3.1.6.3.7.4.3.3.4.7.4 1.2 0 .4-.1.8-.4 1.1-.4.5-1 .8-1.9.8h-2.7v-6.5zm2.5 2.8c.4 0 .7-.1.9-.2.3-.2.5-.5.5-.9s-.2-.7-.5-.9c-.2-.1-.5-.1-.9-.1h-1.6v2h1.6zm.3 2.9c.5 0 .9-.2 1.2-.5.1-.2.2-.4.2-.7 0-.5-.2-.8-.6-1-.2-.1-.5-.1-.9-.1h-1.8v2.3h1.9zm-24.9 9.2c.4.4.7.9.7 1.5h-.9c-.1-.4-.3-.7-.6-1s-.7-.4-1.2-.4c-.6 0-1.1.2-1.5.7s-.6 1.1-.6 2.1c0 .8.2 1.4.5 1.8s.9.7 1.6.7c.6 0 1.1-.2 1.4-.7.2-.3.3-.6.4-1h1c-.1.7-.3 1.2-.7 1.7-.5.6-1.2.8-2.1.8-.7 0-1.4-.2-1.9-.7-.7-.6-1-1.5-1-2.8 0-1 .2-1.7.7-2.3.5-.7 1.3-1 2.2-1 .9-.1 1.5.2 2 .6zm4.3 3.1c.2 0 .3-.1.4-.2l.1-.3c0-.3-.1-.5-.3-.6s-.5-.2-.8-.2c-.4 0-.7.1-.9.3-.1.1-.2.3-.2.6h-.8c0-.6.2-1 .6-1.2.4-.2.8-.3 1.3-.3.6 0 1 .1 1.3.3.3.2.5.5.5 1v2.7c0 .1 0 .1.1.2 0 0 .1.1.2.1h.2v.5l-.3.1h-.3c-.3 0-.5-.1-.6-.3-.1-.1-.1-.2-.1-.4-.2.2-.4.4-.7.5-.3.2-.6.2-1 .2s-.8-.1-1.1-.4c-.3-.3-.4-.6-.4-1s.1-.8.4-1c.3-.2.6-.4 1.1-.4l1.3-.2zm-1.7 2.2c.2.1.4.2.6.2.3 0 .5-.1.8-.2.4-.2.7-.6.7-1v-.6c-.1.1-.2.1-.4.2-.2 0-.3.1-.4.1l-.5.1c-.3 0-.5.1-.6.2-.2.1-.4.4-.4.7 0 0 .1.1.2.3zm4.2-4h.8v.7c.2-.3.5-.5.7-.6s.5-.2.8-.2c.7 0 1.1.2 1.4.7.1.3.2.6.2 1.1v3h-.9v-3c0-.3 0-.5-.1-.7-.1-.3-.4-.4-.8-.4-.2 0-.3 0-.5.1s-.4.2-.6.4l-.3.5c0 .2-.1.4-.1.7v2.4h-.6v-4.7zm7.5 1.8c.2 0 .3-.1.4-.2l.1-.3c0-.3-.1-.5-.3-.6s-.5-.2-.8-.2c-.4 0-.7.1-.9.3-.1.1-.2.3-.2.6h-.8c0-.6.2-1 .6-1.2.4-.2.8-.3 1.3-.3.6 0 1 .1 1.3.3.3.2.5.5.5 1v2.7c0 .1 0 .1.1.2 0 0 .1.1.2.1h.2v.5l-.3.1h-.3c-.3 0-.5-.1-.6-.3v-.4c-.2.2-.4.4-.7.5-.3.2-.6.2-1 .2s-.8-.1-1.1-.4c-.3-.3-.4-.6-.4-1s.1-.8.4-1c.3-.2.6-.4 1.1-.4l1.2-.2zm-1.6 2.2c.2.1.4.2.6.2.3 0 .5-.1.8-.2.4-.2.7-.6.7-1v-.6c-.1.1-.2.1-.4.2-.2 0-.3.1-.4.1l-.5.1c-.3 0-.5.1-.6.2-.2.1-.4.4-.4.7-.1 0 0 .1.2.3zm6.7-3.9c.1.1.3.2.5.5v-2.4h.8v6.5h-.7v-.7c-.2.3-.4.5-.7.6s-.5.2-.9.2c-.5 0-1-.2-1.4-.7-.4-.4-.6-1-.6-1.8 0-.7.2-1.3.5-1.8s.8-.8 1.5-.8c.4.2.7.3 1 .4zm-1.8 3.5c.2.3.6.5 1 .5s.7-.2.9-.5c.2-.3.4-.8.4-1.4 0-.6-.1-1-.4-1.3-.2-.3-.5-.4-.9-.4s-.7.2-1 .5-.4.8-.4 1.3c.1.6.2 1 .4 1.3zm6.7-1.8c.2 0 .3-.1.4-.2l.1-.3c0-.3-.1-.5-.3-.6s-.5-.2-.8-.2c-.4 0-.7.1-.9.3-.1.1-.2.3-.2.6h-.8c0-.6.2-1 .6-1.2.4-.2.8-.3 1.3-.3.6 0 1 .1 1.3.3.3.2.5.5.5 1v2.7c0 .1 0 .1.1.2 0 0 .1.1.2.1h.2v.5l-.3.1h-.3c-.3 0-.5-.1-.6-.3v-.4c-.2.2-.4.4-.7.5-.3.2-.6.2-1 .2s-.8-.1-1.1-.4c-.3-.3-.4-.6-.4-1s.1-.8.4-1c.3-.2.6-.4 1.1-.4l1.2-.2zm-1.6 2.2c.2.1.4.2.6.2.3 0 .5-.1.8-.2.4-.2.7-.6.7-1v-.6c-.1.1-.2.1-.4.2-.2 0-.3.1-.4.1l-.5.1c-.3 0-.5.1-.6.2-.2.1-.4.4-.4.7-.1 0 0 .1.2.3zm-3.5 9.6c.4.6.6 1.3.6 2.2 0 1-.2 1.8-.7 2.4-.6.8-1.4 1.1-2.5 1.1-1 0-1.8-.3-2.3-1-.5-.6-.8-1.4-.8-2.4 0-.9.2-1.6.7-2.2.6-.8 1.4-1.2 2.5-1.2s1.9.4 2.5 1.1zm-.8 4.2c.3-.6.5-1.2.5-1.9 0-.8-.2-1.4-.6-1.8-.4-.5-.9-.7-1.6-.7-.7 0-1.2.2-1.6.7s-.6 1.1-.6 2c0 .7.2 1.3.5 1.8.4.5.9.7 1.8.7.7 0 1.3-.3 1.6-.8zm2.5-5.1h1l3.2 5.2v-5.2h.8v6.5h-1l-3.3-5.2v5.2h-.8v-6.5zm-5.8 14.7h1l3.2 5.2v-5.2h.8v6.5h-1l-3.3-5.2v5.2h-.8v-6.5zm6.5 0h2.8c.8 0 1.3.2 1.6.7.2.3.3.6.3.9 0 .4-.1.7-.3 1-.1.1-.3.3-.5.4.3.1.6.3.7.4.3.3.4.7.4 1.2 0 .4-.1.8-.4 1.1-.4.5-1 .8-1.9.8h-2.7v-6.5zm2.5 2.7c.4 0 .7-.1.9-.2.3-.2.5-.5.5-.9s-.2-.7-.5-.9c-.2-.1-.5-.1-.9-.1h-1.6v2h1.6zm.3 3c.5 0 .9-.2 1.2-.5.1-.2.2-.4.2-.7 0-.5-.2-.8-.6-1-.2-.1-.5-.1-.9-.1h-1.8v2.3h1.9zm-10.5 8.2h1l2.3 6.5h-1l-.7-1.9h-2.5l-.7 1.9h-.9l2.5-6.5zm1.4 3.8l-1-2.9-1 2.9h2zm2.6-3.8h.8v6.5h-.8v-6.5zm2.1.5h.8v1.3h.8v.6h-.8v3.1c0 .2.1.3.2.3h.6v.6c-.1 0-.2 0-.3.1h-.3c-.4 0-.6-.1-.8-.3-.1-.2-.2-.4-.2-.7v-3.1h-.6v-.6h.6v-1.3zm4.9 3.1c.2 0 .3-.1.4-.2l.1-.3c0-.3-.1-.5-.3-.6s-.5-.2-.8-.2c-.4 0-.7.1-.9.3-.1.1-.2.3-.2.6h-.7c0-.6.2-1 .6-1.2.4-.2.8-.3 1.3-.3.6 0 1 .1 1.3.3.3.2.5.5.5 1v2.7c0 .1 0 .1.1.2 0 0 .1.1.2.1h.2v.6l-.3.1h-.3c-.3 0-.5-.1-.6-.3-.1-.1-.1-.2-.1-.4-.2.2-.4.4-.7.5-.3.2-.6.2-1 .2s-.8-.1-1.1-.4c-.3-.3-.4-.6-.4-1s.1-.8.4-1c.3-.2.6-.4 1.1-.4l1.2-.3zm-1.7 2.2c.2.1.4.2.6.2.3 0 .5-.1.8-.2.4-.2.7-.6.7-1v-.6c-.1.1-.2.1-.4.2-.2 0-.3.1-.4.1l-.5.1c-.3 0-.5.1-.6.2-.2.1-.4.4-.4.7 0 0 .1.1.2.3zm-15.8 9.1h1l3.2 5.2v-5.2h.8v6.5h-1l-3.3-5.2v5.2h-.8v-6.5zm7 0l1.2 5.2 1.5-5.2h.9l1.5 5.3 1.2-5.3h1l-1.7 6.5h-.9l-1.5-5.4-1.5 5.4h-.9l-1.7-6.5h.9zm12.7 0v.8h-2.2v5.7h-.9v-5.7h-2.2v-.8h5.3zm-13.2 14.3h2.9c.6 0 1 .2 1.4.5.4.3.5.8.5 1.4 0 .5-.2.9-.5 1.3s-.8.6-1.4.6h-2v2.7h-.9v-6.5zm3.4.9c-.2-.1-.5-.1-.8-.1h-1.7v2.2h1.7c.4 0 .7-.1.9-.3s.4-.5.4-.9c.1-.5-.1-.8-.5-.9zm2.6-.9h4.7v.8h-3.8v2h3.5v.7h-3.5v2.2h3.9v.8h-4.8v-6.5zm6.2 0h.9v6.5h-.9v-6.5zm-27.8 14.4h2.8c.8 0 1.3.2 1.6.7.2.3.3.6.3.9 0 .4-.1.7-.3 1-.1.1-.3.3-.5.4.3.1.6.3.7.4.3.3.4.7.4 1.2 0 .4-.1.8-.4 1.1-.4.5-1 .8-1.9.8h-2.7v-6.5zm2.5 2.7c.4 0 .7-.1.9-.2.3-.2.5-.5.5-.9s-.2-.7-.5-.9c-.2-.1-.5-.1-.9-.1h-1.6v2h1.6zm.3 3c.5 0 .9-.2 1.2-.5.1-.2.2-.4.2-.7 0-.5-.2-.8-.6-1-.2-.1-.5-.1-.9-.1h-1.8v2.3h1.9zm7.8-5.2c.4.4.7.9.7 1.5h-.8c-.1-.4-.3-.7-.6-1s-.7-.4-1.2-.4c-.6 0-1.1.2-1.5.7s-.6 1.1-.6 2.1c0 .8.2 1.4.5 1.8s.9.7 1.6.7c.6 0 1.1-.2 1.4-.7.2-.3.3-.6.4-1h.9c-.1.7-.3 1.2-.7 1.7-.5.6-1.2.8-2.1.8-.7 0-1.4-.2-1.9-.7-.7-.6-1-1.5-1-2.8 0-1 .2-1.7.7-2.3.5-.7 1.3-1 2.2-1 1-.1 1.6.1 2 .6zm4.5-.5h4.5v.8h-3.6v2h3.2v.8h-3.2v2.9h-.9v-6.5zm5.9 0l1.2 5.2 1.5-5.2h.9l1.5 5.3 1.2-5.3h1l-1.7 6.5h-.9l-1.5-5.4-1.5 5.4h-.9l-1.7-6.5h.9zm-4.2 14.7h1l3.2 5.2v-5.2h.8v6.5h-1l-3.3-5.2v5.2h-.8v-6.5zm7.1 4.4c0 .4.1.7.2.9.3.4.8.6 1.5.6.3 0 .6 0 .9-.1.5-.2.8-.5.8-1 0-.4-.1-.6-.3-.8-.2-.1-.6-.3-1-.4l-.8-.2c-.6-.1-.9-.3-1.2-.4-.4-.3-.6-.7-.6-1.2 0-.6.2-1.1.6-1.4.4-.4.9-.6 1.7-.6.7 0 1.2.2 1.7.5s.7.8.7 1.6h-.8c0-.3-.1-.6-.3-.8-.3-.3-.7-.5-1.3-.5-.5 0-.8.1-1.1.3-.2.2-.3.5-.3.8 0 .3.1.5.4.7.2.1.5.2 1.1.4l.9.2c.4.1.8.2 1 .4.4.3.6.7.6 1.3 0 .7-.3 1.2-.8 1.5-.5.3-1.1.5-1.8.5-.8 0-1.4-.2-1.8-.6-.4-.4-.7-1-.7-1.7h.7zm-29.4 9.7h2.8c.8 0 1.3.2 1.6.7.2.3.3.6.3.9 0 .4-.1.7-.3 1-.1.1-.3.3-.5.4.3.1.6.3.7.4.3.3.4.7.4 1.2 0 .4-.1.8-.4 1.1-.4.5-1 .8-1.9.8h-2.7v-6.5zm2.4 2.7c.4 0 .7-.1.9-.2.3-.2.5-.5.5-.9s-.2-.7-.5-.9c-.2-.1-.5-.1-.9-.1h-1.6v2h1.6zm.3 3c.5 0 .9-.2 1.2-.5.1-.2.2-.4.2-.7 0-.5-.2-.8-.6-1-.2-.1-.5-.1-.9-.1h-1.8v2.3h1.9zm7.9-5.3c.4.4.7.9.7 1.5h-.9c-.1-.4-.3-.7-.6-1s-.7-.4-1.2-.4c-.6 0-1.1.2-1.5.7s-.6 1.1-.6 2.1c0 .8.2 1.4.5 1.8s.9.7 1.6.7c.6 0 1.1-.2 1.4-.7.2-.3.3-.6.4-1h.9c-.1.7-.3 1.2-.7 1.7-.5.6-1.2.8-2.1.8-.7 0-1.4-.2-1.9-.7-.7-.6-1-1.5-1-2.8 0-1 .2-1.7.7-2.3.5-.7 1.3-1 2.2-1 1 0 1.6.2 2.1.6zm8.9-.4v.8h-2.2v5.7h-.9v-5.7h-2.2v-.8h5.3zm.4 0h.8v.9h-.8v-.9zm0 1.7h.8v4.7h-.8v-4.7zm4.6.2c.1.1.3.2.5.5v-2.4h.8v6.5h-.8v-.7c-.2.3-.4.5-.7.6s-.5.2-.9.2c-.5 0-1-.2-1.4-.7-.4-.4-.6-1-.6-1.8 0-.7.2-1.3.5-1.8s.8-.8 1.5-.8c.5.1.8.2 1.1.4zm-1.8 3.5c.2.3.6.5 1 .5s.7-.2.9-.5c.2-.3.4-.8.4-1.4 0-.6-.1-1-.4-1.3-.2-.3-.5-.4-.9-.4s-.7.2-1 .5-.4.8-.4 1.3c.1.5.2 1 .4 1.3zm6.7-1.8c.2 0 .3-.1.4-.2l.1-.3c0-.3-.1-.5-.3-.6s-.5-.2-.8-.2c-.4 0-.7.1-.9.3-.1.1-.2.3-.2.6h-.7c0-.6.2-1 .6-1.2.4-.2.8-.3 1.3-.3.6 0 1 .1 1.3.3.3.2.5.5.5 1v2.7c0 .1 0 .1.1.2 0 0 .1.1.2.1h.2v.6l-.3.1h-.3c-.3 0-.5-.1-.6-.3-.1-.1-.1-.2-.1-.4-.2.2-.4.4-.7.5-.3.2-.6.2-1 .2s-.8-.1-1.1-.4c-.3-.3-.4-.6-.4-1s.1-.8.4-1c.3-.2.6-.4 1.1-.4l1.2-.3zm-1.6 2.1c.2.1.4.2.6.2.3 0 .5-.1.8-.2.4-.2.7-.6.7-1v-.7c-.1.1-.2.1-.4.2-.2 0-.3.1-.4.1l-.5.1c-.3 0-.5.1-.6.2-.2.1-.4.4-.4.7-.1.1 0 .3.2.4zm4.1-5.7h.8v6.5h-.8v-6.5zm-14.7 14.8h1l3.2 5.2v-5.2h.8v6.5h-1l-3.3-5.2v5.2h-.8v-6.5zm7 0l1.9 5.5 1.8-5.5h1l-2.4 6.5h-.9l-2.4-6.5h1zm10.2 0v.8h-2.2v5.7h-.9v-5.7h-2.2v-.8h5.3z"/><path class="st2" d="M43.1 12.4s17.5-7.1 54.5-3.1c0 0 33.9 4.3 52.3.1 0 0 20.4-3.8 36.8-.5 0 0 27.6 3.8 54.1.5 0 0 21.2-2.5 39-.1 0 0 16.6 2.3 32.2 0 0 0 28.5-2.8 46.2 2.7 0 0 6.1 1.6 4.2 4.1 0 0-1.5 3.3-12.3 3 0 0-21.2-.7-30.2-2 0 0-9-1.6-23.2.7 0 0-8.8 2.1-20.6-1 0 0-13.1-2.9-37.7.7 0 0-20.8 3.2-51.9-1.3 0 0-13.1-3-28.7-.3 0 0-22.3 5.4-56.5.2 0 0-17.3-2.7-41.8.2 0 0-12.9 2.4-16.4.1 0 .1-3.1-2.1 0-4zm11.6-2.8s10.3 3.2 4.8 6.8m8.6-8.2s7.2 2.9 4.1 7m9.4-7s5.7 3.1 1.3 6.8m11.1-6.1s5.4 5-1.2 6.4m13.2-5.2s4.5 3.7-1.2 6.5m13.1-5.7s6.7 3.8 0 7.1m14.3-6.8s5.3 4.2-1.3 7.3m13.9-8.2s6.1 2.6 4 7.1m8.2-9s10 2 7.6 6.4m12.1-7.1s8.1 4.5 1.3 7.4m14.9-5.6s6.2 4.5-1.3 7.4m15.7-6.4s7 3.4 2 8m14.4-7.9s7.9 3.7 2 7.9m10.7-8.7s9 2.7 4.4 7.3m11.6-8.6s7.3 3.1 2.7 7.4m8.9-7.7s7.7 3.4 1.8 7.5m14-6.4s5.7 5.8-2.2 7.9m16-7s4.6 4.9-1 8.1m14.5-8.5s3.9 3.5 0 6.9m-263.9 9.9s9.5-7.1 29.6-3.1c0 0 18.5 4.3 28.5.1 0 0 11.1-3.7 20-.5 0 0 15 3.7 29.4.5 0 0 11.5-2.5 21.2-.1 0 0 9 2.3 17.5 0 0 0 15.5-2.8 25.1 2.7 0 0 3.3 1.6 2.3 4.1 0 0-.8 3.3-6.7 3 0 0-11.5-.7-16.4-2 0 0-4.9-1.6-12.6.7 0 0-4.8 2.1-11.2-1 0 0-7.1-2.9-20.5.7 0 0-11.3 3.2-28.2-1.2 0 0-7.1-3-15.6-.3 0 0-12.1 5.4-30.7.2 0 0-9.4-2.7-22.7.2 0 0-7 2.4-8.9.1-.1-.1-1.8-2.3-.1-4.1zm6.3-2.8s5.6 3.2 2.6 6.7m4.7-8.1s3.9 2.9 2.2 7m5.2-7s3.1 3.1.7 6.7m6-6s2.9 5-.7 6.4m7.2-5.2s2.4 3.7-.6 6.5m7.1-5.7s3.7 3.8 0 7m7.8-6.8s2.9 4.2-.7 7.2m7.5-8.1s3.3 2.6 2.2 7.1m4.4-8.9s5.5 2 4.2 6.4m6.5-7.2s4.4 4.5.7 7.4m8.1-5.5s3.4 4.5-.7 7.4m8.6-6.4s3.8 3.4 1.1 7.9m7.8-7.8s4.3 3.7 1.1 7.9m5.8-8.7s4.9 2.7 2.4 7.3m6.3-8.6s4 3.1 1.5 7.3m4.8-7.6s4.2 3.3 1 7.5m7.6-6.5s3.1 5.8-1.2 7.9m8.7-6.9s2.5 4.9-.5 8.1m7.9-8.5s2.1 3.5 0 6.8m-143 10.2s8.3-7.1 25.9-3.1c0 0 16.1 4.3 24.9.1 0 0 9.7-3.7 17.5-.5 0 0 13.1 3.7 25.7.5 0 0 10.1-2.5 18.5-.1 0 0 7.9 2.3 15.3 0 0 0 13.5-2.8 22 2.7 0 0 2.9 1.6 2 4.1 0 0-.7 3.3-5.8 3 0 0-10.1-.7-14.4-2 0 0-4.3-1.6-11 .7 0 0-4.2 2.1-9.8-1 0 0-6.2-2.9-17.9.7 0 0-9.9 3.2-24.7-1.2 0 0-6.2-3-13.6-.3 0 0-10.6 5.4-26.8.2 0 0-8.2-2.7-19.9.2 0 0-6.1 2.4-7.8.1-.1-.1-1.6-2.3-.1-4.1zm5.5-2.8s4.9 3.2 2.3 6.7m4.1-8.1s3.4 2.9 2 7m4.4-7s2.7 3.1.6 6.7m5.3-6s2.5 5-.6 6.4m6.3-5.2s2.1 3.7-.6 6.5m6.3-5.7s3.2 3.8 0 7m6.7-6.8s2.5 4.2-.6 7.2m6.6-8.1s2.9 2.6 1.9 7.1m3.9-8.9s4.8 2 3.6 6.4m5.8-7.2s3.9 4.5.6 7.4m7.1-5.5s2.9 4.5-.6 7.4m7.4-6.5s3.3 3.4.9 7.9m6.9-7.7s3.7 3.7.9 7.9m5.2-8.7s4.3 2.7 2.1 7.3m5.5-8.6s3.5 3.1 1.3 7.3m4.2-7.6s3.6 3.3.8 7.5m6.7-6.5s2.7 5.8-1 7.9m7.5-6.9s2.2 4.9-.5 8.1m7-8.5s1.8 3.5 0 6.8m-125.6 10.2s6.7-7.1 21-3.1c0 0 13.1 4.3 20.1.1 0 0 7.8-3.7 14.1-.5 0 0 10.6 3.7 20.8.5 0 0 8.2-2.5 15-.1 0 0 6.4 2.3 12.4 0 0 0 10.9-2.8 17.8 2.7 0 0 2.4 1.6 1.6 4.1 0 0-.6 3.3-4.7 3 0 0-8.2-.7-11.6-2 0 0-3.5-1.6-8.9.7 0 0-3.4 2.1-7.9-1 0 0-5.1-2.9-14.5.7 0 0-8 3.2-20-1.2 0 0-5.1-3-11-.3 0 0-8.6 5.4-21.7.2 0 0-6.7-2.7-16.1.2 0 0-5 2.4-6.3.1-.1-.1-1.3-2.2-.1-4.1zm4.4-2.8s4 3.2 1.8 6.7m3.4-8s2.8 2.9 1.6 7m3.6-7s2.2 3.1.5 6.7m4.3-6.1s2.1 5-.5 6.4m5.1-5.2s1.7 3.7-.5 6.5m5.1-5.7s2.6 3.8 0 7m5.4-6.7s2 4.2-.5 7.2m5.4-8.1s2.3 2.6 1.5 7.1m3.2-9s3.9 2 2.9 6.4m4.6-7.1s3.1 4.5.5 7.4m5.8-5.6s2.4 4.5-.5 7.4m6-6.4s2.7 3.4.8 7.9m5.6-7.8s3 3.7.8 7.9m4-8.7s3.5 2.7 1.7 7.3m4.5-8.6s2.8 3.1 1 7.3m3.4-7.6s2.9 3.3.7 7.5m5.4-6.4s2.2 5.8-.8 7.9m6.1-7s1.8 4.9-.4 8.1m5.6-8.5s1.5 3.5 0 6.8m-101.6 10.2s5.8-7.1 18.2-3.1c0 0 11.3 4.3 17.4.1 0 0 6.8-3.7 12.2-.5 0 0 9.2 3.7 18 .5 0 0 7.1-2.5 13-.1 0 0 5.5 2.3 10.7 0 0 0 9.5-2.8 15.4 2.7 0 0 2 1.6 1.4 4.1 0 0-.5 3.3-4.1 3 0 0-7.1-.7-10.1-2 0 0-3-1.6-7.7.7 0 0-2.9 2.1-6.9-1 0 0-4.4-2.9-12.5.7 0 0-6.9 3.2-17.3-1.2 0 0-4.4-3-9.6-.3 0 0-7.4 5.4-18.8.2 0 0-5.8-2.7-13.9.2 0 0-4.3 2.4-5.5.1.1-.1-.9-2.3.1-4.1zm3.9-2.8s3.4 3.2 1.6 6.7m2.8-8.1s2.4 2.9 1.4 7m3.1-7s1.9 3.1.4 6.7m3.8-6s1.8 5-.4 6.4m4.3-5.2s1.5 3.7-.4 6.5m4.4-5.7s2.2 3.8 0 7m4.8-6.8s1.8 4.2-.4 7.2m4.6-8.1s2 2.6 1.3 7.1m2.7-8.9s3.3 2 2.5 6.4m4.1-7.2s2.7 4.5.4 7.4m5-5.5s2.1 4.5-.4 7.4m5.2-6.5s2.3 3.4.7 7.9m4.8-7.7s2.6 3.7.7 7.9m3.5-8.7s3 2.7 1.5 7.3m3.8-8.7s2.4 3.1.9 7.3m3-7.5s2.6 3.3.6 7.5m4.6-6.5s1.9 5.8-.7 7.9m5.3-6.9s1.5 4.9-.3 8.1m4.8-8.5s1.3 3.5 0 6.8m-88.2 10.2s5.2-7.1 16.1-3.1c0 0 10 4.3 15.5.1 0 0 6-3.7 10.9-.5 0 0 8.2 3.7 16 .5 0 0 6.3-2.5 11.5-.1 0 0 4.9 2.3 9.5 0 0 0 8.4-2.8 13.7 2.7 0 0 1.8 1.6 1.2 4.1 0 0-.5 3.3-3.6 3 0 0-6.3-.7-8.9-2 0 0-2.7-1.6-6.9.7 0 0-2.6 2.1-6.1-1 0 0-3.9-2.9-11.1.7 0 0-6.2 3.2-15.4-1.2 0 0-3.9-3-8.5-.3 0 0-6.6 5.4-16.7.2 0 0-5.1-2.7-12.4.2 0 0-3.8 2.4-4.9.1.1-.1-.8-2.3.1-4.1zm3.4-2.8s3 3.2 1.4 6.7m2.6-8.1s2.1 2.9 1.2 7m2.8-7s1.7 3.1.4 6.7m3.2-6s1.6 5-.4 6.4m4-5.2s1.3 3.7-.3 6.5m3.8-5.7s2 3.8 0 7m4.2-6.8s1.6 4.2-.4 7.2m4.2-8.1s1.8 2.6 1.2 7.1m2.4-8.9s3 2 2.3 6.4m3.5-7.2s2.4 4.5.4 7.4m4.4-5.5s1.8 4.5-.4 7.4m4.7-6.5s2.1 3.4.6 7.9m4.2-7.7s2.3 3.7.6 7.9m3.2-8.7s2.7 2.7 1.3 7.3m3.4-8.7s2.2 3.1.8 7.3m2.6-7.5s2.3 3.3.5 7.5m4.2-6.5s1.7 5.8-.6 7.9m4.7-6.9s1.4 4.9-.3 8.1m4.3-8.5s1.1 3.5 0 6.8m-79.4 39s3.8-7.1 11.8-3.1c0 0 7.4 4.3 11.3.1 0 0 4.4-3.7 8-.5 0 0 6 3.7 11.7.5 0 0 4.6-2.5 8.4-.1 0 0 3.6 2.3 7 0 0 0 6.2-2.8 10 2.7 0 0 1.3 1.6.9 4.1 0 0-.3 3.3-2.7 3 0 0-4.6-.7-6.5-2 0 0-1.9-1.6-5 .7 0 0-1.9 2.1-4.5-1 0 0-2.8-2.9-8.2.7 0 0-4.5 3.2-11.2-1.2 0 0-2.8-3-6.2-.3 0 0-4.8 5.4-12.2.2 0 0-3.7-2.7-9.1.2 0 0-2.8 2.4-3.6.1.1-.1-.6-2.3.1-4.1zm2.5-2.8s2.2 3.2 1 6.7m4.8-8.1s1.2 3.1.3 6.7m5-4.8s1 3.7-.3 6.5m6-5.5s1.1 4.2-.3 7.2m5.7-9.9s2.2 2 1.7 6.4m6-5.3s1.3 4.5-.3 7.4m7-6.3s1.7 3.7.4 7.9m5.8-10.1s1.6 3.1.6 7.3m5.4-6.5s1.2 5.8-.5 7.9m6.4-7.3s.8 3.5 0 6.8m-57.3-17.4s3.8-7.1 11.8-3.1c0 0 7.4 4.3 11.3.1 0 0 4.4-3.7 8-.5 0 0 6 3.7 11.7.5 0 0 4.6-2.5 8.4-.1 0 0 3.6 2.3 7 0 0 0 6.2-2.8 10 2.7 0 0 1.3 1.6.9 4.1 0 0-.3 3.3-2.7 3 0 0-4.6-.7-6.5-2 0 0-1.9-1.6-5 .7 0 0-1.9 2.1-4.5-1 0 0-2.8-2.9-8.2.7 0 0-4.5 3.2-11.2-1.2 0 0-2.8-3-6.2-.3 0 0-4.8 5.4-12.2.2 0 0-3.7-2.7-9.1.2 0 0-2.8 2.4-3.6.1.1-.1-.5-2.3.1-4.1zm2.6-2.8s2.2 3.2 1 6.7m4.8-8.1s1.2 3.1.3 6.7m5-4.8s1 3.7-.3 6.5m5.9-5.5s1.1 4.2-.3 7.2m5.7-9.9s2.2 2 1.7 6.4m6.1-5.3s1.3 4.5-.3 7.4m7-6.3s1.7 3.7.4 7.9m5.8-10s1.6 3.1.6 7.3m5.3-6.5s1.2 5.8-.5 7.9m6.4-7.4s.8 3.5 0 6.8m-57.2 23.4s3.8-7.1 11.8-3.1c0 0 7.4 4.3 11.3.1 0 0 4.4-3.7 8-.5 0 0 6 3.7 11.7.5 0 0 4.6-2.5 8.4-.1 0 0 3.6 2.3 7 0 0 0 6.2-2.8 10 2.7 0 0 1.3 1.6.9 4.1 0 0-.3 3.3-2.7 3 0 0-4.6-.7-6.5-2 0 0-1.9-1.6-5 .7 0 0-1.9 2.1-4.5-1 0 0-2.8-2.9-8.2.7 0 0-4.5 3.2-11.2-1.2 0 0-2.8-3-6.2-.3 0 0-4.8 5.4-12.2.2 0 0-3.7-2.7-9.1.2 0 0-2.8 2.4-3.6.1.1-.1-.5-2.3.1-4.1zm2.6-2.8s2.2 3.2 1 6.7m4.8-8.1s1.2 3.1.3 6.7m5-4.8s1 3.7-.3 6.5m5.9-5.5s1.1 4.2-.3 7.2m5.7-9.9s2.2 2 1.7 6.4m6.1-5.3s1.3 4.5-.3 7.4m7-6.3s1.7 3.7.4 7.9m5.8-10.1s1.6 3.1.6 7.3m5.3-6.5s1.2 5.8-.5 7.9m6.4-7.3s.8 3.5 0 6.8m-56 10.2s3.4-7.1 10.7-3.1c0 0 6.7 4.3 10.3.1 0 0 4-3.7 7.2-.5 0 0 5.4 3.7 10.6.5 0 0 4.2-2.5 7.7-.1 0 0 3.3 2.3 6.3 0 0 0 5.6-2.8 9.1 2.7 0 0 1.2 1.6.8 4.1 0 0-.3 3.3-2.4 3 0 0-4.2-.7-5.9-2 0 0-1.8-1.6-4.6.7 0 0-1.7 2.1-4-1 0 0-2.6-2.9-7.4.7 0 0-4.1 3.2-10.2-1.2 0 0-2.6-3-5.6-.3 0 0-4.4 5.4-11.1.2 0 0-3.4-2.7-8.2.2 0 0-2.5 2.4-3.2.1-.1-.1-.7-2.3-.1-4.1zm2.3-2.8s2 3.2.9 6.7m4.4-8.1s1.1 3.1.3 6.7m4.5-4.8s.9 3.7-.2 6.5m5.3-5.5s1 4.2-.3 7.2m5.2-9.9s2 2 1.5 6.4m5.6-5.3s1.2 4.5-.3 7.4m6.3-6.3s1.5 3.7.4 7.9m5.3-10.1s1.4 3.1.5 7.3m4.9-6.5s1.1 5.8-.4 7.9m5.7-7.3s.8 3.5 0 6.8m-50.8 10.2s3.1-7.1 9.7-3.1c0 0 6.1 4.3 9.3.1 0 0 3.6-3.7 6.6-.5 0 0 4.9 3.7 9.7.5 0 0 3.8-2.5 7-.1 0 0 3 2.3 5.7 0 0 0 5.1-2.8 8.2 2.7 0 0 1.1 1.6.7 4.1 0 0-.3 3.3-2.2 3 0 0-3.8-.7-5.4-2 0 0-1.6-1.6-4.1.7 0 0-1.6 2.1-3.7-1 0 0-2.3-2.9-6.7.7 0 0-3.7 3.2-9.3-1.2 0 0-2.3-3-5.1-.3 0 0-4 5.4-10.1.2 0 0-3.1-2.7-7.5.2 0 0-2.3 2.4-2.9.1.1-.1-.4-2.3.1-4.1zm2.1-2.8s1.8 3.2.9 6.7m3.9-8.1s1 3.1.2 6.7m4.1-4.8s.8 3.7-.2 6.5m4.9-5.5s.9 4.2-.2 7.2m4.6-9.9s1.8 2 1.4 6.4m5-5.3s1.1 4.5-.2 7.4m5.8-6.3s1.4 3.7.4 7.9m4.7-10.1s1.3 3.1.5 7.3m4.4-6.5s1 5.8-.4 7.9m5.2-7.3s.7 3.5 0 6.8m-47.9 10.2s2.9-7.1 9.1-3.1c0 0 5.7 4.3 8.7.1 0 0 3.4-3.7 6.1-.5 0 0 4.6 3.7 9 .5 0 0 3.5-2.5 6.5-.1 0 0 2.8 2.3 5.4 0 0 0 4.7-2.8 7.7 2.7 0 0 1 1.6.7 4.1 0 0-.3 3.3-2 3 0 0-3.5-.7-5-2 0 0-1.5-1.6-3.9.7 0 0-1.5 2.1-3.4-1 0 0-2.2-2.9-6.3.7 0 0-3.5 3.2-8.7-1.2 0 0-2.2-3-4.8-.3 0 0-3.7 5.4-9.4.2 0 0-2.9-2.7-7 .2 0 0-2.2 2.4-2.7.1 0-.1-.5-2.3 0-4.1zm1.9-2.8s1.7 3.2.8 6.7m3.7-8.1s.9 3.1.2 6.7m3.9-4.8s.7 3.7-.2 6.5m4.5-5.5s.9 4.2-.2 7.2m4.4-9.9s1.7 2 1.3 6.4m4.7-5.3s1 4.5-.2 7.4m5.3-6.3s1.3 3.7.3 7.9m4.5-10.1s1.2 3.1.4 7.3m4.2-6.5s1 5.8-.4 7.9m4.9-7.3s.6 3.5 0 6.8m-44.3 10.2s2.6-7.1 8-3.1c0 0 5 4.3 7.7.1 0 0 3-3.7 5.4-.5 0 0 4.1 3.7 8 .5 0 0 3.1-2.5 5.7-.1 0 0 2.5 2.3 4.7 0 0 0 4.2-2.8 6.8 2.7 0 0 .9 1.6.6 4.1 0 0-.2 3.3-1.8 3 0 0-3.1-.7-4.5-2 0 0-1.3-1.6-3.4.7 0 0-1.3 2.1-3-1 0 0-1.9-2.9-5.5.7 0 0-3.1 3.2-7.6-1.2 0 0-1.9-3-4.2-.3 0 0-3.3 5.4-8.3.2 0 0-2.5-2.7-6.2.2 0 0-1.9 2.4-2.4.1 0-.1-.5-2.3 0-4.1zm1.7-2.8s1.5 3.2.7 6.7m3.2-8.1s.8 3.1.2 6.7m3.4-4.8s.7 3.7-.2 6.5m4.1-5.5s.8 4.2-.2 7.2m3.8-9.9s1.5 2 1.1 6.4m4.2-5.3s.9 4.5-.2 7.4m4.8-6.3s1.2 3.7.3 7.9m3.9-10.1s1.1 3.1.4 7.3m3.6-6.5s.8 5.8-.3 7.9m4.4-7.3s.6 3.5 0 6.8m-40.2 10.2s2.4-7.1 7.3-3.1c0 0 4.6 4.3 7 .1 0 0 2.7-3.7 4.9-.5 0 0 3.7 3.7 7.3.5 0 0 2.9-2.5 5.2-.1 0 0 2.2 2.3 4.3 0 0 0 3.8-2.8 6.2 2.7 0 0 .8 1.6.6 4.1 0 0-.2 3.3-1.6 3 0 0-2.9-.7-4.1-2 0 0-1.2-1.6-3.1.7 0 0-1.2 2.1-2.8-1 0 0-1.8-2.9-5.1.7 0 0-2.8 3.2-7-1.2 0 0-1.8-3-3.9-.3 0 0-3 5.4-7.6.2 0 0-2.3-2.7-5.6.2 0 0-1.7 2.4-2.2.1.2-.1-.2-2.3.2-4.1zm1.6-2.8s1.4 3.2.6 6.7m3-8.1s.8 3.1.2 6.7m3.1-4.8s.6 3.7-.2 6.5m3.7-5.5s.7 4.2-.2 7.2m3.6-10s1.4 2 1 6.4m3.8-5.2s.8 4.5-.2 7.4m4.3-6.3s1.1 3.7.3 7.9m3.6-10.1s1 3.1.4 7.3m3.3-6.5s.8 5.8-.3 7.9m3.9-7.3s.5 3.5 0 6.8m-34.1-119.4s4.4-7.1 13.6-3.1c0 0 8.4 4.3 13 .1 0 0 5.1-3.7 9.1-.5 0 0 6.9 3.7 13.4.5 0 0 5.3-2.5 9.7-.1 0 0 4.1 2.3 8 0 0 0 7.1-2.8 11.5 2.7 0 0 1.5 1.6 1 4.1 0 0-.4 3.3-3 3 0 0-5.3-.7-7.5-2 0 0-2.2-1.6-5.8.7 0 0-2.2 2.1-5.1-1 0 0-3.3-2.9-9.4.7 0 0-5.2 3.2-12.9-1.2 0 0-3.3-3-7.1-.3 0 0-5.6 5.4-14 .2 0 0-4.3-2.7-10.4.2 0 0-3.2 2.4-4.1.1 0-.1-.8-2.3 0-4.1zm2.9-2.8s2.6 3.2 1.2 6.7m5.5-8.1s1.4 3.1.3 6.7m5.7-4.8s1.1 3.7-.3 6.5m6.9-5.5s1.3 4.2-.3 7.2m6.4-9.9s2.5 2 1.9 6.4m7-5.3s1.5 4.5-.3 7.4m8-6.3s2 3.7.5 7.9m6.6-10.1s1.8 3.1.7 7.3m6.1-6.5s1.4 5.8-.5 7.9m7.3-7.3s1 3.5 0 6.8"/><path class="st1" d="M38.8 221.9h354"/><path class="st0" d="M148.1 234.4h3.9c.8 0 1.4.2 1.8.6s.7 1 .7 1.8c0 .7-.2 1.3-.6 1.8-.4.5-1.1.7-1.9.7h-2.7v3.6h-1.2v-8.5zm4.5 1.2c-.3-.1-.6-.2-1.1-.2h-2.3v3h2.3c.5 0 .9-.1 1.3-.3s.5-.6.5-1.2-.3-1.1-.7-1.3zm7.1 1.3c.4.2.7.5.9.8.2.3.3.7.4 1.1.1.3.1.8.1 1.4h-4.6c0 .6.2 1.2.4 1.5.3.4.7.6 1.3.6.5 0 1-.2 1.3-.5.2-.2.3-.5.4-.7h1c0 .2-.1.5-.3.8s-.3.5-.5.7c-.3.3-.7.5-1.2.6-.3.1-.5.1-.9.1-.8 0-1.4-.3-2-.9-.5-.6-.8-1.4-.8-2.4s.3-1.8.8-2.5c.5-.6 1.3-.9 2.1-.9.7 0 1.2.1 1.6.3zm.4 2.5c0-.5-.1-.8-.3-1.1-.3-.5-.8-.8-1.4-.8-.5 0-.9.2-1.2.5s-.5.8-.5 1.3h3.4zm2.4-2.6h1v1.1c.1-.2.3-.5.6-.8s.7-.5 1.1-.5h.3v1.1h-.4c-.5 0-.9.2-1.2.5s-.4.7-.4 1.2v3.6h-1.1v-6.2zm8.1.3c.4.3.7.9.8 1.8h-1c-.1-.4-.2-.7-.4-1s-.6-.4-1.1-.4c-.7 0-1.2.3-1.4 1-.2.4-.3 1-.3 1.6 0 .6.1 1.2.4 1.6.3.4.7.6 1.3.6.4 0 .8-.1 1-.4s.4-.6.5-1.1h1c-.1.8-.4 1.4-.9 1.8s-1.1.6-1.8.6c-.8 0-1.5-.3-2-.9s-.7-1.3-.7-2.2c0-1.1.3-2 .8-2.6s1.2-.9 2-.9 1.4.1 1.8.5zm5.8-.2c.4.2.7.5.9.8.2.3.3.7.4 1.1.1.3.1.8.1 1.4h-4.6c0 .6.2 1.2.4 1.5.3.4.7.6 1.3.6.5 0 1-.2 1.3-.5.2-.2.3-.5.4-.7h1c0 .2-.1.5-.3.8s-.3.5-.5.7c-.3.3-.7.5-1.2.6-.3.1-.5.1-.9.1-.8 0-1.4-.3-2-.9-.5-.6-.8-1.4-.8-2.4s.3-1.8.8-2.5c.5-.6 1.3-.9 2.1-.9.7 0 1.1.1 1.6.3zm.3 2.5c0-.5-.1-.8-.3-1.1-.3-.5-.8-.8-1.4-.8-.5 0-.9.2-1.2.5s-.5.8-.5 1.3h3.4zm2.4-2.6h1v.9c.3-.4.6-.6.9-.8s.7-.2 1.1-.2c.9 0 1.5.3 1.8.9.2.3.3.8.3 1.5v4h-1.1v-4c0-.4-.1-.7-.2-.9-.2-.4-.5-.6-1-.6-.2 0-.5 0-.6.1-.3.1-.5.3-.8.5-.2.2-.3.4-.3.6s-.1.5-.1.9v3.3h-1.1v-6.2zm6.9-1.8h1.1v1.8h1v.9h-1v4.1c0 .2.1.4.2.4s.2.1.4.1h.4v.8c-.1 0-.2.1-.4.1h-.4c-.5 0-.8-.1-1-.4s-.3-.6-.3-1v-4.2h-.8v-.9h.8v-1.7z"/></svg>